%TF.GenerationSoftware,KiCad,Pcbnew,(5.1.9)-1*%
%TF.CreationDate,2021-03-20T17:22:00+11:00*%
%TF.ProjectId,GBC_motherboard,4742435f-6d6f-4746-9865-72626f617264,rev?*%
%TF.SameCoordinates,Original*%
%TF.FileFunction,Legend,Bot*%
%TF.FilePolarity,Positive*%
%FSLAX46Y46*%
G04 Gerber Fmt 4.6, Leading zero omitted, Abs format (unit mm)*
G04 Created by KiCad (PCBNEW (5.1.9)-1) date 2021-03-20 17:22:00*
%MOMM*%
%LPD*%
G01*
G04 APERTURE LIST*
%ADD10C,0.120000*%
%ADD11C,0.090000*%
%ADD12C,0.150000*%
%ADD13C,0.010000*%
%ADD14C,0.065000*%
G04 APERTURE END LIST*
D10*
X113187691Y-132524500D02*
G75*
G03*
X113187691Y-132524500I-1694391J0D01*
G01*
X140365691Y-120650000D02*
G75*
G03*
X140365691Y-120650000I-1694391J0D01*
G01*
X178465691Y-127444500D02*
G75*
G03*
X178465691Y-127444500I-1694391J0D01*
G01*
D11*
X114911157Y-155090928D02*
X114939728Y-155176642D01*
X114939728Y-155319500D01*
X114911157Y-155376642D01*
X114882585Y-155405214D01*
X114825442Y-155433785D01*
X114768300Y-155433785D01*
X114711157Y-155405214D01*
X114682585Y-155376642D01*
X114654014Y-155319500D01*
X114625442Y-155205214D01*
X114596871Y-155148071D01*
X114568300Y-155119500D01*
X114511157Y-155090928D01*
X114454014Y-155090928D01*
X114396871Y-155119500D01*
X114368300Y-155148071D01*
X114339728Y-155205214D01*
X114339728Y-155348071D01*
X114368300Y-155433785D01*
X114339728Y-155605214D02*
X114339728Y-155948071D01*
X114939728Y-155776642D02*
X114339728Y-155776642D01*
X114939728Y-156490928D02*
X114654014Y-156290928D01*
X114939728Y-156148071D02*
X114339728Y-156148071D01*
X114339728Y-156376642D01*
X114368300Y-156433785D01*
X114396871Y-156462357D01*
X114454014Y-156490928D01*
X114539728Y-156490928D01*
X114596871Y-156462357D01*
X114625442Y-156433785D01*
X114654014Y-156376642D01*
X114654014Y-156148071D01*
X114339728Y-156662357D02*
X114339728Y-157005214D01*
X114939728Y-156833785D02*
X114339728Y-156833785D01*
X114911157Y-152536642D02*
X114939728Y-152622357D01*
X114939728Y-152765214D01*
X114911157Y-152822357D01*
X114882585Y-152850928D01*
X114825442Y-152879500D01*
X114768300Y-152879500D01*
X114711157Y-152850928D01*
X114682585Y-152822357D01*
X114654014Y-152765214D01*
X114625442Y-152650928D01*
X114596871Y-152593785D01*
X114568300Y-152565214D01*
X114511157Y-152536642D01*
X114454014Y-152536642D01*
X114396871Y-152565214D01*
X114368300Y-152593785D01*
X114339728Y-152650928D01*
X114339728Y-152793785D01*
X114368300Y-152879500D01*
X114939728Y-153422357D02*
X114939728Y-153136642D01*
X114339728Y-153136642D01*
X114882585Y-153965214D02*
X114911157Y-153936642D01*
X114939728Y-153850928D01*
X114939728Y-153793785D01*
X114911157Y-153708071D01*
X114854014Y-153650928D01*
X114796871Y-153622357D01*
X114682585Y-153593785D01*
X114596871Y-153593785D01*
X114482585Y-153622357D01*
X114425442Y-153650928D01*
X114368300Y-153708071D01*
X114339728Y-153793785D01*
X114339728Y-153850928D01*
X114368300Y-153936642D01*
X114396871Y-153965214D01*
X114339728Y-154136642D02*
X114339728Y-154479500D01*
X114939728Y-154308071D02*
X114339728Y-154308071D01*
D12*
X115120680Y-151249023D02*
X114644490Y-150915690D01*
X115120680Y-150677595D02*
X114120680Y-150677595D01*
X114120680Y-151058547D01*
X114168300Y-151153785D01*
X114215919Y-151201404D01*
X114311157Y-151249023D01*
X114454014Y-151249023D01*
X114549252Y-151201404D01*
X114596871Y-151153785D01*
X114644490Y-151058547D01*
X114644490Y-150677595D01*
X115120680Y-148709023D02*
X115120680Y-148232833D01*
X114120680Y-148232833D01*
X115120680Y-145597595D02*
X114120680Y-145597595D01*
X114120680Y-145835690D01*
X114168300Y-145978547D01*
X114263538Y-146073785D01*
X114358776Y-146121404D01*
X114549252Y-146169023D01*
X114692109Y-146169023D01*
X114882585Y-146121404D01*
X114977823Y-146073785D01*
X115073061Y-145978547D01*
X115120680Y-145835690D01*
X115120680Y-145597595D01*
X114120680Y-142779785D02*
X114930204Y-142779785D01*
X115025442Y-142827404D01*
X115073061Y-142875023D01*
X115120680Y-142970261D01*
X115120680Y-143160738D01*
X115073061Y-143255976D01*
X115025442Y-143303595D01*
X114930204Y-143351214D01*
X114120680Y-143351214D01*
X114596871Y-140596928D02*
X114644490Y-140739785D01*
X114692109Y-140787404D01*
X114787347Y-140835023D01*
X114930204Y-140835023D01*
X115025442Y-140787404D01*
X115073061Y-140739785D01*
X115120680Y-140644547D01*
X115120680Y-140263595D01*
X114120680Y-140263595D01*
X114120680Y-140596928D01*
X114168300Y-140692166D01*
X114215919Y-140739785D01*
X114311157Y-140787404D01*
X114406395Y-140787404D01*
X114501633Y-140739785D01*
X114549252Y-140692166D01*
X114596871Y-140596928D01*
X114596871Y-140263595D01*
X114834966Y-137747404D02*
X114834966Y-138223595D01*
X115120680Y-137652166D02*
X114120680Y-137985500D01*
X115120680Y-138318833D01*
X114168300Y-135707404D02*
X114120680Y-135612166D01*
X114120680Y-135469309D01*
X114168300Y-135326452D01*
X114263538Y-135231214D01*
X114358776Y-135183595D01*
X114549252Y-135135976D01*
X114692109Y-135135976D01*
X114882585Y-135183595D01*
X114977823Y-135231214D01*
X115073061Y-135326452D01*
X115120680Y-135469309D01*
X115120680Y-135564547D01*
X115073061Y-135707404D01*
X115025442Y-135755023D01*
X114692109Y-135755023D01*
X114692109Y-135564547D01*
D10*
%TO.C,U1*%
X109525000Y-67300000D02*
X109525000Y-59700000D01*
X109525000Y-67300000D02*
X114675000Y-67300000D01*
X109525000Y-59700000D02*
X114675000Y-59700000D01*
X114675000Y-67300000D02*
X114675000Y-59700000D01*
%TO.C,U2*%
X175287000Y-69194000D02*
X174787000Y-69194000D01*
X175287000Y-63394000D02*
X174787000Y-63394000D01*
X175287000Y-64044000D02*
X174787000Y-64044000D01*
X175287000Y-68544000D02*
X174787000Y-68544000D01*
X175287000Y-67044000D02*
X174787000Y-67044000D01*
X175287000Y-65544000D02*
X174787000Y-65544000D01*
X175087000Y-60294000D02*
X171587000Y-60294000D01*
X175087000Y-66294000D02*
X175087000Y-60294000D01*
X171587000Y-66294000D02*
X171587000Y-60294000D01*
X175087000Y-72444000D02*
X173787000Y-72444000D01*
X175087000Y-66294000D02*
X175087000Y-72444000D01*
X171587000Y-72444000D02*
X173787000Y-72444000D01*
X171587000Y-66294000D02*
X171587000Y-72444000D01*
D13*
%TO.C,G2*%
G36*
X133629400Y-131546600D02*
G01*
X133619771Y-131762500D01*
X133619440Y-131898392D01*
X133644212Y-131960987D01*
X133708408Y-131978013D01*
X133731288Y-131978400D01*
X133805632Y-131989489D01*
X133844700Y-132040266D01*
X133863363Y-132156994D01*
X133867917Y-132219699D01*
X133884569Y-132369511D01*
X133918660Y-132445414D01*
X133984113Y-132475043D01*
X133997700Y-132477233D01*
X134066606Y-132499179D01*
X134100596Y-132557724D01*
X134111472Y-132680400D01*
X134112000Y-132743933D01*
X134116255Y-132893358D01*
X134137856Y-132967413D01*
X134190064Y-132992246D01*
X134239000Y-132994400D01*
X134338589Y-133018212D01*
X134366000Y-133096000D01*
X134401922Y-133180902D01*
X134467600Y-133197600D01*
X134528541Y-133210972D01*
X134558934Y-133267734D01*
X134568766Y-133392850D01*
X134569200Y-133451600D01*
X134573318Y-133602346D01*
X134594332Y-133677550D01*
X134645232Y-133703193D01*
X134696200Y-133705600D01*
X134796491Y-133730077D01*
X134823200Y-133803666D01*
X134866033Y-133891737D01*
X134937500Y-133917966D01*
X135040200Y-133975815D01*
X135068034Y-134048500D01*
X135113202Y-134140065D01*
X135207734Y-134162800D01*
X135306088Y-134188623D01*
X135331200Y-134261479D01*
X135351085Y-134326885D01*
X135427332Y-134361419D01*
X135547100Y-134375779D01*
X135688602Y-134395527D01*
X135757058Y-134437970D01*
X135778824Y-134502576D01*
X135837505Y-134603111D01*
X135905824Y-134629576D01*
X136006359Y-134688256D01*
X136032824Y-134756576D01*
X136091505Y-134857111D01*
X136159824Y-134883576D01*
X136259924Y-134942012D01*
X136287414Y-135015074D01*
X136331043Y-135105646D01*
X136389014Y-135116674D01*
X136460112Y-135141944D01*
X136490029Y-135239753D01*
X136508033Y-135320808D01*
X136555978Y-135364078D01*
X136661080Y-135384409D01*
X136769429Y-135392153D01*
X136923262Y-135405216D01*
X136999093Y-135429411D01*
X137020510Y-135477076D01*
X137017107Y-135521700D01*
X137024305Y-135607177D01*
X137097272Y-135635017D01*
X137131407Y-135636000D01*
X137229692Y-135655810D01*
X137260800Y-135734703D01*
X137261600Y-135763000D01*
X137282582Y-135859673D01*
X137365196Y-135889463D01*
X137388600Y-135890000D01*
X137485274Y-135910981D01*
X137515064Y-135993595D01*
X137515600Y-136017000D01*
X137525075Y-136095369D01*
X137571649Y-136132499D01*
X137682542Y-136143514D01*
X137744200Y-136144000D01*
X137887057Y-136150647D01*
X137954610Y-136178251D01*
X137972713Y-136238301D01*
X137972800Y-136245600D01*
X137986173Y-136306540D01*
X138042935Y-136336933D01*
X138168051Y-136346765D01*
X138226800Y-136347200D01*
X138377547Y-136351317D01*
X138452751Y-136372331D01*
X138478394Y-136423231D01*
X138480800Y-136474200D01*
X138504613Y-136573788D01*
X138582400Y-136601200D01*
X138662071Y-136630965D01*
X138684000Y-136728200D01*
X138704982Y-136824873D01*
X138787596Y-136854663D01*
X138811000Y-136855200D01*
X138877351Y-136860429D01*
X138915325Y-136890875D01*
X138932829Y-136968679D01*
X138937769Y-137115978D01*
X138938000Y-137210800D01*
X138936133Y-137396581D01*
X138925259Y-137502908D01*
X138897472Y-137551918D01*
X138844865Y-137565752D01*
X138811000Y-137566400D01*
X138750881Y-137570040D01*
X138713553Y-137593996D01*
X138693585Y-137657818D01*
X138685546Y-137781057D01*
X138684007Y-137983265D01*
X138684000Y-138023600D01*
X138682303Y-138240820D01*
X138674345Y-138375798D01*
X138655830Y-138447869D01*
X138622460Y-138476372D01*
X138582400Y-138480800D01*
X138540236Y-138486583D01*
X138511687Y-138514937D01*
X138494111Y-138582365D01*
X138484868Y-138705373D01*
X138481317Y-138900465D01*
X138480800Y-139115800D01*
X138480800Y-139750800D01*
X138353800Y-139750800D01*
X138278427Y-139759035D01*
X138240825Y-139801062D01*
X138228004Y-139902863D01*
X138226800Y-140004800D01*
X138226800Y-140258800D01*
X137972800Y-140258800D01*
X137822054Y-140254682D01*
X137746850Y-140233668D01*
X137721207Y-140182768D01*
X137718800Y-140131800D01*
X137694988Y-140032211D01*
X137617200Y-140004800D01*
X137537530Y-139975034D01*
X137515600Y-139877800D01*
X137507365Y-139802426D01*
X137465338Y-139764824D01*
X137363537Y-139752003D01*
X137261600Y-139750800D01*
X137110854Y-139746682D01*
X137035650Y-139725668D01*
X137010007Y-139674768D01*
X137007600Y-139623800D01*
X136986619Y-139527126D01*
X136904005Y-139497336D01*
X136880600Y-139496800D01*
X136781012Y-139472987D01*
X136753600Y-139395200D01*
X136723835Y-139315529D01*
X136626600Y-139293600D01*
X136527802Y-139270544D01*
X136499604Y-139188583D01*
X136499600Y-139187244D01*
X136457247Y-139086677D01*
X136400876Y-139055071D01*
X136314943Y-138984617D01*
X136286576Y-138894726D01*
X136268251Y-138813233D01*
X136219145Y-138773823D01*
X136110733Y-138761662D01*
X136029700Y-138761145D01*
X135884133Y-138757749D01*
X135813291Y-138735289D01*
X135790344Y-138677621D01*
X135788400Y-138615938D01*
X135777984Y-138514584D01*
X135728231Y-138489195D01*
X135661400Y-138501660D01*
X135567967Y-138511470D01*
X135536595Y-138457435D01*
X135534400Y-138405567D01*
X135510970Y-138305493D01*
X135432800Y-138277600D01*
X135347898Y-138241678D01*
X135331200Y-138176000D01*
X135317828Y-138115059D01*
X135261066Y-138084666D01*
X135135950Y-138074834D01*
X135077200Y-138074400D01*
X134926454Y-138070282D01*
X134851250Y-138049268D01*
X134825607Y-137998368D01*
X134823200Y-137947400D01*
X134802219Y-137850726D01*
X134719605Y-137820936D01*
X134696200Y-137820400D01*
X134599527Y-137799418D01*
X134569737Y-137716804D01*
X134569200Y-137693400D01*
X134545388Y-137593811D01*
X134467600Y-137566400D01*
X134387930Y-137536634D01*
X134366000Y-137439400D01*
X134345019Y-137342726D01*
X134262405Y-137312936D01*
X134239000Y-137312400D01*
X134138868Y-137288071D01*
X134112000Y-137213583D01*
X134094643Y-137151343D01*
X134026239Y-137117365D01*
X133882296Y-137100047D01*
X133870700Y-137099283D01*
X133720889Y-137082631D01*
X133644986Y-137048540D01*
X133615357Y-136983087D01*
X133613167Y-136969500D01*
X133567999Y-136877934D01*
X133473467Y-136855200D01*
X133378153Y-136832367D01*
X133350155Y-136745943D01*
X133350000Y-136734124D01*
X133311556Y-136622347D01*
X133246942Y-136586099D01*
X133167301Y-136547296D01*
X133151358Y-136516674D01*
X133144801Y-136399681D01*
X133065303Y-136350410D01*
X133019800Y-136347200D01*
X132920212Y-136323387D01*
X132892800Y-136245600D01*
X132877843Y-136182108D01*
X132815735Y-136152084D01*
X132680623Y-136144038D01*
X132664200Y-136144000D01*
X132521344Y-136150647D01*
X132453791Y-136178251D01*
X132435688Y-136238301D01*
X132435600Y-136245600D01*
X132399516Y-136330670D01*
X132335229Y-136347200D01*
X132298321Y-136352362D01*
X132271390Y-136377364D01*
X132252518Y-136436473D01*
X132239789Y-136543960D01*
X132231286Y-136714092D01*
X132225091Y-136961140D01*
X132220929Y-137198100D01*
X132215406Y-137509914D01*
X132209189Y-137734744D01*
X132200118Y-137887195D01*
X132186034Y-137981873D01*
X132164776Y-138033383D01*
X132134185Y-138056329D01*
X132092700Y-138065233D01*
X132050481Y-138074123D01*
X132020195Y-138096754D01*
X131999860Y-138147882D01*
X131987496Y-138242261D01*
X131981119Y-138394646D01*
X131978748Y-138619792D01*
X131978400Y-138916133D01*
X131978400Y-139750800D01*
X131724400Y-139750800D01*
X131724400Y-140617593D01*
X131724731Y-140932560D01*
X131726939Y-141159866D01*
X131732852Y-141313448D01*
X131744295Y-141407246D01*
X131763096Y-141455197D01*
X131791079Y-141471240D01*
X131830072Y-141469314D01*
X131835890Y-141468493D01*
X131937974Y-141489004D01*
X131975590Y-141554200D01*
X132018467Y-141623023D01*
X132114930Y-141652099D01*
X132207000Y-141655800D01*
X132339074Y-141663243D01*
X132401206Y-141698878D01*
X132424721Y-141782661D01*
X132426275Y-141795500D01*
X132444030Y-141879490D01*
X132490789Y-141920656D01*
X132594910Y-141934121D01*
X132688219Y-141935200D01*
X132834640Y-141939595D01*
X132902323Y-141959799D01*
X132913992Y-142006342D01*
X132907520Y-142036800D01*
X132902392Y-142098831D01*
X132945125Y-142128824D01*
X133058721Y-142138016D01*
X133115476Y-142138400D01*
X133258838Y-142143358D01*
X133327649Y-142167955D01*
X133348831Y-142226768D01*
X133350000Y-142265400D01*
X133358236Y-142340773D01*
X133400263Y-142378375D01*
X133502064Y-142391196D01*
X133604000Y-142392400D01*
X133756351Y-142397749D01*
X133832334Y-142420453D01*
X133856914Y-142470500D01*
X133858000Y-142494000D01*
X133871373Y-142554940D01*
X133928135Y-142585333D01*
X134053251Y-142595165D01*
X134112000Y-142595600D01*
X134262362Y-142598929D01*
X134337342Y-142619401D01*
X134363148Y-142672741D01*
X134366000Y-142748000D01*
X134372627Y-142841713D01*
X134410889Y-142886098D01*
X134508359Y-142899538D01*
X134594600Y-142900400D01*
X134735665Y-142905663D01*
X134802500Y-142931537D01*
X134822327Y-142993145D01*
X134823200Y-143027400D01*
X134831436Y-143102773D01*
X134873463Y-143140375D01*
X134975264Y-143153196D01*
X135077200Y-143154400D01*
X135227947Y-143158517D01*
X135303151Y-143179531D01*
X135328794Y-143230431D01*
X135331200Y-143281400D01*
X135355013Y-143380988D01*
X135432800Y-143408400D01*
X135496292Y-143423357D01*
X135526316Y-143485465D01*
X135534362Y-143620577D01*
X135534400Y-143637000D01*
X135539664Y-143778064D01*
X135565538Y-143844899D01*
X135627146Y-143864726D01*
X135661400Y-143865600D01*
X135736774Y-143873835D01*
X135774376Y-143915862D01*
X135787197Y-144017663D01*
X135788400Y-144119600D01*
X135792518Y-144270346D01*
X135813532Y-144345550D01*
X135864432Y-144371193D01*
X135915400Y-144373600D01*
X135983670Y-144379390D01*
X136021696Y-144412062D01*
X136038305Y-144494571D01*
X136042327Y-144649870D01*
X136042400Y-144703800D01*
X136040174Y-144881301D01*
X136027607Y-144980167D01*
X135995873Y-145023352D01*
X135936143Y-145033809D01*
X135915400Y-145034000D01*
X135850803Y-145038748D01*
X135812937Y-145067260D01*
X135794670Y-145140937D01*
X135788867Y-145281179D01*
X135788400Y-145415000D01*
X135786818Y-145608792D01*
X135777314Y-145722389D01*
X135752755Y-145777191D01*
X135706007Y-145794599D01*
X135661400Y-145796000D01*
X135534400Y-145796000D01*
X135534400Y-146812000D01*
X135788400Y-146812000D01*
X135940751Y-146817349D01*
X136016734Y-146840053D01*
X136041314Y-146890100D01*
X136042400Y-146913600D01*
X136072166Y-146993270D01*
X136169400Y-147015200D01*
X136266074Y-147036181D01*
X136295864Y-147118795D01*
X136296400Y-147142200D01*
X136305875Y-147220569D01*
X136352449Y-147257699D01*
X136463342Y-147268714D01*
X136525000Y-147269200D01*
X136666065Y-147274463D01*
X136732900Y-147300337D01*
X136752727Y-147361945D01*
X136753600Y-147396200D01*
X136771372Y-147488859D01*
X136845191Y-147521119D01*
X136897334Y-147523200D01*
X137002135Y-147539005D01*
X137036413Y-147601814D01*
X137037034Y-147637500D01*
X137066151Y-147734950D01*
X137147300Y-147768033D01*
X137242527Y-147817767D01*
X137261600Y-147878800D01*
X137217820Y-147963776D01*
X137147300Y-147989566D01*
X137044601Y-148047415D01*
X137016767Y-148120100D01*
X136971599Y-148211665D01*
X136877067Y-148234400D01*
X136777575Y-148261534D01*
X136753600Y-148310600D01*
X136765265Y-148334840D01*
X136807846Y-148353443D01*
X136892721Y-148367118D01*
X137031269Y-148376578D01*
X137234869Y-148382532D01*
X137514899Y-148385693D01*
X137882738Y-148386771D01*
X137972800Y-148386800D01*
X139192000Y-148386800D01*
X139192000Y-147828000D01*
X139193170Y-147583447D01*
X139198806Y-147422923D01*
X139212103Y-147328864D01*
X139236254Y-147283706D01*
X139274452Y-147269887D01*
X139293600Y-147269200D01*
X139357092Y-147254242D01*
X139387116Y-147192134D01*
X139395162Y-147057022D01*
X139395200Y-147040600D01*
X138480800Y-147040600D01*
X138475537Y-147181664D01*
X138449663Y-147248499D01*
X138388055Y-147268326D01*
X138353800Y-147269200D01*
X138274337Y-147279164D01*
X138237422Y-147327496D01*
X138227099Y-147441857D01*
X138226800Y-147489333D01*
X138218549Y-147654806D01*
X138185283Y-147742269D01*
X138114234Y-147774572D01*
X138065934Y-147777200D01*
X138009282Y-147760658D01*
X137981270Y-147694929D01*
X137972914Y-147555859D01*
X137972800Y-147526733D01*
X137967251Y-147374952D01*
X137942737Y-147296986D01*
X137887459Y-147265305D01*
X137858500Y-147260033D01*
X137783306Y-147231918D01*
X137744842Y-147156505D01*
X137728580Y-147027900D01*
X137709365Y-146887945D01*
X137669922Y-146824458D01*
X137614280Y-146812000D01*
X137552438Y-146827931D01*
X137523221Y-146892740D01*
X137515611Y-147031947D01*
X137515600Y-147040600D01*
X137510337Y-147181664D01*
X137484463Y-147248499D01*
X137422855Y-147268326D01*
X137388600Y-147269200D01*
X137291927Y-147248218D01*
X137262137Y-147165604D01*
X137261600Y-147142200D01*
X137253365Y-147066826D01*
X137211338Y-147029224D01*
X137109537Y-147016403D01*
X137007600Y-147015200D01*
X136855250Y-147009850D01*
X136779267Y-146987146D01*
X136754687Y-146937099D01*
X136753600Y-146913600D01*
X136723835Y-146833929D01*
X136626600Y-146812000D01*
X136529927Y-146791018D01*
X136500137Y-146708404D01*
X136499600Y-146685000D01*
X136490126Y-146606630D01*
X136443552Y-146569500D01*
X136332659Y-146558485D01*
X136271000Y-146558000D01*
X136042400Y-146558000D01*
X136042400Y-146180533D01*
X136044644Y-145986798D01*
X136055703Y-145872275D01*
X136082069Y-145814599D01*
X136130234Y-145791411D01*
X136156700Y-145786833D01*
X136232727Y-145758009D01*
X136271184Y-145680723D01*
X136286366Y-145559927D01*
X136310966Y-145411453D01*
X136364429Y-145338271D01*
X136400666Y-145323383D01*
X136482313Y-145257194D01*
X136499600Y-145162222D01*
X136514966Y-145064505D01*
X136577820Y-145039716D01*
X136613900Y-145043166D01*
X136708603Y-145091908D01*
X136744275Y-145199100D01*
X136777029Y-145304102D01*
X136859604Y-145338052D01*
X136883975Y-145338800D01*
X136981842Y-145364001D01*
X137007600Y-145440400D01*
X137038308Y-145520866D01*
X137131067Y-145542000D01*
X137234205Y-145571776D01*
X137270767Y-145656300D01*
X137328616Y-145758999D01*
X137401300Y-145786833D01*
X137496859Y-145837154D01*
X137515600Y-145901133D01*
X137553223Y-145983504D01*
X137617200Y-145999200D01*
X137696871Y-146028965D01*
X137718800Y-146126200D01*
X137739782Y-146222873D01*
X137822396Y-146252663D01*
X137845800Y-146253200D01*
X137936564Y-146269602D01*
X137969768Y-146339327D01*
X137972800Y-146405600D01*
X137986469Y-146514516D01*
X138044573Y-146554360D01*
X138099800Y-146558000D01*
X138196474Y-146578981D01*
X138226264Y-146661595D01*
X138226800Y-146685000D01*
X138247782Y-146781673D01*
X138330396Y-146811463D01*
X138353800Y-146812000D01*
X138432170Y-146821474D01*
X138469300Y-146868048D01*
X138480315Y-146978941D01*
X138480800Y-147040600D01*
X139395200Y-147040600D01*
X139388553Y-146897743D01*
X139360949Y-146830190D01*
X139300899Y-146812087D01*
X139293600Y-146812000D01*
X139213930Y-146782234D01*
X139192000Y-146685000D01*
X139183765Y-146609626D01*
X139141738Y-146572024D01*
X139039937Y-146559203D01*
X138938000Y-146558000D01*
X138787639Y-146554670D01*
X138712659Y-146534198D01*
X138686853Y-146480858D01*
X138684000Y-146405600D01*
X138668034Y-146294047D01*
X138608627Y-146254772D01*
X138582400Y-146253200D01*
X138502730Y-146223434D01*
X138480800Y-146126200D01*
X138459819Y-146029526D01*
X138377205Y-145999736D01*
X138353800Y-145999200D01*
X138253668Y-145974871D01*
X138226800Y-145900383D01*
X138209443Y-145838143D01*
X138141039Y-145804165D01*
X137997096Y-145786847D01*
X137985500Y-145786083D01*
X137835689Y-145769431D01*
X137759786Y-145735340D01*
X137730157Y-145669887D01*
X137727967Y-145656300D01*
X137677646Y-145560741D01*
X137613667Y-145542000D01*
X137531296Y-145504377D01*
X137515600Y-145440400D01*
X137485835Y-145360729D01*
X137388600Y-145338800D01*
X137297837Y-145322397D01*
X137264633Y-145252672D01*
X137261600Y-145186400D01*
X137247932Y-145077483D01*
X137189828Y-145037639D01*
X137134600Y-145034000D01*
X137035012Y-145010187D01*
X137007600Y-144932400D01*
X136977835Y-144852729D01*
X136880600Y-144830800D01*
X136802231Y-144821325D01*
X136765101Y-144774751D01*
X136754086Y-144663858D01*
X136753600Y-144602200D01*
X136748337Y-144461135D01*
X136722463Y-144394300D01*
X136660855Y-144374473D01*
X136626600Y-144373600D01*
X136527802Y-144350544D01*
X136499604Y-144268583D01*
X136499600Y-144267244D01*
X136456046Y-144165828D01*
X136398000Y-144134319D01*
X136335238Y-144100091D01*
X136304792Y-144022019D01*
X136296424Y-143872424D01*
X136296400Y-143859675D01*
X136292050Y-143711148D01*
X136270036Y-143637873D01*
X136216914Y-143613589D01*
X136169400Y-143611600D01*
X136069812Y-143587787D01*
X136042400Y-143510000D01*
X136012635Y-143430329D01*
X135915400Y-143408400D01*
X135817581Y-143372882D01*
X135778963Y-143292004D01*
X135801406Y-143204275D01*
X135886767Y-143148205D01*
X135902700Y-143145233D01*
X135998271Y-143094767D01*
X136017000Y-143027400D01*
X135975496Y-142936554D01*
X135902700Y-142909566D01*
X135817594Y-142872609D01*
X135789142Y-142775734D01*
X135788400Y-142744466D01*
X135802639Y-142637397D01*
X135863609Y-142598888D01*
X135919125Y-142595600D01*
X136013052Y-142566497D01*
X136035738Y-142501633D01*
X135990123Y-142434669D01*
X135902182Y-142401566D01*
X135808706Y-142352405D01*
X135778437Y-142266532D01*
X135809435Y-142182551D01*
X135899761Y-142139065D01*
X135915400Y-142138400D01*
X136012408Y-142117089D01*
X136042010Y-142034809D01*
X136042400Y-142015894D01*
X136063344Y-141924100D01*
X136131300Y-141910408D01*
X136250201Y-141924894D01*
X136359900Y-141931313D01*
X136466357Y-141954762D01*
X136499441Y-142028198D01*
X136499600Y-142036800D01*
X136512973Y-142097740D01*
X136569735Y-142128133D01*
X136694851Y-142137965D01*
X136753600Y-142138400D01*
X136906782Y-142132626D01*
X136983108Y-142109181D01*
X137006969Y-142058876D01*
X137007600Y-142042722D01*
X137052686Y-141955284D01*
X137134600Y-141922766D01*
X137229001Y-141920095D01*
X137260061Y-141979448D01*
X137261600Y-142018444D01*
X137284386Y-142110273D01*
X137371341Y-142138107D01*
X137388600Y-142138400D01*
X137485274Y-142159381D01*
X137515064Y-142241995D01*
X137515600Y-142265400D01*
X137525075Y-142343769D01*
X137571649Y-142380899D01*
X137682542Y-142391914D01*
X137744200Y-142392400D01*
X137887057Y-142399047D01*
X137954610Y-142426651D01*
X137972713Y-142486701D01*
X137972800Y-142494000D01*
X137986173Y-142554940D01*
X138042935Y-142585333D01*
X138168051Y-142595165D01*
X138226800Y-142595600D01*
X138377162Y-142598929D01*
X138452142Y-142619401D01*
X138477948Y-142672741D01*
X138480800Y-142748000D01*
X138487427Y-142841713D01*
X138525689Y-142886098D01*
X138623159Y-142899538D01*
X138709400Y-142900400D01*
X138850465Y-142905663D01*
X138917300Y-142931537D01*
X138937127Y-142993145D01*
X138938000Y-143027400D01*
X138946236Y-143102773D01*
X138988263Y-143140375D01*
X139090064Y-143153196D01*
X139192000Y-143154400D01*
X139342747Y-143158517D01*
X139417951Y-143179531D01*
X139443594Y-143230431D01*
X139446000Y-143281400D01*
X139455475Y-143359769D01*
X139502049Y-143396899D01*
X139612942Y-143407914D01*
X139674600Y-143408400D01*
X139817457Y-143415047D01*
X139885010Y-143442651D01*
X139903113Y-143502701D01*
X139903200Y-143510000D01*
X139918158Y-143573491D01*
X139980266Y-143603515D01*
X140115378Y-143611561D01*
X140131800Y-143611600D01*
X140274657Y-143604952D01*
X140342210Y-143577348D01*
X140360313Y-143517298D01*
X140360400Y-143510000D01*
X140330635Y-143430329D01*
X140233400Y-143408400D01*
X140136727Y-143387418D01*
X140106937Y-143304804D01*
X140106400Y-143281400D01*
X140081923Y-143181109D01*
X140008334Y-143154400D01*
X139920263Y-143111567D01*
X139894034Y-143040100D01*
X139836185Y-142937400D01*
X139763500Y-142909566D01*
X139671042Y-142863180D01*
X139649200Y-142773400D01*
X139617508Y-142671883D01*
X139534900Y-142637233D01*
X139439330Y-142586767D01*
X139420600Y-142519400D01*
X139379096Y-142428554D01*
X139306300Y-142401566D01*
X139234406Y-142377404D01*
X139200885Y-142312824D01*
X139192053Y-142178934D01*
X139192000Y-142160266D01*
X139186542Y-142020584D01*
X139159857Y-141954935D01*
X139096482Y-141935914D01*
X139065000Y-141935200D01*
X138998650Y-141929970D01*
X138960676Y-141899524D01*
X138943172Y-141821720D01*
X138938232Y-141674421D01*
X138938187Y-141655800D01*
X138480800Y-141655800D01*
X138480800Y-142138400D01*
X138226800Y-142138400D01*
X138074450Y-142133050D01*
X137998467Y-142110346D01*
X137973887Y-142060299D01*
X137972800Y-142036800D01*
X137957843Y-141973308D01*
X137895735Y-141943284D01*
X137760623Y-141935238D01*
X137744200Y-141935200D01*
X137603136Y-141929936D01*
X137536301Y-141904062D01*
X137516474Y-141842454D01*
X137515600Y-141808200D01*
X137492545Y-141709401D01*
X137410584Y-141681203D01*
X137409245Y-141681200D01*
X137307829Y-141637645D01*
X137276320Y-141579600D01*
X137241360Y-141516169D01*
X137161531Y-141485822D01*
X137008909Y-141478000D01*
X137007600Y-141478000D01*
X136854407Y-141485708D01*
X136774190Y-141515873D01*
X136739025Y-141579051D01*
X136738881Y-141579600D01*
X136670799Y-141665600D01*
X136605956Y-141681200D01*
X136517898Y-141647694D01*
X136499600Y-141579600D01*
X136484210Y-141515455D01*
X136420669Y-141485553D01*
X136282926Y-141478005D01*
X136276925Y-141478000D01*
X136130182Y-141487360D01*
X136055298Y-141523229D01*
X136027681Y-141579600D01*
X135959599Y-141665600D01*
X135894756Y-141681200D01*
X135812018Y-141708730D01*
X135788403Y-141806600D01*
X135788400Y-141808200D01*
X135767419Y-141904873D01*
X135684805Y-141934663D01*
X135661400Y-141935200D01*
X135561812Y-141959012D01*
X135534400Y-142036800D01*
X135498479Y-142121702D01*
X135432800Y-142138400D01*
X135368369Y-142153985D01*
X135338523Y-142218166D01*
X135331201Y-142357076D01*
X135331200Y-142358533D01*
X135326490Y-142497943D01*
X135314649Y-142587592D01*
X135308816Y-142601050D01*
X135248784Y-142614321D01*
X135124556Y-142621077D01*
X135067516Y-142621277D01*
X134926861Y-142612087D01*
X134858222Y-142578663D01*
X134832505Y-142506711D01*
X134832367Y-142505760D01*
X134807951Y-142434403D01*
X134742668Y-142401144D01*
X134607691Y-142392441D01*
X134591067Y-142392400D01*
X134451385Y-142386941D01*
X134385736Y-142360256D01*
X134366715Y-142296881D01*
X134366000Y-142265400D01*
X134357765Y-142190026D01*
X134315738Y-142152424D01*
X134213937Y-142139603D01*
X134112000Y-142138400D01*
X133959650Y-142133050D01*
X133883667Y-142110346D01*
X133859087Y-142060299D01*
X133858000Y-142036800D01*
X133844628Y-141975859D01*
X133787866Y-141945466D01*
X133662750Y-141935634D01*
X133604000Y-141935200D01*
X133453254Y-141931082D01*
X133378050Y-141910068D01*
X133352407Y-141859168D01*
X133350000Y-141808200D01*
X133339248Y-141727063D01*
X133288121Y-141690525D01*
X133168313Y-141681297D01*
X133142045Y-141681200D01*
X133000151Y-141670186D01*
X132929262Y-141628766D01*
X132907520Y-141579600D01*
X132869239Y-141513307D01*
X132781518Y-141483526D01*
X132661650Y-141478000D01*
X132523316Y-141471861D01*
X132456253Y-141441523D01*
X132430328Y-141369100D01*
X132426275Y-141338300D01*
X132389250Y-141229315D01*
X132308600Y-141198548D01*
X132268627Y-141193105D01*
X132240517Y-141166509D01*
X132221935Y-141103289D01*
X132210545Y-140987976D01*
X132204010Y-140805099D01*
X132199996Y-140539189D01*
X132199290Y-140474648D01*
X132191579Y-139750800D01*
X132435600Y-139750800D01*
X132435600Y-138912600D01*
X132436188Y-138603196D01*
X132439097Y-138381001D01*
X132446047Y-138231627D01*
X132458759Y-138140683D01*
X132478953Y-138093783D01*
X132508350Y-138076535D01*
X132535806Y-138074400D01*
X132575309Y-138068493D01*
X132603317Y-138040478D01*
X132622268Y-137974914D01*
X132634600Y-137856360D01*
X132642751Y-137669372D01*
X132649160Y-137398511D01*
X132650106Y-137350500D01*
X132656316Y-137066182D01*
X132663782Y-136867593D01*
X132675170Y-136738869D01*
X132693152Y-136664149D01*
X132720397Y-136627571D01*
X132759573Y-136613272D01*
X132774572Y-136610881D01*
X132865554Y-136625396D01*
X132901572Y-136712481D01*
X132947018Y-136807236D01*
X133062819Y-136846348D01*
X133164213Y-136872102D01*
X133187284Y-136930955D01*
X133180406Y-136966264D01*
X133187604Y-137058947D01*
X133251688Y-137095340D01*
X133332582Y-137157963D01*
X133350000Y-137216724D01*
X133383440Y-137292896D01*
X133476033Y-137312400D01*
X133584349Y-137344109D01*
X133633940Y-137439400D01*
X133667162Y-137519594D01*
X133734248Y-137556635D01*
X133866921Y-137566324D01*
X133888908Y-137566400D01*
X134029652Y-137573394D01*
X134095332Y-137602285D01*
X134111986Y-137664929D01*
X134112000Y-137668000D01*
X134141766Y-137747670D01*
X134239000Y-137769600D01*
X134329764Y-137786002D01*
X134362968Y-137855727D01*
X134366000Y-137922000D01*
X134381967Y-138033552D01*
X134441374Y-138072827D01*
X134467600Y-138074400D01*
X134552503Y-138110321D01*
X134569200Y-138176000D01*
X134604275Y-138260120D01*
X134675556Y-138277600D01*
X134776225Y-138320091D01*
X134807809Y-138376631D01*
X134849395Y-138442326D01*
X134947141Y-138477703D01*
X135069754Y-138490931D01*
X135217717Y-138507906D01*
X135292045Y-138543272D01*
X135320620Y-138611349D01*
X135322034Y-138620500D01*
X135372355Y-138716058D01*
X135436334Y-138734800D01*
X135508545Y-138760423D01*
X135533636Y-138853638D01*
X135534400Y-138887200D01*
X135548069Y-138996116D01*
X135606173Y-139035960D01*
X135661400Y-139039600D01*
X135758074Y-139060581D01*
X135787864Y-139143195D01*
X135788400Y-139166600D01*
X135796636Y-139241973D01*
X135838663Y-139279575D01*
X135940464Y-139292396D01*
X136042400Y-139293600D01*
X136194751Y-139298949D01*
X136270734Y-139321653D01*
X136295314Y-139371700D01*
X136296400Y-139395200D01*
X136332322Y-139480102D01*
X136398000Y-139496800D01*
X136477671Y-139526565D01*
X136499600Y-139623800D01*
X136520582Y-139720473D01*
X136603196Y-139750263D01*
X136626600Y-139750800D01*
X136723274Y-139771781D01*
X136753064Y-139854395D01*
X136753600Y-139877800D01*
X136774836Y-139974731D01*
X136857180Y-140004378D01*
X136877067Y-140004800D01*
X136980205Y-140034576D01*
X137016767Y-140119100D01*
X137041776Y-140190547D01*
X137108854Y-140228512D01*
X137245634Y-140246920D01*
X137274300Y-140248883D01*
X137423565Y-140265569D01*
X137495817Y-140298218D01*
X137515552Y-140358431D01*
X137515600Y-140363183D01*
X137552872Y-140446106D01*
X137617200Y-140462000D01*
X137696871Y-140491765D01*
X137718800Y-140589000D01*
X137727036Y-140664373D01*
X137769063Y-140701975D01*
X137870864Y-140714796D01*
X137972800Y-140716000D01*
X138226800Y-140716000D01*
X138226800Y-140944600D01*
X138232064Y-141085664D01*
X138257938Y-141152499D01*
X138319546Y-141172326D01*
X138353800Y-141173200D01*
X138412635Y-141176551D01*
X138449741Y-141199292D01*
X138470126Y-141260455D01*
X138478799Y-141379070D01*
X138480768Y-141574167D01*
X138480800Y-141655800D01*
X138938187Y-141655800D01*
X138938000Y-141579600D01*
X138936133Y-141393818D01*
X138925259Y-141287491D01*
X138897472Y-141238481D01*
X138844865Y-141224647D01*
X138811000Y-141224000D01*
X138684000Y-141224000D01*
X138684000Y-139750800D01*
X138938000Y-139750800D01*
X138938000Y-138480800D01*
X139065000Y-138480800D01*
X139125120Y-138477159D01*
X139162448Y-138453203D01*
X139182416Y-138389381D01*
X139190455Y-138266142D01*
X139191994Y-138063934D01*
X139192000Y-138023600D01*
X139193698Y-137806379D01*
X139201656Y-137671401D01*
X139220171Y-137599330D01*
X139253541Y-137570827D01*
X139293600Y-137566400D01*
X139333805Y-137561124D01*
X139361727Y-137534887D01*
X139379595Y-137472076D01*
X139389641Y-137357077D01*
X139394096Y-137174276D01*
X139395189Y-136908061D01*
X139395200Y-136855200D01*
X139394447Y-136573767D01*
X139390699Y-136378317D01*
X139381726Y-136253238D01*
X139365297Y-136182915D01*
X139339183Y-136151734D01*
X139301152Y-136144083D01*
X139293600Y-136144000D01*
X139208698Y-136179921D01*
X139192000Y-136245600D01*
X139162235Y-136325270D01*
X139065000Y-136347200D01*
X138965412Y-136323387D01*
X138938000Y-136245600D01*
X138923043Y-136182108D01*
X138860935Y-136152084D01*
X138725823Y-136144038D01*
X138709400Y-136144000D01*
X138568336Y-136138736D01*
X138501501Y-136112862D01*
X138481674Y-136051254D01*
X138480800Y-136017000D01*
X138472565Y-135941626D01*
X138430538Y-135904024D01*
X138328737Y-135891203D01*
X138226800Y-135890000D01*
X138076054Y-135885882D01*
X138000850Y-135864868D01*
X137975207Y-135813968D01*
X137972800Y-135763000D01*
X137963326Y-135684630D01*
X137916752Y-135647500D01*
X137805859Y-135636485D01*
X137744200Y-135636000D01*
X137603136Y-135630736D01*
X137536301Y-135604862D01*
X137516474Y-135543254D01*
X137515600Y-135509000D01*
X137494619Y-135412326D01*
X137412005Y-135382536D01*
X137388600Y-135382000D01*
X137291669Y-135360764D01*
X137262022Y-135278420D01*
X137261600Y-135258533D01*
X137231395Y-135154870D01*
X137149383Y-135118833D01*
X137048304Y-135064413D01*
X137009683Y-135000148D01*
X136943029Y-134914536D01*
X136880600Y-134898548D01*
X136787641Y-134856027D01*
X136752821Y-134772400D01*
X136704018Y-134673299D01*
X136613121Y-134651482D01*
X136553316Y-134647732D01*
X136519293Y-134613891D01*
X136503831Y-134528142D01*
X136499707Y-134368669D01*
X136499600Y-134308582D01*
X136496758Y-134123809D01*
X136483977Y-134018665D01*
X136454881Y-133971244D01*
X136403092Y-133959637D01*
X136398000Y-133959600D01*
X136337060Y-133946227D01*
X136306667Y-133889465D01*
X136296835Y-133764349D01*
X136296400Y-133705600D01*
X136292283Y-133554853D01*
X136271269Y-133479649D01*
X136220369Y-133454006D01*
X136169400Y-133451600D01*
X136103050Y-133446370D01*
X136065076Y-133415924D01*
X136047572Y-133338120D01*
X136042632Y-133190821D01*
X136042400Y-133096000D01*
X136040533Y-132910218D01*
X136029659Y-132803891D01*
X136001872Y-132754881D01*
X135949265Y-132741047D01*
X135915400Y-132740400D01*
X135840027Y-132732164D01*
X135802425Y-132690137D01*
X135789604Y-132588336D01*
X135788400Y-132486400D01*
X135788400Y-132232400D01*
X136271000Y-132232400D01*
X136494572Y-132233281D01*
X136635574Y-132239266D01*
X136713039Y-132255361D01*
X136745996Y-132286576D01*
X136753478Y-132337917D01*
X136753600Y-132359400D01*
X136753600Y-132486400D01*
X137972800Y-132486400D01*
X137972800Y-132613400D01*
X137978030Y-132679750D01*
X138008476Y-132717724D01*
X138086280Y-132735228D01*
X138233579Y-132740168D01*
X138328400Y-132740400D01*
X138514182Y-132742267D01*
X138620509Y-132753141D01*
X138669519Y-132780928D01*
X138683353Y-132833535D01*
X138684000Y-132867400D01*
X138688710Y-132931850D01*
X138717064Y-132969704D01*
X138790403Y-132988033D01*
X138930066Y-132993909D01*
X139067227Y-132994400D01*
X139262889Y-132997060D01*
X139376625Y-133008195D01*
X139428042Y-133032538D01*
X139436744Y-133074820D01*
X139435527Y-133083300D01*
X139440619Y-133130171D01*
X139488395Y-133159255D01*
X139598544Y-133176337D01*
X139788900Y-133187125D01*
X139978830Y-133196817D01*
X140088903Y-133212167D01*
X140140832Y-133241410D01*
X140156328Y-133292782D01*
X140157200Y-133326825D01*
X140167215Y-133404309D01*
X140215488Y-133440726D01*
X140329360Y-133451233D01*
X140382267Y-133451599D01*
X140524840Y-133458685D01*
X140595160Y-133489064D01*
X140622118Y-133556423D01*
X140623567Y-133565899D01*
X140652106Y-133641594D01*
X140728642Y-133680055D01*
X140852530Y-133695665D01*
X140993735Y-133716176D01*
X141061567Y-133760508D01*
X141081130Y-133819016D01*
X141107226Y-133887251D01*
X141177672Y-133920138D01*
X141320497Y-133930465D01*
X141325600Y-133930550D01*
X141469807Y-133939952D01*
X141541356Y-133971281D01*
X141568863Y-134038321D01*
X141570434Y-134048500D01*
X141587157Y-134108959D01*
X141631291Y-134143282D01*
X141726151Y-134158776D01*
X141895051Y-134162745D01*
X141935200Y-134162800D01*
X142119936Y-134160131D01*
X142226428Y-134147256D01*
X142277988Y-134116869D01*
X142297932Y-134061664D01*
X142299967Y-134048500D01*
X142314248Y-133995024D01*
X142351844Y-133959792D01*
X142432340Y-133937320D01*
X142575316Y-133922123D01*
X142798800Y-133908800D01*
X143031348Y-133893355D01*
X143178478Y-133874291D01*
X143256372Y-133848203D01*
X143281211Y-133811683D01*
X143281400Y-133807200D01*
X143292020Y-133787351D01*
X143329968Y-133770986D01*
X143404379Y-133757680D01*
X143524385Y-133747005D01*
X143699122Y-133738536D01*
X143937722Y-133731846D01*
X144249320Y-133726509D01*
X144643048Y-133722099D01*
X145128042Y-133718188D01*
X145199100Y-133717689D01*
X145690543Y-133714399D01*
X146089932Y-133712332D01*
X146406813Y-133711930D01*
X146650728Y-133713634D01*
X146831223Y-133717887D01*
X146957841Y-133725133D01*
X147040127Y-133735812D01*
X147087624Y-133750368D01*
X147109877Y-133769243D01*
X147116429Y-133792880D01*
X147116800Y-133806589D01*
X147124000Y-133854227D01*
X147158214Y-133884229D01*
X147238369Y-133900633D01*
X147383387Y-133907477D01*
X147595867Y-133908800D01*
X147819055Y-133910140D01*
X147960379Y-133917195D01*
X148039567Y-133934518D01*
X148076349Y-133966663D01*
X148090453Y-134018181D01*
X148091167Y-134023100D01*
X148108361Y-134082973D01*
X148153949Y-134118962D01*
X148250630Y-134138766D01*
X148421105Y-134150086D01*
X148471886Y-134152248D01*
X148661074Y-134157888D01*
X148771654Y-134151515D01*
X148826443Y-134127044D01*
X148848259Y-134078391D01*
X148852886Y-134050648D01*
X148879244Y-133974386D01*
X148949304Y-133940743D01*
X149072600Y-133933575D01*
X149207556Y-133923853D01*
X149271437Y-133885723D01*
X149291686Y-133821928D01*
X149317819Y-133751813D01*
X149388450Y-133714567D01*
X149531029Y-133696531D01*
X149545686Y-133695553D01*
X149694378Y-133678708D01*
X149769326Y-133643856D01*
X149798316Y-133576833D01*
X149800034Y-133565900D01*
X149824196Y-133494005D01*
X149888776Y-133460484D01*
X150022666Y-133451652D01*
X150041334Y-133451600D01*
X150181016Y-133446141D01*
X150246665Y-133419456D01*
X150265686Y-133356081D01*
X150266400Y-133324600D01*
X150271534Y-133258589D01*
X150301598Y-133220632D01*
X150378589Y-133202976D01*
X150524501Y-133197869D01*
X150626756Y-133197599D01*
X150817624Y-133194333D01*
X150930222Y-133180468D01*
X150987784Y-133149903D01*
X151013540Y-133096539D01*
X151013681Y-133095999D01*
X151041306Y-133040011D01*
X151103425Y-133009179D01*
X151224549Y-132996403D01*
X151364525Y-132994399D01*
X151540053Y-132992075D01*
X151637151Y-132979057D01*
X151678973Y-132946274D01*
X151688676Y-132884660D01*
X151688800Y-132867400D01*
X151694030Y-132801049D01*
X151724476Y-132763075D01*
X151802280Y-132745571D01*
X151949579Y-132740631D01*
X152044400Y-132740400D01*
X152230206Y-132738488D01*
X152336549Y-132727549D01*
X152385561Y-132699776D01*
X152399372Y-132647363D01*
X152400000Y-132614963D01*
X152400000Y-132489527D01*
X153022300Y-132475263D01*
X153282562Y-132468495D01*
X153458436Y-132459979D01*
X153567120Y-132446202D01*
X153625811Y-132423655D01*
X153651706Y-132388825D01*
X153661077Y-132344843D01*
X153673710Y-132290359D01*
X153706102Y-132257119D01*
X153778299Y-132240897D01*
X153910349Y-132237466D01*
X154122297Y-132242600D01*
X154142941Y-132243243D01*
X154608329Y-132257800D01*
X154608391Y-132486400D01*
X154601553Y-132630351D01*
X154572075Y-132701789D01*
X154506663Y-132729373D01*
X154494827Y-132731233D01*
X154433494Y-132748763D01*
X154399324Y-132795150D01*
X154384500Y-132894311D01*
X154381203Y-133070167D01*
X154381200Y-133078889D01*
X154377171Y-133261352D01*
X154360642Y-133366420D01*
X154324952Y-133418130D01*
X154282169Y-133436208D01*
X154216474Y-133477794D01*
X154181097Y-133575540D01*
X154167869Y-133698153D01*
X154145143Y-133851784D01*
X154105279Y-133933186D01*
X154089100Y-133940550D01*
X153989125Y-133951507D01*
X153974800Y-133953250D01*
X153948821Y-134003048D01*
X153930527Y-134127224D01*
X153924000Y-134289800D01*
X153921671Y-134467367D01*
X153908960Y-134566277D01*
X153877284Y-134609459D01*
X153818059Y-134619841D01*
X153800375Y-134620000D01*
X153704766Y-134643360D01*
X153664494Y-134732257D01*
X153660675Y-134759700D01*
X153628781Y-134863609D01*
X153581100Y-134905750D01*
X153486581Y-134916580D01*
X153472725Y-134918449D01*
X153424991Y-134966422D01*
X153401281Y-135026399D01*
X153345694Y-135109019D01*
X153293756Y-135128000D01*
X153227685Y-135171393D01*
X153212800Y-135255000D01*
X153196398Y-135345763D01*
X153126673Y-135378967D01*
X153060400Y-135382000D01*
X152951484Y-135395668D01*
X152911640Y-135453772D01*
X152908000Y-135509000D01*
X152899765Y-135584373D01*
X152857738Y-135621975D01*
X152755937Y-135634796D01*
X152654000Y-135636000D01*
X152503254Y-135640117D01*
X152428050Y-135661131D01*
X152402407Y-135712031D01*
X152400000Y-135763000D01*
X152390526Y-135841369D01*
X152343952Y-135878499D01*
X152233059Y-135889514D01*
X152171400Y-135890000D01*
X152030336Y-135895263D01*
X151963501Y-135921137D01*
X151943674Y-135982745D01*
X151942800Y-136017000D01*
X151932988Y-136096129D01*
X151885198Y-136133112D01*
X151771904Y-136143648D01*
X151720125Y-136144000D01*
X151573382Y-136153360D01*
X151498498Y-136189229D01*
X151470881Y-136245599D01*
X151409909Y-136328107D01*
X151317224Y-136342953D01*
X151236908Y-136290137D01*
X151216881Y-136245600D01*
X151161294Y-136162980D01*
X151109356Y-136144000D01*
X151076936Y-136155664D01*
X151054373Y-136200646D01*
X151039962Y-136293930D01*
X151031997Y-136450498D01*
X151028772Y-136685335D01*
X151028400Y-136855200D01*
X151029154Y-137136632D01*
X151032902Y-137332082D01*
X151041875Y-137457161D01*
X151058304Y-137527484D01*
X151084418Y-137558665D01*
X151122449Y-137566316D01*
X151130000Y-137566400D01*
X151178424Y-137574091D01*
X151208445Y-137610106D01*
X151224410Y-137693851D01*
X151230665Y-137844737D01*
X151231600Y-138020066D01*
X151233108Y-138236175D01*
X151240922Y-138370996D01*
X151259982Y-138444831D01*
X151295225Y-138477984D01*
X151345900Y-138489966D01*
X151393800Y-138501348D01*
X151426566Y-138530866D01*
X151447659Y-138595707D01*
X151460539Y-138713056D01*
X151468667Y-138900099D01*
X151474464Y-139128500D01*
X151481521Y-139389229D01*
X151490573Y-139564976D01*
X151504672Y-139672356D01*
X151526867Y-139727980D01*
X151560212Y-139748461D01*
X151588764Y-139750800D01*
X151628364Y-139756400D01*
X151655867Y-139783599D01*
X151673468Y-139847994D01*
X151683359Y-139965182D01*
X151687737Y-140150762D01*
X151688793Y-140420330D01*
X151688800Y-140462000D01*
X151687998Y-140743576D01*
X151684139Y-140939146D01*
X151675044Y-141064299D01*
X151658535Y-141134625D01*
X151632434Y-141165714D01*
X151594563Y-141173155D01*
X151589426Y-141173200D01*
X151537286Y-141184160D01*
X151505395Y-141231136D01*
X151487191Y-141335272D01*
X151476112Y-141517713D01*
X151475126Y-141541500D01*
X151464707Y-141732854D01*
X151447711Y-141845192D01*
X151416552Y-141901093D01*
X151363642Y-141923134D01*
X151345900Y-141926033D01*
X151274006Y-141950195D01*
X151240485Y-142014775D01*
X151231653Y-142148665D01*
X151231600Y-142167333D01*
X151224733Y-142308837D01*
X151196315Y-142375190D01*
X151134621Y-142392365D01*
X151130000Y-142392400D01*
X151044661Y-142428713D01*
X151028400Y-142490466D01*
X150985568Y-142578537D01*
X150914100Y-142604766D01*
X150819398Y-142653508D01*
X150783726Y-142760700D01*
X150750972Y-142865702D01*
X150668397Y-142899652D01*
X150644026Y-142900400D01*
X150549683Y-142922202D01*
X150520816Y-143006805D01*
X150520400Y-143027400D01*
X150499419Y-143124073D01*
X150416805Y-143153863D01*
X150393400Y-143154400D01*
X150296727Y-143175381D01*
X150266937Y-143257995D01*
X150266400Y-143281400D01*
X150242588Y-143380988D01*
X150164800Y-143408400D01*
X150079898Y-143444321D01*
X150063200Y-143510000D01*
X150078158Y-143573491D01*
X150140266Y-143603515D01*
X150275378Y-143611561D01*
X150291800Y-143611600D01*
X150434657Y-143604952D01*
X150502210Y-143577348D01*
X150520313Y-143517298D01*
X150520400Y-143510000D01*
X150535613Y-143446122D01*
X150598566Y-143416168D01*
X150735232Y-143408415D01*
X150745467Y-143408400D01*
X150888040Y-143401314D01*
X150958360Y-143370935D01*
X150985318Y-143303576D01*
X150986767Y-143294100D01*
X151015090Y-143219486D01*
X151091160Y-143177785D01*
X151231600Y-143154400D01*
X151378104Y-143129258D01*
X151450730Y-143086115D01*
X151476434Y-143014700D01*
X151500936Y-142942370D01*
X151566437Y-142908934D01*
X151702013Y-142900423D01*
X151714359Y-142900400D01*
X151853611Y-142894427D01*
X151921407Y-142864773D01*
X151947712Y-142793832D01*
X151952126Y-142760700D01*
X151973852Y-142671248D01*
X152031875Y-142626936D01*
X152156460Y-142607499D01*
X152184100Y-142605379D01*
X152324055Y-142586164D01*
X152387542Y-142546721D01*
X152400000Y-142491079D01*
X152414282Y-142431745D01*
X152473600Y-142402164D01*
X152602665Y-142392736D01*
X152654000Y-142392400D01*
X152804747Y-142388282D01*
X152879951Y-142367268D01*
X152905594Y-142316368D01*
X152908000Y-142265400D01*
X152924403Y-142174636D01*
X152994128Y-142141432D01*
X153060400Y-142138400D01*
X153171953Y-142122433D01*
X153211228Y-142063026D01*
X153212800Y-142036800D01*
X153248722Y-141951897D01*
X153314400Y-141935200D01*
X153399303Y-141971121D01*
X153416000Y-142036800D01*
X153429057Y-142097194D01*
X153484730Y-142127646D01*
X153607774Y-142137830D01*
X153675925Y-142138400D01*
X153827762Y-142134441D01*
X153900480Y-142116071D01*
X153916454Y-142073547D01*
X153909281Y-142036799D01*
X153903922Y-141976121D01*
X153944448Y-141945929D01*
X154053500Y-141935892D01*
X154131956Y-141935200D01*
X154283027Y-141941009D01*
X154357645Y-141964944D01*
X154380615Y-142016763D01*
X154381200Y-142033266D01*
X154424033Y-142121337D01*
X154495500Y-142147566D01*
X154598200Y-142205415D01*
X154626034Y-142278100D01*
X154619220Y-142363475D01*
X154546728Y-142391375D01*
X154511734Y-142392400D01*
X154409616Y-142424812D01*
X154375204Y-142496722D01*
X154411403Y-142570137D01*
X154495500Y-142604766D01*
X154590203Y-142653508D01*
X154625875Y-142760700D01*
X154623871Y-142862039D01*
X154567311Y-142897502D01*
X154511575Y-142900400D01*
X154413200Y-142920146D01*
X154382017Y-142998834D01*
X154381200Y-143027400D01*
X154402182Y-143124073D01*
X154484796Y-143153863D01*
X154508200Y-143154400D01*
X154604874Y-143175381D01*
X154634664Y-143257995D01*
X154635200Y-143281400D01*
X154614219Y-143378073D01*
X154531605Y-143407863D01*
X154508200Y-143408400D01*
X154408612Y-143432212D01*
X154381200Y-143510000D01*
X154345279Y-143594902D01*
X154279600Y-143611600D01*
X154218660Y-143624972D01*
X154188267Y-143681734D01*
X154178435Y-143806850D01*
X154178000Y-143865600D01*
X154173748Y-144016460D01*
X154152593Y-144091726D01*
X154101939Y-144117312D01*
X154054534Y-144119600D01*
X153951396Y-144149376D01*
X153914834Y-144233900D01*
X153856985Y-144336599D01*
X153784300Y-144364433D01*
X153712406Y-144388595D01*
X153678885Y-144453175D01*
X153670053Y-144587065D01*
X153670000Y-144605733D01*
X153664542Y-144745415D01*
X153637857Y-144811064D01*
X153574482Y-144830085D01*
X153543000Y-144830800D01*
X153446327Y-144851781D01*
X153416537Y-144934395D01*
X153416000Y-144957800D01*
X153392188Y-145057388D01*
X153314400Y-145084800D01*
X153234730Y-145114565D01*
X153212800Y-145211800D01*
X153196398Y-145302563D01*
X153126673Y-145335767D01*
X153060400Y-145338800D01*
X152948180Y-145355288D01*
X152909188Y-145415270D01*
X152908000Y-145436866D01*
X152865168Y-145524937D01*
X152793700Y-145551166D01*
X152691001Y-145609015D01*
X152663167Y-145681700D01*
X152641221Y-145750605D01*
X152582676Y-145784595D01*
X152460000Y-145795471D01*
X152396467Y-145796000D01*
X152244574Y-145801937D01*
X152169408Y-145825986D01*
X152146475Y-145877504D01*
X152146000Y-145891675D01*
X152103094Y-145981066D01*
X152044400Y-146013919D01*
X151958400Y-146082001D01*
X151942800Y-146146844D01*
X151915270Y-146229582D01*
X151817400Y-146253197D01*
X151815800Y-146253200D01*
X151725037Y-146269602D01*
X151691833Y-146339327D01*
X151688800Y-146405600D01*
X151682174Y-146499313D01*
X151643912Y-146543698D01*
X151546442Y-146557138D01*
X151460200Y-146558000D01*
X151319136Y-146563263D01*
X151252301Y-146589137D01*
X151232474Y-146650745D01*
X151231600Y-146685000D01*
X151207788Y-146784588D01*
X151130000Y-146812000D01*
X151066509Y-146826957D01*
X151036485Y-146889065D01*
X151028439Y-147024177D01*
X151028400Y-147040600D01*
X151035048Y-147183456D01*
X151062652Y-147251009D01*
X151122702Y-147269112D01*
X151130000Y-147269200D01*
X151174465Y-147275630D01*
X151203651Y-147306630D01*
X151220752Y-147379763D01*
X151228963Y-147512593D01*
X151231475Y-147722684D01*
X151231600Y-147828000D01*
X151231600Y-148386800D01*
X151688800Y-148386800D01*
X151688800Y-147015200D01*
X151815800Y-147015200D01*
X151915389Y-146991387D01*
X151942800Y-146913600D01*
X151978722Y-146828697D01*
X152044400Y-146812000D01*
X152124071Y-146782234D01*
X152146000Y-146685000D01*
X152166982Y-146588326D01*
X152249596Y-146558536D01*
X152273000Y-146558000D01*
X152363764Y-146541597D01*
X152396968Y-146471872D01*
X152400000Y-146405600D01*
X152413888Y-146296461D01*
X152471965Y-146256627D01*
X152523467Y-146253200D01*
X152626605Y-146223423D01*
X152663167Y-146138900D01*
X152721016Y-146036200D01*
X152793700Y-146008366D01*
X152889259Y-145958045D01*
X152908000Y-145894066D01*
X152933624Y-145821855D01*
X153026839Y-145796764D01*
X153060400Y-145796000D01*
X153169317Y-145782331D01*
X153209161Y-145724227D01*
X153212800Y-145669000D01*
X153236613Y-145569411D01*
X153314400Y-145542000D01*
X153399740Y-145505686D01*
X153416000Y-145443933D01*
X153458833Y-145355862D01*
X153530300Y-145329633D01*
X153625003Y-145280891D01*
X153660675Y-145173700D01*
X153693819Y-145068348D01*
X153776566Y-145034591D01*
X153797458Y-145034000D01*
X153886589Y-145014669D01*
X153900376Y-144942459D01*
X153898600Y-144932400D01*
X153903125Y-144859480D01*
X153972458Y-144832812D01*
X154028517Y-144830800D01*
X154121325Y-144823621D01*
X154164692Y-144783489D01*
X154177341Y-144682511D01*
X154178000Y-144608124D01*
X154187361Y-144461381D01*
X154223230Y-144386497D01*
X154279600Y-144358880D01*
X154365601Y-144290798D01*
X154381200Y-144225955D01*
X154414706Y-144137897D01*
X154482800Y-144119600D01*
X154563232Y-144088935D01*
X154584400Y-143995974D01*
X154607761Y-143900365D01*
X154696658Y-143860093D01*
X154724100Y-143856274D01*
X154863800Y-143840200D01*
X154863800Y-141965331D01*
X154736800Y-141934389D01*
X154635445Y-141877785D01*
X154613834Y-141792323D01*
X154590826Y-141705007D01*
X154499534Y-141681200D01*
X154404468Y-141653643D01*
X154381200Y-141579600D01*
X154365810Y-141515455D01*
X154302269Y-141485553D01*
X154164526Y-141478005D01*
X154158525Y-141478000D01*
X154011782Y-141487360D01*
X153936898Y-141523229D01*
X153909281Y-141579600D01*
X153852974Y-141659985D01*
X153767821Y-141683151D01*
X153693970Y-141649096D01*
X153670000Y-141579600D01*
X153655043Y-141516108D01*
X153592935Y-141486084D01*
X153457823Y-141478038D01*
X153441400Y-141478000D01*
X153298544Y-141484647D01*
X153230991Y-141512251D01*
X153212888Y-141572301D01*
X153212800Y-141579600D01*
X153188851Y-141653968D01*
X153099741Y-141680151D01*
X153060400Y-141681200D01*
X152951484Y-141694868D01*
X152911640Y-141752972D01*
X152908000Y-141808200D01*
X152899765Y-141883573D01*
X152857738Y-141921175D01*
X152755937Y-141933996D01*
X152654000Y-141935200D01*
X152501650Y-141940549D01*
X152425667Y-141963253D01*
X152401087Y-142013300D01*
X152400000Y-142036800D01*
X152385043Y-142100291D01*
X152322935Y-142130315D01*
X152187823Y-142138361D01*
X152171400Y-142138400D01*
X151942800Y-142138400D01*
X151942800Y-141676444D01*
X151944783Y-141456274D01*
X151953557Y-141317283D01*
X151973364Y-141239080D01*
X152008444Y-141201275D01*
X152044400Y-141187919D01*
X152084828Y-141171220D01*
X152112843Y-141135051D01*
X152130707Y-141063126D01*
X152140680Y-140939156D01*
X152145024Y-140746855D01*
X152146000Y-140469938D01*
X152146000Y-140456075D01*
X152145235Y-140176000D01*
X152141434Y-139981844D01*
X152132339Y-139857930D01*
X152115690Y-139788579D01*
X152089230Y-139758113D01*
X152050700Y-139750856D01*
X152044400Y-139750800D01*
X152002298Y-139745033D01*
X151973767Y-139716747D01*
X151956180Y-139649468D01*
X151946911Y-139526717D01*
X151943332Y-139332018D01*
X151942800Y-139113573D01*
X151940166Y-138833865D01*
X151931476Y-138643957D01*
X151915550Y-138532167D01*
X151891210Y-138486812D01*
X151879300Y-138484592D01*
X151791217Y-138489654D01*
X151735482Y-138465262D01*
X151704738Y-138393612D01*
X151691631Y-138256904D01*
X151688804Y-138037337D01*
X151688800Y-138023600D01*
X151687103Y-137806379D01*
X151679145Y-137671401D01*
X151660630Y-137599330D01*
X151627260Y-137570827D01*
X151587200Y-137566400D01*
X151533807Y-137556806D01*
X151503218Y-137513542D01*
X151489228Y-137414883D01*
X151485629Y-137239105D01*
X151485600Y-137210800D01*
X151488342Y-137023921D01*
X151500703Y-136916861D01*
X151528891Y-136867895D01*
X151579113Y-136855299D01*
X151587200Y-136855200D01*
X151666871Y-136825434D01*
X151688800Y-136728200D01*
X151709782Y-136631526D01*
X151792396Y-136601736D01*
X151815800Y-136601200D01*
X151912474Y-136580218D01*
X151942264Y-136497604D01*
X151942800Y-136474200D01*
X151952275Y-136395830D01*
X151998849Y-136358700D01*
X152109742Y-136347685D01*
X152171400Y-136347200D01*
X152314257Y-136340552D01*
X152381810Y-136312948D01*
X152399913Y-136252898D01*
X152400000Y-136245600D01*
X152413373Y-136184659D01*
X152470135Y-136154266D01*
X152595251Y-136144434D01*
X152654000Y-136144000D01*
X152804747Y-136139882D01*
X152879951Y-136118868D01*
X152905594Y-136067968D01*
X152908000Y-136017000D01*
X152924403Y-135926236D01*
X152994128Y-135893032D01*
X153060400Y-135890000D01*
X153169317Y-135876331D01*
X153209161Y-135818227D01*
X153212800Y-135763000D01*
X153236613Y-135663411D01*
X153314400Y-135636000D01*
X153394071Y-135606234D01*
X153416000Y-135509000D01*
X153423987Y-135434270D01*
X153465086Y-135396590D01*
X153565010Y-135383396D01*
X153675923Y-135382000D01*
X153827797Y-135378869D01*
X153901398Y-135361102D01*
X153920031Y-135316141D01*
X153911567Y-135255000D01*
X153914851Y-135149180D01*
X153956445Y-135121650D01*
X154068758Y-135110961D01*
X154089100Y-135108950D01*
X154145173Y-135060234D01*
X154168834Y-134988299D01*
X154219155Y-134892741D01*
X154283134Y-134873999D01*
X154359875Y-134843160D01*
X154381200Y-134743806D01*
X154397954Y-134648773D01*
X154465412Y-134626441D01*
X154495500Y-134629506D01*
X154582099Y-134621522D01*
X154609943Y-134546047D01*
X154610797Y-134519385D01*
X154621345Y-134441341D01*
X154669592Y-134404111D01*
X154782897Y-134392390D01*
X154839397Y-134391510D01*
X154983580Y-134383024D01*
X155054970Y-134351960D01*
X155081931Y-134285250D01*
X155082824Y-134279349D01*
X155141721Y-134179578D01*
X155209824Y-134153223D01*
X155309563Y-134095035D01*
X155337867Y-134018264D01*
X155372492Y-133930791D01*
X155452167Y-133924608D01*
X155526457Y-133922153D01*
X155549330Y-133845274D01*
X155549600Y-133827844D01*
X155571762Y-133734449D01*
X155657225Y-133705967D01*
X155676600Y-133705600D01*
X155751974Y-133697364D01*
X155789576Y-133655337D01*
X155802397Y-133553536D01*
X155803600Y-133451600D01*
X155807718Y-133300853D01*
X155828732Y-133225649D01*
X155879632Y-133200006D01*
X155930600Y-133197600D01*
X156030189Y-133173787D01*
X156057600Y-133096000D01*
X156087366Y-133016329D01*
X156184600Y-132994400D01*
X156259974Y-132986164D01*
X156297576Y-132944137D01*
X156310397Y-132842336D01*
X156311600Y-132740400D01*
X156316950Y-132588049D01*
X156339654Y-132512066D01*
X156389701Y-132487486D01*
X156413200Y-132486400D01*
X156474141Y-132473027D01*
X156504534Y-132416265D01*
X156514366Y-132291149D01*
X156514800Y-132232400D01*
X156518918Y-132081653D01*
X156539932Y-132006449D01*
X156590832Y-131980806D01*
X156641800Y-131978400D01*
X156720170Y-131968925D01*
X156757300Y-131922351D01*
X156768315Y-131811458D01*
X156768800Y-131749800D01*
X156768800Y-131521200D01*
X155346400Y-131521200D01*
X155346400Y-131775200D01*
X154635200Y-131775200D01*
X154353768Y-131775953D01*
X154158318Y-131779701D01*
X154033239Y-131788674D01*
X153962916Y-131805103D01*
X153931735Y-131831217D01*
X153924084Y-131869248D01*
X153924000Y-131876800D01*
X153918217Y-131918964D01*
X153889863Y-131947513D01*
X153822435Y-131965089D01*
X153699427Y-131974332D01*
X153504335Y-131977883D01*
X153289000Y-131978400D01*
X152654000Y-131978400D01*
X152654000Y-132103493D01*
X152649847Y-132162198D01*
X152624543Y-132199651D01*
X152558821Y-132221581D01*
X152433413Y-132233716D01*
X152229053Y-132241784D01*
X152184100Y-132243193D01*
X151963219Y-132251616D01*
X151824026Y-132263719D01*
X151746621Y-132284778D01*
X151711105Y-132320071D01*
X151697967Y-132372100D01*
X151680219Y-132434402D01*
X151633245Y-132468775D01*
X151532798Y-132483385D01*
X151358601Y-132486400D01*
X151182021Y-132489548D01*
X151082732Y-132504437D01*
X151036486Y-132539233D01*
X151019234Y-132600700D01*
X150994225Y-132672147D01*
X150927147Y-132710112D01*
X150790367Y-132728520D01*
X150761700Y-132730483D01*
X150615220Y-132745298D01*
X150543970Y-132775166D01*
X150521582Y-132835355D01*
X150520400Y-132870183D01*
X150514828Y-132935095D01*
X150483362Y-132972247D01*
X150403879Y-132989368D01*
X150254256Y-132994186D01*
X150164800Y-132994400D01*
X149977922Y-132997141D01*
X149870862Y-133009502D01*
X149821896Y-133037690D01*
X149809300Y-133087912D01*
X149809200Y-133096000D01*
X149795828Y-133156940D01*
X149739066Y-133187333D01*
X149613950Y-133197165D01*
X149555200Y-133197600D01*
X149404454Y-133201717D01*
X149329250Y-133222731D01*
X149303607Y-133273631D01*
X149301200Y-133324600D01*
X149291726Y-133402969D01*
X149245152Y-133440099D01*
X149134259Y-133451114D01*
X149072600Y-133451600D01*
X148931609Y-133456775D01*
X148864810Y-133482580D01*
X148844927Y-133544433D01*
X148844000Y-133580825D01*
X148839854Y-133647212D01*
X148812913Y-133684694D01*
X148741429Y-133700019D01*
X148603651Y-133699939D01*
X148475700Y-133695125D01*
X148284346Y-133684706D01*
X148172008Y-133667710D01*
X148116107Y-133636551D01*
X148094066Y-133583641D01*
X148091167Y-133565899D01*
X148077995Y-133512695D01*
X148043669Y-133479216D01*
X147968461Y-133460909D01*
X147832642Y-133453223D01*
X147616483Y-133451603D01*
X147595867Y-133451599D01*
X147373278Y-133450701D01*
X147233189Y-133444629D01*
X147156497Y-133428321D01*
X147124102Y-133396713D01*
X147116903Y-133344740D01*
X147116800Y-133324600D01*
X147116800Y-133197600D01*
X143313867Y-133197600D01*
X143297634Y-133311900D01*
X143284137Y-133364605D01*
X143248791Y-133398870D01*
X143172235Y-133419572D01*
X143035110Y-133431587D01*
X142818054Y-133439790D01*
X142786100Y-133440739D01*
X142559050Y-133448322D01*
X142414789Y-133458534D01*
X142334544Y-133476756D01*
X142299542Y-133508371D01*
X142291008Y-133558764D01*
X142290800Y-133582760D01*
X142286020Y-133650033D01*
X142256667Y-133686880D01*
X142180220Y-133700685D01*
X142034161Y-133698834D01*
X141947900Y-133695221D01*
X141764424Y-133684057D01*
X141659127Y-133665129D01*
X141608593Y-133630003D01*
X141589404Y-133570248D01*
X141588767Y-133565900D01*
X141566821Y-133496994D01*
X141508276Y-133463004D01*
X141385600Y-133452128D01*
X141322067Y-133451600D01*
X141172642Y-133447345D01*
X141098587Y-133425744D01*
X141073754Y-133373536D01*
X141071600Y-133324600D01*
X141062126Y-133246230D01*
X141015552Y-133209100D01*
X140904659Y-133198085D01*
X140843000Y-133197600D01*
X140700144Y-133190952D01*
X140632591Y-133163348D01*
X140614488Y-133103298D01*
X140614400Y-133096000D01*
X140604807Y-133042606D01*
X140561543Y-133012017D01*
X140462884Y-132998027D01*
X140287106Y-132994428D01*
X140258800Y-132994400D01*
X140072975Y-132992453D01*
X139966617Y-132981461D01*
X139917604Y-132953697D01*
X139903812Y-132901431D01*
X139903200Y-132870183D01*
X139892680Y-132794102D01*
X139843539Y-132754271D01*
X139729409Y-132735423D01*
X139661900Y-132730483D01*
X139513148Y-132714082D01*
X139441053Y-132681906D01*
X139420742Y-132621885D01*
X139420600Y-132613400D01*
X139410270Y-132560203D01*
X139365113Y-132527761D01*
X139263884Y-132509352D01*
X139085336Y-132498254D01*
X139052300Y-132496874D01*
X138862371Y-132487182D01*
X138752298Y-132471832D01*
X138700369Y-132442589D01*
X138684873Y-132391217D01*
X138684000Y-132357174D01*
X138680402Y-132299369D01*
X138656920Y-132262911D01*
X138594526Y-132242883D01*
X138474190Y-132234362D01*
X138276883Y-132232430D01*
X138201400Y-132232400D01*
X137977829Y-132231518D01*
X137836827Y-132225533D01*
X137759362Y-132209438D01*
X137726405Y-132178223D01*
X137718923Y-132126882D01*
X137718800Y-132105400D01*
X137718800Y-131978400D01*
X137115125Y-131978400D01*
X136858235Y-131977217D01*
X136685249Y-131971768D01*
X136578479Y-131959203D01*
X136520238Y-131936669D01*
X136492841Y-131901315D01*
X136484881Y-131876800D01*
X136467974Y-131836007D01*
X136431325Y-131807870D01*
X136358463Y-131790054D01*
X136232920Y-131780225D01*
X136038226Y-131776052D01*
X135767756Y-131775200D01*
X135077200Y-131775200D01*
X135077200Y-131518410D01*
X133629400Y-131546600D01*
G37*
X133629400Y-131546600D02*
X133619771Y-131762500D01*
X133619440Y-131898392D01*
X133644212Y-131960987D01*
X133708408Y-131978013D01*
X133731288Y-131978400D01*
X133805632Y-131989489D01*
X133844700Y-132040266D01*
X133863363Y-132156994D01*
X133867917Y-132219699D01*
X133884569Y-132369511D01*
X133918660Y-132445414D01*
X133984113Y-132475043D01*
X133997700Y-132477233D01*
X134066606Y-132499179D01*
X134100596Y-132557724D01*
X134111472Y-132680400D01*
X134112000Y-132743933D01*
X134116255Y-132893358D01*
X134137856Y-132967413D01*
X134190064Y-132992246D01*
X134239000Y-132994400D01*
X134338589Y-133018212D01*
X134366000Y-133096000D01*
X134401922Y-133180902D01*
X134467600Y-133197600D01*
X134528541Y-133210972D01*
X134558934Y-133267734D01*
X134568766Y-133392850D01*
X134569200Y-133451600D01*
X134573318Y-133602346D01*
X134594332Y-133677550D01*
X134645232Y-133703193D01*
X134696200Y-133705600D01*
X134796491Y-133730077D01*
X134823200Y-133803666D01*
X134866033Y-133891737D01*
X134937500Y-133917966D01*
X135040200Y-133975815D01*
X135068034Y-134048500D01*
X135113202Y-134140065D01*
X135207734Y-134162800D01*
X135306088Y-134188623D01*
X135331200Y-134261479D01*
X135351085Y-134326885D01*
X135427332Y-134361419D01*
X135547100Y-134375779D01*
X135688602Y-134395527D01*
X135757058Y-134437970D01*
X135778824Y-134502576D01*
X135837505Y-134603111D01*
X135905824Y-134629576D01*
X136006359Y-134688256D01*
X136032824Y-134756576D01*
X136091505Y-134857111D01*
X136159824Y-134883576D01*
X136259924Y-134942012D01*
X136287414Y-135015074D01*
X136331043Y-135105646D01*
X136389014Y-135116674D01*
X136460112Y-135141944D01*
X136490029Y-135239753D01*
X136508033Y-135320808D01*
X136555978Y-135364078D01*
X136661080Y-135384409D01*
X136769429Y-135392153D01*
X136923262Y-135405216D01*
X136999093Y-135429411D01*
X137020510Y-135477076D01*
X137017107Y-135521700D01*
X137024305Y-135607177D01*
X137097272Y-135635017D01*
X137131407Y-135636000D01*
X137229692Y-135655810D01*
X137260800Y-135734703D01*
X137261600Y-135763000D01*
X137282582Y-135859673D01*
X137365196Y-135889463D01*
X137388600Y-135890000D01*
X137485274Y-135910981D01*
X137515064Y-135993595D01*
X137515600Y-136017000D01*
X137525075Y-136095369D01*
X137571649Y-136132499D01*
X137682542Y-136143514D01*
X137744200Y-136144000D01*
X137887057Y-136150647D01*
X137954610Y-136178251D01*
X137972713Y-136238301D01*
X137972800Y-136245600D01*
X137986173Y-136306540D01*
X138042935Y-136336933D01*
X138168051Y-136346765D01*
X138226800Y-136347200D01*
X138377547Y-136351317D01*
X138452751Y-136372331D01*
X138478394Y-136423231D01*
X138480800Y-136474200D01*
X138504613Y-136573788D01*
X138582400Y-136601200D01*
X138662071Y-136630965D01*
X138684000Y-136728200D01*
X138704982Y-136824873D01*
X138787596Y-136854663D01*
X138811000Y-136855200D01*
X138877351Y-136860429D01*
X138915325Y-136890875D01*
X138932829Y-136968679D01*
X138937769Y-137115978D01*
X138938000Y-137210800D01*
X138936133Y-137396581D01*
X138925259Y-137502908D01*
X138897472Y-137551918D01*
X138844865Y-137565752D01*
X138811000Y-137566400D01*
X138750881Y-137570040D01*
X138713553Y-137593996D01*
X138693585Y-137657818D01*
X138685546Y-137781057D01*
X138684007Y-137983265D01*
X138684000Y-138023600D01*
X138682303Y-138240820D01*
X138674345Y-138375798D01*
X138655830Y-138447869D01*
X138622460Y-138476372D01*
X138582400Y-138480800D01*
X138540236Y-138486583D01*
X138511687Y-138514937D01*
X138494111Y-138582365D01*
X138484868Y-138705373D01*
X138481317Y-138900465D01*
X138480800Y-139115800D01*
X138480800Y-139750800D01*
X138353800Y-139750800D01*
X138278427Y-139759035D01*
X138240825Y-139801062D01*
X138228004Y-139902863D01*
X138226800Y-140004800D01*
X138226800Y-140258800D01*
X137972800Y-140258800D01*
X137822054Y-140254682D01*
X137746850Y-140233668D01*
X137721207Y-140182768D01*
X137718800Y-140131800D01*
X137694988Y-140032211D01*
X137617200Y-140004800D01*
X137537530Y-139975034D01*
X137515600Y-139877800D01*
X137507365Y-139802426D01*
X137465338Y-139764824D01*
X137363537Y-139752003D01*
X137261600Y-139750800D01*
X137110854Y-139746682D01*
X137035650Y-139725668D01*
X137010007Y-139674768D01*
X137007600Y-139623800D01*
X136986619Y-139527126D01*
X136904005Y-139497336D01*
X136880600Y-139496800D01*
X136781012Y-139472987D01*
X136753600Y-139395200D01*
X136723835Y-139315529D01*
X136626600Y-139293600D01*
X136527802Y-139270544D01*
X136499604Y-139188583D01*
X136499600Y-139187244D01*
X136457247Y-139086677D01*
X136400876Y-139055071D01*
X136314943Y-138984617D01*
X136286576Y-138894726D01*
X136268251Y-138813233D01*
X136219145Y-138773823D01*
X136110733Y-138761662D01*
X136029700Y-138761145D01*
X135884133Y-138757749D01*
X135813291Y-138735289D01*
X135790344Y-138677621D01*
X135788400Y-138615938D01*
X135777984Y-138514584D01*
X135728231Y-138489195D01*
X135661400Y-138501660D01*
X135567967Y-138511470D01*
X135536595Y-138457435D01*
X135534400Y-138405567D01*
X135510970Y-138305493D01*
X135432800Y-138277600D01*
X135347898Y-138241678D01*
X135331200Y-138176000D01*
X135317828Y-138115059D01*
X135261066Y-138084666D01*
X135135950Y-138074834D01*
X135077200Y-138074400D01*
X134926454Y-138070282D01*
X134851250Y-138049268D01*
X134825607Y-137998368D01*
X134823200Y-137947400D01*
X134802219Y-137850726D01*
X134719605Y-137820936D01*
X134696200Y-137820400D01*
X134599527Y-137799418D01*
X134569737Y-137716804D01*
X134569200Y-137693400D01*
X134545388Y-137593811D01*
X134467600Y-137566400D01*
X134387930Y-137536634D01*
X134366000Y-137439400D01*
X134345019Y-137342726D01*
X134262405Y-137312936D01*
X134239000Y-137312400D01*
X134138868Y-137288071D01*
X134112000Y-137213583D01*
X134094643Y-137151343D01*
X134026239Y-137117365D01*
X133882296Y-137100047D01*
X133870700Y-137099283D01*
X133720889Y-137082631D01*
X133644986Y-137048540D01*
X133615357Y-136983087D01*
X133613167Y-136969500D01*
X133567999Y-136877934D01*
X133473467Y-136855200D01*
X133378153Y-136832367D01*
X133350155Y-136745943D01*
X133350000Y-136734124D01*
X133311556Y-136622347D01*
X133246942Y-136586099D01*
X133167301Y-136547296D01*
X133151358Y-136516674D01*
X133144801Y-136399681D01*
X133065303Y-136350410D01*
X133019800Y-136347200D01*
X132920212Y-136323387D01*
X132892800Y-136245600D01*
X132877843Y-136182108D01*
X132815735Y-136152084D01*
X132680623Y-136144038D01*
X132664200Y-136144000D01*
X132521344Y-136150647D01*
X132453791Y-136178251D01*
X132435688Y-136238301D01*
X132435600Y-136245600D01*
X132399516Y-136330670D01*
X132335229Y-136347200D01*
X132298321Y-136352362D01*
X132271390Y-136377364D01*
X132252518Y-136436473D01*
X132239789Y-136543960D01*
X132231286Y-136714092D01*
X132225091Y-136961140D01*
X132220929Y-137198100D01*
X132215406Y-137509914D01*
X132209189Y-137734744D01*
X132200118Y-137887195D01*
X132186034Y-137981873D01*
X132164776Y-138033383D01*
X132134185Y-138056329D01*
X132092700Y-138065233D01*
X132050481Y-138074123D01*
X132020195Y-138096754D01*
X131999860Y-138147882D01*
X131987496Y-138242261D01*
X131981119Y-138394646D01*
X131978748Y-138619792D01*
X131978400Y-138916133D01*
X131978400Y-139750800D01*
X131724400Y-139750800D01*
X131724400Y-140617593D01*
X131724731Y-140932560D01*
X131726939Y-141159866D01*
X131732852Y-141313448D01*
X131744295Y-141407246D01*
X131763096Y-141455197D01*
X131791079Y-141471240D01*
X131830072Y-141469314D01*
X131835890Y-141468493D01*
X131937974Y-141489004D01*
X131975590Y-141554200D01*
X132018467Y-141623023D01*
X132114930Y-141652099D01*
X132207000Y-141655800D01*
X132339074Y-141663243D01*
X132401206Y-141698878D01*
X132424721Y-141782661D01*
X132426275Y-141795500D01*
X132444030Y-141879490D01*
X132490789Y-141920656D01*
X132594910Y-141934121D01*
X132688219Y-141935200D01*
X132834640Y-141939595D01*
X132902323Y-141959799D01*
X132913992Y-142006342D01*
X132907520Y-142036800D01*
X132902392Y-142098831D01*
X132945125Y-142128824D01*
X133058721Y-142138016D01*
X133115476Y-142138400D01*
X133258838Y-142143358D01*
X133327649Y-142167955D01*
X133348831Y-142226768D01*
X133350000Y-142265400D01*
X133358236Y-142340773D01*
X133400263Y-142378375D01*
X133502064Y-142391196D01*
X133604000Y-142392400D01*
X133756351Y-142397749D01*
X133832334Y-142420453D01*
X133856914Y-142470500D01*
X133858000Y-142494000D01*
X133871373Y-142554940D01*
X133928135Y-142585333D01*
X134053251Y-142595165D01*
X134112000Y-142595600D01*
X134262362Y-142598929D01*
X134337342Y-142619401D01*
X134363148Y-142672741D01*
X134366000Y-142748000D01*
X134372627Y-142841713D01*
X134410889Y-142886098D01*
X134508359Y-142899538D01*
X134594600Y-142900400D01*
X134735665Y-142905663D01*
X134802500Y-142931537D01*
X134822327Y-142993145D01*
X134823200Y-143027400D01*
X134831436Y-143102773D01*
X134873463Y-143140375D01*
X134975264Y-143153196D01*
X135077200Y-143154400D01*
X135227947Y-143158517D01*
X135303151Y-143179531D01*
X135328794Y-143230431D01*
X135331200Y-143281400D01*
X135355013Y-143380988D01*
X135432800Y-143408400D01*
X135496292Y-143423357D01*
X135526316Y-143485465D01*
X135534362Y-143620577D01*
X135534400Y-143637000D01*
X135539664Y-143778064D01*
X135565538Y-143844899D01*
X135627146Y-143864726D01*
X135661400Y-143865600D01*
X135736774Y-143873835D01*
X135774376Y-143915862D01*
X135787197Y-144017663D01*
X135788400Y-144119600D01*
X135792518Y-144270346D01*
X135813532Y-144345550D01*
X135864432Y-144371193D01*
X135915400Y-144373600D01*
X135983670Y-144379390D01*
X136021696Y-144412062D01*
X136038305Y-144494571D01*
X136042327Y-144649870D01*
X136042400Y-144703800D01*
X136040174Y-144881301D01*
X136027607Y-144980167D01*
X135995873Y-145023352D01*
X135936143Y-145033809D01*
X135915400Y-145034000D01*
X135850803Y-145038748D01*
X135812937Y-145067260D01*
X135794670Y-145140937D01*
X135788867Y-145281179D01*
X135788400Y-145415000D01*
X135786818Y-145608792D01*
X135777314Y-145722389D01*
X135752755Y-145777191D01*
X135706007Y-145794599D01*
X135661400Y-145796000D01*
X135534400Y-145796000D01*
X135534400Y-146812000D01*
X135788400Y-146812000D01*
X135940751Y-146817349D01*
X136016734Y-146840053D01*
X136041314Y-146890100D01*
X136042400Y-146913600D01*
X136072166Y-146993270D01*
X136169400Y-147015200D01*
X136266074Y-147036181D01*
X136295864Y-147118795D01*
X136296400Y-147142200D01*
X136305875Y-147220569D01*
X136352449Y-147257699D01*
X136463342Y-147268714D01*
X136525000Y-147269200D01*
X136666065Y-147274463D01*
X136732900Y-147300337D01*
X136752727Y-147361945D01*
X136753600Y-147396200D01*
X136771372Y-147488859D01*
X136845191Y-147521119D01*
X136897334Y-147523200D01*
X137002135Y-147539005D01*
X137036413Y-147601814D01*
X137037034Y-147637500D01*
X137066151Y-147734950D01*
X137147300Y-147768033D01*
X137242527Y-147817767D01*
X137261600Y-147878800D01*
X137217820Y-147963776D01*
X137147300Y-147989566D01*
X137044601Y-148047415D01*
X137016767Y-148120100D01*
X136971599Y-148211665D01*
X136877067Y-148234400D01*
X136777575Y-148261534D01*
X136753600Y-148310600D01*
X136765265Y-148334840D01*
X136807846Y-148353443D01*
X136892721Y-148367118D01*
X137031269Y-148376578D01*
X137234869Y-148382532D01*
X137514899Y-148385693D01*
X137882738Y-148386771D01*
X137972800Y-148386800D01*
X139192000Y-148386800D01*
X139192000Y-147828000D01*
X139193170Y-147583447D01*
X139198806Y-147422923D01*
X139212103Y-147328864D01*
X139236254Y-147283706D01*
X139274452Y-147269887D01*
X139293600Y-147269200D01*
X139357092Y-147254242D01*
X139387116Y-147192134D01*
X139395162Y-147057022D01*
X139395200Y-147040600D01*
X138480800Y-147040600D01*
X138475537Y-147181664D01*
X138449663Y-147248499D01*
X138388055Y-147268326D01*
X138353800Y-147269200D01*
X138274337Y-147279164D01*
X138237422Y-147327496D01*
X138227099Y-147441857D01*
X138226800Y-147489333D01*
X138218549Y-147654806D01*
X138185283Y-147742269D01*
X138114234Y-147774572D01*
X138065934Y-147777200D01*
X138009282Y-147760658D01*
X137981270Y-147694929D01*
X137972914Y-147555859D01*
X137972800Y-147526733D01*
X137967251Y-147374952D01*
X137942737Y-147296986D01*
X137887459Y-147265305D01*
X137858500Y-147260033D01*
X137783306Y-147231918D01*
X137744842Y-147156505D01*
X137728580Y-147027900D01*
X137709365Y-146887945D01*
X137669922Y-146824458D01*
X137614280Y-146812000D01*
X137552438Y-146827931D01*
X137523221Y-146892740D01*
X137515611Y-147031947D01*
X137515600Y-147040600D01*
X137510337Y-147181664D01*
X137484463Y-147248499D01*
X137422855Y-147268326D01*
X137388600Y-147269200D01*
X137291927Y-147248218D01*
X137262137Y-147165604D01*
X137261600Y-147142200D01*
X137253365Y-147066826D01*
X137211338Y-147029224D01*
X137109537Y-147016403D01*
X137007600Y-147015200D01*
X136855250Y-147009850D01*
X136779267Y-146987146D01*
X136754687Y-146937099D01*
X136753600Y-146913600D01*
X136723835Y-146833929D01*
X136626600Y-146812000D01*
X136529927Y-146791018D01*
X136500137Y-146708404D01*
X136499600Y-146685000D01*
X136490126Y-146606630D01*
X136443552Y-146569500D01*
X136332659Y-146558485D01*
X136271000Y-146558000D01*
X136042400Y-146558000D01*
X136042400Y-146180533D01*
X136044644Y-145986798D01*
X136055703Y-145872275D01*
X136082069Y-145814599D01*
X136130234Y-145791411D01*
X136156700Y-145786833D01*
X136232727Y-145758009D01*
X136271184Y-145680723D01*
X136286366Y-145559927D01*
X136310966Y-145411453D01*
X136364429Y-145338271D01*
X136400666Y-145323383D01*
X136482313Y-145257194D01*
X136499600Y-145162222D01*
X136514966Y-145064505D01*
X136577820Y-145039716D01*
X136613900Y-145043166D01*
X136708603Y-145091908D01*
X136744275Y-145199100D01*
X136777029Y-145304102D01*
X136859604Y-145338052D01*
X136883975Y-145338800D01*
X136981842Y-145364001D01*
X137007600Y-145440400D01*
X137038308Y-145520866D01*
X137131067Y-145542000D01*
X137234205Y-145571776D01*
X137270767Y-145656300D01*
X137328616Y-145758999D01*
X137401300Y-145786833D01*
X137496859Y-145837154D01*
X137515600Y-145901133D01*
X137553223Y-145983504D01*
X137617200Y-145999200D01*
X137696871Y-146028965D01*
X137718800Y-146126200D01*
X137739782Y-146222873D01*
X137822396Y-146252663D01*
X137845800Y-146253200D01*
X137936564Y-146269602D01*
X137969768Y-146339327D01*
X137972800Y-146405600D01*
X137986469Y-146514516D01*
X138044573Y-146554360D01*
X138099800Y-146558000D01*
X138196474Y-146578981D01*
X138226264Y-146661595D01*
X138226800Y-146685000D01*
X138247782Y-146781673D01*
X138330396Y-146811463D01*
X138353800Y-146812000D01*
X138432170Y-146821474D01*
X138469300Y-146868048D01*
X138480315Y-146978941D01*
X138480800Y-147040600D01*
X139395200Y-147040600D01*
X139388553Y-146897743D01*
X139360949Y-146830190D01*
X139300899Y-146812087D01*
X139293600Y-146812000D01*
X139213930Y-146782234D01*
X139192000Y-146685000D01*
X139183765Y-146609626D01*
X139141738Y-146572024D01*
X139039937Y-146559203D01*
X138938000Y-146558000D01*
X138787639Y-146554670D01*
X138712659Y-146534198D01*
X138686853Y-146480858D01*
X138684000Y-146405600D01*
X138668034Y-146294047D01*
X138608627Y-146254772D01*
X138582400Y-146253200D01*
X138502730Y-146223434D01*
X138480800Y-146126200D01*
X138459819Y-146029526D01*
X138377205Y-145999736D01*
X138353800Y-145999200D01*
X138253668Y-145974871D01*
X138226800Y-145900383D01*
X138209443Y-145838143D01*
X138141039Y-145804165D01*
X137997096Y-145786847D01*
X137985500Y-145786083D01*
X137835689Y-145769431D01*
X137759786Y-145735340D01*
X137730157Y-145669887D01*
X137727967Y-145656300D01*
X137677646Y-145560741D01*
X137613667Y-145542000D01*
X137531296Y-145504377D01*
X137515600Y-145440400D01*
X137485835Y-145360729D01*
X137388600Y-145338800D01*
X137297837Y-145322397D01*
X137264633Y-145252672D01*
X137261600Y-145186400D01*
X137247932Y-145077483D01*
X137189828Y-145037639D01*
X137134600Y-145034000D01*
X137035012Y-145010187D01*
X137007600Y-144932400D01*
X136977835Y-144852729D01*
X136880600Y-144830800D01*
X136802231Y-144821325D01*
X136765101Y-144774751D01*
X136754086Y-144663858D01*
X136753600Y-144602200D01*
X136748337Y-144461135D01*
X136722463Y-144394300D01*
X136660855Y-144374473D01*
X136626600Y-144373600D01*
X136527802Y-144350544D01*
X136499604Y-144268583D01*
X136499600Y-144267244D01*
X136456046Y-144165828D01*
X136398000Y-144134319D01*
X136335238Y-144100091D01*
X136304792Y-144022019D01*
X136296424Y-143872424D01*
X136296400Y-143859675D01*
X136292050Y-143711148D01*
X136270036Y-143637873D01*
X136216914Y-143613589D01*
X136169400Y-143611600D01*
X136069812Y-143587787D01*
X136042400Y-143510000D01*
X136012635Y-143430329D01*
X135915400Y-143408400D01*
X135817581Y-143372882D01*
X135778963Y-143292004D01*
X135801406Y-143204275D01*
X135886767Y-143148205D01*
X135902700Y-143145233D01*
X135998271Y-143094767D01*
X136017000Y-143027400D01*
X135975496Y-142936554D01*
X135902700Y-142909566D01*
X135817594Y-142872609D01*
X135789142Y-142775734D01*
X135788400Y-142744466D01*
X135802639Y-142637397D01*
X135863609Y-142598888D01*
X135919125Y-142595600D01*
X136013052Y-142566497D01*
X136035738Y-142501633D01*
X135990123Y-142434669D01*
X135902182Y-142401566D01*
X135808706Y-142352405D01*
X135778437Y-142266532D01*
X135809435Y-142182551D01*
X135899761Y-142139065D01*
X135915400Y-142138400D01*
X136012408Y-142117089D01*
X136042010Y-142034809D01*
X136042400Y-142015894D01*
X136063344Y-141924100D01*
X136131300Y-141910408D01*
X136250201Y-141924894D01*
X136359900Y-141931313D01*
X136466357Y-141954762D01*
X136499441Y-142028198D01*
X136499600Y-142036800D01*
X136512973Y-142097740D01*
X136569735Y-142128133D01*
X136694851Y-142137965D01*
X136753600Y-142138400D01*
X136906782Y-142132626D01*
X136983108Y-142109181D01*
X137006969Y-142058876D01*
X137007600Y-142042722D01*
X137052686Y-141955284D01*
X137134600Y-141922766D01*
X137229001Y-141920095D01*
X137260061Y-141979448D01*
X137261600Y-142018444D01*
X137284386Y-142110273D01*
X137371341Y-142138107D01*
X137388600Y-142138400D01*
X137485274Y-142159381D01*
X137515064Y-142241995D01*
X137515600Y-142265400D01*
X137525075Y-142343769D01*
X137571649Y-142380899D01*
X137682542Y-142391914D01*
X137744200Y-142392400D01*
X137887057Y-142399047D01*
X137954610Y-142426651D01*
X137972713Y-142486701D01*
X137972800Y-142494000D01*
X137986173Y-142554940D01*
X138042935Y-142585333D01*
X138168051Y-142595165D01*
X138226800Y-142595600D01*
X138377162Y-142598929D01*
X138452142Y-142619401D01*
X138477948Y-142672741D01*
X138480800Y-142748000D01*
X138487427Y-142841713D01*
X138525689Y-142886098D01*
X138623159Y-142899538D01*
X138709400Y-142900400D01*
X138850465Y-142905663D01*
X138917300Y-142931537D01*
X138937127Y-142993145D01*
X138938000Y-143027400D01*
X138946236Y-143102773D01*
X138988263Y-143140375D01*
X139090064Y-143153196D01*
X139192000Y-143154400D01*
X139342747Y-143158517D01*
X139417951Y-143179531D01*
X139443594Y-143230431D01*
X139446000Y-143281400D01*
X139455475Y-143359769D01*
X139502049Y-143396899D01*
X139612942Y-143407914D01*
X139674600Y-143408400D01*
X139817457Y-143415047D01*
X139885010Y-143442651D01*
X139903113Y-143502701D01*
X139903200Y-143510000D01*
X139918158Y-143573491D01*
X139980266Y-143603515D01*
X140115378Y-143611561D01*
X140131800Y-143611600D01*
X140274657Y-143604952D01*
X140342210Y-143577348D01*
X140360313Y-143517298D01*
X140360400Y-143510000D01*
X140330635Y-143430329D01*
X140233400Y-143408400D01*
X140136727Y-143387418D01*
X140106937Y-143304804D01*
X140106400Y-143281400D01*
X140081923Y-143181109D01*
X140008334Y-143154400D01*
X139920263Y-143111567D01*
X139894034Y-143040100D01*
X139836185Y-142937400D01*
X139763500Y-142909566D01*
X139671042Y-142863180D01*
X139649200Y-142773400D01*
X139617508Y-142671883D01*
X139534900Y-142637233D01*
X139439330Y-142586767D01*
X139420600Y-142519400D01*
X139379096Y-142428554D01*
X139306300Y-142401566D01*
X139234406Y-142377404D01*
X139200885Y-142312824D01*
X139192053Y-142178934D01*
X139192000Y-142160266D01*
X139186542Y-142020584D01*
X139159857Y-141954935D01*
X139096482Y-141935914D01*
X139065000Y-141935200D01*
X138998650Y-141929970D01*
X138960676Y-141899524D01*
X138943172Y-141821720D01*
X138938232Y-141674421D01*
X138938187Y-141655800D01*
X138480800Y-141655800D01*
X138480800Y-142138400D01*
X138226800Y-142138400D01*
X138074450Y-142133050D01*
X137998467Y-142110346D01*
X137973887Y-142060299D01*
X137972800Y-142036800D01*
X137957843Y-141973308D01*
X137895735Y-141943284D01*
X137760623Y-141935238D01*
X137744200Y-141935200D01*
X137603136Y-141929936D01*
X137536301Y-141904062D01*
X137516474Y-141842454D01*
X137515600Y-141808200D01*
X137492545Y-141709401D01*
X137410584Y-141681203D01*
X137409245Y-141681200D01*
X137307829Y-141637645D01*
X137276320Y-141579600D01*
X137241360Y-141516169D01*
X137161531Y-141485822D01*
X137008909Y-141478000D01*
X137007600Y-141478000D01*
X136854407Y-141485708D01*
X136774190Y-141515873D01*
X136739025Y-141579051D01*
X136738881Y-141579600D01*
X136670799Y-141665600D01*
X136605956Y-141681200D01*
X136517898Y-141647694D01*
X136499600Y-141579600D01*
X136484210Y-141515455D01*
X136420669Y-141485553D01*
X136282926Y-141478005D01*
X136276925Y-141478000D01*
X136130182Y-141487360D01*
X136055298Y-141523229D01*
X136027681Y-141579600D01*
X135959599Y-141665600D01*
X135894756Y-141681200D01*
X135812018Y-141708730D01*
X135788403Y-141806600D01*
X135788400Y-141808200D01*
X135767419Y-141904873D01*
X135684805Y-141934663D01*
X135661400Y-141935200D01*
X135561812Y-141959012D01*
X135534400Y-142036800D01*
X135498479Y-142121702D01*
X135432800Y-142138400D01*
X135368369Y-142153985D01*
X135338523Y-142218166D01*
X135331201Y-142357076D01*
X135331200Y-142358533D01*
X135326490Y-142497943D01*
X135314649Y-142587592D01*
X135308816Y-142601050D01*
X135248784Y-142614321D01*
X135124556Y-142621077D01*
X135067516Y-142621277D01*
X134926861Y-142612087D01*
X134858222Y-142578663D01*
X134832505Y-142506711D01*
X134832367Y-142505760D01*
X134807951Y-142434403D01*
X134742668Y-142401144D01*
X134607691Y-142392441D01*
X134591067Y-142392400D01*
X134451385Y-142386941D01*
X134385736Y-142360256D01*
X134366715Y-142296881D01*
X134366000Y-142265400D01*
X134357765Y-142190026D01*
X134315738Y-142152424D01*
X134213937Y-142139603D01*
X134112000Y-142138400D01*
X133959650Y-142133050D01*
X133883667Y-142110346D01*
X133859087Y-142060299D01*
X133858000Y-142036800D01*
X133844628Y-141975859D01*
X133787866Y-141945466D01*
X133662750Y-141935634D01*
X133604000Y-141935200D01*
X133453254Y-141931082D01*
X133378050Y-141910068D01*
X133352407Y-141859168D01*
X133350000Y-141808200D01*
X133339248Y-141727063D01*
X133288121Y-141690525D01*
X133168313Y-141681297D01*
X133142045Y-141681200D01*
X133000151Y-141670186D01*
X132929262Y-141628766D01*
X132907520Y-141579600D01*
X132869239Y-141513307D01*
X132781518Y-141483526D01*
X132661650Y-141478000D01*
X132523316Y-141471861D01*
X132456253Y-141441523D01*
X132430328Y-141369100D01*
X132426275Y-141338300D01*
X132389250Y-141229315D01*
X132308600Y-141198548D01*
X132268627Y-141193105D01*
X132240517Y-141166509D01*
X132221935Y-141103289D01*
X132210545Y-140987976D01*
X132204010Y-140805099D01*
X132199996Y-140539189D01*
X132199290Y-140474648D01*
X132191579Y-139750800D01*
X132435600Y-139750800D01*
X132435600Y-138912600D01*
X132436188Y-138603196D01*
X132439097Y-138381001D01*
X132446047Y-138231627D01*
X132458759Y-138140683D01*
X132478953Y-138093783D01*
X132508350Y-138076535D01*
X132535806Y-138074400D01*
X132575309Y-138068493D01*
X132603317Y-138040478D01*
X132622268Y-137974914D01*
X132634600Y-137856360D01*
X132642751Y-137669372D01*
X132649160Y-137398511D01*
X132650106Y-137350500D01*
X132656316Y-137066182D01*
X132663782Y-136867593D01*
X132675170Y-136738869D01*
X132693152Y-136664149D01*
X132720397Y-136627571D01*
X132759573Y-136613272D01*
X132774572Y-136610881D01*
X132865554Y-136625396D01*
X132901572Y-136712481D01*
X132947018Y-136807236D01*
X133062819Y-136846348D01*
X133164213Y-136872102D01*
X133187284Y-136930955D01*
X133180406Y-136966264D01*
X133187604Y-137058947D01*
X133251688Y-137095340D01*
X133332582Y-137157963D01*
X133350000Y-137216724D01*
X133383440Y-137292896D01*
X133476033Y-137312400D01*
X133584349Y-137344109D01*
X133633940Y-137439400D01*
X133667162Y-137519594D01*
X133734248Y-137556635D01*
X133866921Y-137566324D01*
X133888908Y-137566400D01*
X134029652Y-137573394D01*
X134095332Y-137602285D01*
X134111986Y-137664929D01*
X134112000Y-137668000D01*
X134141766Y-137747670D01*
X134239000Y-137769600D01*
X134329764Y-137786002D01*
X134362968Y-137855727D01*
X134366000Y-137922000D01*
X134381967Y-138033552D01*
X134441374Y-138072827D01*
X134467600Y-138074400D01*
X134552503Y-138110321D01*
X134569200Y-138176000D01*
X134604275Y-138260120D01*
X134675556Y-138277600D01*
X134776225Y-138320091D01*
X134807809Y-138376631D01*
X134849395Y-138442326D01*
X134947141Y-138477703D01*
X135069754Y-138490931D01*
X135217717Y-138507906D01*
X135292045Y-138543272D01*
X135320620Y-138611349D01*
X135322034Y-138620500D01*
X135372355Y-138716058D01*
X135436334Y-138734800D01*
X135508545Y-138760423D01*
X135533636Y-138853638D01*
X135534400Y-138887200D01*
X135548069Y-138996116D01*
X135606173Y-139035960D01*
X135661400Y-139039600D01*
X135758074Y-139060581D01*
X135787864Y-139143195D01*
X135788400Y-139166600D01*
X135796636Y-139241973D01*
X135838663Y-139279575D01*
X135940464Y-139292396D01*
X136042400Y-139293600D01*
X136194751Y-139298949D01*
X136270734Y-139321653D01*
X136295314Y-139371700D01*
X136296400Y-139395200D01*
X136332322Y-139480102D01*
X136398000Y-139496800D01*
X136477671Y-139526565D01*
X136499600Y-139623800D01*
X136520582Y-139720473D01*
X136603196Y-139750263D01*
X136626600Y-139750800D01*
X136723274Y-139771781D01*
X136753064Y-139854395D01*
X136753600Y-139877800D01*
X136774836Y-139974731D01*
X136857180Y-140004378D01*
X136877067Y-140004800D01*
X136980205Y-140034576D01*
X137016767Y-140119100D01*
X137041776Y-140190547D01*
X137108854Y-140228512D01*
X137245634Y-140246920D01*
X137274300Y-140248883D01*
X137423565Y-140265569D01*
X137495817Y-140298218D01*
X137515552Y-140358431D01*
X137515600Y-140363183D01*
X137552872Y-140446106D01*
X137617200Y-140462000D01*
X137696871Y-140491765D01*
X137718800Y-140589000D01*
X137727036Y-140664373D01*
X137769063Y-140701975D01*
X137870864Y-140714796D01*
X137972800Y-140716000D01*
X138226800Y-140716000D01*
X138226800Y-140944600D01*
X138232064Y-141085664D01*
X138257938Y-141152499D01*
X138319546Y-141172326D01*
X138353800Y-141173200D01*
X138412635Y-141176551D01*
X138449741Y-141199292D01*
X138470126Y-141260455D01*
X138478799Y-141379070D01*
X138480768Y-141574167D01*
X138480800Y-141655800D01*
X138938187Y-141655800D01*
X138938000Y-141579600D01*
X138936133Y-141393818D01*
X138925259Y-141287491D01*
X138897472Y-141238481D01*
X138844865Y-141224647D01*
X138811000Y-141224000D01*
X138684000Y-141224000D01*
X138684000Y-139750800D01*
X138938000Y-139750800D01*
X138938000Y-138480800D01*
X139065000Y-138480800D01*
X139125120Y-138477159D01*
X139162448Y-138453203D01*
X139182416Y-138389381D01*
X139190455Y-138266142D01*
X139191994Y-138063934D01*
X139192000Y-138023600D01*
X139193698Y-137806379D01*
X139201656Y-137671401D01*
X139220171Y-137599330D01*
X139253541Y-137570827D01*
X139293600Y-137566400D01*
X139333805Y-137561124D01*
X139361727Y-137534887D01*
X139379595Y-137472076D01*
X139389641Y-137357077D01*
X139394096Y-137174276D01*
X139395189Y-136908061D01*
X139395200Y-136855200D01*
X139394447Y-136573767D01*
X139390699Y-136378317D01*
X139381726Y-136253238D01*
X139365297Y-136182915D01*
X139339183Y-136151734D01*
X139301152Y-136144083D01*
X139293600Y-136144000D01*
X139208698Y-136179921D01*
X139192000Y-136245600D01*
X139162235Y-136325270D01*
X139065000Y-136347200D01*
X138965412Y-136323387D01*
X138938000Y-136245600D01*
X138923043Y-136182108D01*
X138860935Y-136152084D01*
X138725823Y-136144038D01*
X138709400Y-136144000D01*
X138568336Y-136138736D01*
X138501501Y-136112862D01*
X138481674Y-136051254D01*
X138480800Y-136017000D01*
X138472565Y-135941626D01*
X138430538Y-135904024D01*
X138328737Y-135891203D01*
X138226800Y-135890000D01*
X138076054Y-135885882D01*
X138000850Y-135864868D01*
X137975207Y-135813968D01*
X137972800Y-135763000D01*
X137963326Y-135684630D01*
X137916752Y-135647500D01*
X137805859Y-135636485D01*
X137744200Y-135636000D01*
X137603136Y-135630736D01*
X137536301Y-135604862D01*
X137516474Y-135543254D01*
X137515600Y-135509000D01*
X137494619Y-135412326D01*
X137412005Y-135382536D01*
X137388600Y-135382000D01*
X137291669Y-135360764D01*
X137262022Y-135278420D01*
X137261600Y-135258533D01*
X137231395Y-135154870D01*
X137149383Y-135118833D01*
X137048304Y-135064413D01*
X137009683Y-135000148D01*
X136943029Y-134914536D01*
X136880600Y-134898548D01*
X136787641Y-134856027D01*
X136752821Y-134772400D01*
X136704018Y-134673299D01*
X136613121Y-134651482D01*
X136553316Y-134647732D01*
X136519293Y-134613891D01*
X136503831Y-134528142D01*
X136499707Y-134368669D01*
X136499600Y-134308582D01*
X136496758Y-134123809D01*
X136483977Y-134018665D01*
X136454881Y-133971244D01*
X136403092Y-133959637D01*
X136398000Y-133959600D01*
X136337060Y-133946227D01*
X136306667Y-133889465D01*
X136296835Y-133764349D01*
X136296400Y-133705600D01*
X136292283Y-133554853D01*
X136271269Y-133479649D01*
X136220369Y-133454006D01*
X136169400Y-133451600D01*
X136103050Y-133446370D01*
X136065076Y-133415924D01*
X136047572Y-133338120D01*
X136042632Y-133190821D01*
X136042400Y-133096000D01*
X136040533Y-132910218D01*
X136029659Y-132803891D01*
X136001872Y-132754881D01*
X135949265Y-132741047D01*
X135915400Y-132740400D01*
X135840027Y-132732164D01*
X135802425Y-132690137D01*
X135789604Y-132588336D01*
X135788400Y-132486400D01*
X135788400Y-132232400D01*
X136271000Y-132232400D01*
X136494572Y-132233281D01*
X136635574Y-132239266D01*
X136713039Y-132255361D01*
X136745996Y-132286576D01*
X136753478Y-132337917D01*
X136753600Y-132359400D01*
X136753600Y-132486400D01*
X137972800Y-132486400D01*
X137972800Y-132613400D01*
X137978030Y-132679750D01*
X138008476Y-132717724D01*
X138086280Y-132735228D01*
X138233579Y-132740168D01*
X138328400Y-132740400D01*
X138514182Y-132742267D01*
X138620509Y-132753141D01*
X138669519Y-132780928D01*
X138683353Y-132833535D01*
X138684000Y-132867400D01*
X138688710Y-132931850D01*
X138717064Y-132969704D01*
X138790403Y-132988033D01*
X138930066Y-132993909D01*
X139067227Y-132994400D01*
X139262889Y-132997060D01*
X139376625Y-133008195D01*
X139428042Y-133032538D01*
X139436744Y-133074820D01*
X139435527Y-133083300D01*
X139440619Y-133130171D01*
X139488395Y-133159255D01*
X139598544Y-133176337D01*
X139788900Y-133187125D01*
X139978830Y-133196817D01*
X140088903Y-133212167D01*
X140140832Y-133241410D01*
X140156328Y-133292782D01*
X140157200Y-133326825D01*
X140167215Y-133404309D01*
X140215488Y-133440726D01*
X140329360Y-133451233D01*
X140382267Y-133451599D01*
X140524840Y-133458685D01*
X140595160Y-133489064D01*
X140622118Y-133556423D01*
X140623567Y-133565899D01*
X140652106Y-133641594D01*
X140728642Y-133680055D01*
X140852530Y-133695665D01*
X140993735Y-133716176D01*
X141061567Y-133760508D01*
X141081130Y-133819016D01*
X141107226Y-133887251D01*
X141177672Y-133920138D01*
X141320497Y-133930465D01*
X141325600Y-133930550D01*
X141469807Y-133939952D01*
X141541356Y-133971281D01*
X141568863Y-134038321D01*
X141570434Y-134048500D01*
X141587157Y-134108959D01*
X141631291Y-134143282D01*
X141726151Y-134158776D01*
X141895051Y-134162745D01*
X141935200Y-134162800D01*
X142119936Y-134160131D01*
X142226428Y-134147256D01*
X142277988Y-134116869D01*
X142297932Y-134061664D01*
X142299967Y-134048500D01*
X142314248Y-133995024D01*
X142351844Y-133959792D01*
X142432340Y-133937320D01*
X142575316Y-133922123D01*
X142798800Y-133908800D01*
X143031348Y-133893355D01*
X143178478Y-133874291D01*
X143256372Y-133848203D01*
X143281211Y-133811683D01*
X143281400Y-133807200D01*
X143292020Y-133787351D01*
X143329968Y-133770986D01*
X143404379Y-133757680D01*
X143524385Y-133747005D01*
X143699122Y-133738536D01*
X143937722Y-133731846D01*
X144249320Y-133726509D01*
X144643048Y-133722099D01*
X145128042Y-133718188D01*
X145199100Y-133717689D01*
X145690543Y-133714399D01*
X146089932Y-133712332D01*
X146406813Y-133711930D01*
X146650728Y-133713634D01*
X146831223Y-133717887D01*
X146957841Y-133725133D01*
X147040127Y-133735812D01*
X147087624Y-133750368D01*
X147109877Y-133769243D01*
X147116429Y-133792880D01*
X147116800Y-133806589D01*
X147124000Y-133854227D01*
X147158214Y-133884229D01*
X147238369Y-133900633D01*
X147383387Y-133907477D01*
X147595867Y-133908800D01*
X147819055Y-133910140D01*
X147960379Y-133917195D01*
X148039567Y-133934518D01*
X148076349Y-133966663D01*
X148090453Y-134018181D01*
X148091167Y-134023100D01*
X148108361Y-134082973D01*
X148153949Y-134118962D01*
X148250630Y-134138766D01*
X148421105Y-134150086D01*
X148471886Y-134152248D01*
X148661074Y-134157888D01*
X148771654Y-134151515D01*
X148826443Y-134127044D01*
X148848259Y-134078391D01*
X148852886Y-134050648D01*
X148879244Y-133974386D01*
X148949304Y-133940743D01*
X149072600Y-133933575D01*
X149207556Y-133923853D01*
X149271437Y-133885723D01*
X149291686Y-133821928D01*
X149317819Y-133751813D01*
X149388450Y-133714567D01*
X149531029Y-133696531D01*
X149545686Y-133695553D01*
X149694378Y-133678708D01*
X149769326Y-133643856D01*
X149798316Y-133576833D01*
X149800034Y-133565900D01*
X149824196Y-133494005D01*
X149888776Y-133460484D01*
X150022666Y-133451652D01*
X150041334Y-133451600D01*
X150181016Y-133446141D01*
X150246665Y-133419456D01*
X150265686Y-133356081D01*
X150266400Y-133324600D01*
X150271534Y-133258589D01*
X150301598Y-133220632D01*
X150378589Y-133202976D01*
X150524501Y-133197869D01*
X150626756Y-133197599D01*
X150817624Y-133194333D01*
X150930222Y-133180468D01*
X150987784Y-133149903D01*
X151013540Y-133096539D01*
X151013681Y-133095999D01*
X151041306Y-133040011D01*
X151103425Y-133009179D01*
X151224549Y-132996403D01*
X151364525Y-132994399D01*
X151540053Y-132992075D01*
X151637151Y-132979057D01*
X151678973Y-132946274D01*
X151688676Y-132884660D01*
X151688800Y-132867400D01*
X151694030Y-132801049D01*
X151724476Y-132763075D01*
X151802280Y-132745571D01*
X151949579Y-132740631D01*
X152044400Y-132740400D01*
X152230206Y-132738488D01*
X152336549Y-132727549D01*
X152385561Y-132699776D01*
X152399372Y-132647363D01*
X152400000Y-132614963D01*
X152400000Y-132489527D01*
X153022300Y-132475263D01*
X153282562Y-132468495D01*
X153458436Y-132459979D01*
X153567120Y-132446202D01*
X153625811Y-132423655D01*
X153651706Y-132388825D01*
X153661077Y-132344843D01*
X153673710Y-132290359D01*
X153706102Y-132257119D01*
X153778299Y-132240897D01*
X153910349Y-132237466D01*
X154122297Y-132242600D01*
X154142941Y-132243243D01*
X154608329Y-132257800D01*
X154608391Y-132486400D01*
X154601553Y-132630351D01*
X154572075Y-132701789D01*
X154506663Y-132729373D01*
X154494827Y-132731233D01*
X154433494Y-132748763D01*
X154399324Y-132795150D01*
X154384500Y-132894311D01*
X154381203Y-133070167D01*
X154381200Y-133078889D01*
X154377171Y-133261352D01*
X154360642Y-133366420D01*
X154324952Y-133418130D01*
X154282169Y-133436208D01*
X154216474Y-133477794D01*
X154181097Y-133575540D01*
X154167869Y-133698153D01*
X154145143Y-133851784D01*
X154105279Y-133933186D01*
X154089100Y-133940550D01*
X153989125Y-133951507D01*
X153974800Y-133953250D01*
X153948821Y-134003048D01*
X153930527Y-134127224D01*
X153924000Y-134289800D01*
X153921671Y-134467367D01*
X153908960Y-134566277D01*
X153877284Y-134609459D01*
X153818059Y-134619841D01*
X153800375Y-134620000D01*
X153704766Y-134643360D01*
X153664494Y-134732257D01*
X153660675Y-134759700D01*
X153628781Y-134863609D01*
X153581100Y-134905750D01*
X153486581Y-134916580D01*
X153472725Y-134918449D01*
X153424991Y-134966422D01*
X153401281Y-135026399D01*
X153345694Y-135109019D01*
X153293756Y-135128000D01*
X153227685Y-135171393D01*
X153212800Y-135255000D01*
X153196398Y-135345763D01*
X153126673Y-135378967D01*
X153060400Y-135382000D01*
X152951484Y-135395668D01*
X152911640Y-135453772D01*
X152908000Y-135509000D01*
X152899765Y-135584373D01*
X152857738Y-135621975D01*
X152755937Y-135634796D01*
X152654000Y-135636000D01*
X152503254Y-135640117D01*
X152428050Y-135661131D01*
X152402407Y-135712031D01*
X152400000Y-135763000D01*
X152390526Y-135841369D01*
X152343952Y-135878499D01*
X152233059Y-135889514D01*
X152171400Y-135890000D01*
X152030336Y-135895263D01*
X151963501Y-135921137D01*
X151943674Y-135982745D01*
X151942800Y-136017000D01*
X151932988Y-136096129D01*
X151885198Y-136133112D01*
X151771904Y-136143648D01*
X151720125Y-136144000D01*
X151573382Y-136153360D01*
X151498498Y-136189229D01*
X151470881Y-136245599D01*
X151409909Y-136328107D01*
X151317224Y-136342953D01*
X151236908Y-136290137D01*
X151216881Y-136245600D01*
X151161294Y-136162980D01*
X151109356Y-136144000D01*
X151076936Y-136155664D01*
X151054373Y-136200646D01*
X151039962Y-136293930D01*
X151031997Y-136450498D01*
X151028772Y-136685335D01*
X151028400Y-136855200D01*
X151029154Y-137136632D01*
X151032902Y-137332082D01*
X151041875Y-137457161D01*
X151058304Y-137527484D01*
X151084418Y-137558665D01*
X151122449Y-137566316D01*
X151130000Y-137566400D01*
X151178424Y-137574091D01*
X151208445Y-137610106D01*
X151224410Y-137693851D01*
X151230665Y-137844737D01*
X151231600Y-138020066D01*
X151233108Y-138236175D01*
X151240922Y-138370996D01*
X151259982Y-138444831D01*
X151295225Y-138477984D01*
X151345900Y-138489966D01*
X151393800Y-138501348D01*
X151426566Y-138530866D01*
X151447659Y-138595707D01*
X151460539Y-138713056D01*
X151468667Y-138900099D01*
X151474464Y-139128500D01*
X151481521Y-139389229D01*
X151490573Y-139564976D01*
X151504672Y-139672356D01*
X151526867Y-139727980D01*
X151560212Y-139748461D01*
X151588764Y-139750800D01*
X151628364Y-139756400D01*
X151655867Y-139783599D01*
X151673468Y-139847994D01*
X151683359Y-139965182D01*
X151687737Y-140150762D01*
X151688793Y-140420330D01*
X151688800Y-140462000D01*
X151687998Y-140743576D01*
X151684139Y-140939146D01*
X151675044Y-141064299D01*
X151658535Y-141134625D01*
X151632434Y-141165714D01*
X151594563Y-141173155D01*
X151589426Y-141173200D01*
X151537286Y-141184160D01*
X151505395Y-141231136D01*
X151487191Y-141335272D01*
X151476112Y-141517713D01*
X151475126Y-141541500D01*
X151464707Y-141732854D01*
X151447711Y-141845192D01*
X151416552Y-141901093D01*
X151363642Y-141923134D01*
X151345900Y-141926033D01*
X151274006Y-141950195D01*
X151240485Y-142014775D01*
X151231653Y-142148665D01*
X151231600Y-142167333D01*
X151224733Y-142308837D01*
X151196315Y-142375190D01*
X151134621Y-142392365D01*
X151130000Y-142392400D01*
X151044661Y-142428713D01*
X151028400Y-142490466D01*
X150985568Y-142578537D01*
X150914100Y-142604766D01*
X150819398Y-142653508D01*
X150783726Y-142760700D01*
X150750972Y-142865702D01*
X150668397Y-142899652D01*
X150644026Y-142900400D01*
X150549683Y-142922202D01*
X150520816Y-143006805D01*
X150520400Y-143027400D01*
X150499419Y-143124073D01*
X150416805Y-143153863D01*
X150393400Y-143154400D01*
X150296727Y-143175381D01*
X150266937Y-143257995D01*
X150266400Y-143281400D01*
X150242588Y-143380988D01*
X150164800Y-143408400D01*
X150079898Y-143444321D01*
X150063200Y-143510000D01*
X150078158Y-143573491D01*
X150140266Y-143603515D01*
X150275378Y-143611561D01*
X150291800Y-143611600D01*
X150434657Y-143604952D01*
X150502210Y-143577348D01*
X150520313Y-143517298D01*
X150520400Y-143510000D01*
X150535613Y-143446122D01*
X150598566Y-143416168D01*
X150735232Y-143408415D01*
X150745467Y-143408400D01*
X150888040Y-143401314D01*
X150958360Y-143370935D01*
X150985318Y-143303576D01*
X150986767Y-143294100D01*
X151015090Y-143219486D01*
X151091160Y-143177785D01*
X151231600Y-143154400D01*
X151378104Y-143129258D01*
X151450730Y-143086115D01*
X151476434Y-143014700D01*
X151500936Y-142942370D01*
X151566437Y-142908934D01*
X151702013Y-142900423D01*
X151714359Y-142900400D01*
X151853611Y-142894427D01*
X151921407Y-142864773D01*
X151947712Y-142793832D01*
X151952126Y-142760700D01*
X151973852Y-142671248D01*
X152031875Y-142626936D01*
X152156460Y-142607499D01*
X152184100Y-142605379D01*
X152324055Y-142586164D01*
X152387542Y-142546721D01*
X152400000Y-142491079D01*
X152414282Y-142431745D01*
X152473600Y-142402164D01*
X152602665Y-142392736D01*
X152654000Y-142392400D01*
X152804747Y-142388282D01*
X152879951Y-142367268D01*
X152905594Y-142316368D01*
X152908000Y-142265400D01*
X152924403Y-142174636D01*
X152994128Y-142141432D01*
X153060400Y-142138400D01*
X153171953Y-142122433D01*
X153211228Y-142063026D01*
X153212800Y-142036800D01*
X153248722Y-141951897D01*
X153314400Y-141935200D01*
X153399303Y-141971121D01*
X153416000Y-142036800D01*
X153429057Y-142097194D01*
X153484730Y-142127646D01*
X153607774Y-142137830D01*
X153675925Y-142138400D01*
X153827762Y-142134441D01*
X153900480Y-142116071D01*
X153916454Y-142073547D01*
X153909281Y-142036799D01*
X153903922Y-141976121D01*
X153944448Y-141945929D01*
X154053500Y-141935892D01*
X154131956Y-141935200D01*
X154283027Y-141941009D01*
X154357645Y-141964944D01*
X154380615Y-142016763D01*
X154381200Y-142033266D01*
X154424033Y-142121337D01*
X154495500Y-142147566D01*
X154598200Y-142205415D01*
X154626034Y-142278100D01*
X154619220Y-142363475D01*
X154546728Y-142391375D01*
X154511734Y-142392400D01*
X154409616Y-142424812D01*
X154375204Y-142496722D01*
X154411403Y-142570137D01*
X154495500Y-142604766D01*
X154590203Y-142653508D01*
X154625875Y-142760700D01*
X154623871Y-142862039D01*
X154567311Y-142897502D01*
X154511575Y-142900400D01*
X154413200Y-142920146D01*
X154382017Y-142998834D01*
X154381200Y-143027400D01*
X154402182Y-143124073D01*
X154484796Y-143153863D01*
X154508200Y-143154400D01*
X154604874Y-143175381D01*
X154634664Y-143257995D01*
X154635200Y-143281400D01*
X154614219Y-143378073D01*
X154531605Y-143407863D01*
X154508200Y-143408400D01*
X154408612Y-143432212D01*
X154381200Y-143510000D01*
X154345279Y-143594902D01*
X154279600Y-143611600D01*
X154218660Y-143624972D01*
X154188267Y-143681734D01*
X154178435Y-143806850D01*
X154178000Y-143865600D01*
X154173748Y-144016460D01*
X154152593Y-144091726D01*
X154101939Y-144117312D01*
X154054534Y-144119600D01*
X153951396Y-144149376D01*
X153914834Y-144233900D01*
X153856985Y-144336599D01*
X153784300Y-144364433D01*
X153712406Y-144388595D01*
X153678885Y-144453175D01*
X153670053Y-144587065D01*
X153670000Y-144605733D01*
X153664542Y-144745415D01*
X153637857Y-144811064D01*
X153574482Y-144830085D01*
X153543000Y-144830800D01*
X153446327Y-144851781D01*
X153416537Y-144934395D01*
X153416000Y-144957800D01*
X153392188Y-145057388D01*
X153314400Y-145084800D01*
X153234730Y-145114565D01*
X153212800Y-145211800D01*
X153196398Y-145302563D01*
X153126673Y-145335767D01*
X153060400Y-145338800D01*
X152948180Y-145355288D01*
X152909188Y-145415270D01*
X152908000Y-145436866D01*
X152865168Y-145524937D01*
X152793700Y-145551166D01*
X152691001Y-145609015D01*
X152663167Y-145681700D01*
X152641221Y-145750605D01*
X152582676Y-145784595D01*
X152460000Y-145795471D01*
X152396467Y-145796000D01*
X152244574Y-145801937D01*
X152169408Y-145825986D01*
X152146475Y-145877504D01*
X152146000Y-145891675D01*
X152103094Y-145981066D01*
X152044400Y-146013919D01*
X151958400Y-146082001D01*
X151942800Y-146146844D01*
X151915270Y-146229582D01*
X151817400Y-146253197D01*
X151815800Y-146253200D01*
X151725037Y-146269602D01*
X151691833Y-146339327D01*
X151688800Y-146405600D01*
X151682174Y-146499313D01*
X151643912Y-146543698D01*
X151546442Y-146557138D01*
X151460200Y-146558000D01*
X151319136Y-146563263D01*
X151252301Y-146589137D01*
X151232474Y-146650745D01*
X151231600Y-146685000D01*
X151207788Y-146784588D01*
X151130000Y-146812000D01*
X151066509Y-146826957D01*
X151036485Y-146889065D01*
X151028439Y-147024177D01*
X151028400Y-147040600D01*
X151035048Y-147183456D01*
X151062652Y-147251009D01*
X151122702Y-147269112D01*
X151130000Y-147269200D01*
X151174465Y-147275630D01*
X151203651Y-147306630D01*
X151220752Y-147379763D01*
X151228963Y-147512593D01*
X151231475Y-147722684D01*
X151231600Y-147828000D01*
X151231600Y-148386800D01*
X151688800Y-148386800D01*
X151688800Y-147015200D01*
X151815800Y-147015200D01*
X151915389Y-146991387D01*
X151942800Y-146913600D01*
X151978722Y-146828697D01*
X152044400Y-146812000D01*
X152124071Y-146782234D01*
X152146000Y-146685000D01*
X152166982Y-146588326D01*
X152249596Y-146558536D01*
X152273000Y-146558000D01*
X152363764Y-146541597D01*
X152396968Y-146471872D01*
X152400000Y-146405600D01*
X152413888Y-146296461D01*
X152471965Y-146256627D01*
X152523467Y-146253200D01*
X152626605Y-146223423D01*
X152663167Y-146138900D01*
X152721016Y-146036200D01*
X152793700Y-146008366D01*
X152889259Y-145958045D01*
X152908000Y-145894066D01*
X152933624Y-145821855D01*
X153026839Y-145796764D01*
X153060400Y-145796000D01*
X153169317Y-145782331D01*
X153209161Y-145724227D01*
X153212800Y-145669000D01*
X153236613Y-145569411D01*
X153314400Y-145542000D01*
X153399740Y-145505686D01*
X153416000Y-145443933D01*
X153458833Y-145355862D01*
X153530300Y-145329633D01*
X153625003Y-145280891D01*
X153660675Y-145173700D01*
X153693819Y-145068348D01*
X153776566Y-145034591D01*
X153797458Y-145034000D01*
X153886589Y-145014669D01*
X153900376Y-144942459D01*
X153898600Y-144932400D01*
X153903125Y-144859480D01*
X153972458Y-144832812D01*
X154028517Y-144830800D01*
X154121325Y-144823621D01*
X154164692Y-144783489D01*
X154177341Y-144682511D01*
X154178000Y-144608124D01*
X154187361Y-144461381D01*
X154223230Y-144386497D01*
X154279600Y-144358880D01*
X154365601Y-144290798D01*
X154381200Y-144225955D01*
X154414706Y-144137897D01*
X154482800Y-144119600D01*
X154563232Y-144088935D01*
X154584400Y-143995974D01*
X154607761Y-143900365D01*
X154696658Y-143860093D01*
X154724100Y-143856274D01*
X154863800Y-143840200D01*
X154863800Y-141965331D01*
X154736800Y-141934389D01*
X154635445Y-141877785D01*
X154613834Y-141792323D01*
X154590826Y-141705007D01*
X154499534Y-141681200D01*
X154404468Y-141653643D01*
X154381200Y-141579600D01*
X154365810Y-141515455D01*
X154302269Y-141485553D01*
X154164526Y-141478005D01*
X154158525Y-141478000D01*
X154011782Y-141487360D01*
X153936898Y-141523229D01*
X153909281Y-141579600D01*
X153852974Y-141659985D01*
X153767821Y-141683151D01*
X153693970Y-141649096D01*
X153670000Y-141579600D01*
X153655043Y-141516108D01*
X153592935Y-141486084D01*
X153457823Y-141478038D01*
X153441400Y-141478000D01*
X153298544Y-141484647D01*
X153230991Y-141512251D01*
X153212888Y-141572301D01*
X153212800Y-141579600D01*
X153188851Y-141653968D01*
X153099741Y-141680151D01*
X153060400Y-141681200D01*
X152951484Y-141694868D01*
X152911640Y-141752972D01*
X152908000Y-141808200D01*
X152899765Y-141883573D01*
X152857738Y-141921175D01*
X152755937Y-141933996D01*
X152654000Y-141935200D01*
X152501650Y-141940549D01*
X152425667Y-141963253D01*
X152401087Y-142013300D01*
X152400000Y-142036800D01*
X152385043Y-142100291D01*
X152322935Y-142130315D01*
X152187823Y-142138361D01*
X152171400Y-142138400D01*
X151942800Y-142138400D01*
X151942800Y-141676444D01*
X151944783Y-141456274D01*
X151953557Y-141317283D01*
X151973364Y-141239080D01*
X152008444Y-141201275D01*
X152044400Y-141187919D01*
X152084828Y-141171220D01*
X152112843Y-141135051D01*
X152130707Y-141063126D01*
X152140680Y-140939156D01*
X152145024Y-140746855D01*
X152146000Y-140469938D01*
X152146000Y-140456075D01*
X152145235Y-140176000D01*
X152141434Y-139981844D01*
X152132339Y-139857930D01*
X152115690Y-139788579D01*
X152089230Y-139758113D01*
X152050700Y-139750856D01*
X152044400Y-139750800D01*
X152002298Y-139745033D01*
X151973767Y-139716747D01*
X151956180Y-139649468D01*
X151946911Y-139526717D01*
X151943332Y-139332018D01*
X151942800Y-139113573D01*
X151940166Y-138833865D01*
X151931476Y-138643957D01*
X151915550Y-138532167D01*
X151891210Y-138486812D01*
X151879300Y-138484592D01*
X151791217Y-138489654D01*
X151735482Y-138465262D01*
X151704738Y-138393612D01*
X151691631Y-138256904D01*
X151688804Y-138037337D01*
X151688800Y-138023600D01*
X151687103Y-137806379D01*
X151679145Y-137671401D01*
X151660630Y-137599330D01*
X151627260Y-137570827D01*
X151587200Y-137566400D01*
X151533807Y-137556806D01*
X151503218Y-137513542D01*
X151489228Y-137414883D01*
X151485629Y-137239105D01*
X151485600Y-137210800D01*
X151488342Y-137023921D01*
X151500703Y-136916861D01*
X151528891Y-136867895D01*
X151579113Y-136855299D01*
X151587200Y-136855200D01*
X151666871Y-136825434D01*
X151688800Y-136728200D01*
X151709782Y-136631526D01*
X151792396Y-136601736D01*
X151815800Y-136601200D01*
X151912474Y-136580218D01*
X151942264Y-136497604D01*
X151942800Y-136474200D01*
X151952275Y-136395830D01*
X151998849Y-136358700D01*
X152109742Y-136347685D01*
X152171400Y-136347200D01*
X152314257Y-136340552D01*
X152381810Y-136312948D01*
X152399913Y-136252898D01*
X152400000Y-136245600D01*
X152413373Y-136184659D01*
X152470135Y-136154266D01*
X152595251Y-136144434D01*
X152654000Y-136144000D01*
X152804747Y-136139882D01*
X152879951Y-136118868D01*
X152905594Y-136067968D01*
X152908000Y-136017000D01*
X152924403Y-135926236D01*
X152994128Y-135893032D01*
X153060400Y-135890000D01*
X153169317Y-135876331D01*
X153209161Y-135818227D01*
X153212800Y-135763000D01*
X153236613Y-135663411D01*
X153314400Y-135636000D01*
X153394071Y-135606234D01*
X153416000Y-135509000D01*
X153423987Y-135434270D01*
X153465086Y-135396590D01*
X153565010Y-135383396D01*
X153675923Y-135382000D01*
X153827797Y-135378869D01*
X153901398Y-135361102D01*
X153920031Y-135316141D01*
X153911567Y-135255000D01*
X153914851Y-135149180D01*
X153956445Y-135121650D01*
X154068758Y-135110961D01*
X154089100Y-135108950D01*
X154145173Y-135060234D01*
X154168834Y-134988299D01*
X154219155Y-134892741D01*
X154283134Y-134873999D01*
X154359875Y-134843160D01*
X154381200Y-134743806D01*
X154397954Y-134648773D01*
X154465412Y-134626441D01*
X154495500Y-134629506D01*
X154582099Y-134621522D01*
X154609943Y-134546047D01*
X154610797Y-134519385D01*
X154621345Y-134441341D01*
X154669592Y-134404111D01*
X154782897Y-134392390D01*
X154839397Y-134391510D01*
X154983580Y-134383024D01*
X155054970Y-134351960D01*
X155081931Y-134285250D01*
X155082824Y-134279349D01*
X155141721Y-134179578D01*
X155209824Y-134153223D01*
X155309563Y-134095035D01*
X155337867Y-134018264D01*
X155372492Y-133930791D01*
X155452167Y-133924608D01*
X155526457Y-133922153D01*
X155549330Y-133845274D01*
X155549600Y-133827844D01*
X155571762Y-133734449D01*
X155657225Y-133705967D01*
X155676600Y-133705600D01*
X155751974Y-133697364D01*
X155789576Y-133655337D01*
X155802397Y-133553536D01*
X155803600Y-133451600D01*
X155807718Y-133300853D01*
X155828732Y-133225649D01*
X155879632Y-133200006D01*
X155930600Y-133197600D01*
X156030189Y-133173787D01*
X156057600Y-133096000D01*
X156087366Y-133016329D01*
X156184600Y-132994400D01*
X156259974Y-132986164D01*
X156297576Y-132944137D01*
X156310397Y-132842336D01*
X156311600Y-132740400D01*
X156316950Y-132588049D01*
X156339654Y-132512066D01*
X156389701Y-132487486D01*
X156413200Y-132486400D01*
X156474141Y-132473027D01*
X156504534Y-132416265D01*
X156514366Y-132291149D01*
X156514800Y-132232400D01*
X156518918Y-132081653D01*
X156539932Y-132006449D01*
X156590832Y-131980806D01*
X156641800Y-131978400D01*
X156720170Y-131968925D01*
X156757300Y-131922351D01*
X156768315Y-131811458D01*
X156768800Y-131749800D01*
X156768800Y-131521200D01*
X155346400Y-131521200D01*
X155346400Y-131775200D01*
X154635200Y-131775200D01*
X154353768Y-131775953D01*
X154158318Y-131779701D01*
X154033239Y-131788674D01*
X153962916Y-131805103D01*
X153931735Y-131831217D01*
X153924084Y-131869248D01*
X153924000Y-131876800D01*
X153918217Y-131918964D01*
X153889863Y-131947513D01*
X153822435Y-131965089D01*
X153699427Y-131974332D01*
X153504335Y-131977883D01*
X153289000Y-131978400D01*
X152654000Y-131978400D01*
X152654000Y-132103493D01*
X152649847Y-132162198D01*
X152624543Y-132199651D01*
X152558821Y-132221581D01*
X152433413Y-132233716D01*
X152229053Y-132241784D01*
X152184100Y-132243193D01*
X151963219Y-132251616D01*
X151824026Y-132263719D01*
X151746621Y-132284778D01*
X151711105Y-132320071D01*
X151697967Y-132372100D01*
X151680219Y-132434402D01*
X151633245Y-132468775D01*
X151532798Y-132483385D01*
X151358601Y-132486400D01*
X151182021Y-132489548D01*
X151082732Y-132504437D01*
X151036486Y-132539233D01*
X151019234Y-132600700D01*
X150994225Y-132672147D01*
X150927147Y-132710112D01*
X150790367Y-132728520D01*
X150761700Y-132730483D01*
X150615220Y-132745298D01*
X150543970Y-132775166D01*
X150521582Y-132835355D01*
X150520400Y-132870183D01*
X150514828Y-132935095D01*
X150483362Y-132972247D01*
X150403879Y-132989368D01*
X150254256Y-132994186D01*
X150164800Y-132994400D01*
X149977922Y-132997141D01*
X149870862Y-133009502D01*
X149821896Y-133037690D01*
X149809300Y-133087912D01*
X149809200Y-133096000D01*
X149795828Y-133156940D01*
X149739066Y-133187333D01*
X149613950Y-133197165D01*
X149555200Y-133197600D01*
X149404454Y-133201717D01*
X149329250Y-133222731D01*
X149303607Y-133273631D01*
X149301200Y-133324600D01*
X149291726Y-133402969D01*
X149245152Y-133440099D01*
X149134259Y-133451114D01*
X149072600Y-133451600D01*
X148931609Y-133456775D01*
X148864810Y-133482580D01*
X148844927Y-133544433D01*
X148844000Y-133580825D01*
X148839854Y-133647212D01*
X148812913Y-133684694D01*
X148741429Y-133700019D01*
X148603651Y-133699939D01*
X148475700Y-133695125D01*
X148284346Y-133684706D01*
X148172008Y-133667710D01*
X148116107Y-133636551D01*
X148094066Y-133583641D01*
X148091167Y-133565899D01*
X148077995Y-133512695D01*
X148043669Y-133479216D01*
X147968461Y-133460909D01*
X147832642Y-133453223D01*
X147616483Y-133451603D01*
X147595867Y-133451599D01*
X147373278Y-133450701D01*
X147233189Y-133444629D01*
X147156497Y-133428321D01*
X147124102Y-133396713D01*
X147116903Y-133344740D01*
X147116800Y-133324600D01*
X147116800Y-133197600D01*
X143313867Y-133197600D01*
X143297634Y-133311900D01*
X143284137Y-133364605D01*
X143248791Y-133398870D01*
X143172235Y-133419572D01*
X143035110Y-133431587D01*
X142818054Y-133439790D01*
X142786100Y-133440739D01*
X142559050Y-133448322D01*
X142414789Y-133458534D01*
X142334544Y-133476756D01*
X142299542Y-133508371D01*
X142291008Y-133558764D01*
X142290800Y-133582760D01*
X142286020Y-133650033D01*
X142256667Y-133686880D01*
X142180220Y-133700685D01*
X142034161Y-133698834D01*
X141947900Y-133695221D01*
X141764424Y-133684057D01*
X141659127Y-133665129D01*
X141608593Y-133630003D01*
X141589404Y-133570248D01*
X141588767Y-133565900D01*
X141566821Y-133496994D01*
X141508276Y-133463004D01*
X141385600Y-133452128D01*
X141322067Y-133451600D01*
X141172642Y-133447345D01*
X141098587Y-133425744D01*
X141073754Y-133373536D01*
X141071600Y-133324600D01*
X141062126Y-133246230D01*
X141015552Y-133209100D01*
X140904659Y-133198085D01*
X140843000Y-133197600D01*
X140700144Y-133190952D01*
X140632591Y-133163348D01*
X140614488Y-133103298D01*
X140614400Y-133096000D01*
X140604807Y-133042606D01*
X140561543Y-133012017D01*
X140462884Y-132998027D01*
X140287106Y-132994428D01*
X140258800Y-132994400D01*
X140072975Y-132992453D01*
X139966617Y-132981461D01*
X139917604Y-132953697D01*
X139903812Y-132901431D01*
X139903200Y-132870183D01*
X139892680Y-132794102D01*
X139843539Y-132754271D01*
X139729409Y-132735423D01*
X139661900Y-132730483D01*
X139513148Y-132714082D01*
X139441053Y-132681906D01*
X139420742Y-132621885D01*
X139420600Y-132613400D01*
X139410270Y-132560203D01*
X139365113Y-132527761D01*
X139263884Y-132509352D01*
X139085336Y-132498254D01*
X139052300Y-132496874D01*
X138862371Y-132487182D01*
X138752298Y-132471832D01*
X138700369Y-132442589D01*
X138684873Y-132391217D01*
X138684000Y-132357174D01*
X138680402Y-132299369D01*
X138656920Y-132262911D01*
X138594526Y-132242883D01*
X138474190Y-132234362D01*
X138276883Y-132232430D01*
X138201400Y-132232400D01*
X137977829Y-132231518D01*
X137836827Y-132225533D01*
X137759362Y-132209438D01*
X137726405Y-132178223D01*
X137718923Y-132126882D01*
X137718800Y-132105400D01*
X137718800Y-131978400D01*
X137115125Y-131978400D01*
X136858235Y-131977217D01*
X136685249Y-131971768D01*
X136578479Y-131959203D01*
X136520238Y-131936669D01*
X136492841Y-131901315D01*
X136484881Y-131876800D01*
X136467974Y-131836007D01*
X136431325Y-131807870D01*
X136358463Y-131790054D01*
X136232920Y-131780225D01*
X136038226Y-131776052D01*
X135767756Y-131775200D01*
X135077200Y-131775200D01*
X135077200Y-131518410D01*
X133629400Y-131546600D01*
G36*
X145224500Y-139507593D02*
G01*
X145003619Y-139516016D01*
X144864426Y-139528119D01*
X144787021Y-139549178D01*
X144751505Y-139584471D01*
X144738367Y-139636500D01*
X144693199Y-139728065D01*
X144598667Y-139750800D01*
X144504433Y-139772643D01*
X144475610Y-139857343D01*
X144475200Y-139877800D01*
X144466965Y-139953173D01*
X144424938Y-139990775D01*
X144323137Y-140003596D01*
X144221200Y-140004800D01*
X144070454Y-140000682D01*
X143995250Y-139979668D01*
X143969607Y-139928768D01*
X143967200Y-139877800D01*
X143943388Y-139778211D01*
X143865600Y-139750800D01*
X143785930Y-139721034D01*
X143764000Y-139623800D01*
X143754526Y-139545430D01*
X143707952Y-139508300D01*
X143597059Y-139497285D01*
X143535400Y-139496800D01*
X143306800Y-139496800D01*
X143306800Y-139750800D01*
X143310918Y-139901546D01*
X143331932Y-139976750D01*
X143382832Y-140002393D01*
X143433800Y-140004800D01*
X143530474Y-140025781D01*
X143560264Y-140108395D01*
X143560800Y-140131800D01*
X143570275Y-140210169D01*
X143616849Y-140247299D01*
X143727742Y-140258314D01*
X143789400Y-140258800D01*
X143932257Y-140265447D01*
X143999810Y-140293051D01*
X144017913Y-140353101D01*
X144018000Y-140360400D01*
X144046970Y-140439388D01*
X144148058Y-140462000D01*
X144278116Y-140462000D01*
X144271703Y-140906500D01*
X144268265Y-141152409D01*
X144268554Y-141313426D01*
X144275748Y-141406259D01*
X144293028Y-141447615D01*
X144323572Y-141454199D01*
X144370561Y-141442720D01*
X144373600Y-141441919D01*
X144426368Y-141435771D01*
X144456825Y-141465152D01*
X144471036Y-141550063D01*
X144475069Y-141710503D01*
X144475200Y-141776875D01*
X144476996Y-141964548D01*
X144487525Y-142072587D01*
X144514501Y-142122952D01*
X144565641Y-142137604D01*
X144602200Y-142138400D01*
X144698874Y-142159381D01*
X144728664Y-142241995D01*
X144729200Y-142265400D01*
X144732552Y-142324234D01*
X144755293Y-142361340D01*
X144816456Y-142381725D01*
X144935071Y-142390398D01*
X145130168Y-142392367D01*
X145211800Y-142392400D01*
X145435809Y-142391009D01*
X145577151Y-142384057D01*
X145654747Y-142367373D01*
X145687521Y-142336787D01*
X145694396Y-142288130D01*
X145694400Y-142286044D01*
X145737055Y-142185256D01*
X145793801Y-142153694D01*
X145848845Y-142124274D01*
X145881858Y-142056195D01*
X145900222Y-141925974D01*
X145908101Y-141790150D01*
X145919360Y-141608365D01*
X145938697Y-141504572D01*
X145974735Y-141455166D01*
X146036094Y-141436539D01*
X146037300Y-141436366D01*
X146090505Y-141423194D01*
X146123984Y-141388868D01*
X146142291Y-141313660D01*
X146149977Y-141177841D01*
X146151597Y-140961682D01*
X146151600Y-140941066D01*
X146152499Y-140718477D01*
X146156753Y-140620324D01*
X145897600Y-140620324D01*
X145894769Y-140805319D01*
X145882033Y-140910664D01*
X145853034Y-140958247D01*
X145801412Y-140969957D01*
X145796000Y-140970000D01*
X145748779Y-140977287D01*
X145718976Y-141011713D01*
X145702624Y-141092126D01*
X145695756Y-141237370D01*
X145694400Y-141452600D01*
X145693519Y-141676171D01*
X145687534Y-141817173D01*
X145671439Y-141894638D01*
X145640224Y-141927595D01*
X145588883Y-141935077D01*
X145567400Y-141935200D01*
X145467812Y-141959012D01*
X145440400Y-142036800D01*
X145427028Y-142097740D01*
X145370266Y-142128133D01*
X145245150Y-142137965D01*
X145186400Y-142138400D01*
X145033219Y-142132626D01*
X144956892Y-142109180D01*
X144933032Y-142058876D01*
X144932400Y-142042724D01*
X144889494Y-141953333D01*
X144830800Y-141920480D01*
X144782492Y-141898833D01*
X144752427Y-141851076D01*
X144736367Y-141756818D01*
X144730070Y-141595669D01*
X144729200Y-141431955D01*
X144728215Y-141214174D01*
X144721695Y-141078542D01*
X144704291Y-141005608D01*
X144670657Y-140975922D01*
X144615446Y-140970033D01*
X144602200Y-140970000D01*
X144535850Y-140964770D01*
X144497876Y-140934324D01*
X144480372Y-140856520D01*
X144475432Y-140709221D01*
X144475200Y-140614400D01*
X144477068Y-140428618D01*
X144487942Y-140322291D01*
X144515729Y-140273281D01*
X144568336Y-140259447D01*
X144602200Y-140258800D01*
X144698874Y-140237818D01*
X144728664Y-140155204D01*
X144729200Y-140131800D01*
X144732552Y-140072965D01*
X144755293Y-140035859D01*
X144816456Y-140015474D01*
X144935071Y-140006801D01*
X145130168Y-140004832D01*
X145211800Y-140004800D01*
X145435809Y-140006190D01*
X145577151Y-140013142D01*
X145654747Y-140029826D01*
X145687521Y-140060412D01*
X145694396Y-140109069D01*
X145694400Y-140111155D01*
X145737955Y-140212571D01*
X145796000Y-140244080D01*
X145850250Y-140270228D01*
X145881017Y-140328776D01*
X145894673Y-140443318D01*
X145897600Y-140620324D01*
X146156753Y-140620324D01*
X146158571Y-140578388D01*
X146174879Y-140501696D01*
X146206487Y-140469301D01*
X146258460Y-140462102D01*
X146278600Y-140462000D01*
X146378733Y-140437671D01*
X146405600Y-140363183D01*
X146422958Y-140300943D01*
X146491362Y-140266965D01*
X146635305Y-140249647D01*
X146646900Y-140248883D01*
X146797535Y-140231791D01*
X146873757Y-140197020D01*
X146902651Y-140131430D01*
X146903755Y-140124278D01*
X146957198Y-140025325D01*
X147018055Y-139989334D01*
X147081000Y-139952372D01*
X147110364Y-139866578D01*
X147116800Y-139730155D01*
X147116800Y-139496800D01*
X146888200Y-139496800D01*
X146747136Y-139502063D01*
X146680301Y-139527937D01*
X146660474Y-139589545D01*
X146659600Y-139623800D01*
X146638619Y-139720473D01*
X146556005Y-139750263D01*
X146532600Y-139750800D01*
X146435927Y-139771781D01*
X146406137Y-139854395D01*
X146405600Y-139877800D01*
X146397365Y-139953173D01*
X146355338Y-139990775D01*
X146253537Y-140003596D01*
X146151600Y-140004800D01*
X146000854Y-140000682D01*
X145925650Y-139979668D01*
X145900007Y-139928768D01*
X145897600Y-139877800D01*
X145873788Y-139778211D01*
X145796000Y-139750800D01*
X145716756Y-139721533D01*
X145694400Y-139621893D01*
X145694400Y-139492987D01*
X145224500Y-139507593D01*
G37*
X145224500Y-139507593D02*
X145003619Y-139516016D01*
X144864426Y-139528119D01*
X144787021Y-139549178D01*
X144751505Y-139584471D01*
X144738367Y-139636500D01*
X144693199Y-139728065D01*
X144598667Y-139750800D01*
X144504433Y-139772643D01*
X144475610Y-139857343D01*
X144475200Y-139877800D01*
X144466965Y-139953173D01*
X144424938Y-139990775D01*
X144323137Y-140003596D01*
X144221200Y-140004800D01*
X144070454Y-140000682D01*
X143995250Y-139979668D01*
X143969607Y-139928768D01*
X143967200Y-139877800D01*
X143943388Y-139778211D01*
X143865600Y-139750800D01*
X143785930Y-139721034D01*
X143764000Y-139623800D01*
X143754526Y-139545430D01*
X143707952Y-139508300D01*
X143597059Y-139497285D01*
X143535400Y-139496800D01*
X143306800Y-139496800D01*
X143306800Y-139750800D01*
X143310918Y-139901546D01*
X143331932Y-139976750D01*
X143382832Y-140002393D01*
X143433800Y-140004800D01*
X143530474Y-140025781D01*
X143560264Y-140108395D01*
X143560800Y-140131800D01*
X143570275Y-140210169D01*
X143616849Y-140247299D01*
X143727742Y-140258314D01*
X143789400Y-140258800D01*
X143932257Y-140265447D01*
X143999810Y-140293051D01*
X144017913Y-140353101D01*
X144018000Y-140360400D01*
X144046970Y-140439388D01*
X144148058Y-140462000D01*
X144278116Y-140462000D01*
X144271703Y-140906500D01*
X144268265Y-141152409D01*
X144268554Y-141313426D01*
X144275748Y-141406259D01*
X144293028Y-141447615D01*
X144323572Y-141454199D01*
X144370561Y-141442720D01*
X144373600Y-141441919D01*
X144426368Y-141435771D01*
X144456825Y-141465152D01*
X144471036Y-141550063D01*
X144475069Y-141710503D01*
X144475200Y-141776875D01*
X144476996Y-141964548D01*
X144487525Y-142072587D01*
X144514501Y-142122952D01*
X144565641Y-142137604D01*
X144602200Y-142138400D01*
X144698874Y-142159381D01*
X144728664Y-142241995D01*
X144729200Y-142265400D01*
X144732552Y-142324234D01*
X144755293Y-142361340D01*
X144816456Y-142381725D01*
X144935071Y-142390398D01*
X145130168Y-142392367D01*
X145211800Y-142392400D01*
X145435809Y-142391009D01*
X145577151Y-142384057D01*
X145654747Y-142367373D01*
X145687521Y-142336787D01*
X145694396Y-142288130D01*
X145694400Y-142286044D01*
X145737055Y-142185256D01*
X145793801Y-142153694D01*
X145848845Y-142124274D01*
X145881858Y-142056195D01*
X145900222Y-141925974D01*
X145908101Y-141790150D01*
X145919360Y-141608365D01*
X145938697Y-141504572D01*
X145974735Y-141455166D01*
X146036094Y-141436539D01*
X146037300Y-141436366D01*
X146090505Y-141423194D01*
X146123984Y-141388868D01*
X146142291Y-141313660D01*
X146149977Y-141177841D01*
X146151597Y-140961682D01*
X146151600Y-140941066D01*
X146152499Y-140718477D01*
X146156753Y-140620324D01*
X145897600Y-140620324D01*
X145894769Y-140805319D01*
X145882033Y-140910664D01*
X145853034Y-140958247D01*
X145801412Y-140969957D01*
X145796000Y-140970000D01*
X145748779Y-140977287D01*
X145718976Y-141011713D01*
X145702624Y-141092126D01*
X145695756Y-141237370D01*
X145694400Y-141452600D01*
X145693519Y-141676171D01*
X145687534Y-141817173D01*
X145671439Y-141894638D01*
X145640224Y-141927595D01*
X145588883Y-141935077D01*
X145567400Y-141935200D01*
X145467812Y-141959012D01*
X145440400Y-142036800D01*
X145427028Y-142097740D01*
X145370266Y-142128133D01*
X145245150Y-142137965D01*
X145186400Y-142138400D01*
X145033219Y-142132626D01*
X144956892Y-142109180D01*
X144933032Y-142058876D01*
X144932400Y-142042724D01*
X144889494Y-141953333D01*
X144830800Y-141920480D01*
X144782492Y-141898833D01*
X144752427Y-141851076D01*
X144736367Y-141756818D01*
X144730070Y-141595669D01*
X144729200Y-141431955D01*
X144728215Y-141214174D01*
X144721695Y-141078542D01*
X144704291Y-141005608D01*
X144670657Y-140975922D01*
X144615446Y-140970033D01*
X144602200Y-140970000D01*
X144535850Y-140964770D01*
X144497876Y-140934324D01*
X144480372Y-140856520D01*
X144475432Y-140709221D01*
X144475200Y-140614400D01*
X144477068Y-140428618D01*
X144487942Y-140322291D01*
X144515729Y-140273281D01*
X144568336Y-140259447D01*
X144602200Y-140258800D01*
X144698874Y-140237818D01*
X144728664Y-140155204D01*
X144729200Y-140131800D01*
X144732552Y-140072965D01*
X144755293Y-140035859D01*
X144816456Y-140015474D01*
X144935071Y-140006801D01*
X145130168Y-140004832D01*
X145211800Y-140004800D01*
X145435809Y-140006190D01*
X145577151Y-140013142D01*
X145654747Y-140029826D01*
X145687521Y-140060412D01*
X145694396Y-140109069D01*
X145694400Y-140111155D01*
X145737955Y-140212571D01*
X145796000Y-140244080D01*
X145850250Y-140270228D01*
X145881017Y-140328776D01*
X145894673Y-140443318D01*
X145897600Y-140620324D01*
X146156753Y-140620324D01*
X146158571Y-140578388D01*
X146174879Y-140501696D01*
X146206487Y-140469301D01*
X146258460Y-140462102D01*
X146278600Y-140462000D01*
X146378733Y-140437671D01*
X146405600Y-140363183D01*
X146422958Y-140300943D01*
X146491362Y-140266965D01*
X146635305Y-140249647D01*
X146646900Y-140248883D01*
X146797535Y-140231791D01*
X146873757Y-140197020D01*
X146902651Y-140131430D01*
X146903755Y-140124278D01*
X146957198Y-140025325D01*
X147018055Y-139989334D01*
X147081000Y-139952372D01*
X147110364Y-139866578D01*
X147116800Y-139730155D01*
X147116800Y-139496800D01*
X146888200Y-139496800D01*
X146747136Y-139502063D01*
X146680301Y-139527937D01*
X146660474Y-139589545D01*
X146659600Y-139623800D01*
X146638619Y-139720473D01*
X146556005Y-139750263D01*
X146532600Y-139750800D01*
X146435927Y-139771781D01*
X146406137Y-139854395D01*
X146405600Y-139877800D01*
X146397365Y-139953173D01*
X146355338Y-139990775D01*
X146253537Y-140003596D01*
X146151600Y-140004800D01*
X146000854Y-140000682D01*
X145925650Y-139979668D01*
X145900007Y-139928768D01*
X145897600Y-139877800D01*
X145873788Y-139778211D01*
X145796000Y-139750800D01*
X145716756Y-139721533D01*
X145694400Y-139621893D01*
X145694400Y-139492987D01*
X145224500Y-139507593D01*
G36*
X149728483Y-139042210D02*
G01*
X149621001Y-139054839D01*
X149568696Y-139084684D01*
X149548377Y-139138943D01*
X149546034Y-139153900D01*
X149521025Y-139225347D01*
X149453947Y-139263312D01*
X149317167Y-139281720D01*
X149288500Y-139283683D01*
X149047200Y-139299166D01*
X149047200Y-139524983D01*
X149040381Y-139666775D01*
X149012139Y-139733383D01*
X148950799Y-139750756D01*
X148945600Y-139750800D01*
X148898379Y-139758087D01*
X148868576Y-139792513D01*
X148852224Y-139872926D01*
X148845356Y-140018170D01*
X148844000Y-140233400D01*
X148845535Y-140457701D01*
X148852782Y-140599265D01*
X148869711Y-140676936D01*
X148900289Y-140709563D01*
X148945600Y-140716000D01*
X149009690Y-140731353D01*
X149039603Y-140794773D01*
X149047193Y-140932293D01*
X149047200Y-140939164D01*
X149059966Y-141092930D01*
X149112558Y-141179444D01*
X149226416Y-141216970D01*
X149381555Y-141224000D01*
X149499990Y-141234033D01*
X149547712Y-141278803D01*
X149555200Y-141351000D01*
X149560430Y-141417350D01*
X149590876Y-141455324D01*
X149668680Y-141472828D01*
X149815979Y-141477768D01*
X149910800Y-141478000D01*
X150096582Y-141476132D01*
X150202909Y-141465258D01*
X150251919Y-141437471D01*
X150265753Y-141384864D01*
X150266400Y-141351000D01*
X150274636Y-141275626D01*
X150316663Y-141238024D01*
X150418464Y-141225203D01*
X150520400Y-141224000D01*
X150774400Y-141224000D01*
X150774400Y-140970000D01*
X150780174Y-140816818D01*
X150803620Y-140740491D01*
X150853924Y-140716631D01*
X150870076Y-140716000D01*
X150939715Y-140693728D01*
X150986556Y-140617754D01*
X151014227Y-140474339D01*
X151026354Y-140249743D01*
X151027707Y-140119100D01*
X151026357Y-139929285D01*
X151016439Y-139819302D01*
X150990490Y-139767391D01*
X150941048Y-139751788D01*
X150901400Y-139750800D01*
X150823031Y-139741325D01*
X150785901Y-139694751D01*
X150774886Y-139583858D01*
X150774400Y-139522200D01*
X150774400Y-139293600D01*
X150520400Y-139293600D01*
X150369654Y-139289482D01*
X150294450Y-139268468D01*
X150268807Y-139217568D01*
X150266400Y-139166600D01*
X150261099Y-139099993D01*
X150230361Y-139062008D01*
X150151940Y-139044620D01*
X150003589Y-139039804D01*
X149914334Y-139039600D01*
X149728483Y-139042210D01*
G37*
X149728483Y-139042210D02*
X149621001Y-139054839D01*
X149568696Y-139084684D01*
X149548377Y-139138943D01*
X149546034Y-139153900D01*
X149521025Y-139225347D01*
X149453947Y-139263312D01*
X149317167Y-139281720D01*
X149288500Y-139283683D01*
X149047200Y-139299166D01*
X149047200Y-139524983D01*
X149040381Y-139666775D01*
X149012139Y-139733383D01*
X148950799Y-139750756D01*
X148945600Y-139750800D01*
X148898379Y-139758087D01*
X148868576Y-139792513D01*
X148852224Y-139872926D01*
X148845356Y-140018170D01*
X148844000Y-140233400D01*
X148845535Y-140457701D01*
X148852782Y-140599265D01*
X148869711Y-140676936D01*
X148900289Y-140709563D01*
X148945600Y-140716000D01*
X149009690Y-140731353D01*
X149039603Y-140794773D01*
X149047193Y-140932293D01*
X149047200Y-140939164D01*
X149059966Y-141092930D01*
X149112558Y-141179444D01*
X149226416Y-141216970D01*
X149381555Y-141224000D01*
X149499990Y-141234033D01*
X149547712Y-141278803D01*
X149555200Y-141351000D01*
X149560430Y-141417350D01*
X149590876Y-141455324D01*
X149668680Y-141472828D01*
X149815979Y-141477768D01*
X149910800Y-141478000D01*
X150096582Y-141476132D01*
X150202909Y-141465258D01*
X150251919Y-141437471D01*
X150265753Y-141384864D01*
X150266400Y-141351000D01*
X150274636Y-141275626D01*
X150316663Y-141238024D01*
X150418464Y-141225203D01*
X150520400Y-141224000D01*
X150774400Y-141224000D01*
X150774400Y-140970000D01*
X150780174Y-140816818D01*
X150803620Y-140740491D01*
X150853924Y-140716631D01*
X150870076Y-140716000D01*
X150939715Y-140693728D01*
X150986556Y-140617754D01*
X151014227Y-140474339D01*
X151026354Y-140249743D01*
X151027707Y-140119100D01*
X151026357Y-139929285D01*
X151016439Y-139819302D01*
X150990490Y-139767391D01*
X150941048Y-139751788D01*
X150901400Y-139750800D01*
X150823031Y-139741325D01*
X150785901Y-139694751D01*
X150774886Y-139583858D01*
X150774400Y-139522200D01*
X150774400Y-139293600D01*
X150520400Y-139293600D01*
X150369654Y-139289482D01*
X150294450Y-139268468D01*
X150268807Y-139217568D01*
X150266400Y-139166600D01*
X150261099Y-139099993D01*
X150230361Y-139062008D01*
X150151940Y-139044620D01*
X150003589Y-139039804D01*
X149914334Y-139039600D01*
X149728483Y-139042210D01*
G36*
X140540311Y-139047189D02*
G01*
X140473159Y-139050014D01*
X140290169Y-139061204D01*
X140185305Y-139080248D01*
X140135096Y-139115632D01*
X140116070Y-139175842D01*
X140115567Y-139179300D01*
X140091405Y-139251194D01*
X140026825Y-139284715D01*
X139892935Y-139293547D01*
X139874267Y-139293600D01*
X139649200Y-139293600D01*
X139649200Y-139522200D01*
X139641914Y-139666248D01*
X139613236Y-139734162D01*
X139555095Y-139750800D01*
X139508135Y-139763088D01*
X139476100Y-139812714D01*
X139453384Y-139918818D01*
X139434382Y-140100540D01*
X139427500Y-140186487D01*
X139412146Y-140423905D01*
X139412617Y-140577984D01*
X139432998Y-140666306D01*
X139477377Y-140706450D01*
X139549842Y-140715999D01*
X139550599Y-140716000D01*
X139613038Y-140732411D01*
X139642114Y-140798768D01*
X139649200Y-140938675D01*
X139665385Y-141091546D01*
X139727325Y-141178625D01*
X139855101Y-141216754D01*
X139988567Y-141223306D01*
X140085297Y-141260864D01*
X140115567Y-141338300D01*
X140134132Y-141400520D01*
X140183519Y-141436942D01*
X140287520Y-141456377D01*
X140464153Y-141467380D01*
X140639707Y-141469839D01*
X140772968Y-141461789D01*
X140832453Y-141446213D01*
X140863380Y-141369478D01*
X140868400Y-141317133D01*
X140897742Y-141247067D01*
X140999867Y-141224203D01*
X141016646Y-141224000D01*
X141188797Y-141210756D01*
X141282978Y-141157704D01*
X141320868Y-141044856D01*
X141325600Y-140939164D01*
X141331168Y-140800230D01*
X141358306Y-140735221D01*
X141422665Y-140716635D01*
X141452600Y-140716000D01*
X141511435Y-140712648D01*
X141548541Y-140689907D01*
X141568926Y-140628744D01*
X141577599Y-140510129D01*
X141579568Y-140315032D01*
X141579600Y-140233400D01*
X141578719Y-140009828D01*
X141572734Y-139868826D01*
X141556639Y-139791361D01*
X141525424Y-139758404D01*
X141474083Y-139750922D01*
X141452600Y-139750800D01*
X141374231Y-139741325D01*
X141337101Y-139694751D01*
X141326086Y-139583858D01*
X141325600Y-139522200D01*
X141325600Y-139293600D01*
X141102508Y-139293600D01*
X140959959Y-139286252D01*
X140886699Y-139253454D01*
X140850844Y-139179077D01*
X140846966Y-139164314D01*
X140823909Y-139095881D01*
X140781647Y-139058604D01*
X140695380Y-139044901D01*
X140540311Y-139047189D01*
G37*
X140540311Y-139047189D02*
X140473159Y-139050014D01*
X140290169Y-139061204D01*
X140185305Y-139080248D01*
X140135096Y-139115632D01*
X140116070Y-139175842D01*
X140115567Y-139179300D01*
X140091405Y-139251194D01*
X140026825Y-139284715D01*
X139892935Y-139293547D01*
X139874267Y-139293600D01*
X139649200Y-139293600D01*
X139649200Y-139522200D01*
X139641914Y-139666248D01*
X139613236Y-139734162D01*
X139555095Y-139750800D01*
X139508135Y-139763088D01*
X139476100Y-139812714D01*
X139453384Y-139918818D01*
X139434382Y-140100540D01*
X139427500Y-140186487D01*
X139412146Y-140423905D01*
X139412617Y-140577984D01*
X139432998Y-140666306D01*
X139477377Y-140706450D01*
X139549842Y-140715999D01*
X139550599Y-140716000D01*
X139613038Y-140732411D01*
X139642114Y-140798768D01*
X139649200Y-140938675D01*
X139665385Y-141091546D01*
X139727325Y-141178625D01*
X139855101Y-141216754D01*
X139988567Y-141223306D01*
X140085297Y-141260864D01*
X140115567Y-141338300D01*
X140134132Y-141400520D01*
X140183519Y-141436942D01*
X140287520Y-141456377D01*
X140464153Y-141467380D01*
X140639707Y-141469839D01*
X140772968Y-141461789D01*
X140832453Y-141446213D01*
X140863380Y-141369478D01*
X140868400Y-141317133D01*
X140897742Y-141247067D01*
X140999867Y-141224203D01*
X141016646Y-141224000D01*
X141188797Y-141210756D01*
X141282978Y-141157704D01*
X141320868Y-141044856D01*
X141325600Y-140939164D01*
X141331168Y-140800230D01*
X141358306Y-140735221D01*
X141422665Y-140716635D01*
X141452600Y-140716000D01*
X141511435Y-140712648D01*
X141548541Y-140689907D01*
X141568926Y-140628744D01*
X141577599Y-140510129D01*
X141579568Y-140315032D01*
X141579600Y-140233400D01*
X141578719Y-140009828D01*
X141572734Y-139868826D01*
X141556639Y-139791361D01*
X141525424Y-139758404D01*
X141474083Y-139750922D01*
X141452600Y-139750800D01*
X141374231Y-139741325D01*
X141337101Y-139694751D01*
X141326086Y-139583858D01*
X141325600Y-139522200D01*
X141325600Y-139293600D01*
X141102508Y-139293600D01*
X140959959Y-139286252D01*
X140886699Y-139253454D01*
X140850844Y-139179077D01*
X140846966Y-139164314D01*
X140823909Y-139095881D01*
X140781647Y-139058604D01*
X140695380Y-139044901D01*
X140540311Y-139047189D01*
G36*
X148378279Y-136349387D02*
G01*
X148241667Y-136358777D01*
X148165570Y-136379614D01*
X148129466Y-136416143D01*
X148118850Y-136445858D01*
X148108261Y-136533512D01*
X148147972Y-136580535D01*
X148257365Y-136598921D01*
X148369867Y-136601200D01*
X148507604Y-136606948D01*
X148571589Y-136634832D01*
X148589483Y-136700810D01*
X148590000Y-136728200D01*
X148610982Y-136824873D01*
X148693596Y-136854663D01*
X148717000Y-136855200D01*
X148795370Y-136864674D01*
X148832500Y-136911248D01*
X148843515Y-137022141D01*
X148844000Y-137083800D01*
X148838737Y-137224864D01*
X148812863Y-137291699D01*
X148751255Y-137311526D01*
X148717000Y-137312400D01*
X148620327Y-137333381D01*
X148590537Y-137415995D01*
X148590000Y-137439400D01*
X148581765Y-137514773D01*
X148539738Y-137552375D01*
X148437937Y-137565196D01*
X148336000Y-137566400D01*
X148185254Y-137562282D01*
X148110050Y-137541268D01*
X148084407Y-137490368D01*
X148082000Y-137439400D01*
X148058188Y-137339811D01*
X147980400Y-137312400D01*
X147916909Y-137297442D01*
X147886885Y-137235334D01*
X147878839Y-137100222D01*
X147878800Y-137083800D01*
X147873389Y-136942601D01*
X147847386Y-136875703D01*
X147786141Y-136855979D01*
X147755334Y-136855200D01*
X147652196Y-136884976D01*
X147615634Y-136969500D01*
X147557785Y-137072199D01*
X147485100Y-137100033D01*
X147430534Y-137113819D01*
X147396818Y-137149837D01*
X147378956Y-137228472D01*
X147371951Y-137370110D01*
X147370800Y-137566400D01*
X147372333Y-137781510D01*
X147380263Y-137915416D01*
X147399586Y-137988504D01*
X147435299Y-138021162D01*
X147485100Y-138032766D01*
X147576807Y-138078347D01*
X147595367Y-138163300D01*
X147612285Y-138247083D01*
X147690245Y-138276104D01*
X147735067Y-138277600D01*
X147843372Y-138296350D01*
X147878420Y-138363105D01*
X147878800Y-138375666D01*
X147921633Y-138463737D01*
X147993100Y-138489966D01*
X148085281Y-138527007D01*
X148113750Y-138569700D01*
X148124708Y-138669675D01*
X148126450Y-138684000D01*
X148177428Y-138707958D01*
X148311351Y-138725347D01*
X148509663Y-138734133D01*
X148590000Y-138734800D01*
X148807221Y-138733102D01*
X148942199Y-138725144D01*
X149014270Y-138706629D01*
X149042773Y-138673259D01*
X149047200Y-138633200D01*
X149010779Y-138547685D01*
X148951108Y-138531600D01*
X148860999Y-138485563D01*
X148823140Y-138404600D01*
X148766850Y-138305611D01*
X148688143Y-138282293D01*
X148620211Y-138338504D01*
X148604720Y-138379200D01*
X148551402Y-138452742D01*
X148465313Y-138484737D01*
X148383732Y-138473360D01*
X148343940Y-138416782D01*
X148345495Y-138391900D01*
X148403524Y-138314412D01*
X148473096Y-138287176D01*
X148573180Y-138228363D01*
X148599577Y-138160176D01*
X148658099Y-138059938D01*
X148729700Y-138032766D01*
X148815076Y-138039580D01*
X148842976Y-138112072D01*
X148844000Y-138147066D01*
X148866454Y-138248413D01*
X148944980Y-138277599D01*
X148945600Y-138277600D01*
X149031109Y-138241180D01*
X149047200Y-138181435D01*
X149078690Y-138088370D01*
X149115307Y-138059135D01*
X149218184Y-138061678D01*
X149303444Y-138122963D01*
X149326600Y-138186847D01*
X149369839Y-138244082D01*
X149440900Y-138268433D01*
X149526276Y-138261619D01*
X149554176Y-138189127D01*
X149555200Y-138154133D01*
X149574891Y-138055678D01*
X149653400Y-138024431D01*
X149682200Y-138023600D01*
X149742320Y-138019959D01*
X149779648Y-137996003D01*
X149799616Y-137932181D01*
X149807655Y-137808942D01*
X149809194Y-137606734D01*
X149809200Y-137566400D01*
X149808189Y-137349969D01*
X149801535Y-137215588D01*
X149783807Y-137143703D01*
X149749573Y-137114765D01*
X149693404Y-137109222D01*
X149682200Y-137109200D01*
X149585527Y-137088218D01*
X149555737Y-137005604D01*
X149555200Y-136982200D01*
X149534219Y-136885526D01*
X149451605Y-136855736D01*
X149428200Y-136855200D01*
X149331527Y-136834218D01*
X149301737Y-136751604D01*
X149301200Y-136728200D01*
X149280219Y-136631526D01*
X149197605Y-136601736D01*
X149174200Y-136601200D01*
X149077527Y-136580218D01*
X149047737Y-136497604D01*
X149047200Y-136474200D01*
X149043488Y-136413767D01*
X149019230Y-136376389D01*
X148954750Y-136356528D01*
X148830368Y-136348645D01*
X148626405Y-136347203D01*
X148595925Y-136347200D01*
X148378279Y-136349387D01*
G37*
X148378279Y-136349387D02*
X148241667Y-136358777D01*
X148165570Y-136379614D01*
X148129466Y-136416143D01*
X148118850Y-136445858D01*
X148108261Y-136533512D01*
X148147972Y-136580535D01*
X148257365Y-136598921D01*
X148369867Y-136601200D01*
X148507604Y-136606948D01*
X148571589Y-136634832D01*
X148589483Y-136700810D01*
X148590000Y-136728200D01*
X148610982Y-136824873D01*
X148693596Y-136854663D01*
X148717000Y-136855200D01*
X148795370Y-136864674D01*
X148832500Y-136911248D01*
X148843515Y-137022141D01*
X148844000Y-137083800D01*
X148838737Y-137224864D01*
X148812863Y-137291699D01*
X148751255Y-137311526D01*
X148717000Y-137312400D01*
X148620327Y-137333381D01*
X148590537Y-137415995D01*
X148590000Y-137439400D01*
X148581765Y-137514773D01*
X148539738Y-137552375D01*
X148437937Y-137565196D01*
X148336000Y-137566400D01*
X148185254Y-137562282D01*
X148110050Y-137541268D01*
X148084407Y-137490368D01*
X148082000Y-137439400D01*
X148058188Y-137339811D01*
X147980400Y-137312400D01*
X147916909Y-137297442D01*
X147886885Y-137235334D01*
X147878839Y-137100222D01*
X147878800Y-137083800D01*
X147873389Y-136942601D01*
X147847386Y-136875703D01*
X147786141Y-136855979D01*
X147755334Y-136855200D01*
X147652196Y-136884976D01*
X147615634Y-136969500D01*
X147557785Y-137072199D01*
X147485100Y-137100033D01*
X147430534Y-137113819D01*
X147396818Y-137149837D01*
X147378956Y-137228472D01*
X147371951Y-137370110D01*
X147370800Y-137566400D01*
X147372333Y-137781510D01*
X147380263Y-137915416D01*
X147399586Y-137988504D01*
X147435299Y-138021162D01*
X147485100Y-138032766D01*
X147576807Y-138078347D01*
X147595367Y-138163300D01*
X147612285Y-138247083D01*
X147690245Y-138276104D01*
X147735067Y-138277600D01*
X147843372Y-138296350D01*
X147878420Y-138363105D01*
X147878800Y-138375666D01*
X147921633Y-138463737D01*
X147993100Y-138489966D01*
X148085281Y-138527007D01*
X148113750Y-138569700D01*
X148124708Y-138669675D01*
X148126450Y-138684000D01*
X148177428Y-138707958D01*
X148311351Y-138725347D01*
X148509663Y-138734133D01*
X148590000Y-138734800D01*
X148807221Y-138733102D01*
X148942199Y-138725144D01*
X149014270Y-138706629D01*
X149042773Y-138673259D01*
X149047200Y-138633200D01*
X149010779Y-138547685D01*
X148951108Y-138531600D01*
X148860999Y-138485563D01*
X148823140Y-138404600D01*
X148766850Y-138305611D01*
X148688143Y-138282293D01*
X148620211Y-138338504D01*
X148604720Y-138379200D01*
X148551402Y-138452742D01*
X148465313Y-138484737D01*
X148383732Y-138473360D01*
X148343940Y-138416782D01*
X148345495Y-138391900D01*
X148403524Y-138314412D01*
X148473096Y-138287176D01*
X148573180Y-138228363D01*
X148599577Y-138160176D01*
X148658099Y-138059938D01*
X148729700Y-138032766D01*
X148815076Y-138039580D01*
X148842976Y-138112072D01*
X148844000Y-138147066D01*
X148866454Y-138248413D01*
X148944980Y-138277599D01*
X148945600Y-138277600D01*
X149031109Y-138241180D01*
X149047200Y-138181435D01*
X149078690Y-138088370D01*
X149115307Y-138059135D01*
X149218184Y-138061678D01*
X149303444Y-138122963D01*
X149326600Y-138186847D01*
X149369839Y-138244082D01*
X149440900Y-138268433D01*
X149526276Y-138261619D01*
X149554176Y-138189127D01*
X149555200Y-138154133D01*
X149574891Y-138055678D01*
X149653400Y-138024431D01*
X149682200Y-138023600D01*
X149742320Y-138019959D01*
X149779648Y-137996003D01*
X149799616Y-137932181D01*
X149807655Y-137808942D01*
X149809194Y-137606734D01*
X149809200Y-137566400D01*
X149808189Y-137349969D01*
X149801535Y-137215588D01*
X149783807Y-137143703D01*
X149749573Y-137114765D01*
X149693404Y-137109222D01*
X149682200Y-137109200D01*
X149585527Y-137088218D01*
X149555737Y-137005604D01*
X149555200Y-136982200D01*
X149534219Y-136885526D01*
X149451605Y-136855736D01*
X149428200Y-136855200D01*
X149331527Y-136834218D01*
X149301737Y-136751604D01*
X149301200Y-136728200D01*
X149280219Y-136631526D01*
X149197605Y-136601736D01*
X149174200Y-136601200D01*
X149077527Y-136580218D01*
X149047737Y-136497604D01*
X149047200Y-136474200D01*
X149043488Y-136413767D01*
X149019230Y-136376389D01*
X148954750Y-136356528D01*
X148830368Y-136348645D01*
X148626405Y-136347203D01*
X148595925Y-136347200D01*
X148378279Y-136349387D01*
G36*
X144991552Y-138305479D02*
G01*
X144853289Y-138315367D01*
X144777463Y-138336338D01*
X144744529Y-138372066D01*
X144738871Y-138391900D01*
X144757141Y-138464587D01*
X144827076Y-138480800D01*
X144909143Y-138508783D01*
X144932400Y-138607656D01*
X144932400Y-138607800D01*
X144940636Y-138683173D01*
X144982663Y-138720775D01*
X145084464Y-138733596D01*
X145186400Y-138734800D01*
X145337147Y-138730682D01*
X145412351Y-138709668D01*
X145437994Y-138658768D01*
X145440400Y-138607800D01*
X145460600Y-138512057D01*
X145541189Y-138481624D01*
X145571125Y-138480800D01*
X145667593Y-138462286D01*
X145685704Y-138397376D01*
X145684730Y-138391900D01*
X145663762Y-138349036D01*
X145607943Y-138322441D01*
X145497724Y-138308439D01*
X145313561Y-138303358D01*
X145211800Y-138303000D01*
X144991552Y-138305479D01*
G37*
X144991552Y-138305479D02*
X144853289Y-138315367D01*
X144777463Y-138336338D01*
X144744529Y-138372066D01*
X144738871Y-138391900D01*
X144757141Y-138464587D01*
X144827076Y-138480800D01*
X144909143Y-138508783D01*
X144932400Y-138607656D01*
X144932400Y-138607800D01*
X144940636Y-138683173D01*
X144982663Y-138720775D01*
X145084464Y-138733596D01*
X145186400Y-138734800D01*
X145337147Y-138730682D01*
X145412351Y-138709668D01*
X145437994Y-138658768D01*
X145440400Y-138607800D01*
X145460600Y-138512057D01*
X145541189Y-138481624D01*
X145571125Y-138480800D01*
X145667593Y-138462286D01*
X145685704Y-138397376D01*
X145684730Y-138391900D01*
X145663762Y-138349036D01*
X145607943Y-138322441D01*
X145497724Y-138308439D01*
X145313561Y-138303358D01*
X145211800Y-138303000D01*
X144991552Y-138305479D01*
G36*
X141820900Y-136357993D02*
G01*
X141600019Y-136366416D01*
X141460826Y-136378519D01*
X141383421Y-136399578D01*
X141347905Y-136434871D01*
X141334767Y-136486900D01*
X141289599Y-136578465D01*
X141195067Y-136601200D01*
X141100833Y-136623043D01*
X141072010Y-136707743D01*
X141071600Y-136728200D01*
X141047123Y-136828490D01*
X140973534Y-136855200D01*
X140885463Y-136898032D01*
X140859234Y-136969500D01*
X140801385Y-137072199D01*
X140728700Y-137100033D01*
X140674134Y-137113819D01*
X140640418Y-137149837D01*
X140622556Y-137228472D01*
X140615551Y-137370110D01*
X140614400Y-137566400D01*
X140615933Y-137781510D01*
X140623863Y-137915416D01*
X140643186Y-137988504D01*
X140678899Y-138021162D01*
X140728700Y-138032766D01*
X140831400Y-138090615D01*
X140859234Y-138163300D01*
X140909555Y-138258858D01*
X140973534Y-138277600D01*
X141055905Y-138315222D01*
X141071600Y-138379200D01*
X141101366Y-138458870D01*
X141198600Y-138480800D01*
X141298189Y-138456987D01*
X141325600Y-138379200D01*
X141295835Y-138299529D01*
X141198600Y-138277600D01*
X141097884Y-138252720D01*
X141071600Y-138181435D01*
X141106255Y-138087071D01*
X141146330Y-138056593D01*
X141235553Y-138067641D01*
X141327240Y-138133582D01*
X141375666Y-138219869D01*
X141376400Y-138230428D01*
X141418980Y-138268765D01*
X141478000Y-138277600D01*
X141563509Y-138241180D01*
X141579600Y-138181435D01*
X141616950Y-138085970D01*
X141659955Y-138054435D01*
X141739588Y-138028870D01*
X141776098Y-138054740D01*
X141803661Y-138150600D01*
X141866065Y-138255567D01*
X141936168Y-138277600D01*
X142015224Y-138307869D01*
X142036800Y-138404600D01*
X142015819Y-138501273D01*
X141933205Y-138531063D01*
X141909800Y-138531600D01*
X141810212Y-138507787D01*
X141782800Y-138430000D01*
X141746879Y-138345097D01*
X141681200Y-138328400D01*
X141596298Y-138364321D01*
X141579600Y-138430000D01*
X141549835Y-138509670D01*
X141452600Y-138531600D01*
X141353012Y-138555412D01*
X141325600Y-138633200D01*
X141332888Y-138680421D01*
X141367314Y-138710224D01*
X141447727Y-138726576D01*
X141592971Y-138733444D01*
X141808200Y-138734800D01*
X142031772Y-138733918D01*
X142172774Y-138727933D01*
X142250239Y-138711838D01*
X142283196Y-138680623D01*
X142290678Y-138629282D01*
X142290800Y-138607800D01*
X142307203Y-138517036D01*
X142376928Y-138483832D01*
X142443200Y-138480800D01*
X142554753Y-138464833D01*
X142594028Y-138405426D01*
X142595600Y-138379200D01*
X142631522Y-138294297D01*
X142697200Y-138277600D01*
X142776871Y-138247834D01*
X142798800Y-138150600D01*
X142819782Y-138053926D01*
X142902396Y-138024136D01*
X142925800Y-138023600D01*
X142985920Y-138019959D01*
X143023248Y-137996003D01*
X143043216Y-137932181D01*
X143051255Y-137808942D01*
X143052794Y-137606734D01*
X143052800Y-137566400D01*
X143051789Y-137349969D01*
X143045135Y-137215588D01*
X143027407Y-137143703D01*
X142993173Y-137114765D01*
X142937004Y-137109222D01*
X142925800Y-137109200D01*
X142829127Y-137088218D01*
X142799337Y-137005604D01*
X142798800Y-136982200D01*
X142774988Y-136882611D01*
X142697200Y-136855200D01*
X142633709Y-136870157D01*
X142603685Y-136932265D01*
X142595639Y-137067377D01*
X142595600Y-137083800D01*
X142591183Y-137224369D01*
X142565675Y-137290948D01*
X142500695Y-137311107D01*
X142443200Y-137312400D01*
X142334284Y-137326068D01*
X142294440Y-137384172D01*
X142290800Y-137439400D01*
X142282565Y-137514773D01*
X142240538Y-137552375D01*
X142138737Y-137565196D01*
X142036800Y-137566400D01*
X141886054Y-137562282D01*
X141810850Y-137541268D01*
X141785207Y-137490368D01*
X141782800Y-137439400D01*
X141758988Y-137339811D01*
X141681200Y-137312400D01*
X141617709Y-137297442D01*
X141587685Y-137235334D01*
X141579639Y-137100222D01*
X141579600Y-137083800D01*
X141586248Y-136940943D01*
X141613852Y-136873390D01*
X141673902Y-136855287D01*
X141681200Y-136855200D01*
X141760871Y-136825434D01*
X141782800Y-136728200D01*
X141791036Y-136652826D01*
X141833063Y-136615224D01*
X141934864Y-136602403D01*
X142036800Y-136601200D01*
X142187457Y-136605196D01*
X142262611Y-136626093D01*
X142288297Y-136677256D01*
X142290800Y-136731574D01*
X142305442Y-136824463D01*
X142370421Y-136850083D01*
X142430500Y-136845874D01*
X142545371Y-136803781D01*
X142586434Y-136715500D01*
X142582423Y-136634979D01*
X142520455Y-136604546D01*
X142446734Y-136601200D01*
X142336303Y-136588361D01*
X142295124Y-136532822D01*
X142290800Y-136472293D01*
X142290800Y-136343387D01*
X141820900Y-136357993D01*
G37*
X141820900Y-136357993D02*
X141600019Y-136366416D01*
X141460826Y-136378519D01*
X141383421Y-136399578D01*
X141347905Y-136434871D01*
X141334767Y-136486900D01*
X141289599Y-136578465D01*
X141195067Y-136601200D01*
X141100833Y-136623043D01*
X141072010Y-136707743D01*
X141071600Y-136728200D01*
X141047123Y-136828490D01*
X140973534Y-136855200D01*
X140885463Y-136898032D01*
X140859234Y-136969500D01*
X140801385Y-137072199D01*
X140728700Y-137100033D01*
X140674134Y-137113819D01*
X140640418Y-137149837D01*
X140622556Y-137228472D01*
X140615551Y-137370110D01*
X140614400Y-137566400D01*
X140615933Y-137781510D01*
X140623863Y-137915416D01*
X140643186Y-137988504D01*
X140678899Y-138021162D01*
X140728700Y-138032766D01*
X140831400Y-138090615D01*
X140859234Y-138163300D01*
X140909555Y-138258858D01*
X140973534Y-138277600D01*
X141055905Y-138315222D01*
X141071600Y-138379200D01*
X141101366Y-138458870D01*
X141198600Y-138480800D01*
X141298189Y-138456987D01*
X141325600Y-138379200D01*
X141295835Y-138299529D01*
X141198600Y-138277600D01*
X141097884Y-138252720D01*
X141071600Y-138181435D01*
X141106255Y-138087071D01*
X141146330Y-138056593D01*
X141235553Y-138067641D01*
X141327240Y-138133582D01*
X141375666Y-138219869D01*
X141376400Y-138230428D01*
X141418980Y-138268765D01*
X141478000Y-138277600D01*
X141563509Y-138241180D01*
X141579600Y-138181435D01*
X141616950Y-138085970D01*
X141659955Y-138054435D01*
X141739588Y-138028870D01*
X141776098Y-138054740D01*
X141803661Y-138150600D01*
X141866065Y-138255567D01*
X141936168Y-138277600D01*
X142015224Y-138307869D01*
X142036800Y-138404600D01*
X142015819Y-138501273D01*
X141933205Y-138531063D01*
X141909800Y-138531600D01*
X141810212Y-138507787D01*
X141782800Y-138430000D01*
X141746879Y-138345097D01*
X141681200Y-138328400D01*
X141596298Y-138364321D01*
X141579600Y-138430000D01*
X141549835Y-138509670D01*
X141452600Y-138531600D01*
X141353012Y-138555412D01*
X141325600Y-138633200D01*
X141332888Y-138680421D01*
X141367314Y-138710224D01*
X141447727Y-138726576D01*
X141592971Y-138733444D01*
X141808200Y-138734800D01*
X142031772Y-138733918D01*
X142172774Y-138727933D01*
X142250239Y-138711838D01*
X142283196Y-138680623D01*
X142290678Y-138629282D01*
X142290800Y-138607800D01*
X142307203Y-138517036D01*
X142376928Y-138483832D01*
X142443200Y-138480800D01*
X142554753Y-138464833D01*
X142594028Y-138405426D01*
X142595600Y-138379200D01*
X142631522Y-138294297D01*
X142697200Y-138277600D01*
X142776871Y-138247834D01*
X142798800Y-138150600D01*
X142819782Y-138053926D01*
X142902396Y-138024136D01*
X142925800Y-138023600D01*
X142985920Y-138019959D01*
X143023248Y-137996003D01*
X143043216Y-137932181D01*
X143051255Y-137808942D01*
X143052794Y-137606734D01*
X143052800Y-137566400D01*
X143051789Y-137349969D01*
X143045135Y-137215588D01*
X143027407Y-137143703D01*
X142993173Y-137114765D01*
X142937004Y-137109222D01*
X142925800Y-137109200D01*
X142829127Y-137088218D01*
X142799337Y-137005604D01*
X142798800Y-136982200D01*
X142774988Y-136882611D01*
X142697200Y-136855200D01*
X142633709Y-136870157D01*
X142603685Y-136932265D01*
X142595639Y-137067377D01*
X142595600Y-137083800D01*
X142591183Y-137224369D01*
X142565675Y-137290948D01*
X142500695Y-137311107D01*
X142443200Y-137312400D01*
X142334284Y-137326068D01*
X142294440Y-137384172D01*
X142290800Y-137439400D01*
X142282565Y-137514773D01*
X142240538Y-137552375D01*
X142138737Y-137565196D01*
X142036800Y-137566400D01*
X141886054Y-137562282D01*
X141810850Y-137541268D01*
X141785207Y-137490368D01*
X141782800Y-137439400D01*
X141758988Y-137339811D01*
X141681200Y-137312400D01*
X141617709Y-137297442D01*
X141587685Y-137235334D01*
X141579639Y-137100222D01*
X141579600Y-137083800D01*
X141586248Y-136940943D01*
X141613852Y-136873390D01*
X141673902Y-136855287D01*
X141681200Y-136855200D01*
X141760871Y-136825434D01*
X141782800Y-136728200D01*
X141791036Y-136652826D01*
X141833063Y-136615224D01*
X141934864Y-136602403D01*
X142036800Y-136601200D01*
X142187457Y-136605196D01*
X142262611Y-136626093D01*
X142288297Y-136677256D01*
X142290800Y-136731574D01*
X142305442Y-136824463D01*
X142370421Y-136850083D01*
X142430500Y-136845874D01*
X142545371Y-136803781D01*
X142586434Y-136715500D01*
X142582423Y-136634979D01*
X142520455Y-136604546D01*
X142446734Y-136601200D01*
X142336303Y-136588361D01*
X142295124Y-136532822D01*
X142290800Y-136472293D01*
X142290800Y-136343387D01*
X141820900Y-136357993D01*
G36*
X149187419Y-138286766D02*
G01*
X149087193Y-138329805D01*
X149052821Y-138398765D01*
X149087243Y-138459984D01*
X149170476Y-138480800D01*
X149271315Y-138458977D01*
X149301151Y-138380918D01*
X149301200Y-138375666D01*
X149276820Y-138296730D01*
X149187925Y-138286694D01*
X149187419Y-138286766D01*
G37*
X149187419Y-138286766D02*
X149087193Y-138329805D01*
X149052821Y-138398765D01*
X149087243Y-138459984D01*
X149170476Y-138480800D01*
X149271315Y-138458977D01*
X149301151Y-138380918D01*
X149301200Y-138375666D01*
X149276820Y-138296730D01*
X149187925Y-138286694D01*
X149187419Y-138286766D01*
G36*
X147897931Y-136625580D02*
G01*
X147887895Y-136714475D01*
X147887967Y-136714981D01*
X147931006Y-136815207D01*
X147999966Y-136849579D01*
X148061185Y-136815157D01*
X148082000Y-136731924D01*
X148060178Y-136631085D01*
X147982119Y-136601249D01*
X147976867Y-136601200D01*
X147897931Y-136625580D01*
G37*
X147897931Y-136625580D02*
X147887895Y-136714475D01*
X147887967Y-136714981D01*
X147931006Y-136815207D01*
X147999966Y-136849579D01*
X148061185Y-136815157D01*
X148082000Y-136731924D01*
X148060178Y-136631085D01*
X147982119Y-136601249D01*
X147976867Y-136601200D01*
X147897931Y-136625580D01*
D10*
%TO.C,J1*%
X111052000Y-134179000D02*
X113712000Y-134179000D01*
X111052000Y-154559000D02*
X111052000Y-134179000D01*
X113712000Y-154559000D02*
X113712000Y-134179000D01*
X111052000Y-154559000D02*
X113712000Y-154559000D01*
X111052000Y-155829000D02*
X111052000Y-157159000D01*
X111052000Y-157159000D02*
X112382000Y-157159000D01*
%TO.C,U6*%
X144424000Y-100996000D02*
X176924000Y-100996000D01*
X144424000Y-100996000D02*
X111924000Y-100996000D01*
X111924000Y-100996000D02*
X111924000Y-130996000D01*
X111924000Y-130996000D02*
X176924000Y-130996000D01*
X176924000Y-130996000D02*
X176924000Y-100996000D01*
%TO.C,LS1*%
X176793000Y-133290000D02*
X176793000Y-135950000D01*
X174193000Y-133290000D02*
X176793000Y-133290000D01*
X174193000Y-135950000D02*
X176793000Y-135950000D01*
X174193000Y-133290000D02*
X174193000Y-135950000D01*
X172923000Y-133290000D02*
X171593000Y-133290000D01*
X171593000Y-133290000D02*
X171593000Y-134620000D01*
%TO.C,U3*%
X126592000Y-100838000D02*
X141072000Y-100838000D01*
X126592000Y-77978000D02*
X126592000Y-100838000D01*
X162792000Y-77978000D02*
X126592000Y-77978000D01*
X162792000Y-100838000D02*
X162792000Y-77978000D01*
X141072000Y-100838000D02*
X162792000Y-100838000D01*
%TO.C,U7*%
X121581000Y-83101000D02*
X120581000Y-83101000D01*
X121581000Y-77851000D02*
X121581000Y-83101000D01*
X121581000Y-72601000D02*
X120581000Y-72601000D01*
X121581000Y-77851000D02*
X121581000Y-72601000D01*
X120581000Y-83101000D02*
X117831000Y-83101000D01*
X120581000Y-72601000D02*
X117831000Y-72601000D01*
X117830999Y-72601001D02*
G75*
G03*
X117830999Y-83100999I-4749999J-5249999D01*
G01*
%TO.C,U9*%
X146649000Y-160782000D02*
X144149000Y-160782000D01*
X154149000Y-160782000D02*
X151649000Y-160782000D01*
X146649000Y-163782000D02*
X146649000Y-160782000D01*
X151649000Y-163782000D02*
X146649000Y-163782000D01*
X151649000Y-160782000D02*
X151649000Y-163782000D01*
X144149000Y-148782000D02*
X144149000Y-160782000D01*
X154149000Y-148782000D02*
X144149000Y-148782000D01*
X154149000Y-160782000D02*
X154149000Y-148782000D01*
%TO.C,U1*%
D12*
X111596619Y-64261904D02*
X110787095Y-64261904D01*
X110691857Y-64214285D01*
X110644238Y-64166666D01*
X110596619Y-64071428D01*
X110596619Y-63880952D01*
X110644238Y-63785714D01*
X110691857Y-63738095D01*
X110787095Y-63690476D01*
X111596619Y-63690476D01*
X110596619Y-62690476D02*
X110596619Y-63261904D01*
X110596619Y-62976190D02*
X111596619Y-62976190D01*
X111453761Y-63071428D01*
X111358523Y-63166666D01*
X111310904Y-63261904D01*
D14*
X117426666Y-65131190D02*
X117260000Y-65631190D01*
X117093333Y-65131190D01*
X116926666Y-65131190D02*
X116926666Y-65535952D01*
X116902857Y-65583571D01*
X116879047Y-65607380D01*
X116831428Y-65631190D01*
X116736190Y-65631190D01*
X116688571Y-65607380D01*
X116664761Y-65583571D01*
X116640952Y-65535952D01*
X116640952Y-65131190D01*
X116426666Y-65607380D02*
X116355238Y-65631190D01*
X116236190Y-65631190D01*
X116188571Y-65607380D01*
X116164761Y-65583571D01*
X116140952Y-65535952D01*
X116140952Y-65488333D01*
X116164761Y-65440714D01*
X116188571Y-65416904D01*
X116236190Y-65393095D01*
X116331428Y-65369285D01*
X116379047Y-65345476D01*
X116402857Y-65321666D01*
X116426666Y-65274047D01*
X116426666Y-65226428D01*
X116402857Y-65178809D01*
X116379047Y-65155000D01*
X116331428Y-65131190D01*
X116212380Y-65131190D01*
X116140952Y-65155000D01*
X115760000Y-65369285D02*
X115688571Y-65393095D01*
X115664761Y-65416904D01*
X115640952Y-65464523D01*
X115640952Y-65535952D01*
X115664761Y-65583571D01*
X115688571Y-65607380D01*
X115736190Y-65631190D01*
X115926666Y-65631190D01*
X115926666Y-65131190D01*
X115760000Y-65131190D01*
X115712380Y-65155000D01*
X115688571Y-65178809D01*
X115664761Y-65226428D01*
X115664761Y-65274047D01*
X115688571Y-65321666D01*
X115712380Y-65345476D01*
X115760000Y-65369285D01*
X115926666Y-65369285D01*
X116890952Y-61345000D02*
X116938571Y-61321190D01*
X117010000Y-61321190D01*
X117081428Y-61345000D01*
X117129047Y-61392619D01*
X117152857Y-61440238D01*
X117176666Y-61535476D01*
X117176666Y-61606904D01*
X117152857Y-61702142D01*
X117129047Y-61749761D01*
X117081428Y-61797380D01*
X117010000Y-61821190D01*
X116962380Y-61821190D01*
X116890952Y-61797380D01*
X116867142Y-61773571D01*
X116867142Y-61606904D01*
X116962380Y-61606904D01*
X116652857Y-61821190D02*
X116652857Y-61321190D01*
X116367142Y-61821190D01*
X116367142Y-61321190D01*
X116129047Y-61821190D02*
X116129047Y-61321190D01*
X116010000Y-61321190D01*
X115938571Y-61345000D01*
X115890952Y-61392619D01*
X115867142Y-61440238D01*
X115843333Y-61535476D01*
X115843333Y-61606904D01*
X115867142Y-61702142D01*
X115890952Y-61749761D01*
X115938571Y-61797380D01*
X116010000Y-61821190D01*
X116129047Y-61821190D01*
%TO.C,U2*%
D12*
X173239380Y-65532095D02*
X174048904Y-65532095D01*
X174144142Y-65579714D01*
X174191761Y-65627333D01*
X174239380Y-65722571D01*
X174239380Y-65913047D01*
X174191761Y-66008285D01*
X174144142Y-66055904D01*
X174048904Y-66103523D01*
X173239380Y-66103523D01*
X173334619Y-66532095D02*
X173287000Y-66579714D01*
X173239380Y-66674952D01*
X173239380Y-66913047D01*
X173287000Y-67008285D01*
X173334619Y-67055904D01*
X173429857Y-67103523D01*
X173525095Y-67103523D01*
X173667952Y-67055904D01*
X174239380Y-66484476D01*
X174239380Y-67103523D01*
D13*
X174570333Y-63996380D02*
X174570333Y-64091619D01*
X174627476Y-63977333D02*
X174427476Y-64044000D01*
X174627476Y-64110666D01*
X174522714Y-65558285D02*
X174532238Y-65586857D01*
X174541761Y-65596380D01*
X174560809Y-65605904D01*
X174589380Y-65605904D01*
X174608428Y-65596380D01*
X174617952Y-65586857D01*
X174627476Y-65567809D01*
X174627476Y-65491619D01*
X174427476Y-65491619D01*
X174427476Y-65558285D01*
X174437000Y-65577333D01*
X174446523Y-65586857D01*
X174465571Y-65596380D01*
X174484619Y-65596380D01*
X174503666Y-65586857D01*
X174513190Y-65577333D01*
X174522714Y-65558285D01*
X174522714Y-65491619D01*
X174608428Y-67105904D02*
X174617952Y-67096380D01*
X174627476Y-67067809D01*
X174627476Y-67048761D01*
X174617952Y-67020190D01*
X174598904Y-67001142D01*
X174579857Y-66991619D01*
X174541761Y-66982095D01*
X174513190Y-66982095D01*
X174475095Y-66991619D01*
X174456047Y-67001142D01*
X174437000Y-67020190D01*
X174427476Y-67048761D01*
X174427476Y-67067809D01*
X174437000Y-67096380D01*
X174446523Y-67105904D01*
X174627476Y-68491619D02*
X174427476Y-68491619D01*
X174427476Y-68539238D01*
X174437000Y-68567809D01*
X174456047Y-68586857D01*
X174475095Y-68596380D01*
X174513190Y-68605904D01*
X174541761Y-68605904D01*
X174579857Y-68596380D01*
X174598904Y-68586857D01*
X174617952Y-68567809D01*
X174627476Y-68539238D01*
X174627476Y-68491619D01*
%TO.C,J1*%
D12*
X112715333Y-157611380D02*
X112715333Y-158325666D01*
X112762952Y-158468523D01*
X112858190Y-158563761D01*
X113001047Y-158611380D01*
X113096285Y-158611380D01*
X111715333Y-158611380D02*
X112286761Y-158611380D01*
X112001047Y-158611380D02*
X112001047Y-157611380D01*
X112096285Y-157754238D01*
X112191523Y-157849476D01*
X112286761Y-157897095D01*
%TO.C,U6*%
X145185904Y-110948380D02*
X145185904Y-111757904D01*
X145138285Y-111853142D01*
X145090666Y-111900761D01*
X144995428Y-111948380D01*
X144804952Y-111948380D01*
X144709714Y-111900761D01*
X144662095Y-111853142D01*
X144614476Y-111757904D01*
X144614476Y-110948380D01*
X143709714Y-110948380D02*
X143900190Y-110948380D01*
X143995428Y-110996000D01*
X144043047Y-111043619D01*
X144138285Y-111186476D01*
X144185904Y-111376952D01*
X144185904Y-111757904D01*
X144138285Y-111853142D01*
X144090666Y-111900761D01*
X143995428Y-111948380D01*
X143804952Y-111948380D01*
X143709714Y-111900761D01*
X143662095Y-111853142D01*
X143614476Y-111757904D01*
X143614476Y-111519809D01*
X143662095Y-111424571D01*
X143709714Y-111376952D01*
X143804952Y-111329333D01*
X143995428Y-111329333D01*
X144090666Y-111376952D01*
X144138285Y-111424571D01*
X144185904Y-111519809D01*
%TO.C,LS1*%
X171045380Y-133977142D02*
X171045380Y-133500952D01*
X170045380Y-133500952D01*
X170997761Y-134262857D02*
X171045380Y-134405714D01*
X171045380Y-134643809D01*
X170997761Y-134739047D01*
X170950142Y-134786666D01*
X170854904Y-134834285D01*
X170759666Y-134834285D01*
X170664428Y-134786666D01*
X170616809Y-134739047D01*
X170569190Y-134643809D01*
X170521571Y-134453333D01*
X170473952Y-134358095D01*
X170426333Y-134310476D01*
X170331095Y-134262857D01*
X170235857Y-134262857D01*
X170140619Y-134310476D01*
X170093000Y-134358095D01*
X170045380Y-134453333D01*
X170045380Y-134691428D01*
X170093000Y-134834285D01*
X171045380Y-135786666D02*
X171045380Y-135215238D01*
X171045380Y-135500952D02*
X170045380Y-135500952D01*
X170188238Y-135405714D01*
X170283476Y-135310476D01*
X170331095Y-135215238D01*
%TO.C,U3*%
X141833904Y-94575380D02*
X141833904Y-95384904D01*
X141786285Y-95480142D01*
X141738666Y-95527761D01*
X141643428Y-95575380D01*
X141452952Y-95575380D01*
X141357714Y-95527761D01*
X141310095Y-95480142D01*
X141262476Y-95384904D01*
X141262476Y-94575380D01*
X140881523Y-94575380D02*
X140262476Y-94575380D01*
X140595809Y-94956333D01*
X140452952Y-94956333D01*
X140357714Y-95003952D01*
X140310095Y-95051571D01*
X140262476Y-95146809D01*
X140262476Y-95384904D01*
X140310095Y-95480142D01*
X140357714Y-95527761D01*
X140452952Y-95575380D01*
X140738666Y-95575380D01*
X140833904Y-95527761D01*
X140881523Y-95480142D01*
X137290485Y-102077780D02*
X137766676Y-102077780D01*
X137766676Y-101077780D01*
X136623819Y-101553971D02*
X136480961Y-101601590D01*
X136433342Y-101649209D01*
X136385723Y-101744447D01*
X136385723Y-101887304D01*
X136433342Y-101982542D01*
X136480961Y-102030161D01*
X136576200Y-102077780D01*
X136957152Y-102077780D01*
X136957152Y-101077780D01*
X136623819Y-101077780D01*
X136528580Y-101125400D01*
X136480961Y-101173019D01*
X136433342Y-101268257D01*
X136433342Y-101363495D01*
X136480961Y-101458733D01*
X136528580Y-101506352D01*
X136623819Y-101553971D01*
X136957152Y-101553971D01*
X135766676Y-101077780D02*
X135576200Y-101077780D01*
X135480961Y-101125400D01*
X135385723Y-101220638D01*
X135338104Y-101411114D01*
X135338104Y-101744447D01*
X135385723Y-101934923D01*
X135480961Y-102030161D01*
X135576200Y-102077780D01*
X135766676Y-102077780D01*
X135861914Y-102030161D01*
X135957152Y-101934923D01*
X136004771Y-101744447D01*
X136004771Y-101411114D01*
X135957152Y-101220638D01*
X135861914Y-101125400D01*
X135766676Y-101077780D01*
X132321676Y-101077780D02*
X132797866Y-101077780D01*
X132845485Y-101553971D01*
X132797866Y-101506352D01*
X132702628Y-101458733D01*
X132464533Y-101458733D01*
X132369295Y-101506352D01*
X132321676Y-101553971D01*
X132274057Y-101649209D01*
X132274057Y-101887304D01*
X132321676Y-101982542D01*
X132369295Y-102030161D01*
X132464533Y-102077780D01*
X132702628Y-102077780D01*
X132797866Y-102030161D01*
X132845485Y-101982542D01*
X131988342Y-101077780D02*
X131655009Y-102077780D01*
X131321676Y-101077780D01*
X134409295Y-101125400D02*
X134504533Y-101077780D01*
X134647390Y-101077780D01*
X134790247Y-101125400D01*
X134885485Y-101220638D01*
X134933104Y-101315876D01*
X134980723Y-101506352D01*
X134980723Y-101649209D01*
X134933104Y-101839685D01*
X134885485Y-101934923D01*
X134790247Y-102030161D01*
X134647390Y-102077780D01*
X134552152Y-102077780D01*
X134409295Y-102030161D01*
X134361676Y-101982542D01*
X134361676Y-101649209D01*
X134552152Y-101649209D01*
X140513104Y-101125400D02*
X140608342Y-101077780D01*
X140751200Y-101077780D01*
X140894057Y-101125400D01*
X140989295Y-101220638D01*
X141036914Y-101315876D01*
X141084533Y-101506352D01*
X141084533Y-101649209D01*
X141036914Y-101839685D01*
X140989295Y-101934923D01*
X140894057Y-102030161D01*
X140751200Y-102077780D01*
X140655961Y-102077780D01*
X140513104Y-102030161D01*
X140465485Y-101982542D01*
X140465485Y-101649209D01*
X140655961Y-101649209D01*
X140036914Y-102077780D02*
X140036914Y-101077780D01*
X139465485Y-102077780D01*
X139465485Y-101077780D01*
X138989295Y-102077780D02*
X138989295Y-101077780D01*
X138751200Y-101077780D01*
X138608342Y-101125400D01*
X138513104Y-101220638D01*
X138465485Y-101315876D01*
X138417866Y-101506352D01*
X138417866Y-101649209D01*
X138465485Y-101839685D01*
X138513104Y-101934923D01*
X138608342Y-102030161D01*
X138751200Y-102077780D01*
X138989295Y-102077780D01*
X143029295Y-101553971D02*
X142695961Y-101553971D01*
X142553104Y-102077780D02*
X143029295Y-102077780D01*
X143029295Y-101077780D01*
X142553104Y-101077780D01*
X142124533Y-102077780D02*
X142124533Y-101077780D01*
X141553104Y-102077780D01*
X141553104Y-101077780D01*
X145569295Y-101077780D02*
X145235961Y-102077780D01*
X144902628Y-101077780D01*
X144616914Y-102030161D02*
X144521676Y-102077780D01*
X144331200Y-102077780D01*
X144235961Y-102030161D01*
X144188342Y-101934923D01*
X144188342Y-101887304D01*
X144235961Y-101792066D01*
X144331200Y-101744447D01*
X144474057Y-101744447D01*
X144569295Y-101696828D01*
X144616914Y-101601590D01*
X144616914Y-101553971D01*
X144569295Y-101458733D01*
X144474057Y-101411114D01*
X144331200Y-101411114D01*
X144235961Y-101458733D01*
X148037866Y-101553971D02*
X147895009Y-101601590D01*
X147847390Y-101649209D01*
X147799771Y-101744447D01*
X147799771Y-101887304D01*
X147847390Y-101982542D01*
X147895009Y-102030161D01*
X147990247Y-102077780D01*
X148371200Y-102077780D01*
X148371200Y-101077780D01*
X148037866Y-101077780D01*
X147942628Y-101125400D01*
X147895009Y-101173019D01*
X147847390Y-101268257D01*
X147847390Y-101363495D01*
X147895009Y-101458733D01*
X147942628Y-101506352D01*
X148037866Y-101553971D01*
X148371200Y-101553971D01*
X146942628Y-102077780D02*
X146942628Y-101553971D01*
X146990247Y-101458733D01*
X147085485Y-101411114D01*
X147275961Y-101411114D01*
X147371200Y-101458733D01*
X146942628Y-102030161D02*
X147037866Y-102077780D01*
X147275961Y-102077780D01*
X147371200Y-102030161D01*
X147418819Y-101934923D01*
X147418819Y-101839685D01*
X147371200Y-101744447D01*
X147275961Y-101696828D01*
X147037866Y-101696828D01*
X146942628Y-101649209D01*
X146609295Y-101411114D02*
X146228342Y-101411114D01*
X146466438Y-101077780D02*
X146466438Y-101934923D01*
X146418819Y-102030161D01*
X146323580Y-102077780D01*
X146228342Y-102077780D01*
X151808104Y-101077780D02*
X151808104Y-101887304D01*
X151760485Y-101982542D01*
X151712866Y-102030161D01*
X151617628Y-102077780D01*
X151427152Y-102077780D01*
X151331914Y-102030161D01*
X151284295Y-101982542D01*
X151236676Y-101887304D01*
X151236676Y-101077780D01*
X150808104Y-102030161D02*
X150665247Y-102077780D01*
X150427152Y-102077780D01*
X150331914Y-102030161D01*
X150284295Y-101982542D01*
X150236676Y-101887304D01*
X150236676Y-101792066D01*
X150284295Y-101696828D01*
X150331914Y-101649209D01*
X150427152Y-101601590D01*
X150617628Y-101553971D01*
X150712866Y-101506352D01*
X150760485Y-101458733D01*
X150808104Y-101363495D01*
X150808104Y-101268257D01*
X150760485Y-101173019D01*
X150712866Y-101125400D01*
X150617628Y-101077780D01*
X150379533Y-101077780D01*
X150236676Y-101125400D01*
X149474771Y-101553971D02*
X149331914Y-101601590D01*
X149284295Y-101649209D01*
X149236676Y-101744447D01*
X149236676Y-101887304D01*
X149284295Y-101982542D01*
X149331914Y-102030161D01*
X149427152Y-102077780D01*
X149808104Y-102077780D01*
X149808104Y-101077780D01*
X149474771Y-101077780D01*
X149379533Y-101125400D01*
X149331914Y-101173019D01*
X149284295Y-101268257D01*
X149284295Y-101363495D01*
X149331914Y-101458733D01*
X149379533Y-101506352D01*
X149474771Y-101553971D01*
X149808104Y-101553971D01*
%TO.C,U7*%
X113033380Y-77089095D02*
X113842904Y-77089095D01*
X113938142Y-77136714D01*
X113985761Y-77184333D01*
X114033380Y-77279571D01*
X114033380Y-77470047D01*
X113985761Y-77565285D01*
X113938142Y-77612904D01*
X113842904Y-77660523D01*
X113033380Y-77660523D01*
X113033380Y-78041476D02*
X113033380Y-78708142D01*
X114033380Y-78279571D01*
%TO.C,U9*%
X149910904Y-154138380D02*
X149910904Y-154947904D01*
X149863285Y-155043142D01*
X149815666Y-155090761D01*
X149720428Y-155138380D01*
X149529952Y-155138380D01*
X149434714Y-155090761D01*
X149387095Y-155043142D01*
X149339476Y-154947904D01*
X149339476Y-154138380D01*
X148815666Y-155138380D02*
X148625190Y-155138380D01*
X148529952Y-155090761D01*
X148482333Y-155043142D01*
X148387095Y-154900285D01*
X148339476Y-154709809D01*
X148339476Y-154328857D01*
X148387095Y-154233619D01*
X148434714Y-154186000D01*
X148529952Y-154138380D01*
X148720428Y-154138380D01*
X148815666Y-154186000D01*
X148863285Y-154233619D01*
X148910904Y-154328857D01*
X148910904Y-154566952D01*
X148863285Y-154662190D01*
X148815666Y-154709809D01*
X148720428Y-154757428D01*
X148529952Y-154757428D01*
X148434714Y-154709809D01*
X148387095Y-154662190D01*
X148339476Y-154566952D01*
%TD*%
M02*
