%TF.GenerationSoftware,KiCad,Pcbnew,(5.1.9)-1*%
%TF.CreationDate,2021-03-20T17:22:00+11:00*%
%TF.ProjectId,GBC_motherboard,4742435f-6d6f-4746-9865-72626f617264,rev?*%
%TF.SameCoordinates,Original*%
%TF.FileFunction,Legend,Top*%
%TF.FilePolarity,Positive*%
%FSLAX46Y46*%
G04 Gerber Fmt 4.6, Leading zero omitted, Abs format (unit mm)*
G04 Created by KiCad (PCBNEW (5.1.9)-1) date 2021-03-20 17:22:00*
%MOMM*%
%LPD*%
G01*
G04 APERTURE LIST*
%ADD10C,0.120000*%
%ADD11C,0.010000*%
%ADD12C,0.150000*%
G04 APERTURE END LIST*
D10*
%TO.C,U8*%
X127820000Y-133796000D02*
X127820000Y-157796000D01*
X127820000Y-157796000D02*
X112820000Y-157796000D01*
X112820000Y-157796000D02*
X112820000Y-133796000D01*
X112820000Y-133796000D02*
X127820000Y-133796000D01*
%TO.C,C2*%
X134556000Y-149744748D02*
X134556000Y-151167252D01*
X136376000Y-149744748D02*
X136376000Y-151167252D01*
D11*
%TO.C,U4*%
G36*
X123555158Y-109344592D02*
G01*
X123650138Y-109434609D01*
X123710676Y-109496642D01*
X123722263Y-109512286D01*
X123710035Y-109523473D01*
X123665870Y-109488655D01*
X123578543Y-109398258D01*
X123541619Y-109358179D01*
X123388053Y-109190486D01*
X123555158Y-109344592D01*
G37*
X123555158Y-109344592D02*
X123650138Y-109434609D01*
X123710676Y-109496642D01*
X123722263Y-109512286D01*
X123710035Y-109523473D01*
X123665870Y-109488655D01*
X123578543Y-109398258D01*
X123541619Y-109358179D01*
X123388053Y-109190486D01*
X123555158Y-109344592D01*
G36*
X172210810Y-108717713D02*
G01*
X172954907Y-108815283D01*
X173692627Y-108972715D01*
X174405063Y-109186201D01*
X175073310Y-109451928D01*
X175513298Y-109671715D01*
X176074675Y-110020205D01*
X176627396Y-110439469D01*
X177150985Y-110911632D01*
X177624964Y-111418821D01*
X177882231Y-111739429D01*
X178068483Y-112012503D01*
X178266824Y-112347206D01*
X178464904Y-112719162D01*
X178650370Y-113103993D01*
X178810871Y-113477321D01*
X178934053Y-113814770D01*
X178934505Y-113816171D01*
X179039243Y-114178468D01*
X179136166Y-114582702D01*
X179219131Y-114997974D01*
X179281997Y-115393387D01*
X179318619Y-115738045D01*
X179319653Y-115753425D01*
X179325253Y-116004192D01*
X179316008Y-116324782D01*
X179293791Y-116697168D01*
X179260475Y-117103323D01*
X179217929Y-117525220D01*
X179168028Y-117944831D01*
X179112643Y-118344131D01*
X179053645Y-118705092D01*
X178992906Y-119009687D01*
X178972594Y-119095591D01*
X178915043Y-119297939D01*
X178830102Y-119559619D01*
X178726022Y-119858383D01*
X178611058Y-120171985D01*
X178493461Y-120478177D01*
X178381484Y-120754711D01*
X178283380Y-120979341D01*
X178241517Y-121066412D01*
X178094199Y-121304167D01*
X177889853Y-121541280D01*
X177620139Y-121785870D01*
X177276715Y-122046054D01*
X177132461Y-122145758D01*
X176891141Y-122311214D01*
X176630143Y-122493601D01*
X176380642Y-122670946D01*
X176173812Y-122821279D01*
X176171053Y-122823320D01*
X175925987Y-123002778D01*
X175711440Y-123153611D01*
X175514115Y-123282355D01*
X175320715Y-123395548D01*
X175117942Y-123499725D01*
X174892499Y-123601424D01*
X174631088Y-123707181D01*
X174320413Y-123823532D01*
X173947175Y-123957014D01*
X173659737Y-124057801D01*
X173372343Y-124162300D01*
X173053645Y-124284898D01*
X172742121Y-124410441D01*
X172476248Y-124523772D01*
X172472439Y-124525463D01*
X172268708Y-124610805D01*
X172000008Y-124715597D01*
X171686386Y-124832456D01*
X171347887Y-124953995D01*
X171004559Y-125072828D01*
X170809503Y-125138134D01*
X170410120Y-125271558D01*
X170084695Y-125385708D01*
X169821898Y-125487264D01*
X169610401Y-125582907D01*
X169438873Y-125679318D01*
X169295986Y-125783178D01*
X169170410Y-125901168D01*
X169050815Y-126039968D01*
X168925872Y-126206259D01*
X168873357Y-126279854D01*
X168520557Y-126735182D01*
X168162743Y-127105829D01*
X167791011Y-127396469D01*
X167396457Y-127611773D01*
X166970181Y-127756413D01*
X166503279Y-127835060D01*
X165986849Y-127852387D01*
X165882917Y-127849153D01*
X165640000Y-127837116D01*
X165447982Y-127819700D01*
X165277102Y-127791273D01*
X165097598Y-127746202D01*
X164879710Y-127678856D01*
X164741035Y-127633055D01*
X164492684Y-127552254D01*
X164303029Y-127497578D01*
X164147163Y-127464161D01*
X164000179Y-127447141D01*
X163837172Y-127441652D01*
X163760684Y-127441602D01*
X163635183Y-127443616D01*
X163521573Y-127450446D01*
X163406734Y-127465256D01*
X163277547Y-127491211D01*
X163120893Y-127531476D01*
X162923651Y-127589216D01*
X162672703Y-127667596D01*
X162354930Y-127769780D01*
X162223316Y-127812461D01*
X161889487Y-127922495D01*
X161555406Y-128035611D01*
X161239134Y-128145472D01*
X160958728Y-128245744D01*
X160732247Y-128330092D01*
X160612474Y-128377505D01*
X160054650Y-128584428D01*
X159472813Y-128756738D01*
X158884794Y-128891189D01*
X158308426Y-128984536D01*
X157761539Y-129033533D01*
X157261967Y-129034933D01*
X157076474Y-129021148D01*
X156573460Y-128949048D01*
X156034795Y-128833418D01*
X155480106Y-128680960D01*
X154929019Y-128498376D01*
X154401164Y-128292369D01*
X153916166Y-128069640D01*
X153493655Y-127836891D01*
X153361725Y-127752673D01*
X152978559Y-127469491D01*
X152576006Y-127122494D01*
X152168202Y-126727458D01*
X151769281Y-126300158D01*
X151393375Y-125856368D01*
X151054620Y-125411864D01*
X150767148Y-124982421D01*
X150573494Y-124640662D01*
X150290179Y-123999971D01*
X150063253Y-123306877D01*
X149896530Y-122581196D01*
X149793825Y-121842742D01*
X149758953Y-121111330D01*
X149771551Y-120812468D01*
X154647877Y-120812468D01*
X154647877Y-123428989D01*
X154837263Y-123369951D01*
X154972841Y-123316304D01*
X155145853Y-123232539D01*
X155317924Y-123137319D01*
X155542042Y-122999597D01*
X155704377Y-122885095D01*
X155822134Y-122775611D01*
X155912520Y-122652945D01*
X155992739Y-122498894D01*
X156053513Y-122359159D01*
X156196002Y-121924685D01*
X156282399Y-121452108D01*
X156307510Y-120976744D01*
X156293408Y-120727810D01*
X156258489Y-120424433D01*
X156223454Y-120206155D01*
X156188600Y-120074576D01*
X156164146Y-120034676D01*
X156131063Y-119985116D01*
X156074976Y-119877445D01*
X156012177Y-119744007D01*
X155932161Y-119584618D01*
X155820304Y-119385032D01*
X155695586Y-119178516D01*
X155639928Y-119091581D01*
X155489214Y-118875490D01*
X155348846Y-118711805D01*
X155191962Y-118571662D01*
X155073930Y-118483448D01*
X154924339Y-118377821D01*
X154798746Y-118290738D01*
X154717738Y-118236416D01*
X154703579Y-118227689D01*
X154691481Y-118237207D01*
X154681157Y-118284360D01*
X154672486Y-118374780D01*
X154665348Y-118514097D01*
X154659619Y-118707941D01*
X154655181Y-118961943D01*
X154651910Y-119281733D01*
X154649685Y-119672942D01*
X154648386Y-120141201D01*
X154647891Y-120692140D01*
X154647877Y-120812468D01*
X149771551Y-120812468D01*
X149783219Y-120535688D01*
X149853201Y-119908380D01*
X149952857Y-119341752D01*
X150089294Y-118809960D01*
X150269619Y-118287164D01*
X150493613Y-117764602D01*
X155559732Y-117764602D01*
X155571435Y-117826902D01*
X155621789Y-117945171D01*
X155701790Y-118099801D01*
X155761148Y-118203341D01*
X155945995Y-118542105D01*
X156103405Y-118895507D01*
X156242063Y-119286156D01*
X156370659Y-119736663D01*
X156409562Y-119890886D01*
X156470199Y-120145335D01*
X156510458Y-120343014D01*
X156533663Y-120513372D01*
X156543142Y-120685855D01*
X156542217Y-120889911D01*
X156538324Y-121031203D01*
X156524728Y-121404127D01*
X156508108Y-121706622D01*
X156485429Y-121957694D01*
X156453653Y-122176351D01*
X156409746Y-122381600D01*
X156350669Y-122592449D01*
X156273388Y-122827904D01*
X156232649Y-122944724D01*
X156200458Y-123060248D01*
X156210706Y-123136815D01*
X156250082Y-123196084D01*
X156346486Y-123280233D01*
X156423856Y-123319408D01*
X156502209Y-123376421D01*
X156510491Y-123433821D01*
X156531061Y-123516385D01*
X156598676Y-123620730D01*
X156625291Y-123650810D01*
X156759251Y-123748410D01*
X156900171Y-123783270D01*
X157025397Y-123755385D01*
X157112275Y-123664748D01*
X157118523Y-123650935D01*
X157169285Y-123573850D01*
X157218282Y-123554962D01*
X157274449Y-123532549D01*
X157337108Y-123452142D01*
X157386879Y-123341334D01*
X157397953Y-123299112D01*
X157410355Y-123200723D01*
X157423937Y-123028169D01*
X157438055Y-122796703D01*
X157452062Y-122521576D01*
X157465313Y-122218042D01*
X157477162Y-121901353D01*
X157486964Y-121586763D01*
X157492677Y-121347818D01*
X157730169Y-121347818D01*
X157734094Y-121671270D01*
X157736119Y-121756331D01*
X157747927Y-122138603D01*
X157762332Y-122459780D01*
X157781698Y-122748201D01*
X157808391Y-123032207D01*
X157844778Y-123340140D01*
X157893224Y-123700338D01*
X157905962Y-123791014D01*
X157932696Y-124008883D01*
X157957914Y-124262556D01*
X157976314Y-124498477D01*
X157976816Y-124506507D01*
X157992130Y-124686289D01*
X158012437Y-124833614D01*
X158034107Y-124924140D01*
X158041098Y-124937602D01*
X158107789Y-124956948D01*
X158240374Y-124947463D01*
X158421822Y-124913087D01*
X158635102Y-124857761D01*
X158863185Y-124785427D01*
X158892464Y-124774356D01*
X164202505Y-124774356D01*
X164260335Y-125149857D01*
X164392365Y-125504384D01*
X164591135Y-125827010D01*
X164849185Y-126106810D01*
X165159057Y-126332857D01*
X165513290Y-126494225D01*
X165699106Y-126545996D01*
X165907601Y-126586982D01*
X166074936Y-126601567D01*
X166244850Y-126590559D01*
X166435249Y-126559601D01*
X166810956Y-126447546D01*
X167148651Y-126264073D01*
X167440688Y-126019966D01*
X167679424Y-125726012D01*
X167857212Y-125392994D01*
X167966409Y-125031699D01*
X167999369Y-124652910D01*
X167973982Y-124388805D01*
X167865641Y-124003807D01*
X167686976Y-123658091D01*
X167448159Y-123359086D01*
X167159364Y-123114218D01*
X166830762Y-122930915D01*
X166472527Y-122816604D01*
X166094831Y-122778711D01*
X165804624Y-122804958D01*
X165410096Y-122917244D01*
X165056182Y-123104321D01*
X164751558Y-123357483D01*
X164504898Y-123668024D01*
X164324878Y-124027239D01*
X164226334Y-124388805D01*
X164202505Y-124774356D01*
X158892464Y-124774356D01*
X159089040Y-124700027D01*
X159115567Y-124688926D01*
X159289699Y-124610498D01*
X159442374Y-124533380D01*
X159546237Y-124471604D01*
X159561181Y-124460357D01*
X159627929Y-124393622D01*
X159628753Y-124333194D01*
X159596504Y-124274648D01*
X159270331Y-123693528D01*
X159013961Y-123111687D01*
X158832218Y-122541301D01*
X158749025Y-122136436D01*
X158728673Y-121947070D01*
X158713603Y-121692915D01*
X158704078Y-121398479D01*
X158702507Y-121267400D01*
X158895571Y-121267400D01*
X158908300Y-121610075D01*
X158957543Y-121894409D01*
X159042029Y-122109692D01*
X159072597Y-122157207D01*
X159160517Y-122291708D01*
X159246369Y-122442243D01*
X159255859Y-122460644D01*
X159316545Y-122564388D01*
X159366697Y-122623277D01*
X159378403Y-122628338D01*
X159414629Y-122662825D01*
X159415948Y-122675089D01*
X159444931Y-122735791D01*
X159515678Y-122821739D01*
X159525326Y-122831603D01*
X159611640Y-122905833D01*
X159676756Y-122940939D01*
X159681291Y-122941366D01*
X159723145Y-122977324D01*
X159727877Y-123005333D01*
X159754986Y-123056050D01*
X159843525Y-123089536D01*
X160004318Y-123108812D01*
X160117790Y-123114149D01*
X160307176Y-123120239D01*
X160307176Y-121018479D01*
X160307013Y-120529812D01*
X160306339Y-120123106D01*
X160304878Y-119790888D01*
X160302350Y-119525682D01*
X160298480Y-119320015D01*
X160292989Y-119166410D01*
X160285600Y-119057395D01*
X160276035Y-118985494D01*
X160264018Y-118943232D01*
X160249270Y-118923135D01*
X160231515Y-118917729D01*
X160229193Y-118917712D01*
X160139815Y-118944843D01*
X160039807Y-119006155D01*
X159947086Y-119068046D01*
X159879879Y-119094590D01*
X159879608Y-119094597D01*
X159815729Y-119125660D01*
X159750158Y-119185028D01*
X159676109Y-119251738D01*
X159628133Y-119274464D01*
X159560956Y-119308941D01*
X159464989Y-119397775D01*
X159358015Y-119519069D01*
X159257819Y-119650928D01*
X159182184Y-119771456D01*
X159148895Y-119858757D01*
X159148579Y-119864898D01*
X159131536Y-119932524D01*
X159111671Y-119945239D01*
X159076736Y-119988415D01*
X159038351Y-120112083D01*
X158998317Y-120307453D01*
X158958437Y-120565737D01*
X158920626Y-120877095D01*
X158895571Y-121267400D01*
X158702507Y-121267400D01*
X158700358Y-121088267D01*
X158702705Y-120786786D01*
X158711381Y-120518542D01*
X158726646Y-120308042D01*
X158729271Y-120285016D01*
X158753761Y-120142799D01*
X158797143Y-119946150D01*
X158852257Y-119726164D01*
X158887682Y-119596946D01*
X159018514Y-119136857D01*
X158927224Y-119008201D01*
X158830755Y-118918729D01*
X158678964Y-118828593D01*
X158494038Y-118745564D01*
X158298166Y-118677417D01*
X158113536Y-118631926D01*
X157962337Y-118616863D01*
X157869928Y-118637783D01*
X157848652Y-118694659D01*
X157827693Y-118829557D01*
X157807539Y-119031064D01*
X157788681Y-119287763D01*
X157771609Y-119588242D01*
X157756811Y-119921085D01*
X157744779Y-120274879D01*
X157736001Y-120638209D01*
X157730968Y-120999660D01*
X157730169Y-121347818D01*
X157492677Y-121347818D01*
X157494072Y-121289523D01*
X157497842Y-121024886D01*
X157498273Y-120929042D01*
X157495577Y-120664404D01*
X157487591Y-120347235D01*
X157475079Y-119991041D01*
X157458800Y-119609329D01*
X157439517Y-119215606D01*
X157417992Y-118823379D01*
X157394986Y-118446154D01*
X157371260Y-118097439D01*
X157347577Y-117790740D01*
X157324698Y-117539565D01*
X157303384Y-117357419D01*
X157293404Y-117295679D01*
X157272938Y-117228851D01*
X157232815Y-117189498D01*
X157158646Y-117176831D01*
X157036038Y-117190062D01*
X156850600Y-117228402D01*
X156702448Y-117263310D01*
X156507580Y-117318491D01*
X156293333Y-117392573D01*
X156077614Y-117477698D01*
X155878333Y-117566012D01*
X155713397Y-117649658D01*
X155600717Y-117720779D01*
X155559732Y-117764602D01*
X150493613Y-117764602D01*
X150500936Y-117747520D01*
X150615763Y-117508091D01*
X151022391Y-116781178D01*
X151311316Y-116372622D01*
X168684720Y-116372622D01*
X168684720Y-118881695D01*
X168807263Y-118852417D01*
X168915150Y-118816767D01*
X169063734Y-118755827D01*
X169172468Y-118705847D01*
X169346771Y-118603144D01*
X169525233Y-118469733D01*
X169611082Y-118391913D01*
X169816964Y-118128273D01*
X169983098Y-117799288D01*
X170106711Y-117420988D01*
X170185028Y-117009405D01*
X170215273Y-116580570D01*
X170194673Y-116150514D01*
X170120452Y-115735269D01*
X170089987Y-115624849D01*
X169970275Y-115296207D01*
X169812755Y-114970480D01*
X169627967Y-114662625D01*
X169426447Y-114387602D01*
X169218735Y-114160367D01*
X169015369Y-113995880D01*
X168897817Y-113932688D01*
X168787746Y-113888994D01*
X168717063Y-113865081D01*
X168708432Y-113863549D01*
X168704043Y-113906935D01*
X168699917Y-114031765D01*
X168696130Y-114230046D01*
X168692758Y-114493786D01*
X168689876Y-114814992D01*
X168687559Y-115185671D01*
X168685883Y-115597830D01*
X168684924Y-116043478D01*
X168684720Y-116372622D01*
X151311316Y-116372622D01*
X151497740Y-116109009D01*
X152038252Y-115495519D01*
X152640369Y-114944640D01*
X153300535Y-114460309D01*
X153467936Y-114353965D01*
X153689966Y-114222876D01*
X153923758Y-114097794D01*
X154179592Y-113974462D01*
X154467750Y-113848619D01*
X154619754Y-113787676D01*
X159478403Y-113787676D01*
X159504978Y-114064336D01*
X159611186Y-114375897D01*
X159783490Y-114639039D01*
X160009573Y-114847846D01*
X160277114Y-114996403D01*
X160573795Y-115078793D01*
X160887298Y-115089102D01*
X161205303Y-115021414D01*
X161362461Y-114956318D01*
X161629753Y-114781222D01*
X161833670Y-114556260D01*
X161973705Y-114294955D01*
X162049354Y-114010831D01*
X162060112Y-113717411D01*
X162005473Y-113428218D01*
X161950308Y-113303993D01*
X169495776Y-113303993D01*
X169512448Y-113344623D01*
X169567410Y-113447490D01*
X169652731Y-113598359D01*
X169760480Y-113782996D01*
X169795962Y-113842792D01*
X170000991Y-114202528D01*
X170156208Y-114515017D01*
X170269346Y-114801307D01*
X170348139Y-115082444D01*
X170400321Y-115379475D01*
X170418507Y-115537073D01*
X170467912Y-116308595D01*
X170455841Y-117017477D01*
X170382058Y-117666050D01*
X170246331Y-118256648D01*
X170106168Y-118657022D01*
X169984163Y-118956306D01*
X170125406Y-118974074D01*
X170226277Y-118981805D01*
X170392022Y-118989207D01*
X170598398Y-118995373D01*
X170790246Y-118998998D01*
X171313842Y-119006155D01*
X171313842Y-116809687D01*
X171652832Y-116809687D01*
X171655064Y-117164701D01*
X171667887Y-117507017D01*
X171690287Y-117843479D01*
X171722029Y-118242185D01*
X171747969Y-118563380D01*
X171769266Y-118818713D01*
X171787081Y-119019837D01*
X171802573Y-119178400D01*
X171816902Y-119306056D01*
X171831227Y-119414455D01*
X171846709Y-119515248D01*
X171864507Y-119620085D01*
X171870560Y-119654570D01*
X171878612Y-119741352D01*
X171885338Y-119888008D01*
X171889440Y-120064978D01*
X171889731Y-120090574D01*
X171893141Y-120437141D01*
X172088973Y-120437141D01*
X172235147Y-120423534D01*
X172422235Y-120388056D01*
X172590289Y-120343950D01*
X172793386Y-120274222D01*
X173001051Y-120189790D01*
X173196390Y-120099159D01*
X173362507Y-120010835D01*
X173482505Y-119933324D01*
X173539490Y-119875130D01*
X173541913Y-119864900D01*
X173519843Y-119796625D01*
X173461822Y-119678104D01*
X173380134Y-119534297D01*
X173375269Y-119526265D01*
X173226510Y-119263152D01*
X173091104Y-118989238D01*
X172976033Y-118722001D01*
X172888283Y-118478917D01*
X172834838Y-118277462D01*
X172822090Y-118142097D01*
X172815662Y-118057537D01*
X172785832Y-118043803D01*
X172759256Y-118037804D01*
X172766661Y-118004159D01*
X172771179Y-117917487D01*
X172747174Y-117798418D01*
X172744317Y-117789425D01*
X172698284Y-117588742D01*
X172666975Y-117326156D01*
X172649773Y-117019606D01*
X172646060Y-116687030D01*
X172649121Y-116573187D01*
X172800021Y-116573187D01*
X172826985Y-117046748D01*
X172916628Y-117504858D01*
X173067332Y-117923783D01*
X173098323Y-117988231D01*
X173313097Y-118385932D01*
X173519713Y-118706130D01*
X173716115Y-118946397D01*
X173900248Y-119104310D01*
X174070056Y-119177440D01*
X174110070Y-119182193D01*
X174122689Y-119165447D01*
X174133380Y-119109923D01*
X174142279Y-119009779D01*
X174149520Y-118859167D01*
X174155240Y-118652244D01*
X174159573Y-118383165D01*
X174162653Y-118046084D01*
X174164616Y-117635157D01*
X174165597Y-117144539D01*
X174165772Y-116770239D01*
X174165096Y-116314877D01*
X174163152Y-115887537D01*
X174160068Y-115496365D01*
X174155971Y-115149510D01*
X174150987Y-114855118D01*
X174145244Y-114621336D01*
X174138868Y-114456311D01*
X174131987Y-114368191D01*
X174128119Y-114355450D01*
X174079488Y-114375954D01*
X173973496Y-114439256D01*
X173805957Y-114548040D01*
X173572684Y-114704991D01*
X173412154Y-114814667D01*
X173334934Y-114882298D01*
X173307701Y-114936400D01*
X173307965Y-114937642D01*
X173292082Y-114979898D01*
X173282750Y-114981507D01*
X173232400Y-115021897D01*
X173163414Y-115133406D01*
X173082945Y-115301544D01*
X172998145Y-115511820D01*
X172940602Y-115674641D01*
X172837354Y-116107907D01*
X172800021Y-116573187D01*
X172649121Y-116573187D01*
X172655220Y-116346368D01*
X172676633Y-116015559D01*
X172709683Y-115712542D01*
X172753752Y-115455256D01*
X172808224Y-115261640D01*
X172833277Y-115205098D01*
X172864176Y-115128863D01*
X172909640Y-114997136D01*
X172953512Y-114858814D01*
X173038608Y-114579608D01*
X172892466Y-114467747D01*
X172763868Y-114389214D01*
X172586248Y-114305495D01*
X172388765Y-114227719D01*
X172200578Y-114167016D01*
X172050849Y-114134513D01*
X172012388Y-114131859D01*
X171942976Y-114148521D01*
X171888099Y-114205391D01*
X171844569Y-114312793D01*
X171809196Y-114481051D01*
X171778790Y-114720491D01*
X171756814Y-114959148D01*
X171713182Y-115516706D01*
X171681541Y-116000865D01*
X171661541Y-116426800D01*
X171652832Y-116809687D01*
X171313842Y-116809687D01*
X171313842Y-115853514D01*
X171313542Y-115222935D01*
X171312582Y-114676632D01*
X171310869Y-114209445D01*
X171308313Y-113816214D01*
X171304824Y-113491781D01*
X171300308Y-113230986D01*
X171294677Y-113028669D01*
X171287837Y-112879672D01*
X171279699Y-112778834D01*
X171270171Y-112720997D01*
X171259162Y-112701001D01*
X171258141Y-112700881D01*
X171167597Y-112710989D01*
X171016212Y-112737683D01*
X170829526Y-112775536D01*
X170633079Y-112819123D01*
X170452412Y-112863018D01*
X170314479Y-112901355D01*
X170201188Y-112944302D01*
X170046581Y-113012587D01*
X169874868Y-113094302D01*
X169710261Y-113177540D01*
X169576970Y-113250395D01*
X169499205Y-113300960D01*
X169495776Y-113303993D01*
X161950308Y-113303993D01*
X161884932Y-113156777D01*
X161697985Y-112916611D01*
X161445912Y-112722292D01*
X161148776Y-112592807D01*
X160846894Y-112542143D01*
X160550713Y-112563076D01*
X160270680Y-112648382D01*
X160017243Y-112790838D01*
X159800850Y-112983218D01*
X159631947Y-113218301D01*
X159520982Y-113488861D01*
X159478403Y-113787676D01*
X154619754Y-113787676D01*
X154798511Y-113716007D01*
X155182155Y-113572368D01*
X155628964Y-113413443D01*
X156149218Y-113234974D01*
X156257382Y-113198448D01*
X156626777Y-113072901D01*
X156978734Y-112951250D01*
X157302044Y-112837519D01*
X157585500Y-112735733D01*
X157817893Y-112649916D01*
X157988016Y-112584092D01*
X158084400Y-112542418D01*
X158220592Y-112464843D01*
X158401256Y-112349895D01*
X158600198Y-112214697D01*
X158747527Y-112108920D01*
X159029747Y-111906980D01*
X159278398Y-111747134D01*
X159510685Y-111623885D01*
X159743816Y-111531740D01*
X159994996Y-111465202D01*
X160281434Y-111418776D01*
X160620335Y-111386967D01*
X161028906Y-111364279D01*
X161087000Y-111361757D01*
X161299310Y-111352826D01*
X161482993Y-111344065D01*
X161647075Y-111333282D01*
X161800582Y-111318284D01*
X161952542Y-111296879D01*
X162111979Y-111266875D01*
X162287920Y-111226079D01*
X162489392Y-111172300D01*
X162725421Y-111103345D01*
X163005034Y-111017021D01*
X163337256Y-110911138D01*
X163731113Y-110783501D01*
X164195633Y-110631920D01*
X164495948Y-110533814D01*
X165278527Y-110278418D01*
X165981795Y-110049422D01*
X166611100Y-109845280D01*
X167171790Y-109664444D01*
X167669215Y-109505370D01*
X168108723Y-109366510D01*
X168495663Y-109246318D01*
X168835382Y-109143248D01*
X169133231Y-109055755D01*
X169394558Y-108982290D01*
X169624711Y-108921309D01*
X169829039Y-108871265D01*
X170012891Y-108830612D01*
X170181615Y-108797804D01*
X170340561Y-108771293D01*
X170495076Y-108749535D01*
X170650509Y-108730982D01*
X170779106Y-108717410D01*
X171479241Y-108683819D01*
X172210810Y-108717713D01*
G37*
X172210810Y-108717713D02*
X172954907Y-108815283D01*
X173692627Y-108972715D01*
X174405063Y-109186201D01*
X175073310Y-109451928D01*
X175513298Y-109671715D01*
X176074675Y-110020205D01*
X176627396Y-110439469D01*
X177150985Y-110911632D01*
X177624964Y-111418821D01*
X177882231Y-111739429D01*
X178068483Y-112012503D01*
X178266824Y-112347206D01*
X178464904Y-112719162D01*
X178650370Y-113103993D01*
X178810871Y-113477321D01*
X178934053Y-113814770D01*
X178934505Y-113816171D01*
X179039243Y-114178468D01*
X179136166Y-114582702D01*
X179219131Y-114997974D01*
X179281997Y-115393387D01*
X179318619Y-115738045D01*
X179319653Y-115753425D01*
X179325253Y-116004192D01*
X179316008Y-116324782D01*
X179293791Y-116697168D01*
X179260475Y-117103323D01*
X179217929Y-117525220D01*
X179168028Y-117944831D01*
X179112643Y-118344131D01*
X179053645Y-118705092D01*
X178992906Y-119009687D01*
X178972594Y-119095591D01*
X178915043Y-119297939D01*
X178830102Y-119559619D01*
X178726022Y-119858383D01*
X178611058Y-120171985D01*
X178493461Y-120478177D01*
X178381484Y-120754711D01*
X178283380Y-120979341D01*
X178241517Y-121066412D01*
X178094199Y-121304167D01*
X177889853Y-121541280D01*
X177620139Y-121785870D01*
X177276715Y-122046054D01*
X177132461Y-122145758D01*
X176891141Y-122311214D01*
X176630143Y-122493601D01*
X176380642Y-122670946D01*
X176173812Y-122821279D01*
X176171053Y-122823320D01*
X175925987Y-123002778D01*
X175711440Y-123153611D01*
X175514115Y-123282355D01*
X175320715Y-123395548D01*
X175117942Y-123499725D01*
X174892499Y-123601424D01*
X174631088Y-123707181D01*
X174320413Y-123823532D01*
X173947175Y-123957014D01*
X173659737Y-124057801D01*
X173372343Y-124162300D01*
X173053645Y-124284898D01*
X172742121Y-124410441D01*
X172476248Y-124523772D01*
X172472439Y-124525463D01*
X172268708Y-124610805D01*
X172000008Y-124715597D01*
X171686386Y-124832456D01*
X171347887Y-124953995D01*
X171004559Y-125072828D01*
X170809503Y-125138134D01*
X170410120Y-125271558D01*
X170084695Y-125385708D01*
X169821898Y-125487264D01*
X169610401Y-125582907D01*
X169438873Y-125679318D01*
X169295986Y-125783178D01*
X169170410Y-125901168D01*
X169050815Y-126039968D01*
X168925872Y-126206259D01*
X168873357Y-126279854D01*
X168520557Y-126735182D01*
X168162743Y-127105829D01*
X167791011Y-127396469D01*
X167396457Y-127611773D01*
X166970181Y-127756413D01*
X166503279Y-127835060D01*
X165986849Y-127852387D01*
X165882917Y-127849153D01*
X165640000Y-127837116D01*
X165447982Y-127819700D01*
X165277102Y-127791273D01*
X165097598Y-127746202D01*
X164879710Y-127678856D01*
X164741035Y-127633055D01*
X164492684Y-127552254D01*
X164303029Y-127497578D01*
X164147163Y-127464161D01*
X164000179Y-127447141D01*
X163837172Y-127441652D01*
X163760684Y-127441602D01*
X163635183Y-127443616D01*
X163521573Y-127450446D01*
X163406734Y-127465256D01*
X163277547Y-127491211D01*
X163120893Y-127531476D01*
X162923651Y-127589216D01*
X162672703Y-127667596D01*
X162354930Y-127769780D01*
X162223316Y-127812461D01*
X161889487Y-127922495D01*
X161555406Y-128035611D01*
X161239134Y-128145472D01*
X160958728Y-128245744D01*
X160732247Y-128330092D01*
X160612474Y-128377505D01*
X160054650Y-128584428D01*
X159472813Y-128756738D01*
X158884794Y-128891189D01*
X158308426Y-128984536D01*
X157761539Y-129033533D01*
X157261967Y-129034933D01*
X157076474Y-129021148D01*
X156573460Y-128949048D01*
X156034795Y-128833418D01*
X155480106Y-128680960D01*
X154929019Y-128498376D01*
X154401164Y-128292369D01*
X153916166Y-128069640D01*
X153493655Y-127836891D01*
X153361725Y-127752673D01*
X152978559Y-127469491D01*
X152576006Y-127122494D01*
X152168202Y-126727458D01*
X151769281Y-126300158D01*
X151393375Y-125856368D01*
X151054620Y-125411864D01*
X150767148Y-124982421D01*
X150573494Y-124640662D01*
X150290179Y-123999971D01*
X150063253Y-123306877D01*
X149896530Y-122581196D01*
X149793825Y-121842742D01*
X149758953Y-121111330D01*
X149771551Y-120812468D01*
X154647877Y-120812468D01*
X154647877Y-123428989D01*
X154837263Y-123369951D01*
X154972841Y-123316304D01*
X155145853Y-123232539D01*
X155317924Y-123137319D01*
X155542042Y-122999597D01*
X155704377Y-122885095D01*
X155822134Y-122775611D01*
X155912520Y-122652945D01*
X155992739Y-122498894D01*
X156053513Y-122359159D01*
X156196002Y-121924685D01*
X156282399Y-121452108D01*
X156307510Y-120976744D01*
X156293408Y-120727810D01*
X156258489Y-120424433D01*
X156223454Y-120206155D01*
X156188600Y-120074576D01*
X156164146Y-120034676D01*
X156131063Y-119985116D01*
X156074976Y-119877445D01*
X156012177Y-119744007D01*
X155932161Y-119584618D01*
X155820304Y-119385032D01*
X155695586Y-119178516D01*
X155639928Y-119091581D01*
X155489214Y-118875490D01*
X155348846Y-118711805D01*
X155191962Y-118571662D01*
X155073930Y-118483448D01*
X154924339Y-118377821D01*
X154798746Y-118290738D01*
X154717738Y-118236416D01*
X154703579Y-118227689D01*
X154691481Y-118237207D01*
X154681157Y-118284360D01*
X154672486Y-118374780D01*
X154665348Y-118514097D01*
X154659619Y-118707941D01*
X154655181Y-118961943D01*
X154651910Y-119281733D01*
X154649685Y-119672942D01*
X154648386Y-120141201D01*
X154647891Y-120692140D01*
X154647877Y-120812468D01*
X149771551Y-120812468D01*
X149783219Y-120535688D01*
X149853201Y-119908380D01*
X149952857Y-119341752D01*
X150089294Y-118809960D01*
X150269619Y-118287164D01*
X150493613Y-117764602D01*
X155559732Y-117764602D01*
X155571435Y-117826902D01*
X155621789Y-117945171D01*
X155701790Y-118099801D01*
X155761148Y-118203341D01*
X155945995Y-118542105D01*
X156103405Y-118895507D01*
X156242063Y-119286156D01*
X156370659Y-119736663D01*
X156409562Y-119890886D01*
X156470199Y-120145335D01*
X156510458Y-120343014D01*
X156533663Y-120513372D01*
X156543142Y-120685855D01*
X156542217Y-120889911D01*
X156538324Y-121031203D01*
X156524728Y-121404127D01*
X156508108Y-121706622D01*
X156485429Y-121957694D01*
X156453653Y-122176351D01*
X156409746Y-122381600D01*
X156350669Y-122592449D01*
X156273388Y-122827904D01*
X156232649Y-122944724D01*
X156200458Y-123060248D01*
X156210706Y-123136815D01*
X156250082Y-123196084D01*
X156346486Y-123280233D01*
X156423856Y-123319408D01*
X156502209Y-123376421D01*
X156510491Y-123433821D01*
X156531061Y-123516385D01*
X156598676Y-123620730D01*
X156625291Y-123650810D01*
X156759251Y-123748410D01*
X156900171Y-123783270D01*
X157025397Y-123755385D01*
X157112275Y-123664748D01*
X157118523Y-123650935D01*
X157169285Y-123573850D01*
X157218282Y-123554962D01*
X157274449Y-123532549D01*
X157337108Y-123452142D01*
X157386879Y-123341334D01*
X157397953Y-123299112D01*
X157410355Y-123200723D01*
X157423937Y-123028169D01*
X157438055Y-122796703D01*
X157452062Y-122521576D01*
X157465313Y-122218042D01*
X157477162Y-121901353D01*
X157486964Y-121586763D01*
X157492677Y-121347818D01*
X157730169Y-121347818D01*
X157734094Y-121671270D01*
X157736119Y-121756331D01*
X157747927Y-122138603D01*
X157762332Y-122459780D01*
X157781698Y-122748201D01*
X157808391Y-123032207D01*
X157844778Y-123340140D01*
X157893224Y-123700338D01*
X157905962Y-123791014D01*
X157932696Y-124008883D01*
X157957914Y-124262556D01*
X157976314Y-124498477D01*
X157976816Y-124506507D01*
X157992130Y-124686289D01*
X158012437Y-124833614D01*
X158034107Y-124924140D01*
X158041098Y-124937602D01*
X158107789Y-124956948D01*
X158240374Y-124947463D01*
X158421822Y-124913087D01*
X158635102Y-124857761D01*
X158863185Y-124785427D01*
X158892464Y-124774356D01*
X164202505Y-124774356D01*
X164260335Y-125149857D01*
X164392365Y-125504384D01*
X164591135Y-125827010D01*
X164849185Y-126106810D01*
X165159057Y-126332857D01*
X165513290Y-126494225D01*
X165699106Y-126545996D01*
X165907601Y-126586982D01*
X166074936Y-126601567D01*
X166244850Y-126590559D01*
X166435249Y-126559601D01*
X166810956Y-126447546D01*
X167148651Y-126264073D01*
X167440688Y-126019966D01*
X167679424Y-125726012D01*
X167857212Y-125392994D01*
X167966409Y-125031699D01*
X167999369Y-124652910D01*
X167973982Y-124388805D01*
X167865641Y-124003807D01*
X167686976Y-123658091D01*
X167448159Y-123359086D01*
X167159364Y-123114218D01*
X166830762Y-122930915D01*
X166472527Y-122816604D01*
X166094831Y-122778711D01*
X165804624Y-122804958D01*
X165410096Y-122917244D01*
X165056182Y-123104321D01*
X164751558Y-123357483D01*
X164504898Y-123668024D01*
X164324878Y-124027239D01*
X164226334Y-124388805D01*
X164202505Y-124774356D01*
X158892464Y-124774356D01*
X159089040Y-124700027D01*
X159115567Y-124688926D01*
X159289699Y-124610498D01*
X159442374Y-124533380D01*
X159546237Y-124471604D01*
X159561181Y-124460357D01*
X159627929Y-124393622D01*
X159628753Y-124333194D01*
X159596504Y-124274648D01*
X159270331Y-123693528D01*
X159013961Y-123111687D01*
X158832218Y-122541301D01*
X158749025Y-122136436D01*
X158728673Y-121947070D01*
X158713603Y-121692915D01*
X158704078Y-121398479D01*
X158702507Y-121267400D01*
X158895571Y-121267400D01*
X158908300Y-121610075D01*
X158957543Y-121894409D01*
X159042029Y-122109692D01*
X159072597Y-122157207D01*
X159160517Y-122291708D01*
X159246369Y-122442243D01*
X159255859Y-122460644D01*
X159316545Y-122564388D01*
X159366697Y-122623277D01*
X159378403Y-122628338D01*
X159414629Y-122662825D01*
X159415948Y-122675089D01*
X159444931Y-122735791D01*
X159515678Y-122821739D01*
X159525326Y-122831603D01*
X159611640Y-122905833D01*
X159676756Y-122940939D01*
X159681291Y-122941366D01*
X159723145Y-122977324D01*
X159727877Y-123005333D01*
X159754986Y-123056050D01*
X159843525Y-123089536D01*
X160004318Y-123108812D01*
X160117790Y-123114149D01*
X160307176Y-123120239D01*
X160307176Y-121018479D01*
X160307013Y-120529812D01*
X160306339Y-120123106D01*
X160304878Y-119790888D01*
X160302350Y-119525682D01*
X160298480Y-119320015D01*
X160292989Y-119166410D01*
X160285600Y-119057395D01*
X160276035Y-118985494D01*
X160264018Y-118943232D01*
X160249270Y-118923135D01*
X160231515Y-118917729D01*
X160229193Y-118917712D01*
X160139815Y-118944843D01*
X160039807Y-119006155D01*
X159947086Y-119068046D01*
X159879879Y-119094590D01*
X159879608Y-119094597D01*
X159815729Y-119125660D01*
X159750158Y-119185028D01*
X159676109Y-119251738D01*
X159628133Y-119274464D01*
X159560956Y-119308941D01*
X159464989Y-119397775D01*
X159358015Y-119519069D01*
X159257819Y-119650928D01*
X159182184Y-119771456D01*
X159148895Y-119858757D01*
X159148579Y-119864898D01*
X159131536Y-119932524D01*
X159111671Y-119945239D01*
X159076736Y-119988415D01*
X159038351Y-120112083D01*
X158998317Y-120307453D01*
X158958437Y-120565737D01*
X158920626Y-120877095D01*
X158895571Y-121267400D01*
X158702507Y-121267400D01*
X158700358Y-121088267D01*
X158702705Y-120786786D01*
X158711381Y-120518542D01*
X158726646Y-120308042D01*
X158729271Y-120285016D01*
X158753761Y-120142799D01*
X158797143Y-119946150D01*
X158852257Y-119726164D01*
X158887682Y-119596946D01*
X159018514Y-119136857D01*
X158927224Y-119008201D01*
X158830755Y-118918729D01*
X158678964Y-118828593D01*
X158494038Y-118745564D01*
X158298166Y-118677417D01*
X158113536Y-118631926D01*
X157962337Y-118616863D01*
X157869928Y-118637783D01*
X157848652Y-118694659D01*
X157827693Y-118829557D01*
X157807539Y-119031064D01*
X157788681Y-119287763D01*
X157771609Y-119588242D01*
X157756811Y-119921085D01*
X157744779Y-120274879D01*
X157736001Y-120638209D01*
X157730968Y-120999660D01*
X157730169Y-121347818D01*
X157492677Y-121347818D01*
X157494072Y-121289523D01*
X157497842Y-121024886D01*
X157498273Y-120929042D01*
X157495577Y-120664404D01*
X157487591Y-120347235D01*
X157475079Y-119991041D01*
X157458800Y-119609329D01*
X157439517Y-119215606D01*
X157417992Y-118823379D01*
X157394986Y-118446154D01*
X157371260Y-118097439D01*
X157347577Y-117790740D01*
X157324698Y-117539565D01*
X157303384Y-117357419D01*
X157293404Y-117295679D01*
X157272938Y-117228851D01*
X157232815Y-117189498D01*
X157158646Y-117176831D01*
X157036038Y-117190062D01*
X156850600Y-117228402D01*
X156702448Y-117263310D01*
X156507580Y-117318491D01*
X156293333Y-117392573D01*
X156077614Y-117477698D01*
X155878333Y-117566012D01*
X155713397Y-117649658D01*
X155600717Y-117720779D01*
X155559732Y-117764602D01*
X150493613Y-117764602D01*
X150500936Y-117747520D01*
X150615763Y-117508091D01*
X151022391Y-116781178D01*
X151311316Y-116372622D01*
X168684720Y-116372622D01*
X168684720Y-118881695D01*
X168807263Y-118852417D01*
X168915150Y-118816767D01*
X169063734Y-118755827D01*
X169172468Y-118705847D01*
X169346771Y-118603144D01*
X169525233Y-118469733D01*
X169611082Y-118391913D01*
X169816964Y-118128273D01*
X169983098Y-117799288D01*
X170106711Y-117420988D01*
X170185028Y-117009405D01*
X170215273Y-116580570D01*
X170194673Y-116150514D01*
X170120452Y-115735269D01*
X170089987Y-115624849D01*
X169970275Y-115296207D01*
X169812755Y-114970480D01*
X169627967Y-114662625D01*
X169426447Y-114387602D01*
X169218735Y-114160367D01*
X169015369Y-113995880D01*
X168897817Y-113932688D01*
X168787746Y-113888994D01*
X168717063Y-113865081D01*
X168708432Y-113863549D01*
X168704043Y-113906935D01*
X168699917Y-114031765D01*
X168696130Y-114230046D01*
X168692758Y-114493786D01*
X168689876Y-114814992D01*
X168687559Y-115185671D01*
X168685883Y-115597830D01*
X168684924Y-116043478D01*
X168684720Y-116372622D01*
X151311316Y-116372622D01*
X151497740Y-116109009D01*
X152038252Y-115495519D01*
X152640369Y-114944640D01*
X153300535Y-114460309D01*
X153467936Y-114353965D01*
X153689966Y-114222876D01*
X153923758Y-114097794D01*
X154179592Y-113974462D01*
X154467750Y-113848619D01*
X154619754Y-113787676D01*
X159478403Y-113787676D01*
X159504978Y-114064336D01*
X159611186Y-114375897D01*
X159783490Y-114639039D01*
X160009573Y-114847846D01*
X160277114Y-114996403D01*
X160573795Y-115078793D01*
X160887298Y-115089102D01*
X161205303Y-115021414D01*
X161362461Y-114956318D01*
X161629753Y-114781222D01*
X161833670Y-114556260D01*
X161973705Y-114294955D01*
X162049354Y-114010831D01*
X162060112Y-113717411D01*
X162005473Y-113428218D01*
X161950308Y-113303993D01*
X169495776Y-113303993D01*
X169512448Y-113344623D01*
X169567410Y-113447490D01*
X169652731Y-113598359D01*
X169760480Y-113782996D01*
X169795962Y-113842792D01*
X170000991Y-114202528D01*
X170156208Y-114515017D01*
X170269346Y-114801307D01*
X170348139Y-115082444D01*
X170400321Y-115379475D01*
X170418507Y-115537073D01*
X170467912Y-116308595D01*
X170455841Y-117017477D01*
X170382058Y-117666050D01*
X170246331Y-118256648D01*
X170106168Y-118657022D01*
X169984163Y-118956306D01*
X170125406Y-118974074D01*
X170226277Y-118981805D01*
X170392022Y-118989207D01*
X170598398Y-118995373D01*
X170790246Y-118998998D01*
X171313842Y-119006155D01*
X171313842Y-116809687D01*
X171652832Y-116809687D01*
X171655064Y-117164701D01*
X171667887Y-117507017D01*
X171690287Y-117843479D01*
X171722029Y-118242185D01*
X171747969Y-118563380D01*
X171769266Y-118818713D01*
X171787081Y-119019837D01*
X171802573Y-119178400D01*
X171816902Y-119306056D01*
X171831227Y-119414455D01*
X171846709Y-119515248D01*
X171864507Y-119620085D01*
X171870560Y-119654570D01*
X171878612Y-119741352D01*
X171885338Y-119888008D01*
X171889440Y-120064978D01*
X171889731Y-120090574D01*
X171893141Y-120437141D01*
X172088973Y-120437141D01*
X172235147Y-120423534D01*
X172422235Y-120388056D01*
X172590289Y-120343950D01*
X172793386Y-120274222D01*
X173001051Y-120189790D01*
X173196390Y-120099159D01*
X173362507Y-120010835D01*
X173482505Y-119933324D01*
X173539490Y-119875130D01*
X173541913Y-119864900D01*
X173519843Y-119796625D01*
X173461822Y-119678104D01*
X173380134Y-119534297D01*
X173375269Y-119526265D01*
X173226510Y-119263152D01*
X173091104Y-118989238D01*
X172976033Y-118722001D01*
X172888283Y-118478917D01*
X172834838Y-118277462D01*
X172822090Y-118142097D01*
X172815662Y-118057537D01*
X172785832Y-118043803D01*
X172759256Y-118037804D01*
X172766661Y-118004159D01*
X172771179Y-117917487D01*
X172747174Y-117798418D01*
X172744317Y-117789425D01*
X172698284Y-117588742D01*
X172666975Y-117326156D01*
X172649773Y-117019606D01*
X172646060Y-116687030D01*
X172649121Y-116573187D01*
X172800021Y-116573187D01*
X172826985Y-117046748D01*
X172916628Y-117504858D01*
X173067332Y-117923783D01*
X173098323Y-117988231D01*
X173313097Y-118385932D01*
X173519713Y-118706130D01*
X173716115Y-118946397D01*
X173900248Y-119104310D01*
X174070056Y-119177440D01*
X174110070Y-119182193D01*
X174122689Y-119165447D01*
X174133380Y-119109923D01*
X174142279Y-119009779D01*
X174149520Y-118859167D01*
X174155240Y-118652244D01*
X174159573Y-118383165D01*
X174162653Y-118046084D01*
X174164616Y-117635157D01*
X174165597Y-117144539D01*
X174165772Y-116770239D01*
X174165096Y-116314877D01*
X174163152Y-115887537D01*
X174160068Y-115496365D01*
X174155971Y-115149510D01*
X174150987Y-114855118D01*
X174145244Y-114621336D01*
X174138868Y-114456311D01*
X174131987Y-114368191D01*
X174128119Y-114355450D01*
X174079488Y-114375954D01*
X173973496Y-114439256D01*
X173805957Y-114548040D01*
X173572684Y-114704991D01*
X173412154Y-114814667D01*
X173334934Y-114882298D01*
X173307701Y-114936400D01*
X173307965Y-114937642D01*
X173292082Y-114979898D01*
X173282750Y-114981507D01*
X173232400Y-115021897D01*
X173163414Y-115133406D01*
X173082945Y-115301544D01*
X172998145Y-115511820D01*
X172940602Y-115674641D01*
X172837354Y-116107907D01*
X172800021Y-116573187D01*
X172649121Y-116573187D01*
X172655220Y-116346368D01*
X172676633Y-116015559D01*
X172709683Y-115712542D01*
X172753752Y-115455256D01*
X172808224Y-115261640D01*
X172833277Y-115205098D01*
X172864176Y-115128863D01*
X172909640Y-114997136D01*
X172953512Y-114858814D01*
X173038608Y-114579608D01*
X172892466Y-114467747D01*
X172763868Y-114389214D01*
X172586248Y-114305495D01*
X172388765Y-114227719D01*
X172200578Y-114167016D01*
X172050849Y-114134513D01*
X172012388Y-114131859D01*
X171942976Y-114148521D01*
X171888099Y-114205391D01*
X171844569Y-114312793D01*
X171809196Y-114481051D01*
X171778790Y-114720491D01*
X171756814Y-114959148D01*
X171713182Y-115516706D01*
X171681541Y-116000865D01*
X171661541Y-116426800D01*
X171652832Y-116809687D01*
X171313842Y-116809687D01*
X171313842Y-115853514D01*
X171313542Y-115222935D01*
X171312582Y-114676632D01*
X171310869Y-114209445D01*
X171308313Y-113816214D01*
X171304824Y-113491781D01*
X171300308Y-113230986D01*
X171294677Y-113028669D01*
X171287837Y-112879672D01*
X171279699Y-112778834D01*
X171270171Y-112720997D01*
X171259162Y-112701001D01*
X171258141Y-112700881D01*
X171167597Y-112710989D01*
X171016212Y-112737683D01*
X170829526Y-112775536D01*
X170633079Y-112819123D01*
X170452412Y-112863018D01*
X170314479Y-112901355D01*
X170201188Y-112944302D01*
X170046581Y-113012587D01*
X169874868Y-113094302D01*
X169710261Y-113177540D01*
X169576970Y-113250395D01*
X169499205Y-113300960D01*
X169495776Y-113303993D01*
X161950308Y-113303993D01*
X161884932Y-113156777D01*
X161697985Y-112916611D01*
X161445912Y-112722292D01*
X161148776Y-112592807D01*
X160846894Y-112542143D01*
X160550713Y-112563076D01*
X160270680Y-112648382D01*
X160017243Y-112790838D01*
X159800850Y-112983218D01*
X159631947Y-113218301D01*
X159520982Y-113488861D01*
X159478403Y-113787676D01*
X154619754Y-113787676D01*
X154798511Y-113716007D01*
X155182155Y-113572368D01*
X155628964Y-113413443D01*
X156149218Y-113234974D01*
X156257382Y-113198448D01*
X156626777Y-113072901D01*
X156978734Y-112951250D01*
X157302044Y-112837519D01*
X157585500Y-112735733D01*
X157817893Y-112649916D01*
X157988016Y-112584092D01*
X158084400Y-112542418D01*
X158220592Y-112464843D01*
X158401256Y-112349895D01*
X158600198Y-112214697D01*
X158747527Y-112108920D01*
X159029747Y-111906980D01*
X159278398Y-111747134D01*
X159510685Y-111623885D01*
X159743816Y-111531740D01*
X159994996Y-111465202D01*
X160281434Y-111418776D01*
X160620335Y-111386967D01*
X161028906Y-111364279D01*
X161087000Y-111361757D01*
X161299310Y-111352826D01*
X161482993Y-111344065D01*
X161647075Y-111333282D01*
X161800582Y-111318284D01*
X161952542Y-111296879D01*
X162111979Y-111266875D01*
X162287920Y-111226079D01*
X162489392Y-111172300D01*
X162725421Y-111103345D01*
X163005034Y-111017021D01*
X163337256Y-110911138D01*
X163731113Y-110783501D01*
X164195633Y-110631920D01*
X164495948Y-110533814D01*
X165278527Y-110278418D01*
X165981795Y-110049422D01*
X166611100Y-109845280D01*
X167171790Y-109664444D01*
X167669215Y-109505370D01*
X168108723Y-109366510D01*
X168495663Y-109246318D01*
X168835382Y-109143248D01*
X169133231Y-109055755D01*
X169394558Y-108982290D01*
X169624711Y-108921309D01*
X169829039Y-108871265D01*
X170012891Y-108830612D01*
X170181615Y-108797804D01*
X170340561Y-108771293D01*
X170495076Y-108749535D01*
X170650509Y-108730982D01*
X170779106Y-108717410D01*
X171479241Y-108683819D01*
X172210810Y-108717713D01*
G36*
X122135714Y-103769905D02*
G01*
X122393674Y-103786891D01*
X122671368Y-103817249D01*
X122986844Y-103861522D01*
X123358148Y-103920253D01*
X123595960Y-103959455D01*
X124012468Y-104029501D01*
X124357379Y-104090541D01*
X124647213Y-104146972D01*
X124898491Y-104203189D01*
X125127732Y-104263589D01*
X125351456Y-104332568D01*
X125586183Y-104414522D01*
X125848433Y-104513848D01*
X126154726Y-104634943D01*
X126195421Y-104651224D01*
X126479595Y-104762483D01*
X126775169Y-104873863D01*
X127056325Y-104975924D01*
X127297245Y-105059224D01*
X127417026Y-105097909D01*
X127558087Y-105143382D01*
X127696906Y-105193032D01*
X127843012Y-105251428D01*
X128005936Y-105323142D01*
X128195206Y-105412744D01*
X128420353Y-105524805D01*
X128690905Y-105663894D01*
X129016394Y-105834584D01*
X129406347Y-106041444D01*
X129604369Y-106147001D01*
X130035435Y-106379742D01*
X130396858Y-106581972D01*
X130699589Y-106761358D01*
X130954577Y-106925567D01*
X131172776Y-107082267D01*
X131365134Y-107239123D01*
X131542604Y-107403804D01*
X131716137Y-107583977D01*
X131817315Y-107696352D01*
X131939683Y-107832615D01*
X132105847Y-108014461D01*
X132298136Y-108222712D01*
X132498879Y-108438189D01*
X132604488Y-108550706D01*
X132924629Y-108899004D01*
X133191253Y-109209236D01*
X133419234Y-109500683D01*
X133623448Y-109792622D01*
X133818770Y-110104332D01*
X133869399Y-110190081D01*
X133995314Y-110397678D01*
X134153536Y-110646871D01*
X134324123Y-110906800D01*
X134487134Y-111146603D01*
X134492083Y-111153716D01*
X134875705Y-111754838D01*
X135214081Y-112387102D01*
X135500145Y-113033664D01*
X135726834Y-113677680D01*
X135887082Y-114302306D01*
X135941024Y-114608471D01*
X135962317Y-114813004D01*
X135978715Y-115092252D01*
X135990306Y-115431634D01*
X135997180Y-115816567D01*
X135999426Y-116232471D01*
X135997135Y-116664763D01*
X135990396Y-117098863D01*
X135979297Y-117520188D01*
X135963930Y-117914157D01*
X135944382Y-118266188D01*
X135920745Y-118561700D01*
X135916492Y-118603690D01*
X135887867Y-118885456D01*
X135869611Y-119102945D01*
X135861704Y-119280704D01*
X135864122Y-119443283D01*
X135876844Y-119615229D01*
X135899849Y-119821091D01*
X135915305Y-119945239D01*
X135930366Y-120075968D01*
X135943552Y-120218736D01*
X135955036Y-120380605D01*
X135964989Y-120568635D01*
X135973582Y-120789885D01*
X135980988Y-121051417D01*
X135987378Y-121360290D01*
X135992925Y-121723565D01*
X135997799Y-122148301D01*
X136002174Y-122641560D01*
X136006219Y-123210401D01*
X136009962Y-123835732D01*
X136013712Y-124555488D01*
X136016107Y-125192466D01*
X136016670Y-125753322D01*
X136014924Y-126244711D01*
X136010390Y-126673289D01*
X136002592Y-127045709D01*
X135991052Y-127368628D01*
X135975292Y-127648700D01*
X135954835Y-127892580D01*
X135929203Y-128106924D01*
X135897919Y-128298387D01*
X135860506Y-128473623D01*
X135816485Y-128639288D01*
X135765378Y-128802037D01*
X135706710Y-128968525D01*
X135640002Y-129145407D01*
X135626443Y-129180573D01*
X135483517Y-129510558D01*
X135320928Y-129800090D01*
X135126702Y-130062836D01*
X134888867Y-130312460D01*
X134595448Y-130562627D01*
X134234473Y-130827003D01*
X134108494Y-130912962D01*
X133795182Y-131120367D01*
X133524485Y-131288113D01*
X133280982Y-131420662D01*
X133049254Y-131522477D01*
X132813881Y-131598021D01*
X132559445Y-131651759D01*
X132270525Y-131688153D01*
X131931703Y-131711666D01*
X131527558Y-131726763D01*
X131275421Y-131733015D01*
X130721281Y-131751942D01*
X130245487Y-131782969D01*
X129837911Y-131827396D01*
X129488428Y-131886523D01*
X129186913Y-131961653D01*
X128994983Y-132025955D01*
X128855273Y-132090312D01*
X128670558Y-132191822D01*
X128467889Y-132315002D01*
X128322883Y-132410578D01*
X127763617Y-132750689D01*
X127139446Y-133047808D01*
X126634488Y-133241288D01*
X126401765Y-133314974D01*
X126099081Y-133399376D01*
X125744374Y-133490453D01*
X125355584Y-133584168D01*
X124950652Y-133676481D01*
X124547518Y-133763352D01*
X124164120Y-133840744D01*
X123818398Y-133904617D01*
X123528293Y-133950932D01*
X123419506Y-133965107D01*
X123057283Y-133998213D01*
X122665895Y-134017872D01*
X122272717Y-134023800D01*
X121905129Y-134015720D01*
X121590507Y-133993350D01*
X121516474Y-133984598D01*
X121390404Y-133972602D01*
X121193344Y-133959490D01*
X120943402Y-133946206D01*
X120658687Y-133933690D01*
X120357307Y-133922885D01*
X120291035Y-133920845D01*
X119863051Y-133906730D01*
X119506673Y-133890642D01*
X119204387Y-133869949D01*
X118938677Y-133842021D01*
X118692030Y-133804226D01*
X118446931Y-133753934D01*
X118185866Y-133688512D01*
X117891320Y-133605332D01*
X117589380Y-133515008D01*
X117126514Y-133373599D01*
X116736370Y-133251826D01*
X116405921Y-133144946D01*
X116122139Y-133048215D01*
X115871998Y-132956889D01*
X115642472Y-132866225D01*
X115420534Y-132771480D01*
X115193158Y-132667910D01*
X114965354Y-132559490D01*
X114104160Y-132117826D01*
X113322460Y-131663333D01*
X112623704Y-131198113D01*
X112180860Y-130863270D01*
X111842903Y-130591557D01*
X111563565Y-130362515D01*
X111331032Y-130164016D01*
X111133489Y-129983932D01*
X110959122Y-129810136D01*
X110796116Y-129630498D01*
X110632657Y-129432892D01*
X110456929Y-129205188D01*
X110257118Y-128935260D01*
X110122296Y-128750109D01*
X109729983Y-128209678D01*
X109729983Y-126969220D01*
X119353322Y-126969220D01*
X119361326Y-127303782D01*
X119384738Y-127564086D01*
X119425942Y-127764351D01*
X119487321Y-127918795D01*
X119522324Y-127977383D01*
X119745390Y-128298748D01*
X119934713Y-128546903D01*
X120088266Y-128719320D01*
X120181703Y-128799464D01*
X120304536Y-128888363D01*
X120408664Y-128971265D01*
X120428790Y-128989085D01*
X120572254Y-129087132D01*
X120777113Y-129183011D01*
X121015979Y-129266730D01*
X121261465Y-129328300D01*
X121427351Y-129353347D01*
X121582711Y-129359380D01*
X121796110Y-129355544D01*
X122037165Y-129343171D01*
X122275494Y-129323592D01*
X122385421Y-129311358D01*
X122529226Y-129273619D01*
X122721556Y-129195961D01*
X122938297Y-129090287D01*
X123155337Y-128968503D01*
X123348564Y-128842511D01*
X123376662Y-128822012D01*
X123546204Y-128665310D01*
X132170155Y-128665310D01*
X132210008Y-128993760D01*
X132323109Y-129287831D01*
X132498142Y-129540054D01*
X132723793Y-129742959D01*
X132988745Y-129889078D01*
X133281684Y-129970941D01*
X133591293Y-129981078D01*
X133906257Y-129912021D01*
X134001462Y-129874142D01*
X134289355Y-129702386D01*
X134514768Y-129477575D01*
X134675207Y-129212798D01*
X134768178Y-128921147D01*
X134791185Y-128615711D01*
X134741735Y-128309580D01*
X134617334Y-128015846D01*
X134415486Y-127747598D01*
X134408132Y-127740003D01*
X134152708Y-127534483D01*
X133873696Y-127406426D01*
X133582590Y-127351081D01*
X133290884Y-127363695D01*
X133010073Y-127439515D01*
X132751650Y-127573790D01*
X132527109Y-127761767D01*
X132347945Y-127998694D01*
X132225652Y-128279818D01*
X132171724Y-128600387D01*
X132170155Y-128665310D01*
X123546204Y-128665310D01*
X123599428Y-128616117D01*
X123812499Y-128346286D01*
X124000677Y-128037849D01*
X124148765Y-127716137D01*
X124241563Y-127406481D01*
X124248765Y-127368479D01*
X124272147Y-127148785D01*
X124278129Y-126883775D01*
X124267829Y-126608574D01*
X124242368Y-126358311D01*
X124211470Y-126198269D01*
X124060626Y-125793659D01*
X123836163Y-125423891D01*
X123549304Y-125096415D01*
X123211270Y-124818681D01*
X122833285Y-124598138D01*
X122426568Y-124442237D01*
X122002342Y-124358426D01*
X121571830Y-124354156D01*
X121454241Y-124367857D01*
X121021001Y-124474848D01*
X120619202Y-124665438D01*
X120249391Y-124939331D01*
X120078319Y-125105663D01*
X119782972Y-125465716D01*
X119568724Y-125841478D01*
X119430307Y-126246484D01*
X119362457Y-126694272D01*
X119353322Y-126969220D01*
X109729983Y-126969220D01*
X109729983Y-119307300D01*
X109729953Y-118931301D01*
X111447649Y-118931301D01*
X111464593Y-119307849D01*
X111532312Y-119652582D01*
X111553763Y-119719941D01*
X111715519Y-120108191D01*
X111916106Y-120431650D01*
X112171203Y-120711892D01*
X112425948Y-120920115D01*
X112555149Y-121020513D01*
X112659917Y-121112294D01*
X112706983Y-121162630D01*
X112796433Y-121227036D01*
X112866662Y-121242070D01*
X112959880Y-121254454D01*
X112999109Y-121273177D01*
X113066511Y-121306251D01*
X113106799Y-121315253D01*
X113471076Y-121365582D01*
X113761746Y-121401566D01*
X113992893Y-121424816D01*
X114163842Y-121436290D01*
X114305489Y-121444152D01*
X114403646Y-121452002D01*
X114434413Y-121457206D01*
X114474289Y-121448978D01*
X114573172Y-121418756D01*
X114657220Y-121390850D01*
X115062286Y-121206932D01*
X115429146Y-120949353D01*
X115747128Y-120629512D01*
X116005560Y-120258809D01*
X116193773Y-119848645D01*
X116240690Y-119699288D01*
X116271011Y-119535028D01*
X116291183Y-119310608D01*
X116298790Y-119054969D01*
X116298623Y-119006155D01*
X116293827Y-118835739D01*
X127199873Y-118835739D01*
X127216136Y-119277691D01*
X127310331Y-119711252D01*
X127478303Y-120121143D01*
X127715902Y-120492086D01*
X127886971Y-120686396D01*
X128250882Y-120994008D01*
X128650815Y-121220437D01*
X129083137Y-121364591D01*
X129544215Y-121425382D01*
X130030415Y-121401721D01*
X130188725Y-121376504D01*
X130502411Y-121286010D01*
X130831887Y-121135032D01*
X131147431Y-120939978D01*
X131419320Y-120717259D01*
X131464686Y-120672037D01*
X131759736Y-120306984D01*
X131976686Y-119907715D01*
X132113649Y-119483590D01*
X132168735Y-119043969D01*
X132140057Y-118598212D01*
X132025724Y-118155679D01*
X131990839Y-118064487D01*
X131793791Y-117684155D01*
X131530031Y-117336779D01*
X131214397Y-117036623D01*
X130861724Y-116797953D01*
X130512823Y-116643446D01*
X130226118Y-116572704D01*
X129895435Y-116529639D01*
X129559676Y-116517105D01*
X129257742Y-116537953D01*
X129200245Y-116547206D01*
X128787234Y-116666434D01*
X128399666Y-116863681D01*
X128048158Y-117128776D01*
X127743327Y-117451547D01*
X127495788Y-117821823D01*
X127316158Y-118229433D01*
X127265693Y-118400673D01*
X127199873Y-118835739D01*
X116293827Y-118835739D01*
X116291550Y-118754838D01*
X116272223Y-118559408D01*
X116235753Y-118386620D01*
X116182837Y-118219021D01*
X115987035Y-117788794D01*
X115722205Y-117415067D01*
X115389122Y-117098736D01*
X114989188Y-116841028D01*
X114571828Y-116668429D01*
X114144215Y-116579142D01*
X113715967Y-116569297D01*
X113296706Y-116635021D01*
X112896051Y-116772443D01*
X112523624Y-116977692D01*
X112189044Y-117246896D01*
X111901933Y-117576183D01*
X111671909Y-117961681D01*
X111565063Y-118219021D01*
X111481225Y-118557002D01*
X111447649Y-118931301D01*
X109729953Y-118931301D01*
X109729896Y-118243769D01*
X109729710Y-117266099D01*
X109729541Y-116370716D01*
X109729501Y-115554046D01*
X109729704Y-114812512D01*
X109730263Y-114142541D01*
X109731294Y-113540558D01*
X109732909Y-113002988D01*
X109735222Y-112526257D01*
X109738347Y-112106789D01*
X109742398Y-111741010D01*
X109747489Y-111425345D01*
X109750375Y-111300915D01*
X119361365Y-111300915D01*
X119431186Y-111738370D01*
X119585784Y-112156970D01*
X119824395Y-112551598D01*
X120108954Y-112880657D01*
X120377907Y-113126315D01*
X120633933Y-113308074D01*
X120904058Y-113441983D01*
X121215310Y-113544087D01*
X121235318Y-113549404D01*
X121496503Y-113608239D01*
X121725182Y-113632986D01*
X121962063Y-113625522D01*
X122207176Y-113594178D01*
X122588658Y-113493513D01*
X122961789Y-113318477D01*
X123309168Y-113082063D01*
X123613393Y-112797262D01*
X123857064Y-112477066D01*
X123962056Y-112283987D01*
X124038883Y-112109279D01*
X124102725Y-111946309D01*
X124141033Y-111827363D01*
X124143295Y-111817686D01*
X124173279Y-111719226D01*
X124204195Y-111672873D01*
X124207028Y-111672352D01*
X124257448Y-111631002D01*
X124294307Y-111518434D01*
X124317318Y-111351866D01*
X124326194Y-111148518D01*
X124320649Y-110925611D01*
X124300397Y-110700364D01*
X124265151Y-110489996D01*
X124228969Y-110353162D01*
X124161943Y-110173553D01*
X124088153Y-110020364D01*
X124017590Y-109910635D01*
X123960245Y-109861407D01*
X123941775Y-109863304D01*
X123921364Y-109851651D01*
X123930873Y-109811529D01*
X123938265Y-109759131D01*
X123908592Y-109766810D01*
X123875030Y-109768583D01*
X123882858Y-109731122D01*
X123865705Y-109672507D01*
X123801904Y-109573501D01*
X123709134Y-109454716D01*
X123605076Y-109336765D01*
X123507409Y-109240256D01*
X123433814Y-109185803D01*
X123410928Y-109180950D01*
X123359138Y-109160030D01*
X123271434Y-109096176D01*
X123240445Y-109069712D01*
X122955096Y-108872463D01*
X122614647Y-108728119D01*
X122237515Y-108639032D01*
X121842118Y-108607554D01*
X121446874Y-108636034D01*
X121070201Y-108726825D01*
X120940574Y-108776111D01*
X120566855Y-108973571D01*
X120224058Y-109230892D01*
X119930280Y-109531710D01*
X119703619Y-109859662D01*
X119668192Y-109926554D01*
X119479105Y-110389892D01*
X119377084Y-110849717D01*
X119361365Y-111300915D01*
X109750375Y-111300915D01*
X109753733Y-111156219D01*
X109761244Y-110930058D01*
X109770136Y-110743286D01*
X109780523Y-110592330D01*
X109792518Y-110473613D01*
X109806235Y-110383563D01*
X109821788Y-110318603D01*
X109839291Y-110275159D01*
X109858858Y-110249657D01*
X109880602Y-110238521D01*
X109904637Y-110238176D01*
X109931077Y-110245049D01*
X109960035Y-110255564D01*
X109991627Y-110266147D01*
X110017552Y-110272049D01*
X110258150Y-110268893D01*
X110505430Y-110192599D01*
X110740925Y-110055829D01*
X110946166Y-109871246D01*
X111102685Y-109651514D01*
X111174876Y-109478531D01*
X111224111Y-109291290D01*
X111240495Y-109145592D01*
X111224028Y-108999841D01*
X111174876Y-108813003D01*
X111055970Y-108559545D01*
X110868523Y-108338306D01*
X110631199Y-108163040D01*
X110362658Y-108047504D01*
X110081565Y-108005453D01*
X110079235Y-108005450D01*
X109982077Y-107978750D01*
X109926447Y-107893025D01*
X109909429Y-107739840D01*
X109922833Y-107552922D01*
X110002529Y-107245725D01*
X110160313Y-106966337D01*
X110386386Y-106727712D01*
X110670952Y-106542801D01*
X110696130Y-106530632D01*
X110836675Y-106470953D01*
X110985151Y-106424022D01*
X111158244Y-106386844D01*
X111372642Y-106356425D01*
X111645031Y-106329773D01*
X111940111Y-106307463D01*
X112402872Y-106268136D01*
X112809123Y-106215309D01*
X113179226Y-106143060D01*
X113533547Y-106045467D01*
X113892448Y-105916607D01*
X114276295Y-105750558D01*
X114705451Y-105541400D01*
X114876825Y-105453442D01*
X115466269Y-105159387D01*
X116017042Y-104911286D01*
X116556485Y-104698911D01*
X117111939Y-104512036D01*
X117710746Y-104340434D01*
X118152088Y-104228359D01*
X118442763Y-104160312D01*
X118718652Y-104102256D01*
X118996836Y-104051570D01*
X119294396Y-104005633D01*
X119628413Y-103961825D01*
X120015967Y-103917523D01*
X120474138Y-103870108D01*
X120510260Y-103866509D01*
X120940264Y-103824795D01*
X121299763Y-103793734D01*
X121606807Y-103773869D01*
X121879441Y-103765745D01*
X122135714Y-103769905D01*
G37*
X122135714Y-103769905D02*
X122393674Y-103786891D01*
X122671368Y-103817249D01*
X122986844Y-103861522D01*
X123358148Y-103920253D01*
X123595960Y-103959455D01*
X124012468Y-104029501D01*
X124357379Y-104090541D01*
X124647213Y-104146972D01*
X124898491Y-104203189D01*
X125127732Y-104263589D01*
X125351456Y-104332568D01*
X125586183Y-104414522D01*
X125848433Y-104513848D01*
X126154726Y-104634943D01*
X126195421Y-104651224D01*
X126479595Y-104762483D01*
X126775169Y-104873863D01*
X127056325Y-104975924D01*
X127297245Y-105059224D01*
X127417026Y-105097909D01*
X127558087Y-105143382D01*
X127696906Y-105193032D01*
X127843012Y-105251428D01*
X128005936Y-105323142D01*
X128195206Y-105412744D01*
X128420353Y-105524805D01*
X128690905Y-105663894D01*
X129016394Y-105834584D01*
X129406347Y-106041444D01*
X129604369Y-106147001D01*
X130035435Y-106379742D01*
X130396858Y-106581972D01*
X130699589Y-106761358D01*
X130954577Y-106925567D01*
X131172776Y-107082267D01*
X131365134Y-107239123D01*
X131542604Y-107403804D01*
X131716137Y-107583977D01*
X131817315Y-107696352D01*
X131939683Y-107832615D01*
X132105847Y-108014461D01*
X132298136Y-108222712D01*
X132498879Y-108438189D01*
X132604488Y-108550706D01*
X132924629Y-108899004D01*
X133191253Y-109209236D01*
X133419234Y-109500683D01*
X133623448Y-109792622D01*
X133818770Y-110104332D01*
X133869399Y-110190081D01*
X133995314Y-110397678D01*
X134153536Y-110646871D01*
X134324123Y-110906800D01*
X134487134Y-111146603D01*
X134492083Y-111153716D01*
X134875705Y-111754838D01*
X135214081Y-112387102D01*
X135500145Y-113033664D01*
X135726834Y-113677680D01*
X135887082Y-114302306D01*
X135941024Y-114608471D01*
X135962317Y-114813004D01*
X135978715Y-115092252D01*
X135990306Y-115431634D01*
X135997180Y-115816567D01*
X135999426Y-116232471D01*
X135997135Y-116664763D01*
X135990396Y-117098863D01*
X135979297Y-117520188D01*
X135963930Y-117914157D01*
X135944382Y-118266188D01*
X135920745Y-118561700D01*
X135916492Y-118603690D01*
X135887867Y-118885456D01*
X135869611Y-119102945D01*
X135861704Y-119280704D01*
X135864122Y-119443283D01*
X135876844Y-119615229D01*
X135899849Y-119821091D01*
X135915305Y-119945239D01*
X135930366Y-120075968D01*
X135943552Y-120218736D01*
X135955036Y-120380605D01*
X135964989Y-120568635D01*
X135973582Y-120789885D01*
X135980988Y-121051417D01*
X135987378Y-121360290D01*
X135992925Y-121723565D01*
X135997799Y-122148301D01*
X136002174Y-122641560D01*
X136006219Y-123210401D01*
X136009962Y-123835732D01*
X136013712Y-124555488D01*
X136016107Y-125192466D01*
X136016670Y-125753322D01*
X136014924Y-126244711D01*
X136010390Y-126673289D01*
X136002592Y-127045709D01*
X135991052Y-127368628D01*
X135975292Y-127648700D01*
X135954835Y-127892580D01*
X135929203Y-128106924D01*
X135897919Y-128298387D01*
X135860506Y-128473623D01*
X135816485Y-128639288D01*
X135765378Y-128802037D01*
X135706710Y-128968525D01*
X135640002Y-129145407D01*
X135626443Y-129180573D01*
X135483517Y-129510558D01*
X135320928Y-129800090D01*
X135126702Y-130062836D01*
X134888867Y-130312460D01*
X134595448Y-130562627D01*
X134234473Y-130827003D01*
X134108494Y-130912962D01*
X133795182Y-131120367D01*
X133524485Y-131288113D01*
X133280982Y-131420662D01*
X133049254Y-131522477D01*
X132813881Y-131598021D01*
X132559445Y-131651759D01*
X132270525Y-131688153D01*
X131931703Y-131711666D01*
X131527558Y-131726763D01*
X131275421Y-131733015D01*
X130721281Y-131751942D01*
X130245487Y-131782969D01*
X129837911Y-131827396D01*
X129488428Y-131886523D01*
X129186913Y-131961653D01*
X128994983Y-132025955D01*
X128855273Y-132090312D01*
X128670558Y-132191822D01*
X128467889Y-132315002D01*
X128322883Y-132410578D01*
X127763617Y-132750689D01*
X127139446Y-133047808D01*
X126634488Y-133241288D01*
X126401765Y-133314974D01*
X126099081Y-133399376D01*
X125744374Y-133490453D01*
X125355584Y-133584168D01*
X124950652Y-133676481D01*
X124547518Y-133763352D01*
X124164120Y-133840744D01*
X123818398Y-133904617D01*
X123528293Y-133950932D01*
X123419506Y-133965107D01*
X123057283Y-133998213D01*
X122665895Y-134017872D01*
X122272717Y-134023800D01*
X121905129Y-134015720D01*
X121590507Y-133993350D01*
X121516474Y-133984598D01*
X121390404Y-133972602D01*
X121193344Y-133959490D01*
X120943402Y-133946206D01*
X120658687Y-133933690D01*
X120357307Y-133922885D01*
X120291035Y-133920845D01*
X119863051Y-133906730D01*
X119506673Y-133890642D01*
X119204387Y-133869949D01*
X118938677Y-133842021D01*
X118692030Y-133804226D01*
X118446931Y-133753934D01*
X118185866Y-133688512D01*
X117891320Y-133605332D01*
X117589380Y-133515008D01*
X117126514Y-133373599D01*
X116736370Y-133251826D01*
X116405921Y-133144946D01*
X116122139Y-133048215D01*
X115871998Y-132956889D01*
X115642472Y-132866225D01*
X115420534Y-132771480D01*
X115193158Y-132667910D01*
X114965354Y-132559490D01*
X114104160Y-132117826D01*
X113322460Y-131663333D01*
X112623704Y-131198113D01*
X112180860Y-130863270D01*
X111842903Y-130591557D01*
X111563565Y-130362515D01*
X111331032Y-130164016D01*
X111133489Y-129983932D01*
X110959122Y-129810136D01*
X110796116Y-129630498D01*
X110632657Y-129432892D01*
X110456929Y-129205188D01*
X110257118Y-128935260D01*
X110122296Y-128750109D01*
X109729983Y-128209678D01*
X109729983Y-126969220D01*
X119353322Y-126969220D01*
X119361326Y-127303782D01*
X119384738Y-127564086D01*
X119425942Y-127764351D01*
X119487321Y-127918795D01*
X119522324Y-127977383D01*
X119745390Y-128298748D01*
X119934713Y-128546903D01*
X120088266Y-128719320D01*
X120181703Y-128799464D01*
X120304536Y-128888363D01*
X120408664Y-128971265D01*
X120428790Y-128989085D01*
X120572254Y-129087132D01*
X120777113Y-129183011D01*
X121015979Y-129266730D01*
X121261465Y-129328300D01*
X121427351Y-129353347D01*
X121582711Y-129359380D01*
X121796110Y-129355544D01*
X122037165Y-129343171D01*
X122275494Y-129323592D01*
X122385421Y-129311358D01*
X122529226Y-129273619D01*
X122721556Y-129195961D01*
X122938297Y-129090287D01*
X123155337Y-128968503D01*
X123348564Y-128842511D01*
X123376662Y-128822012D01*
X123546204Y-128665310D01*
X132170155Y-128665310D01*
X132210008Y-128993760D01*
X132323109Y-129287831D01*
X132498142Y-129540054D01*
X132723793Y-129742959D01*
X132988745Y-129889078D01*
X133281684Y-129970941D01*
X133591293Y-129981078D01*
X133906257Y-129912021D01*
X134001462Y-129874142D01*
X134289355Y-129702386D01*
X134514768Y-129477575D01*
X134675207Y-129212798D01*
X134768178Y-128921147D01*
X134791185Y-128615711D01*
X134741735Y-128309580D01*
X134617334Y-128015846D01*
X134415486Y-127747598D01*
X134408132Y-127740003D01*
X134152708Y-127534483D01*
X133873696Y-127406426D01*
X133582590Y-127351081D01*
X133290884Y-127363695D01*
X133010073Y-127439515D01*
X132751650Y-127573790D01*
X132527109Y-127761767D01*
X132347945Y-127998694D01*
X132225652Y-128279818D01*
X132171724Y-128600387D01*
X132170155Y-128665310D01*
X123546204Y-128665310D01*
X123599428Y-128616117D01*
X123812499Y-128346286D01*
X124000677Y-128037849D01*
X124148765Y-127716137D01*
X124241563Y-127406481D01*
X124248765Y-127368479D01*
X124272147Y-127148785D01*
X124278129Y-126883775D01*
X124267829Y-126608574D01*
X124242368Y-126358311D01*
X124211470Y-126198269D01*
X124060626Y-125793659D01*
X123836163Y-125423891D01*
X123549304Y-125096415D01*
X123211270Y-124818681D01*
X122833285Y-124598138D01*
X122426568Y-124442237D01*
X122002342Y-124358426D01*
X121571830Y-124354156D01*
X121454241Y-124367857D01*
X121021001Y-124474848D01*
X120619202Y-124665438D01*
X120249391Y-124939331D01*
X120078319Y-125105663D01*
X119782972Y-125465716D01*
X119568724Y-125841478D01*
X119430307Y-126246484D01*
X119362457Y-126694272D01*
X119353322Y-126969220D01*
X109729983Y-126969220D01*
X109729983Y-119307300D01*
X109729953Y-118931301D01*
X111447649Y-118931301D01*
X111464593Y-119307849D01*
X111532312Y-119652582D01*
X111553763Y-119719941D01*
X111715519Y-120108191D01*
X111916106Y-120431650D01*
X112171203Y-120711892D01*
X112425948Y-120920115D01*
X112555149Y-121020513D01*
X112659917Y-121112294D01*
X112706983Y-121162630D01*
X112796433Y-121227036D01*
X112866662Y-121242070D01*
X112959880Y-121254454D01*
X112999109Y-121273177D01*
X113066511Y-121306251D01*
X113106799Y-121315253D01*
X113471076Y-121365582D01*
X113761746Y-121401566D01*
X113992893Y-121424816D01*
X114163842Y-121436290D01*
X114305489Y-121444152D01*
X114403646Y-121452002D01*
X114434413Y-121457206D01*
X114474289Y-121448978D01*
X114573172Y-121418756D01*
X114657220Y-121390850D01*
X115062286Y-121206932D01*
X115429146Y-120949353D01*
X115747128Y-120629512D01*
X116005560Y-120258809D01*
X116193773Y-119848645D01*
X116240690Y-119699288D01*
X116271011Y-119535028D01*
X116291183Y-119310608D01*
X116298790Y-119054969D01*
X116298623Y-119006155D01*
X116293827Y-118835739D01*
X127199873Y-118835739D01*
X127216136Y-119277691D01*
X127310331Y-119711252D01*
X127478303Y-120121143D01*
X127715902Y-120492086D01*
X127886971Y-120686396D01*
X128250882Y-120994008D01*
X128650815Y-121220437D01*
X129083137Y-121364591D01*
X129544215Y-121425382D01*
X130030415Y-121401721D01*
X130188725Y-121376504D01*
X130502411Y-121286010D01*
X130831887Y-121135032D01*
X131147431Y-120939978D01*
X131419320Y-120717259D01*
X131464686Y-120672037D01*
X131759736Y-120306984D01*
X131976686Y-119907715D01*
X132113649Y-119483590D01*
X132168735Y-119043969D01*
X132140057Y-118598212D01*
X132025724Y-118155679D01*
X131990839Y-118064487D01*
X131793791Y-117684155D01*
X131530031Y-117336779D01*
X131214397Y-117036623D01*
X130861724Y-116797953D01*
X130512823Y-116643446D01*
X130226118Y-116572704D01*
X129895435Y-116529639D01*
X129559676Y-116517105D01*
X129257742Y-116537953D01*
X129200245Y-116547206D01*
X128787234Y-116666434D01*
X128399666Y-116863681D01*
X128048158Y-117128776D01*
X127743327Y-117451547D01*
X127495788Y-117821823D01*
X127316158Y-118229433D01*
X127265693Y-118400673D01*
X127199873Y-118835739D01*
X116293827Y-118835739D01*
X116291550Y-118754838D01*
X116272223Y-118559408D01*
X116235753Y-118386620D01*
X116182837Y-118219021D01*
X115987035Y-117788794D01*
X115722205Y-117415067D01*
X115389122Y-117098736D01*
X114989188Y-116841028D01*
X114571828Y-116668429D01*
X114144215Y-116579142D01*
X113715967Y-116569297D01*
X113296706Y-116635021D01*
X112896051Y-116772443D01*
X112523624Y-116977692D01*
X112189044Y-117246896D01*
X111901933Y-117576183D01*
X111671909Y-117961681D01*
X111565063Y-118219021D01*
X111481225Y-118557002D01*
X111447649Y-118931301D01*
X109729953Y-118931301D01*
X109729896Y-118243769D01*
X109729710Y-117266099D01*
X109729541Y-116370716D01*
X109729501Y-115554046D01*
X109729704Y-114812512D01*
X109730263Y-114142541D01*
X109731294Y-113540558D01*
X109732909Y-113002988D01*
X109735222Y-112526257D01*
X109738347Y-112106789D01*
X109742398Y-111741010D01*
X109747489Y-111425345D01*
X109750375Y-111300915D01*
X119361365Y-111300915D01*
X119431186Y-111738370D01*
X119585784Y-112156970D01*
X119824395Y-112551598D01*
X120108954Y-112880657D01*
X120377907Y-113126315D01*
X120633933Y-113308074D01*
X120904058Y-113441983D01*
X121215310Y-113544087D01*
X121235318Y-113549404D01*
X121496503Y-113608239D01*
X121725182Y-113632986D01*
X121962063Y-113625522D01*
X122207176Y-113594178D01*
X122588658Y-113493513D01*
X122961789Y-113318477D01*
X123309168Y-113082063D01*
X123613393Y-112797262D01*
X123857064Y-112477066D01*
X123962056Y-112283987D01*
X124038883Y-112109279D01*
X124102725Y-111946309D01*
X124141033Y-111827363D01*
X124143295Y-111817686D01*
X124173279Y-111719226D01*
X124204195Y-111672873D01*
X124207028Y-111672352D01*
X124257448Y-111631002D01*
X124294307Y-111518434D01*
X124317318Y-111351866D01*
X124326194Y-111148518D01*
X124320649Y-110925611D01*
X124300397Y-110700364D01*
X124265151Y-110489996D01*
X124228969Y-110353162D01*
X124161943Y-110173553D01*
X124088153Y-110020364D01*
X124017590Y-109910635D01*
X123960245Y-109861407D01*
X123941775Y-109863304D01*
X123921364Y-109851651D01*
X123930873Y-109811529D01*
X123938265Y-109759131D01*
X123908592Y-109766810D01*
X123875030Y-109768583D01*
X123882858Y-109731122D01*
X123865705Y-109672507D01*
X123801904Y-109573501D01*
X123709134Y-109454716D01*
X123605076Y-109336765D01*
X123507409Y-109240256D01*
X123433814Y-109185803D01*
X123410928Y-109180950D01*
X123359138Y-109160030D01*
X123271434Y-109096176D01*
X123240445Y-109069712D01*
X122955096Y-108872463D01*
X122614647Y-108728119D01*
X122237515Y-108639032D01*
X121842118Y-108607554D01*
X121446874Y-108636034D01*
X121070201Y-108726825D01*
X120940574Y-108776111D01*
X120566855Y-108973571D01*
X120224058Y-109230892D01*
X119930280Y-109531710D01*
X119703619Y-109859662D01*
X119668192Y-109926554D01*
X119479105Y-110389892D01*
X119377084Y-110849717D01*
X119361365Y-111300915D01*
X109750375Y-111300915D01*
X109753733Y-111156219D01*
X109761244Y-110930058D01*
X109770136Y-110743286D01*
X109780523Y-110592330D01*
X109792518Y-110473613D01*
X109806235Y-110383563D01*
X109821788Y-110318603D01*
X109839291Y-110275159D01*
X109858858Y-110249657D01*
X109880602Y-110238521D01*
X109904637Y-110238176D01*
X109931077Y-110245049D01*
X109960035Y-110255564D01*
X109991627Y-110266147D01*
X110017552Y-110272049D01*
X110258150Y-110268893D01*
X110505430Y-110192599D01*
X110740925Y-110055829D01*
X110946166Y-109871246D01*
X111102685Y-109651514D01*
X111174876Y-109478531D01*
X111224111Y-109291290D01*
X111240495Y-109145592D01*
X111224028Y-108999841D01*
X111174876Y-108813003D01*
X111055970Y-108559545D01*
X110868523Y-108338306D01*
X110631199Y-108163040D01*
X110362658Y-108047504D01*
X110081565Y-108005453D01*
X110079235Y-108005450D01*
X109982077Y-107978750D01*
X109926447Y-107893025D01*
X109909429Y-107739840D01*
X109922833Y-107552922D01*
X110002529Y-107245725D01*
X110160313Y-106966337D01*
X110386386Y-106727712D01*
X110670952Y-106542801D01*
X110696130Y-106530632D01*
X110836675Y-106470953D01*
X110985151Y-106424022D01*
X111158244Y-106386844D01*
X111372642Y-106356425D01*
X111645031Y-106329773D01*
X111940111Y-106307463D01*
X112402872Y-106268136D01*
X112809123Y-106215309D01*
X113179226Y-106143060D01*
X113533547Y-106045467D01*
X113892448Y-105916607D01*
X114276295Y-105750558D01*
X114705451Y-105541400D01*
X114876825Y-105453442D01*
X115466269Y-105159387D01*
X116017042Y-104911286D01*
X116556485Y-104698911D01*
X117111939Y-104512036D01*
X117710746Y-104340434D01*
X118152088Y-104228359D01*
X118442763Y-104160312D01*
X118718652Y-104102256D01*
X118996836Y-104051570D01*
X119294396Y-104005633D01*
X119628413Y-103961825D01*
X120015967Y-103917523D01*
X120474138Y-103870108D01*
X120510260Y-103866509D01*
X120940264Y-103824795D01*
X121299763Y-103793734D01*
X121606807Y-103773869D01*
X121879441Y-103765745D01*
X122135714Y-103769905D01*
G36*
X152003203Y-135993120D02*
G01*
X152253219Y-135994028D01*
X152467878Y-135995515D01*
X152650539Y-135997586D01*
X152804562Y-136000245D01*
X152933309Y-136003494D01*
X153040138Y-136007339D01*
X153128411Y-136011784D01*
X153201487Y-136016832D01*
X153262728Y-136022487D01*
X153315492Y-136028754D01*
X153363140Y-136035637D01*
X153409033Y-136043139D01*
X153456530Y-136051266D01*
X153508992Y-136060019D01*
X153511562Y-136060434D01*
X154105811Y-136187360D01*
X154649049Y-136366882D01*
X155132837Y-136595422D01*
X155548733Y-136869402D01*
X155683042Y-136980976D01*
X155864992Y-137182041D01*
X155959112Y-137384198D01*
X155964863Y-137586060D01*
X155945966Y-137656192D01*
X155898823Y-137834314D01*
X155894472Y-137997256D01*
X155937831Y-138165633D01*
X156033819Y-138360062D01*
X156162664Y-138564502D01*
X156457570Y-139071902D01*
X156667035Y-139588900D01*
X156794707Y-140127484D01*
X156844235Y-140699641D01*
X156845135Y-140806331D01*
X156823790Y-141280778D01*
X156757918Y-141711538D01*
X156640795Y-142120250D01*
X156465693Y-142528551D01*
X156225887Y-142958081D01*
X156128028Y-143113406D01*
X155994503Y-143327531D01*
X155909055Y-143490321D01*
X155866591Y-143622215D01*
X155862017Y-143743654D01*
X155890239Y-143875078D01*
X155917552Y-143958046D01*
X155960064Y-144140992D01*
X155945738Y-144305435D01*
X155868314Y-144462232D01*
X155721533Y-144622239D01*
X155499139Y-144796314D01*
X155392343Y-144869178D01*
X155204069Y-144990140D01*
X155014109Y-145105705D01*
X154853674Y-145197103D01*
X154803842Y-145223148D01*
X154507924Y-145350529D01*
X154157989Y-145468692D01*
X153789141Y-145567642D01*
X153436483Y-145637380D01*
X153275909Y-145658301D01*
X153158512Y-145666004D01*
X152958015Y-145674047D01*
X152680442Y-145682355D01*
X152331816Y-145690855D01*
X151918160Y-145699470D01*
X151445495Y-145708127D01*
X150919846Y-145716751D01*
X150347235Y-145725266D01*
X149733685Y-145733598D01*
X149085218Y-145741673D01*
X148407858Y-145749414D01*
X147707628Y-145756749D01*
X146990549Y-145763601D01*
X146262646Y-145769896D01*
X145529940Y-145775559D01*
X144798455Y-145780515D01*
X144074214Y-145784691D01*
X143363239Y-145788010D01*
X142671554Y-145790398D01*
X142629583Y-145790513D01*
X141984392Y-145791540D01*
X141425142Y-145790860D01*
X140948668Y-145788425D01*
X140551803Y-145784187D01*
X140231383Y-145778100D01*
X139984240Y-145770115D01*
X139807209Y-145760184D01*
X139697125Y-145748259D01*
X139685222Y-145746106D01*
X139501172Y-145718800D01*
X139359471Y-145723625D01*
X139248604Y-145751077D01*
X139164193Y-145764106D01*
X139001971Y-145776104D01*
X138773246Y-145786969D01*
X138489325Y-145796603D01*
X138161516Y-145804906D01*
X137801124Y-145811777D01*
X137419459Y-145817117D01*
X137027826Y-145820827D01*
X136637534Y-145822805D01*
X136259890Y-145822954D01*
X135906200Y-145821171D01*
X135587773Y-145817359D01*
X135315915Y-145811416D01*
X135101934Y-145803244D01*
X134957137Y-145792742D01*
X134929456Y-145789209D01*
X134547229Y-145712400D01*
X134164412Y-145600259D01*
X133793630Y-145459399D01*
X133447507Y-145296436D01*
X133138667Y-145117984D01*
X132879734Y-144930657D01*
X132683333Y-144741068D01*
X132562088Y-144555834D01*
X132558237Y-144546834D01*
X132525963Y-144453572D01*
X132517451Y-144364171D01*
X132533619Y-144248264D01*
X132572119Y-144088101D01*
X132650588Y-143784493D01*
X132501339Y-143547524D01*
X132334848Y-143280661D01*
X132208261Y-143070479D01*
X132111983Y-142899290D01*
X132036418Y-142749401D01*
X131971970Y-142603123D01*
X131925365Y-142485684D01*
X131753098Y-141923465D01*
X131667339Y-141355806D01*
X131667293Y-140774166D01*
X131723633Y-140320145D01*
X131823888Y-139880631D01*
X131973812Y-139444812D01*
X132112761Y-139141251D01*
X134773491Y-139141251D01*
X134773491Y-142807417D01*
X136589369Y-142780702D01*
X137068057Y-142774421D01*
X137611144Y-142768598D01*
X138193905Y-142763414D01*
X138791618Y-142759055D01*
X139379557Y-142755703D01*
X139933000Y-142753541D01*
X140351628Y-142752781D01*
X142298010Y-142751577D01*
X142280837Y-142539165D01*
X142275682Y-142431758D01*
X142271362Y-142255510D01*
X142267870Y-142022519D01*
X142265200Y-141744881D01*
X142263344Y-141434693D01*
X142262298Y-141104052D01*
X142262052Y-140765055D01*
X142262602Y-140429798D01*
X142263940Y-140110377D01*
X142266060Y-139818890D01*
X142268954Y-139567434D01*
X142272617Y-139368105D01*
X142277042Y-139232999D01*
X142282222Y-139174214D01*
X142282691Y-139173133D01*
X142273925Y-139119842D01*
X142256791Y-139105164D01*
X142205705Y-139100909D01*
X142072149Y-139097611D01*
X141862769Y-139095265D01*
X141584211Y-139093866D01*
X141243124Y-139093409D01*
X140846153Y-139093888D01*
X140399946Y-139095300D01*
X139911150Y-139097638D01*
X139386411Y-139100899D01*
X138832377Y-139105076D01*
X138490626Y-139108003D01*
X134773491Y-139141251D01*
X132112761Y-139141251D01*
X132159127Y-139039957D01*
X146092088Y-139039957D01*
X146092088Y-142719359D01*
X149824106Y-142686283D01*
X150392911Y-142681072D01*
X150935887Y-142675765D01*
X151446459Y-142670448D01*
X151918051Y-142665204D01*
X152344087Y-142660116D01*
X152717994Y-142655269D01*
X153033195Y-142650746D01*
X153283115Y-142646632D01*
X153461179Y-142643010D01*
X153560812Y-142639963D01*
X153580334Y-142638388D01*
X153586929Y-142591129D01*
X153592138Y-142466013D01*
X153596024Y-142274608D01*
X153598654Y-142028481D01*
X153600092Y-141739199D01*
X153600402Y-141418332D01*
X153599649Y-141077445D01*
X153597898Y-140728107D01*
X153595213Y-140381886D01*
X153591660Y-140050348D01*
X153587303Y-139745062D01*
X153582207Y-139477596D01*
X153576436Y-139259516D01*
X153570056Y-139102392D01*
X153563131Y-139017789D01*
X153560013Y-139006600D01*
X153511313Y-139001489D01*
X153381905Y-138997268D01*
X153180202Y-138993918D01*
X152914613Y-138991421D01*
X152593551Y-138989758D01*
X152225425Y-138988910D01*
X151818648Y-138988859D01*
X151381631Y-138989585D01*
X150922783Y-138991070D01*
X150450517Y-138993296D01*
X149973244Y-138996244D01*
X149499374Y-138999894D01*
X149037319Y-139004230D01*
X148595489Y-139009230D01*
X148182297Y-139014878D01*
X147919106Y-139019129D01*
X147617563Y-139023920D01*
X147280829Y-139028567D01*
X146951038Y-139032523D01*
X146682527Y-139035146D01*
X146092088Y-139039957D01*
X132159127Y-139039957D01*
X132181834Y-138990350D01*
X132328853Y-138715791D01*
X132605133Y-138222518D01*
X132546365Y-138016361D01*
X132489976Y-137799134D01*
X132466485Y-137641473D01*
X132476389Y-137519626D01*
X132520184Y-137409841D01*
X132560454Y-137343632D01*
X132665268Y-137224789D01*
X132833031Y-137080951D01*
X133045816Y-136924695D01*
X133285696Y-136768600D01*
X133534743Y-136625244D01*
X133711129Y-136536291D01*
X133967991Y-136433639D01*
X134287320Y-136333891D01*
X134642549Y-136243967D01*
X135007110Y-136170785D01*
X135263667Y-136131935D01*
X135368207Y-136124239D01*
X135559680Y-136116542D01*
X135835900Y-136108875D01*
X136194675Y-136101265D01*
X136633819Y-136093742D01*
X137151142Y-136086336D01*
X137744455Y-136079074D01*
X138411570Y-136071986D01*
X139150298Y-136065102D01*
X139958451Y-136058449D01*
X140833839Y-136052058D01*
X141725070Y-136046259D01*
X142908680Y-136038963D01*
X144006529Y-136032186D01*
X145021977Y-136025932D01*
X145958384Y-136020204D01*
X146819111Y-136015007D01*
X147607518Y-136010345D01*
X148326964Y-136006222D01*
X148980811Y-136002641D01*
X149572418Y-135999608D01*
X150105146Y-135997126D01*
X150582355Y-135995198D01*
X151007404Y-135993830D01*
X151383656Y-135993025D01*
X151714468Y-135992787D01*
X152003203Y-135993120D01*
G37*
X152003203Y-135993120D02*
X152253219Y-135994028D01*
X152467878Y-135995515D01*
X152650539Y-135997586D01*
X152804562Y-136000245D01*
X152933309Y-136003494D01*
X153040138Y-136007339D01*
X153128411Y-136011784D01*
X153201487Y-136016832D01*
X153262728Y-136022487D01*
X153315492Y-136028754D01*
X153363140Y-136035637D01*
X153409033Y-136043139D01*
X153456530Y-136051266D01*
X153508992Y-136060019D01*
X153511562Y-136060434D01*
X154105811Y-136187360D01*
X154649049Y-136366882D01*
X155132837Y-136595422D01*
X155548733Y-136869402D01*
X155683042Y-136980976D01*
X155864992Y-137182041D01*
X155959112Y-137384198D01*
X155964863Y-137586060D01*
X155945966Y-137656192D01*
X155898823Y-137834314D01*
X155894472Y-137997256D01*
X155937831Y-138165633D01*
X156033819Y-138360062D01*
X156162664Y-138564502D01*
X156457570Y-139071902D01*
X156667035Y-139588900D01*
X156794707Y-140127484D01*
X156844235Y-140699641D01*
X156845135Y-140806331D01*
X156823790Y-141280778D01*
X156757918Y-141711538D01*
X156640795Y-142120250D01*
X156465693Y-142528551D01*
X156225887Y-142958081D01*
X156128028Y-143113406D01*
X155994503Y-143327531D01*
X155909055Y-143490321D01*
X155866591Y-143622215D01*
X155862017Y-143743654D01*
X155890239Y-143875078D01*
X155917552Y-143958046D01*
X155960064Y-144140992D01*
X155945738Y-144305435D01*
X155868314Y-144462232D01*
X155721533Y-144622239D01*
X155499139Y-144796314D01*
X155392343Y-144869178D01*
X155204069Y-144990140D01*
X155014109Y-145105705D01*
X154853674Y-145197103D01*
X154803842Y-145223148D01*
X154507924Y-145350529D01*
X154157989Y-145468692D01*
X153789141Y-145567642D01*
X153436483Y-145637380D01*
X153275909Y-145658301D01*
X153158512Y-145666004D01*
X152958015Y-145674047D01*
X152680442Y-145682355D01*
X152331816Y-145690855D01*
X151918160Y-145699470D01*
X151445495Y-145708127D01*
X150919846Y-145716751D01*
X150347235Y-145725266D01*
X149733685Y-145733598D01*
X149085218Y-145741673D01*
X148407858Y-145749414D01*
X147707628Y-145756749D01*
X146990549Y-145763601D01*
X146262646Y-145769896D01*
X145529940Y-145775559D01*
X144798455Y-145780515D01*
X144074214Y-145784691D01*
X143363239Y-145788010D01*
X142671554Y-145790398D01*
X142629583Y-145790513D01*
X141984392Y-145791540D01*
X141425142Y-145790860D01*
X140948668Y-145788425D01*
X140551803Y-145784187D01*
X140231383Y-145778100D01*
X139984240Y-145770115D01*
X139807209Y-145760184D01*
X139697125Y-145748259D01*
X139685222Y-145746106D01*
X139501172Y-145718800D01*
X139359471Y-145723625D01*
X139248604Y-145751077D01*
X139164193Y-145764106D01*
X139001971Y-145776104D01*
X138773246Y-145786969D01*
X138489325Y-145796603D01*
X138161516Y-145804906D01*
X137801124Y-145811777D01*
X137419459Y-145817117D01*
X137027826Y-145820827D01*
X136637534Y-145822805D01*
X136259890Y-145822954D01*
X135906200Y-145821171D01*
X135587773Y-145817359D01*
X135315915Y-145811416D01*
X135101934Y-145803244D01*
X134957137Y-145792742D01*
X134929456Y-145789209D01*
X134547229Y-145712400D01*
X134164412Y-145600259D01*
X133793630Y-145459399D01*
X133447507Y-145296436D01*
X133138667Y-145117984D01*
X132879734Y-144930657D01*
X132683333Y-144741068D01*
X132562088Y-144555834D01*
X132558237Y-144546834D01*
X132525963Y-144453572D01*
X132517451Y-144364171D01*
X132533619Y-144248264D01*
X132572119Y-144088101D01*
X132650588Y-143784493D01*
X132501339Y-143547524D01*
X132334848Y-143280661D01*
X132208261Y-143070479D01*
X132111983Y-142899290D01*
X132036418Y-142749401D01*
X131971970Y-142603123D01*
X131925365Y-142485684D01*
X131753098Y-141923465D01*
X131667339Y-141355806D01*
X131667293Y-140774166D01*
X131723633Y-140320145D01*
X131823888Y-139880631D01*
X131973812Y-139444812D01*
X132112761Y-139141251D01*
X134773491Y-139141251D01*
X134773491Y-142807417D01*
X136589369Y-142780702D01*
X137068057Y-142774421D01*
X137611144Y-142768598D01*
X138193905Y-142763414D01*
X138791618Y-142759055D01*
X139379557Y-142755703D01*
X139933000Y-142753541D01*
X140351628Y-142752781D01*
X142298010Y-142751577D01*
X142280837Y-142539165D01*
X142275682Y-142431758D01*
X142271362Y-142255510D01*
X142267870Y-142022519D01*
X142265200Y-141744881D01*
X142263344Y-141434693D01*
X142262298Y-141104052D01*
X142262052Y-140765055D01*
X142262602Y-140429798D01*
X142263940Y-140110377D01*
X142266060Y-139818890D01*
X142268954Y-139567434D01*
X142272617Y-139368105D01*
X142277042Y-139232999D01*
X142282222Y-139174214D01*
X142282691Y-139173133D01*
X142273925Y-139119842D01*
X142256791Y-139105164D01*
X142205705Y-139100909D01*
X142072149Y-139097611D01*
X141862769Y-139095265D01*
X141584211Y-139093866D01*
X141243124Y-139093409D01*
X140846153Y-139093888D01*
X140399946Y-139095300D01*
X139911150Y-139097638D01*
X139386411Y-139100899D01*
X138832377Y-139105076D01*
X138490626Y-139108003D01*
X134773491Y-139141251D01*
X132112761Y-139141251D01*
X132159127Y-139039957D01*
X146092088Y-139039957D01*
X146092088Y-142719359D01*
X149824106Y-142686283D01*
X150392911Y-142681072D01*
X150935887Y-142675765D01*
X151446459Y-142670448D01*
X151918051Y-142665204D01*
X152344087Y-142660116D01*
X152717994Y-142655269D01*
X153033195Y-142650746D01*
X153283115Y-142646632D01*
X153461179Y-142643010D01*
X153560812Y-142639963D01*
X153580334Y-142638388D01*
X153586929Y-142591129D01*
X153592138Y-142466013D01*
X153596024Y-142274608D01*
X153598654Y-142028481D01*
X153600092Y-141739199D01*
X153600402Y-141418332D01*
X153599649Y-141077445D01*
X153597898Y-140728107D01*
X153595213Y-140381886D01*
X153591660Y-140050348D01*
X153587303Y-139745062D01*
X153582207Y-139477596D01*
X153576436Y-139259516D01*
X153570056Y-139102392D01*
X153563131Y-139017789D01*
X153560013Y-139006600D01*
X153511313Y-139001489D01*
X153381905Y-138997268D01*
X153180202Y-138993918D01*
X152914613Y-138991421D01*
X152593551Y-138989758D01*
X152225425Y-138988910D01*
X151818648Y-138988859D01*
X151381631Y-138989585D01*
X150922783Y-138991070D01*
X150450517Y-138993296D01*
X149973244Y-138996244D01*
X149499374Y-138999894D01*
X149037319Y-139004230D01*
X148595489Y-139009230D01*
X148182297Y-139014878D01*
X147919106Y-139019129D01*
X147617563Y-139023920D01*
X147280829Y-139028567D01*
X146951038Y-139032523D01*
X146682527Y-139035146D01*
X146092088Y-139039957D01*
X132159127Y-139039957D01*
X132181834Y-138990350D01*
X132328853Y-138715791D01*
X132605133Y-138222518D01*
X132546365Y-138016361D01*
X132489976Y-137799134D01*
X132466485Y-137641473D01*
X132476389Y-137519626D01*
X132520184Y-137409841D01*
X132560454Y-137343632D01*
X132665268Y-137224789D01*
X132833031Y-137080951D01*
X133045816Y-136924695D01*
X133285696Y-136768600D01*
X133534743Y-136625244D01*
X133711129Y-136536291D01*
X133967991Y-136433639D01*
X134287320Y-136333891D01*
X134642549Y-136243967D01*
X135007110Y-136170785D01*
X135263667Y-136131935D01*
X135368207Y-136124239D01*
X135559680Y-136116542D01*
X135835900Y-136108875D01*
X136194675Y-136101265D01*
X136633819Y-136093742D01*
X137151142Y-136086336D01*
X137744455Y-136079074D01*
X138411570Y-136071986D01*
X139150298Y-136065102D01*
X139958451Y-136058449D01*
X140833839Y-136052058D01*
X141725070Y-136046259D01*
X142908680Y-136038963D01*
X144006529Y-136032186D01*
X145021977Y-136025932D01*
X145958384Y-136020204D01*
X146819111Y-136015007D01*
X147607518Y-136010345D01*
X148326964Y-136006222D01*
X148980811Y-136002641D01*
X149572418Y-135999608D01*
X150105146Y-135997126D01*
X150582355Y-135995198D01*
X151007404Y-135993830D01*
X151383656Y-135993025D01*
X151714468Y-135992787D01*
X152003203Y-135993120D01*
D10*
%TO.C,R2*%
X136536000Y-155736936D02*
X136536000Y-157191064D01*
X134716000Y-155736936D02*
X134716000Y-157191064D01*
%TO.C,R1*%
X130860000Y-155831936D02*
X130860000Y-157286064D01*
X132680000Y-155831936D02*
X132680000Y-157286064D01*
%TO.C,C1*%
X132650000Y-149867748D02*
X132650000Y-151290252D01*
X130830000Y-149867748D02*
X130830000Y-151290252D01*
D11*
%TO.C,G1*%
G36*
X146752290Y-105756929D02*
G01*
X146895930Y-105852100D01*
X147010743Y-105981190D01*
X147085118Y-106135408D01*
X147123472Y-106324736D01*
X147127769Y-106375903D01*
X147132564Y-106489833D01*
X147125601Y-106573763D01*
X147101782Y-106653216D01*
X147056006Y-106753716D01*
X147049736Y-106766493D01*
X146984306Y-106884290D01*
X146917471Y-106966249D01*
X146833712Y-107031182D01*
X146828814Y-107034312D01*
X146676202Y-107100450D01*
X146515172Y-107115342D01*
X146358678Y-107077830D01*
X146355779Y-107076579D01*
X146256648Y-107010477D01*
X146159908Y-106907524D01*
X146080083Y-106785998D01*
X146033341Y-106670763D01*
X146002882Y-106553551D01*
X145985214Y-106482012D01*
X145979218Y-106447116D01*
X145983775Y-106439832D01*
X145997767Y-106451130D01*
X146007272Y-106460277D01*
X146079526Y-106497144D01*
X146159306Y-106487428D01*
X146238722Y-106438845D01*
X146309884Y-106359112D01*
X146364904Y-106255943D01*
X146395890Y-106137056D01*
X146399911Y-106076288D01*
X146382675Y-105963818D01*
X146330163Y-105894578D01*
X146258800Y-105868652D01*
X146216958Y-105860657D01*
X146213590Y-105847103D01*
X146252513Y-105818192D01*
X146287022Y-105796182D01*
X146442109Y-105727549D01*
X146598730Y-105714606D01*
X146752290Y-105756929D01*
G37*
X146752290Y-105756929D02*
X146895930Y-105852100D01*
X147010743Y-105981190D01*
X147085118Y-106135408D01*
X147123472Y-106324736D01*
X147127769Y-106375903D01*
X147132564Y-106489833D01*
X147125601Y-106573763D01*
X147101782Y-106653216D01*
X147056006Y-106753716D01*
X147049736Y-106766493D01*
X146984306Y-106884290D01*
X146917471Y-106966249D01*
X146833712Y-107031182D01*
X146828814Y-107034312D01*
X146676202Y-107100450D01*
X146515172Y-107115342D01*
X146358678Y-107077830D01*
X146355779Y-107076579D01*
X146256648Y-107010477D01*
X146159908Y-106907524D01*
X146080083Y-106785998D01*
X146033341Y-106670763D01*
X146002882Y-106553551D01*
X145985214Y-106482012D01*
X145979218Y-106447116D01*
X145983775Y-106439832D01*
X145997767Y-106451130D01*
X146007272Y-106460277D01*
X146079526Y-106497144D01*
X146159306Y-106487428D01*
X146238722Y-106438845D01*
X146309884Y-106359112D01*
X146364904Y-106255943D01*
X146395890Y-106137056D01*
X146399911Y-106076288D01*
X146382675Y-105963818D01*
X146330163Y-105894578D01*
X146258800Y-105868652D01*
X146216958Y-105860657D01*
X146213590Y-105847103D01*
X146252513Y-105818192D01*
X146287022Y-105796182D01*
X146442109Y-105727549D01*
X146598730Y-105714606D01*
X146752290Y-105756929D01*
G36*
X142740039Y-105756309D02*
G01*
X142884807Y-105853617D01*
X142918752Y-105885636D01*
X143029143Y-106032946D01*
X143096637Y-106203304D01*
X143122391Y-106386032D01*
X143107562Y-106570449D01*
X143053306Y-106745873D01*
X142960780Y-106901625D01*
X142831139Y-107027024D01*
X142792380Y-107052799D01*
X142668787Y-107101760D01*
X142528721Y-107116545D01*
X142394883Y-107096587D01*
X142321799Y-107064599D01*
X142180978Y-106952176D01*
X142076408Y-106805919D01*
X142003491Y-106618746D01*
X141985571Y-106546703D01*
X141978291Y-106497025D01*
X141996250Y-106479665D01*
X142053346Y-106484599D01*
X142068342Y-106486999D01*
X142162579Y-106484073D01*
X142240688Y-106437760D01*
X142309795Y-106342718D01*
X142339277Y-106283888D01*
X142380700Y-106154858D01*
X142385226Y-106038586D01*
X142355162Y-105945126D01*
X142292815Y-105884532D01*
X142243940Y-105868586D01*
X142208520Y-105859674D01*
X142211315Y-105843430D01*
X142256866Y-105810599D01*
X142279466Y-105796182D01*
X142434135Y-105727139D01*
X142588737Y-105713999D01*
X142740039Y-105756309D01*
G37*
X142740039Y-105756309D02*
X142884807Y-105853617D01*
X142918752Y-105885636D01*
X143029143Y-106032946D01*
X143096637Y-106203304D01*
X143122391Y-106386032D01*
X143107562Y-106570449D01*
X143053306Y-106745873D01*
X142960780Y-106901625D01*
X142831139Y-107027024D01*
X142792380Y-107052799D01*
X142668787Y-107101760D01*
X142528721Y-107116545D01*
X142394883Y-107096587D01*
X142321799Y-107064599D01*
X142180978Y-106952176D01*
X142076408Y-106805919D01*
X142003491Y-106618746D01*
X141985571Y-106546703D01*
X141978291Y-106497025D01*
X141996250Y-106479665D01*
X142053346Y-106484599D01*
X142068342Y-106486999D01*
X142162579Y-106484073D01*
X142240688Y-106437760D01*
X142309795Y-106342718D01*
X142339277Y-106283888D01*
X142380700Y-106154858D01*
X142385226Y-106038586D01*
X142355162Y-105945126D01*
X142292815Y-105884532D01*
X142243940Y-105868586D01*
X142208520Y-105859674D01*
X142211315Y-105843430D01*
X142256866Y-105810599D01*
X142279466Y-105796182D01*
X142434135Y-105727139D01*
X142588737Y-105713999D01*
X142740039Y-105756309D01*
G36*
X144669842Y-106301326D02*
G01*
X144780175Y-106334485D01*
X144784977Y-106336908D01*
X144838084Y-106371710D01*
X144923767Y-106436145D01*
X145032262Y-106522516D01*
X145153803Y-106623132D01*
X145222422Y-106681538D01*
X145376122Y-106809677D01*
X145550928Y-106948978D01*
X145726976Y-107083962D01*
X145884400Y-107199149D01*
X145907710Y-107215530D01*
X146062088Y-107324246D01*
X146175754Y-107407959D01*
X146254952Y-107472985D01*
X146305928Y-107525641D01*
X146334928Y-107572242D01*
X146348196Y-107619105D01*
X146351793Y-107664657D01*
X146327494Y-107773807D01*
X146250774Y-107876132D01*
X146125416Y-107969968D01*
X145955206Y-108053646D01*
X145743931Y-108125501D01*
X145495376Y-108183866D01*
X145213326Y-108227076D01*
X145034090Y-108244679D01*
X144896503Y-108255092D01*
X144780014Y-108262957D01*
X144695753Y-108267592D01*
X144654852Y-108268315D01*
X144653090Y-108268027D01*
X144618197Y-108263874D01*
X144543225Y-108258319D01*
X144445522Y-108252627D01*
X144350104Y-108244610D01*
X144281763Y-108233007D01*
X144255032Y-108220302D01*
X144255022Y-108220064D01*
X144281341Y-108209447D01*
X144352800Y-108197789D01*
X144458150Y-108186577D01*
X144572522Y-108178104D01*
X144801822Y-108156891D01*
X145037808Y-108121997D01*
X145270276Y-108076014D01*
X145489024Y-108021535D01*
X145683848Y-107961150D01*
X145844546Y-107897453D01*
X145960915Y-107833036D01*
X145976577Y-107821398D01*
X146012259Y-107792175D01*
X146017784Y-107780818D01*
X145986095Y-107787436D01*
X145910133Y-107812140D01*
X145878127Y-107822935D01*
X145603421Y-107899411D01*
X145292273Y-107958390D01*
X144962432Y-107998167D01*
X144631646Y-108017032D01*
X144317664Y-108013278D01*
X144099800Y-107994065D01*
X143958568Y-107972868D01*
X143808511Y-107945536D01*
X143661382Y-107914773D01*
X143528931Y-107883282D01*
X143422911Y-107853764D01*
X143355072Y-107828922D01*
X143339211Y-107819163D01*
X143357890Y-107811401D01*
X143427800Y-107804677D01*
X143543733Y-107799201D01*
X143700480Y-107795184D01*
X143892835Y-107792837D01*
X144002433Y-107792351D01*
X144241766Y-107791597D01*
X144437503Y-107790022D01*
X144602491Y-107787017D01*
X144749576Y-107781971D01*
X144891607Y-107774272D01*
X145041430Y-107763310D01*
X145211893Y-107748474D01*
X145415843Y-107729152D01*
X145496800Y-107721286D01*
X145703089Y-107701691D01*
X145856161Y-107686058D01*
X145958728Y-107670741D01*
X146013502Y-107652093D01*
X146023196Y-107626468D01*
X145990522Y-107590221D01*
X145918192Y-107539704D01*
X145808918Y-107471271D01*
X145722720Y-107417565D01*
X145556816Y-107310691D01*
X145372436Y-107187651D01*
X145191462Y-107063276D01*
X145035780Y-106952398D01*
X145028556Y-106947111D01*
X144905701Y-106857876D01*
X144794169Y-106778411D01*
X144704219Y-106715913D01*
X144646106Y-106677579D01*
X144636021Y-106671652D01*
X144580509Y-106652719D01*
X144519471Y-106658906D01*
X144444798Y-106694138D01*
X144348382Y-106762343D01*
X144222116Y-106867448D01*
X144210025Y-106877967D01*
X143958424Y-107077879D01*
X143690222Y-107255845D01*
X143419007Y-107403926D01*
X143158369Y-107514185D01*
X143073157Y-107542072D01*
X142984442Y-107577695D01*
X142910249Y-107622295D01*
X142898731Y-107632014D01*
X142856655Y-107668972D01*
X142844060Y-107665127D01*
X142848566Y-107622231D01*
X142857249Y-107593601D01*
X142878815Y-107560449D01*
X142918693Y-107517930D01*
X142982313Y-107461203D01*
X143075103Y-107385422D01*
X143202491Y-107285744D01*
X143368005Y-107158777D01*
X143471848Y-107074625D01*
X143600246Y-106963205D01*
X143738409Y-106837728D01*
X143871552Y-106711401D01*
X143899413Y-106684103D01*
X144013796Y-106573859D01*
X144121166Y-106475081D01*
X144212091Y-106396112D01*
X144277136Y-106345296D01*
X144295475Y-106333823D01*
X144402185Y-106300836D01*
X144535410Y-106290056D01*
X144669842Y-106301326D01*
G37*
X144669842Y-106301326D02*
X144780175Y-106334485D01*
X144784977Y-106336908D01*
X144838084Y-106371710D01*
X144923767Y-106436145D01*
X145032262Y-106522516D01*
X145153803Y-106623132D01*
X145222422Y-106681538D01*
X145376122Y-106809677D01*
X145550928Y-106948978D01*
X145726976Y-107083962D01*
X145884400Y-107199149D01*
X145907710Y-107215530D01*
X146062088Y-107324246D01*
X146175754Y-107407959D01*
X146254952Y-107472985D01*
X146305928Y-107525641D01*
X146334928Y-107572242D01*
X146348196Y-107619105D01*
X146351793Y-107664657D01*
X146327494Y-107773807D01*
X146250774Y-107876132D01*
X146125416Y-107969968D01*
X145955206Y-108053646D01*
X145743931Y-108125501D01*
X145495376Y-108183866D01*
X145213326Y-108227076D01*
X145034090Y-108244679D01*
X144896503Y-108255092D01*
X144780014Y-108262957D01*
X144695753Y-108267592D01*
X144654852Y-108268315D01*
X144653090Y-108268027D01*
X144618197Y-108263874D01*
X144543225Y-108258319D01*
X144445522Y-108252627D01*
X144350104Y-108244610D01*
X144281763Y-108233007D01*
X144255032Y-108220302D01*
X144255022Y-108220064D01*
X144281341Y-108209447D01*
X144352800Y-108197789D01*
X144458150Y-108186577D01*
X144572522Y-108178104D01*
X144801822Y-108156891D01*
X145037808Y-108121997D01*
X145270276Y-108076014D01*
X145489024Y-108021535D01*
X145683848Y-107961150D01*
X145844546Y-107897453D01*
X145960915Y-107833036D01*
X145976577Y-107821398D01*
X146012259Y-107792175D01*
X146017784Y-107780818D01*
X145986095Y-107787436D01*
X145910133Y-107812140D01*
X145878127Y-107822935D01*
X145603421Y-107899411D01*
X145292273Y-107958390D01*
X144962432Y-107998167D01*
X144631646Y-108017032D01*
X144317664Y-108013278D01*
X144099800Y-107994065D01*
X143958568Y-107972868D01*
X143808511Y-107945536D01*
X143661382Y-107914773D01*
X143528931Y-107883282D01*
X143422911Y-107853764D01*
X143355072Y-107828922D01*
X143339211Y-107819163D01*
X143357890Y-107811401D01*
X143427800Y-107804677D01*
X143543733Y-107799201D01*
X143700480Y-107795184D01*
X143892835Y-107792837D01*
X144002433Y-107792351D01*
X144241766Y-107791597D01*
X144437503Y-107790022D01*
X144602491Y-107787017D01*
X144749576Y-107781971D01*
X144891607Y-107774272D01*
X145041430Y-107763310D01*
X145211893Y-107748474D01*
X145415843Y-107729152D01*
X145496800Y-107721286D01*
X145703089Y-107701691D01*
X145856161Y-107686058D01*
X145958728Y-107670741D01*
X146013502Y-107652093D01*
X146023196Y-107626468D01*
X145990522Y-107590221D01*
X145918192Y-107539704D01*
X145808918Y-107471271D01*
X145722720Y-107417565D01*
X145556816Y-107310691D01*
X145372436Y-107187651D01*
X145191462Y-107063276D01*
X145035780Y-106952398D01*
X145028556Y-106947111D01*
X144905701Y-106857876D01*
X144794169Y-106778411D01*
X144704219Y-106715913D01*
X144646106Y-106677579D01*
X144636021Y-106671652D01*
X144580509Y-106652719D01*
X144519471Y-106658906D01*
X144444798Y-106694138D01*
X144348382Y-106762343D01*
X144222116Y-106867448D01*
X144210025Y-106877967D01*
X143958424Y-107077879D01*
X143690222Y-107255845D01*
X143419007Y-107403926D01*
X143158369Y-107514185D01*
X143073157Y-107542072D01*
X142984442Y-107577695D01*
X142910249Y-107622295D01*
X142898731Y-107632014D01*
X142856655Y-107668972D01*
X142844060Y-107665127D01*
X142848566Y-107622231D01*
X142857249Y-107593601D01*
X142878815Y-107560449D01*
X142918693Y-107517930D01*
X142982313Y-107461203D01*
X143075103Y-107385422D01*
X143202491Y-107285744D01*
X143368005Y-107158777D01*
X143471848Y-107074625D01*
X143600246Y-106963205D01*
X143738409Y-106837728D01*
X143871552Y-106711401D01*
X143899413Y-106684103D01*
X144013796Y-106573859D01*
X144121166Y-106475081D01*
X144212091Y-106396112D01*
X144277136Y-106345296D01*
X144295475Y-106333823D01*
X144402185Y-106300836D01*
X144535410Y-106290056D01*
X144669842Y-106301326D01*
G36*
X145263146Y-101674158D02*
G01*
X145318602Y-101693244D01*
X145365222Y-101734729D01*
X145409375Y-101806532D01*
X145457427Y-101916567D01*
X145514890Y-102070374D01*
X145640802Y-102348055D01*
X145809853Y-102598179D01*
X146026556Y-102826664D01*
X146202355Y-102971876D01*
X146268290Y-103027292D01*
X146289673Y-103057732D01*
X146272256Y-103063832D01*
X146221785Y-103046225D01*
X146144010Y-103005549D01*
X146065963Y-102956804D01*
X145822521Y-102767926D01*
X145620518Y-102549849D01*
X145451946Y-102293240D01*
X145385098Y-102163202D01*
X145327394Y-102046808D01*
X145276326Y-101951931D01*
X145237615Y-101888685D01*
X145217534Y-101867111D01*
X145177392Y-101890889D01*
X145117021Y-101957259D01*
X145042311Y-102058777D01*
X144959152Y-102187997D01*
X144944775Y-102211887D01*
X144849358Y-102361383D01*
X144768481Y-102463128D01*
X144697086Y-102522300D01*
X144630114Y-102544082D01*
X144620054Y-102544444D01*
X144547939Y-102520632D01*
X144505337Y-102452454D01*
X144494195Y-102344800D01*
X144504896Y-102255166D01*
X144516833Y-102177688D01*
X144519393Y-102129273D01*
X144516206Y-102121111D01*
X144490601Y-102138958D01*
X144434509Y-102186454D01*
X144358514Y-102254530D01*
X144331682Y-102279216D01*
X144205903Y-102391301D01*
X144077045Y-102496149D01*
X143937143Y-102599096D01*
X143778231Y-102705477D01*
X143592344Y-102820629D01*
X143371516Y-102949886D01*
X143112022Y-103096226D01*
X142922227Y-103203859D01*
X142735294Y-103313462D01*
X142561188Y-103418921D01*
X142409875Y-103514128D01*
X142291322Y-103592969D01*
X142233168Y-103635145D01*
X141936849Y-103896095D01*
X141658828Y-104205025D01*
X141404650Y-104554927D01*
X141179860Y-104938796D01*
X141140717Y-105015419D01*
X140948531Y-105453470D01*
X140797145Y-105912024D01*
X140689415Y-106379361D01*
X140628198Y-106843763D01*
X140614521Y-107174014D01*
X140626047Y-107443851D01*
X140663651Y-107673750D01*
X140731427Y-107875762D01*
X140833466Y-108061937D01*
X140973861Y-108244323D01*
X140980667Y-108252090D01*
X141040584Y-108322716D01*
X141081705Y-108376074D01*
X141094133Y-108397830D01*
X141073557Y-108415318D01*
X141014895Y-108397580D01*
X140922743Y-108346326D01*
X140879303Y-108318014D01*
X140675959Y-108151528D01*
X140511890Y-107950728D01*
X140383969Y-107711002D01*
X140297521Y-107459460D01*
X140275005Y-107368292D01*
X140258773Y-107276723D01*
X140247829Y-107172862D01*
X140241178Y-107044819D01*
X140237824Y-106880704D01*
X140236898Y-106735444D01*
X140247249Y-106337106D01*
X140282615Y-105977656D01*
X140345771Y-105644105D01*
X140439491Y-105323464D01*
X140566548Y-105002742D01*
X140640941Y-104843414D01*
X140816025Y-104520458D01*
X141014147Y-104227275D01*
X141247152Y-103947579D01*
X141430323Y-103758000D01*
X141580932Y-103615037D01*
X141728866Y-103486887D01*
X141882364Y-103368109D01*
X142049664Y-103253258D01*
X142239004Y-103136893D01*
X142458622Y-103013570D01*
X142716756Y-102877848D01*
X142912962Y-102778466D01*
X143174766Y-102645916D01*
X143393614Y-102531499D01*
X143577987Y-102430096D01*
X143736362Y-102336590D01*
X143877220Y-102245866D01*
X144009040Y-102152806D01*
X144140300Y-102052294D01*
X144212688Y-101994130D01*
X144351557Y-101886153D01*
X144459527Y-101815473D01*
X144544620Y-101778504D01*
X144614856Y-101771661D01*
X144672594Y-101788580D01*
X144741672Y-101847593D01*
X144774377Y-101911040D01*
X144799844Y-101997302D01*
X144959207Y-101833429D01*
X145058156Y-101739191D01*
X145133068Y-101686350D01*
X145191550Y-101669560D01*
X145192487Y-101669555D01*
X145263146Y-101674158D01*
G37*
X145263146Y-101674158D02*
X145318602Y-101693244D01*
X145365222Y-101734729D01*
X145409375Y-101806532D01*
X145457427Y-101916567D01*
X145514890Y-102070374D01*
X145640802Y-102348055D01*
X145809853Y-102598179D01*
X146026556Y-102826664D01*
X146202355Y-102971876D01*
X146268290Y-103027292D01*
X146289673Y-103057732D01*
X146272256Y-103063832D01*
X146221785Y-103046225D01*
X146144010Y-103005549D01*
X146065963Y-102956804D01*
X145822521Y-102767926D01*
X145620518Y-102549849D01*
X145451946Y-102293240D01*
X145385098Y-102163202D01*
X145327394Y-102046808D01*
X145276326Y-101951931D01*
X145237615Y-101888685D01*
X145217534Y-101867111D01*
X145177392Y-101890889D01*
X145117021Y-101957259D01*
X145042311Y-102058777D01*
X144959152Y-102187997D01*
X144944775Y-102211887D01*
X144849358Y-102361383D01*
X144768481Y-102463128D01*
X144697086Y-102522300D01*
X144630114Y-102544082D01*
X144620054Y-102544444D01*
X144547939Y-102520632D01*
X144505337Y-102452454D01*
X144494195Y-102344800D01*
X144504896Y-102255166D01*
X144516833Y-102177688D01*
X144519393Y-102129273D01*
X144516206Y-102121111D01*
X144490601Y-102138958D01*
X144434509Y-102186454D01*
X144358514Y-102254530D01*
X144331682Y-102279216D01*
X144205903Y-102391301D01*
X144077045Y-102496149D01*
X143937143Y-102599096D01*
X143778231Y-102705477D01*
X143592344Y-102820629D01*
X143371516Y-102949886D01*
X143112022Y-103096226D01*
X142922227Y-103203859D01*
X142735294Y-103313462D01*
X142561188Y-103418921D01*
X142409875Y-103514128D01*
X142291322Y-103592969D01*
X142233168Y-103635145D01*
X141936849Y-103896095D01*
X141658828Y-104205025D01*
X141404650Y-104554927D01*
X141179860Y-104938796D01*
X141140717Y-105015419D01*
X140948531Y-105453470D01*
X140797145Y-105912024D01*
X140689415Y-106379361D01*
X140628198Y-106843763D01*
X140614521Y-107174014D01*
X140626047Y-107443851D01*
X140663651Y-107673750D01*
X140731427Y-107875762D01*
X140833466Y-108061937D01*
X140973861Y-108244323D01*
X140980667Y-108252090D01*
X141040584Y-108322716D01*
X141081705Y-108376074D01*
X141094133Y-108397830D01*
X141073557Y-108415318D01*
X141014895Y-108397580D01*
X140922743Y-108346326D01*
X140879303Y-108318014D01*
X140675959Y-108151528D01*
X140511890Y-107950728D01*
X140383969Y-107711002D01*
X140297521Y-107459460D01*
X140275005Y-107368292D01*
X140258773Y-107276723D01*
X140247829Y-107172862D01*
X140241178Y-107044819D01*
X140237824Y-106880704D01*
X140236898Y-106735444D01*
X140247249Y-106337106D01*
X140282615Y-105977656D01*
X140345771Y-105644105D01*
X140439491Y-105323464D01*
X140566548Y-105002742D01*
X140640941Y-104843414D01*
X140816025Y-104520458D01*
X141014147Y-104227275D01*
X141247152Y-103947579D01*
X141430323Y-103758000D01*
X141580932Y-103615037D01*
X141728866Y-103486887D01*
X141882364Y-103368109D01*
X142049664Y-103253258D01*
X142239004Y-103136893D01*
X142458622Y-103013570D01*
X142716756Y-102877848D01*
X142912962Y-102778466D01*
X143174766Y-102645916D01*
X143393614Y-102531499D01*
X143577987Y-102430096D01*
X143736362Y-102336590D01*
X143877220Y-102245866D01*
X144009040Y-102152806D01*
X144140300Y-102052294D01*
X144212688Y-101994130D01*
X144351557Y-101886153D01*
X144459527Y-101815473D01*
X144544620Y-101778504D01*
X144614856Y-101771661D01*
X144672594Y-101788580D01*
X144741672Y-101847593D01*
X144774377Y-101911040D01*
X144799844Y-101997302D01*
X144959207Y-101833429D01*
X145058156Y-101739191D01*
X145133068Y-101686350D01*
X145191550Y-101669560D01*
X145192487Y-101669555D01*
X145263146Y-101674158D01*
G36*
X151656578Y-110591437D02*
G01*
X151757296Y-110632986D01*
X151891180Y-110713107D01*
X152000250Y-110804423D01*
X152077383Y-110898513D01*
X152115456Y-110986959D01*
X152111630Y-111051815D01*
X152076699Y-111087124D01*
X151995385Y-111127190D01*
X151864502Y-111173319D01*
X151691577Y-111223883D01*
X151412600Y-111323220D01*
X151124778Y-111471209D01*
X150843541Y-111655655D01*
X150715072Y-111746742D01*
X150623658Y-111807538D01*
X150561492Y-111842011D01*
X150520770Y-111854126D01*
X150493684Y-111847849D01*
X150482725Y-111838962D01*
X150462157Y-111782209D01*
X150465987Y-111685751D01*
X150491748Y-111559528D01*
X150536977Y-111413477D01*
X150599208Y-111257537D01*
X150656572Y-111138111D01*
X150787940Y-110929077D01*
X150939641Y-110764361D01*
X151107014Y-110646101D01*
X151285402Y-110576434D01*
X151470143Y-110557500D01*
X151656578Y-110591437D01*
G37*
X151656578Y-110591437D02*
X151757296Y-110632986D01*
X151891180Y-110713107D01*
X152000250Y-110804423D01*
X152077383Y-110898513D01*
X152115456Y-110986959D01*
X152111630Y-111051815D01*
X152076699Y-111087124D01*
X151995385Y-111127190D01*
X151864502Y-111173319D01*
X151691577Y-111223883D01*
X151412600Y-111323220D01*
X151124778Y-111471209D01*
X150843541Y-111655655D01*
X150715072Y-111746742D01*
X150623658Y-111807538D01*
X150561492Y-111842011D01*
X150520770Y-111854126D01*
X150493684Y-111847849D01*
X150482725Y-111838962D01*
X150462157Y-111782209D01*
X150465987Y-111685751D01*
X150491748Y-111559528D01*
X150536977Y-111413477D01*
X150599208Y-111257537D01*
X150656572Y-111138111D01*
X150787940Y-110929077D01*
X150939641Y-110764361D01*
X151107014Y-110646101D01*
X151285402Y-110576434D01*
X151470143Y-110557500D01*
X151656578Y-110591437D01*
G36*
X137545900Y-110633799D02*
G01*
X137626707Y-110644949D01*
X137691114Y-110669196D01*
X137759096Y-110711441D01*
X137760115Y-110712147D01*
X137896120Y-110837380D01*
X138012122Y-111005621D01*
X138102410Y-111205272D01*
X138161274Y-111424737D01*
X138179316Y-111563456D01*
X138181880Y-111696905D01*
X138168649Y-111801026D01*
X138141631Y-111866674D01*
X138108640Y-111885377D01*
X138082813Y-111865943D01*
X138025529Y-111812947D01*
X137944315Y-111733647D01*
X137846699Y-111635300D01*
X137806244Y-111593799D01*
X137677141Y-111464410D01*
X137534352Y-111327296D01*
X137395251Y-111198830D01*
X137277391Y-111095530D01*
X137177371Y-111008526D01*
X137094011Y-110930510D01*
X137036802Y-110870723D01*
X137015696Y-110840751D01*
X137014285Y-110761211D01*
X137064794Y-110699676D01*
X137165332Y-110657106D01*
X137314009Y-110634462D01*
X137428720Y-110630848D01*
X137545900Y-110633799D01*
G37*
X137545900Y-110633799D02*
X137626707Y-110644949D01*
X137691114Y-110669196D01*
X137759096Y-110711441D01*
X137760115Y-110712147D01*
X137896120Y-110837380D01*
X138012122Y-111005621D01*
X138102410Y-111205272D01*
X138161274Y-111424737D01*
X138179316Y-111563456D01*
X138181880Y-111696905D01*
X138168649Y-111801026D01*
X138141631Y-111866674D01*
X138108640Y-111885377D01*
X138082813Y-111865943D01*
X138025529Y-111812947D01*
X137944315Y-111733647D01*
X137846699Y-111635300D01*
X137806244Y-111593799D01*
X137677141Y-111464410D01*
X137534352Y-111327296D01*
X137395251Y-111198830D01*
X137277391Y-111095530D01*
X137177371Y-111008526D01*
X137094011Y-110930510D01*
X137036802Y-110870723D01*
X137015696Y-110840751D01*
X137014285Y-110761211D01*
X137064794Y-110699676D01*
X137165332Y-110657106D01*
X137314009Y-110634462D01*
X137428720Y-110630848D01*
X137545900Y-110633799D01*
G36*
X146751691Y-103292724D02*
G01*
X146822559Y-103323365D01*
X146920995Y-103376581D01*
X147037931Y-103447094D01*
X147164303Y-103529628D01*
X147291044Y-103618905D01*
X147321824Y-103641734D01*
X147681479Y-103945579D01*
X147996657Y-104282917D01*
X148265998Y-104650812D01*
X148488140Y-105046327D01*
X148661721Y-105466526D01*
X148785380Y-105908472D01*
X148857756Y-106369231D01*
X148877488Y-106845864D01*
X148873122Y-106987633D01*
X148854175Y-107268679D01*
X148824061Y-107503516D01*
X148779578Y-107701814D01*
X148717526Y-107873243D01*
X148634703Y-108027473D01*
X148527910Y-108174175D01*
X148451142Y-108262446D01*
X148202795Y-108495460D01*
X147926019Y-108686110D01*
X147738971Y-108782226D01*
X147644354Y-108825381D01*
X147572058Y-108859677D01*
X147535572Y-108878686D01*
X147533888Y-108879948D01*
X147543655Y-108906534D01*
X147577956Y-108971068D01*
X147631307Y-109063695D01*
X147694377Y-109168307D01*
X147953353Y-109631236D01*
X148178771Y-110119409D01*
X148366035Y-110620617D01*
X148510549Y-111122649D01*
X148602864Y-111581573D01*
X148636875Y-111799258D01*
X148767226Y-111841265D01*
X149012435Y-111910246D01*
X149235526Y-111953149D01*
X149431221Y-111969977D01*
X149594242Y-111960730D01*
X149719311Y-111925411D01*
X149801150Y-111864021D01*
X149816248Y-111840960D01*
X149833478Y-111759857D01*
X149818707Y-111639326D01*
X149771517Y-111478027D01*
X149691489Y-111274624D01*
X149578209Y-111027777D01*
X149535445Y-110940555D01*
X149362707Y-110604412D01*
X149197558Y-110309590D01*
X149031479Y-110043314D01*
X148855948Y-109792808D01*
X148662446Y-109545298D01*
X148442453Y-109288008D01*
X148406142Y-109247222D01*
X148321158Y-109149057D01*
X148255364Y-109066917D01*
X148215040Y-109009113D01*
X148206468Y-108983958D01*
X148207019Y-108983695D01*
X148254834Y-108991830D01*
X148336617Y-109031316D01*
X148443960Y-109096218D01*
X148568455Y-109180603D01*
X148701691Y-109278535D01*
X148835263Y-109384081D01*
X148960759Y-109491307D01*
X149064115Y-109588591D01*
X149345412Y-109902737D01*
X149594480Y-110247192D01*
X149805813Y-110612206D01*
X149973909Y-110988034D01*
X150093264Y-111364927D01*
X150111774Y-111443998D01*
X150143639Y-111648409D01*
X150140072Y-111815212D01*
X150100534Y-111951164D01*
X150066467Y-112010619D01*
X149991749Y-112098883D01*
X149901857Y-112158801D01*
X149783225Y-112196773D01*
X149624818Y-112218969D01*
X149335760Y-112219110D01*
X149035656Y-112169888D01*
X148843770Y-112113292D01*
X148755259Y-112083089D01*
X148690677Y-112062123D01*
X148665931Y-112055333D01*
X148661464Y-112081379D01*
X148659142Y-112150871D01*
X148659285Y-112250842D01*
X148660060Y-112294533D01*
X148662065Y-112400590D01*
X148668641Y-112473185D01*
X148688906Y-112519379D01*
X148731980Y-112546231D01*
X148806980Y-112560801D01*
X148923024Y-112570148D01*
X149024577Y-112576753D01*
X149387601Y-112605184D01*
X149749940Y-112640926D01*
X150104838Y-112682879D01*
X150445539Y-112729947D01*
X150765286Y-112781028D01*
X151057324Y-112835024D01*
X151314895Y-112890838D01*
X151531243Y-112947368D01*
X151699613Y-113003518D01*
X151733281Y-113017308D01*
X151861229Y-113083562D01*
X151934633Y-113149078D01*
X151953212Y-113214186D01*
X151916686Y-113279217D01*
X151824771Y-113344502D01*
X151677187Y-113410371D01*
X151473651Y-113477156D01*
X151302196Y-113523500D01*
X151180286Y-113554882D01*
X151083670Y-113580839D01*
X151022264Y-113598628D01*
X151005756Y-113605491D01*
X151082372Y-113617188D01*
X151199128Y-113639343D01*
X151341390Y-113668765D01*
X151494530Y-113702262D01*
X151643915Y-113736644D01*
X151774916Y-113768720D01*
X151864022Y-113792693D01*
X152062492Y-113856433D01*
X152210072Y-113918628D01*
X152312159Y-113981962D01*
X152371744Y-114045363D01*
X152401391Y-114100888D01*
X152396026Y-114144785D01*
X152373160Y-114183586D01*
X152295744Y-114258355D01*
X152163897Y-114331210D01*
X151979612Y-114401781D01*
X151744883Y-114469697D01*
X151461701Y-114534588D01*
X151132060Y-114596084D01*
X150757952Y-114653815D01*
X150341370Y-114707409D01*
X149884308Y-114756498D01*
X149388757Y-114800710D01*
X148856710Y-114839675D01*
X148834805Y-114841112D01*
X148094700Y-114889459D01*
X148263097Y-114950435D01*
X148387799Y-114999885D01*
X148465004Y-115043023D01*
X148502260Y-115086021D01*
X148507117Y-115135053D01*
X148504457Y-115147781D01*
X148500022Y-115180424D01*
X148514279Y-115200906D01*
X148558226Y-115213964D01*
X148642859Y-115224331D01*
X148693143Y-115229018D01*
X149096591Y-115270041D01*
X149457688Y-115316120D01*
X149774279Y-115366787D01*
X150044211Y-115421576D01*
X150265329Y-115480020D01*
X150435481Y-115541651D01*
X150552513Y-115606002D01*
X150592064Y-115640830D01*
X150621214Y-115703754D01*
X150596379Y-115766225D01*
X150520022Y-115827617D01*
X150394601Y-115887301D01*
X150222579Y-115944652D01*
X150006414Y-115999042D01*
X149748569Y-116049845D01*
X149451502Y-116096434D01*
X149117675Y-116138181D01*
X148749548Y-116174460D01*
X148389577Y-116202009D01*
X148232870Y-116210657D01*
X148033251Y-116218848D01*
X147801151Y-116226395D01*
X147547000Y-116233110D01*
X147281228Y-116238808D01*
X147014266Y-116243299D01*
X146756543Y-116246399D01*
X146518490Y-116247920D01*
X146310537Y-116247674D01*
X146143114Y-116245475D01*
X146075355Y-116243491D01*
X145605923Y-116221785D01*
X145166360Y-116193563D01*
X144759506Y-116159276D01*
X144388201Y-116119370D01*
X144055288Y-116074296D01*
X143763605Y-116024502D01*
X143515994Y-115970437D01*
X143315296Y-115912550D01*
X143164350Y-115851288D01*
X143065997Y-115787102D01*
X143045102Y-115764768D01*
X143024009Y-115739944D01*
X142999934Y-115721949D01*
X142964178Y-115709682D01*
X142908043Y-115702038D01*
X142822831Y-115697917D01*
X142699844Y-115696214D01*
X142530382Y-115695827D01*
X142501182Y-115695814D01*
X142094955Y-115691713D01*
X141670767Y-115680137D01*
X141236988Y-115661729D01*
X140801987Y-115637131D01*
X140374133Y-115606985D01*
X139961795Y-115571935D01*
X139573341Y-115532622D01*
X139217141Y-115489689D01*
X138901564Y-115443780D01*
X138662330Y-115401074D01*
X138442110Y-115351135D01*
X138264775Y-115298205D01*
X138133562Y-115243672D01*
X138051706Y-115188926D01*
X138022445Y-115135356D01*
X138022921Y-115126554D01*
X138059858Y-115061586D01*
X138151523Y-114999594D01*
X138298147Y-114940523D01*
X138499961Y-114884321D01*
X138757195Y-114830934D01*
X139070080Y-114780308D01*
X139438845Y-114732390D01*
X139863723Y-114687127D01*
X139949307Y-114678963D01*
X140130333Y-114662188D01*
X140296004Y-114647212D01*
X140436723Y-114634874D01*
X140542894Y-114626011D01*
X140604923Y-114621460D01*
X140612529Y-114621090D01*
X140613775Y-114614824D01*
X140567378Y-114599319D01*
X140480986Y-114576697D01*
X140362244Y-114549080D01*
X140318022Y-114539395D01*
X140166219Y-114505213D01*
X140020687Y-114469968D01*
X139897518Y-114437710D01*
X139812802Y-114412489D01*
X139810022Y-114411540D01*
X139615854Y-114335594D01*
X139477800Y-114260664D01*
X139395547Y-114186281D01*
X139368786Y-114111980D01*
X139397203Y-114037291D01*
X139480487Y-113961748D01*
X139501274Y-113948028D01*
X139629971Y-113866411D01*
X139451885Y-113849697D01*
X139363171Y-113841512D01*
X139232081Y-113829599D01*
X139072462Y-113815207D01*
X138898161Y-113799588D01*
X138779911Y-113789045D01*
X138332471Y-113745341D01*
X137922657Y-113697389D01*
X137552378Y-113645658D01*
X137223543Y-113590621D01*
X136938059Y-113532747D01*
X136697836Y-113472509D01*
X136504783Y-113410377D01*
X136360809Y-113346822D01*
X136267822Y-113282316D01*
X136227730Y-113217328D01*
X136236955Y-113161522D01*
X136277967Y-113109637D01*
X136347341Y-113062265D01*
X136454115Y-113014530D01*
X136607331Y-112961556D01*
X136608198Y-112961280D01*
X136848925Y-112894264D01*
X137140044Y-112829882D01*
X137475532Y-112769008D01*
X137849364Y-112712517D01*
X138255515Y-112661284D01*
X138687962Y-112616184D01*
X139140680Y-112578093D01*
X139344355Y-112563805D01*
X139514863Y-112552290D01*
X139688119Y-112540115D01*
X139845342Y-112528628D01*
X139967750Y-112519178D01*
X139981552Y-112518052D01*
X140209526Y-112499272D01*
X140212083Y-112481286D01*
X140727244Y-112481286D01*
X140747616Y-112758502D01*
X140810767Y-113006147D01*
X140919746Y-113229853D01*
X141077605Y-113435251D01*
X141287395Y-113627973D01*
X141390466Y-113705590D01*
X141474202Y-113761510D01*
X141576734Y-113824307D01*
X141685283Y-113886870D01*
X141787071Y-113942088D01*
X141869317Y-113982849D01*
X141919242Y-114002041D01*
X141924331Y-114002666D01*
X141920841Y-113979323D01*
X141898583Y-113918377D01*
X141865582Y-113840388D01*
X141772572Y-113587754D01*
X141704008Y-113311964D01*
X141665268Y-113037841D01*
X141658577Y-112884841D01*
X141668039Y-112684145D01*
X141697714Y-112530535D01*
X141749538Y-112417696D01*
X141825446Y-112339310D01*
X141825786Y-112339068D01*
X141956870Y-112270395D01*
X142086605Y-112254405D01*
X142219060Y-112291778D01*
X142358302Y-112383199D01*
X142420886Y-112438925D01*
X142581975Y-112592578D01*
X142646424Y-112415677D01*
X142698779Y-112282065D01*
X142745915Y-112190707D01*
X142796593Y-112129175D01*
X142859576Y-112085038D01*
X142890640Y-112069249D01*
X143015634Y-112035496D01*
X143132981Y-112056767D01*
X143243020Y-112133319D01*
X143346087Y-112265406D01*
X143442522Y-112453283D01*
X143462461Y-112501088D01*
X143506766Y-112606469D01*
X143545478Y-112690396D01*
X143572520Y-112740023D01*
X143579033Y-112747608D01*
X143605795Y-112733747D01*
X143655845Y-112684214D01*
X143719309Y-112609014D01*
X143732430Y-112592180D01*
X143821649Y-112482881D01*
X143892993Y-112414119D01*
X143957292Y-112377830D01*
X144025379Y-112365952D01*
X144036580Y-112365777D01*
X144115579Y-112392377D01*
X144183880Y-112466449D01*
X144237343Y-112579403D01*
X144271829Y-112722650D01*
X144283244Y-112877629D01*
X144275111Y-112941549D01*
X144255570Y-112954828D01*
X144231908Y-112920083D01*
X144213599Y-112852611D01*
X144185826Y-112743293D01*
X144146842Y-112641027D01*
X144103379Y-112559632D01*
X144062165Y-112512927D01*
X144045230Y-112506888D01*
X144008895Y-112529141D01*
X143955597Y-112587475D01*
X143896941Y-112669166D01*
X143801027Y-112810117D01*
X143722821Y-112905819D01*
X143656298Y-112962238D01*
X143595432Y-112985337D01*
X143576214Y-112986666D01*
X143504099Y-112973740D01*
X143436037Y-112930711D01*
X143365970Y-112851206D01*
X143287839Y-112728852D01*
X143228615Y-112620964D01*
X143148501Y-112477706D01*
X143085333Y-112384977D01*
X143036947Y-112340197D01*
X143001178Y-112340783D01*
X142996855Y-112344537D01*
X142984010Y-112376168D01*
X142960853Y-112449835D01*
X142931223Y-112552932D01*
X142912208Y-112622646D01*
X142855627Y-112801725D01*
X142794574Y-112927569D01*
X142726082Y-113003368D01*
X142647187Y-113032312D01*
X142554922Y-113017589D01*
X142547542Y-113014875D01*
X142494096Y-112982778D01*
X142414089Y-112920694D01*
X142320393Y-112839020D01*
X142263926Y-112785872D01*
X142170943Y-112696476D01*
X142109747Y-112641747D01*
X142071786Y-112616871D01*
X142048510Y-112617034D01*
X142031366Y-112637420D01*
X142023981Y-112650774D01*
X142004958Y-112726114D01*
X142001053Y-112843107D01*
X142011125Y-112989355D01*
X142034030Y-113152459D01*
X142068628Y-113320021D01*
X142094644Y-113417954D01*
X142179739Y-113662792D01*
X142290468Y-113908753D01*
X142421000Y-114147272D01*
X142565510Y-114369786D01*
X142718168Y-114567730D01*
X142873146Y-114732539D01*
X143024616Y-114855650D01*
X143105184Y-114902914D01*
X143261213Y-114952385D01*
X143426386Y-114957376D01*
X143580675Y-114917743D01*
X143604596Y-114906448D01*
X143719859Y-114823831D01*
X143835558Y-114697894D01*
X143941330Y-114540722D01*
X143980286Y-114468333D01*
X144036257Y-114340440D01*
X144094453Y-114181205D01*
X144147979Y-114012142D01*
X144189938Y-113854763D01*
X144211002Y-113748666D01*
X144231614Y-113617482D01*
X144248177Y-113534264D01*
X144262960Y-113490891D01*
X144278234Y-113479240D01*
X144285540Y-113481974D01*
X144300235Y-113519690D01*
X144306738Y-113601464D01*
X144305978Y-113715652D01*
X144298883Y-113850609D01*
X144286384Y-113994692D01*
X144269410Y-114136257D01*
X144248889Y-114263658D01*
X144225752Y-114365252D01*
X144211698Y-114407276D01*
X144206987Y-114425617D01*
X144214866Y-114438808D01*
X144242630Y-114447482D01*
X144297573Y-114452271D01*
X144386993Y-114453806D01*
X144518184Y-114452720D01*
X144698442Y-114449644D01*
X144700320Y-114449609D01*
X144864099Y-114445819D01*
X145007616Y-114441097D01*
X145121646Y-114435859D01*
X145196968Y-114430524D01*
X145224158Y-114425877D01*
X145224470Y-114393792D01*
X145212859Y-114320904D01*
X145191676Y-114221022D01*
X145183350Y-114185988D01*
X145159449Y-114070461D01*
X145138723Y-113938090D01*
X145122071Y-113800088D01*
X145110392Y-113667667D01*
X145104584Y-113552039D01*
X145105545Y-113464417D01*
X145114174Y-113416013D01*
X145121170Y-113410000D01*
X145137635Y-113435812D01*
X145157625Y-113504506D01*
X145177573Y-113602967D01*
X145183378Y-113638708D01*
X145237741Y-113897032D01*
X145317514Y-114141639D01*
X145418411Y-114365385D01*
X145536146Y-114561125D01*
X145666435Y-114721713D01*
X145804991Y-114840004D01*
X145944671Y-114908008D01*
X146025178Y-114926249D01*
X146095253Y-114922518D01*
X146183778Y-114894840D01*
X146194069Y-114890941D01*
X146325960Y-114816889D01*
X146466485Y-114695895D01*
X146610112Y-114535654D01*
X146751305Y-114343862D01*
X146884531Y-114128215D01*
X147004256Y-113896407D01*
X147104947Y-113656134D01*
X147127371Y-113593093D01*
X147163843Y-113471424D01*
X147200149Y-113324882D01*
X147232748Y-113170919D01*
X147258100Y-113026986D01*
X147272664Y-112910535D01*
X147274800Y-112866364D01*
X147274800Y-112780519D01*
X147109743Y-112937956D01*
X146966404Y-113052579D01*
X146835298Y-113112301D01*
X146717496Y-113117551D01*
X146614070Y-113068757D01*
X146526090Y-112966348D01*
X146454627Y-112810752D01*
X146412385Y-112658834D01*
X146385989Y-112557600D01*
X146359833Y-112486691D01*
X146338364Y-112457722D01*
X146335446Y-112457821D01*
X146308894Y-112484971D01*
X146261791Y-112549908D01*
X146201858Y-112641568D01*
X146162182Y-112706072D01*
X146074294Y-112842199D01*
X145999408Y-112934366D01*
X145930222Y-112991283D01*
X145916464Y-112999182D01*
X145848362Y-113032456D01*
X145804049Y-113038247D01*
X145758496Y-113017411D01*
X145739548Y-113005246D01*
X145686529Y-112956291D01*
X145620668Y-112875973D01*
X145559773Y-112787136D01*
X145472929Y-112669962D01*
X145393275Y-112608641D01*
X145321271Y-112602983D01*
X145257377Y-112652801D01*
X145202053Y-112757903D01*
X145155762Y-112918103D01*
X145147714Y-112956305D01*
X145104924Y-113170111D01*
X145112004Y-112908925D01*
X145118048Y-112774470D01*
X145129286Y-112682305D01*
X145148415Y-112618329D01*
X145176769Y-112570258D01*
X145265329Y-112486207D01*
X145363352Y-112456926D01*
X145468577Y-112481971D01*
X145578742Y-112560899D01*
X145672692Y-112667518D01*
X145734725Y-112742679D01*
X145787104Y-112793704D01*
X145818427Y-112809534D01*
X145843127Y-112781513D01*
X145885205Y-112713555D01*
X145938097Y-112616841D01*
X145979084Y-112535892D01*
X146074612Y-112361244D01*
X146167606Y-112229912D01*
X146254855Y-112145648D01*
X146333152Y-112112199D01*
X146342074Y-112111777D01*
X146437726Y-112126486D01*
X146516651Y-112174490D01*
X146583335Y-112261609D01*
X146642267Y-112393662D01*
X146696617Y-112571497D01*
X146725645Y-112669170D01*
X146753518Y-112743752D01*
X146774374Y-112779645D01*
X146774971Y-112780050D01*
X146804788Y-112768183D01*
X146862907Y-112722543D01*
X146939734Y-112651186D01*
X146993302Y-112596777D01*
X147112643Y-112480240D01*
X147210089Y-112406928D01*
X147294115Y-112372489D01*
X147373200Y-112372571D01*
X147409936Y-112382890D01*
X147498850Y-112443472D01*
X147562444Y-112549375D01*
X147600457Y-112695341D01*
X147612629Y-112876113D01*
X147598698Y-113086435D01*
X147558404Y-113321048D01*
X147491485Y-113574698D01*
X147472125Y-113635711D01*
X147438315Y-113742974D01*
X147414006Y-113827859D01*
X147402695Y-113877759D01*
X147402843Y-113885520D01*
X147434000Y-113880801D01*
X147499337Y-113849020D01*
X147587872Y-113796974D01*
X147688625Y-113731460D01*
X147790613Y-113659275D01*
X147877144Y-113591950D01*
X148067636Y-113402811D01*
X148231092Y-113176657D01*
X148352424Y-112936869D01*
X148374354Y-112879424D01*
X148390688Y-112824638D01*
X148402188Y-112763265D01*
X148409620Y-112686063D01*
X148413746Y-112583786D01*
X148415329Y-112447189D01*
X148415134Y-112267028D01*
X148414737Y-112182333D01*
X148412792Y-111967977D01*
X148408717Y-111796430D01*
X148401424Y-111654066D01*
X148389827Y-111527258D01*
X148372840Y-111402380D01*
X148349376Y-111265806D01*
X148335965Y-111194555D01*
X148209751Y-110669308D01*
X148031800Y-110136787D01*
X147804786Y-109604730D01*
X147740832Y-109473000D01*
X147664534Y-109320278D01*
X147595613Y-109183550D01*
X147538461Y-109071434D01*
X147497473Y-108992548D01*
X147477042Y-108955509D01*
X147476913Y-108955314D01*
X147456056Y-108941727D01*
X147414081Y-108941723D01*
X147342245Y-108956945D01*
X147231809Y-108989034D01*
X147136625Y-109019250D01*
X146959913Y-109071003D01*
X146739337Y-109127074D01*
X146487054Y-109184864D01*
X146215218Y-109241774D01*
X145935987Y-109295205D01*
X145661515Y-109342557D01*
X145525022Y-109363867D01*
X145335717Y-109385714D01*
X145109745Y-109401423D01*
X144861864Y-109410868D01*
X144606829Y-109413926D01*
X144359396Y-109410471D01*
X144134322Y-109400380D01*
X143946364Y-109383527D01*
X143902244Y-109377557D01*
X143476769Y-109300093D01*
X143031507Y-109192953D01*
X142590438Y-109062107D01*
X142462911Y-109019258D01*
X142309003Y-108966352D01*
X142170332Y-108919269D01*
X142057151Y-108881447D01*
X141979712Y-108856320D01*
X141952001Y-108848058D01*
X141918987Y-108848031D01*
X141884880Y-108871189D01*
X141842128Y-108925770D01*
X141783177Y-109020012D01*
X141762976Y-109054224D01*
X141552547Y-109443864D01*
X141355487Y-109868124D01*
X141179509Y-110308047D01*
X141032322Y-110744676D01*
X140942154Y-111072035D01*
X140882049Y-111337014D01*
X140829123Y-111608525D01*
X140785291Y-111874005D01*
X140752468Y-112120891D01*
X140732571Y-112336621D01*
X140727244Y-112481286D01*
X140212083Y-112481286D01*
X140244097Y-112256136D01*
X140267216Y-112114194D01*
X140298854Y-111946749D01*
X140333393Y-111782941D01*
X140345382Y-111730778D01*
X140372640Y-111613348D01*
X140393561Y-111519102D01*
X140405620Y-111459687D01*
X140407393Y-111445011D01*
X140379516Y-111447892D01*
X140309976Y-111458731D01*
X140212637Y-111475341D01*
X140191022Y-111479168D01*
X139947249Y-111509827D01*
X139694539Y-111518805D01*
X139445765Y-111507186D01*
X139213802Y-111476052D01*
X139011527Y-111426487D01*
X138866975Y-111367788D01*
X138719541Y-111269414D01*
X138620498Y-111153359D01*
X138570109Y-111018694D01*
X138568637Y-110864489D01*
X138616345Y-110689815D01*
X138713495Y-110493742D01*
X138860349Y-110275342D01*
X139057171Y-110033685D01*
X139304224Y-109767841D01*
X139325249Y-109746430D01*
X139666413Y-109439610D01*
X140039522Y-109178101D01*
X140440306Y-108964788D01*
X140558848Y-108913285D01*
X140695688Y-108861066D01*
X140844406Y-108811608D01*
X140995626Y-108767155D01*
X141139966Y-108729949D01*
X141268050Y-108702235D01*
X141370498Y-108686255D01*
X141437932Y-108684252D01*
X141461022Y-108697503D01*
X141437321Y-108719264D01*
X141372651Y-108760289D01*
X141276655Y-108814865D01*
X141158980Y-108877276D01*
X141148736Y-108882529D01*
X140953000Y-108988905D01*
X140740018Y-109115273D01*
X140524449Y-109252132D01*
X140320949Y-109389980D01*
X140144175Y-109519315D01*
X140049972Y-109594803D01*
X139779507Y-109829646D01*
X139536748Y-110054585D01*
X139325460Y-110265649D01*
X139149406Y-110458867D01*
X139012348Y-110630269D01*
X138918050Y-110775883D01*
X138902847Y-110805224D01*
X138862920Y-110890408D01*
X138846718Y-110943615D01*
X138852190Y-110983079D01*
X138877282Y-111027036D01*
X138877796Y-111027820D01*
X138948810Y-111096402D01*
X139064188Y-111161749D01*
X139211892Y-111218474D01*
X139379883Y-111261189D01*
X139412633Y-111267196D01*
X139522826Y-111280346D01*
X139660710Y-111288170D01*
X139815076Y-111291026D01*
X139974714Y-111289269D01*
X140128416Y-111283259D01*
X140264971Y-111273352D01*
X140373171Y-111259905D01*
X140441806Y-111243277D01*
X140457790Y-111233874D01*
X140484374Y-111188506D01*
X140519479Y-111106190D01*
X140555804Y-111004162D01*
X140558116Y-110997000D01*
X140638591Y-110769696D01*
X140740152Y-110518726D01*
X140852769Y-110267513D01*
X140966410Y-110039485D01*
X140975037Y-110023333D01*
X141070106Y-109856489D01*
X141185285Y-109670171D01*
X141311632Y-109477560D01*
X141440208Y-109291837D01*
X141562071Y-109126184D01*
X141668281Y-108993780D01*
X141691013Y-108967784D01*
X141764661Y-108884505D01*
X141805145Y-108832503D01*
X141816948Y-108800996D01*
X141804553Y-108779204D01*
X141777531Y-108759730D01*
X141726617Y-108721091D01*
X141720688Y-108702044D01*
X141761413Y-108702783D01*
X141850461Y-108723504D01*
X141989502Y-108764401D01*
X142089843Y-108796196D01*
X142550417Y-108932814D01*
X142982813Y-109035016D01*
X143401623Y-109105218D01*
X143821442Y-109145836D01*
X144256861Y-109159284D01*
X144283244Y-109159281D01*
X144522850Y-109156747D01*
X144734625Y-109148945D01*
X144931533Y-109134230D01*
X145126536Y-109110960D01*
X145332595Y-109077491D01*
X145562673Y-109032180D01*
X145829733Y-108973383D01*
X145928279Y-108950719D01*
X146362457Y-108842960D01*
X146743876Y-108732704D01*
X147076215Y-108618384D01*
X147363151Y-108498434D01*
X147608364Y-108371287D01*
X147815531Y-108235378D01*
X147988330Y-108089140D01*
X148016028Y-108061639D01*
X148122604Y-107939533D01*
X148205027Y-107810559D01*
X148265873Y-107665800D01*
X148307718Y-107496336D01*
X148333138Y-107293247D01*
X148344709Y-107047616D01*
X148346089Y-106918888D01*
X148325104Y-106417746D01*
X148258849Y-105943064D01*
X148145671Y-105490934D01*
X147983919Y-105057449D01*
X147771940Y-104638702D01*
X147508081Y-104230784D01*
X147190692Y-103829790D01*
X146911444Y-103526014D01*
X146826937Y-103436051D01*
X146761902Y-103360632D01*
X146723683Y-103308692D01*
X146717456Y-103289935D01*
X146751691Y-103292724D01*
G37*
X146751691Y-103292724D02*
X146822559Y-103323365D01*
X146920995Y-103376581D01*
X147037931Y-103447094D01*
X147164303Y-103529628D01*
X147291044Y-103618905D01*
X147321824Y-103641734D01*
X147681479Y-103945579D01*
X147996657Y-104282917D01*
X148265998Y-104650812D01*
X148488140Y-105046327D01*
X148661721Y-105466526D01*
X148785380Y-105908472D01*
X148857756Y-106369231D01*
X148877488Y-106845864D01*
X148873122Y-106987633D01*
X148854175Y-107268679D01*
X148824061Y-107503516D01*
X148779578Y-107701814D01*
X148717526Y-107873243D01*
X148634703Y-108027473D01*
X148527910Y-108174175D01*
X148451142Y-108262446D01*
X148202795Y-108495460D01*
X147926019Y-108686110D01*
X147738971Y-108782226D01*
X147644354Y-108825381D01*
X147572058Y-108859677D01*
X147535572Y-108878686D01*
X147533888Y-108879948D01*
X147543655Y-108906534D01*
X147577956Y-108971068D01*
X147631307Y-109063695D01*
X147694377Y-109168307D01*
X147953353Y-109631236D01*
X148178771Y-110119409D01*
X148366035Y-110620617D01*
X148510549Y-111122649D01*
X148602864Y-111581573D01*
X148636875Y-111799258D01*
X148767226Y-111841265D01*
X149012435Y-111910246D01*
X149235526Y-111953149D01*
X149431221Y-111969977D01*
X149594242Y-111960730D01*
X149719311Y-111925411D01*
X149801150Y-111864021D01*
X149816248Y-111840960D01*
X149833478Y-111759857D01*
X149818707Y-111639326D01*
X149771517Y-111478027D01*
X149691489Y-111274624D01*
X149578209Y-111027777D01*
X149535445Y-110940555D01*
X149362707Y-110604412D01*
X149197558Y-110309590D01*
X149031479Y-110043314D01*
X148855948Y-109792808D01*
X148662446Y-109545298D01*
X148442453Y-109288008D01*
X148406142Y-109247222D01*
X148321158Y-109149057D01*
X148255364Y-109066917D01*
X148215040Y-109009113D01*
X148206468Y-108983958D01*
X148207019Y-108983695D01*
X148254834Y-108991830D01*
X148336617Y-109031316D01*
X148443960Y-109096218D01*
X148568455Y-109180603D01*
X148701691Y-109278535D01*
X148835263Y-109384081D01*
X148960759Y-109491307D01*
X149064115Y-109588591D01*
X149345412Y-109902737D01*
X149594480Y-110247192D01*
X149805813Y-110612206D01*
X149973909Y-110988034D01*
X150093264Y-111364927D01*
X150111774Y-111443998D01*
X150143639Y-111648409D01*
X150140072Y-111815212D01*
X150100534Y-111951164D01*
X150066467Y-112010619D01*
X149991749Y-112098883D01*
X149901857Y-112158801D01*
X149783225Y-112196773D01*
X149624818Y-112218969D01*
X149335760Y-112219110D01*
X149035656Y-112169888D01*
X148843770Y-112113292D01*
X148755259Y-112083089D01*
X148690677Y-112062123D01*
X148665931Y-112055333D01*
X148661464Y-112081379D01*
X148659142Y-112150871D01*
X148659285Y-112250842D01*
X148660060Y-112294533D01*
X148662065Y-112400590D01*
X148668641Y-112473185D01*
X148688906Y-112519379D01*
X148731980Y-112546231D01*
X148806980Y-112560801D01*
X148923024Y-112570148D01*
X149024577Y-112576753D01*
X149387601Y-112605184D01*
X149749940Y-112640926D01*
X150104838Y-112682879D01*
X150445539Y-112729947D01*
X150765286Y-112781028D01*
X151057324Y-112835024D01*
X151314895Y-112890838D01*
X151531243Y-112947368D01*
X151699613Y-113003518D01*
X151733281Y-113017308D01*
X151861229Y-113083562D01*
X151934633Y-113149078D01*
X151953212Y-113214186D01*
X151916686Y-113279217D01*
X151824771Y-113344502D01*
X151677187Y-113410371D01*
X151473651Y-113477156D01*
X151302196Y-113523500D01*
X151180286Y-113554882D01*
X151083670Y-113580839D01*
X151022264Y-113598628D01*
X151005756Y-113605491D01*
X151082372Y-113617188D01*
X151199128Y-113639343D01*
X151341390Y-113668765D01*
X151494530Y-113702262D01*
X151643915Y-113736644D01*
X151774916Y-113768720D01*
X151864022Y-113792693D01*
X152062492Y-113856433D01*
X152210072Y-113918628D01*
X152312159Y-113981962D01*
X152371744Y-114045363D01*
X152401391Y-114100888D01*
X152396026Y-114144785D01*
X152373160Y-114183586D01*
X152295744Y-114258355D01*
X152163897Y-114331210D01*
X151979612Y-114401781D01*
X151744883Y-114469697D01*
X151461701Y-114534588D01*
X151132060Y-114596084D01*
X150757952Y-114653815D01*
X150341370Y-114707409D01*
X149884308Y-114756498D01*
X149388757Y-114800710D01*
X148856710Y-114839675D01*
X148834805Y-114841112D01*
X148094700Y-114889459D01*
X148263097Y-114950435D01*
X148387799Y-114999885D01*
X148465004Y-115043023D01*
X148502260Y-115086021D01*
X148507117Y-115135053D01*
X148504457Y-115147781D01*
X148500022Y-115180424D01*
X148514279Y-115200906D01*
X148558226Y-115213964D01*
X148642859Y-115224331D01*
X148693143Y-115229018D01*
X149096591Y-115270041D01*
X149457688Y-115316120D01*
X149774279Y-115366787D01*
X150044211Y-115421576D01*
X150265329Y-115480020D01*
X150435481Y-115541651D01*
X150552513Y-115606002D01*
X150592064Y-115640830D01*
X150621214Y-115703754D01*
X150596379Y-115766225D01*
X150520022Y-115827617D01*
X150394601Y-115887301D01*
X150222579Y-115944652D01*
X150006414Y-115999042D01*
X149748569Y-116049845D01*
X149451502Y-116096434D01*
X149117675Y-116138181D01*
X148749548Y-116174460D01*
X148389577Y-116202009D01*
X148232870Y-116210657D01*
X148033251Y-116218848D01*
X147801151Y-116226395D01*
X147547000Y-116233110D01*
X147281228Y-116238808D01*
X147014266Y-116243299D01*
X146756543Y-116246399D01*
X146518490Y-116247920D01*
X146310537Y-116247674D01*
X146143114Y-116245475D01*
X146075355Y-116243491D01*
X145605923Y-116221785D01*
X145166360Y-116193563D01*
X144759506Y-116159276D01*
X144388201Y-116119370D01*
X144055288Y-116074296D01*
X143763605Y-116024502D01*
X143515994Y-115970437D01*
X143315296Y-115912550D01*
X143164350Y-115851288D01*
X143065997Y-115787102D01*
X143045102Y-115764768D01*
X143024009Y-115739944D01*
X142999934Y-115721949D01*
X142964178Y-115709682D01*
X142908043Y-115702038D01*
X142822831Y-115697917D01*
X142699844Y-115696214D01*
X142530382Y-115695827D01*
X142501182Y-115695814D01*
X142094955Y-115691713D01*
X141670767Y-115680137D01*
X141236988Y-115661729D01*
X140801987Y-115637131D01*
X140374133Y-115606985D01*
X139961795Y-115571935D01*
X139573341Y-115532622D01*
X139217141Y-115489689D01*
X138901564Y-115443780D01*
X138662330Y-115401074D01*
X138442110Y-115351135D01*
X138264775Y-115298205D01*
X138133562Y-115243672D01*
X138051706Y-115188926D01*
X138022445Y-115135356D01*
X138022921Y-115126554D01*
X138059858Y-115061586D01*
X138151523Y-114999594D01*
X138298147Y-114940523D01*
X138499961Y-114884321D01*
X138757195Y-114830934D01*
X139070080Y-114780308D01*
X139438845Y-114732390D01*
X139863723Y-114687127D01*
X139949307Y-114678963D01*
X140130333Y-114662188D01*
X140296004Y-114647212D01*
X140436723Y-114634874D01*
X140542894Y-114626011D01*
X140604923Y-114621460D01*
X140612529Y-114621090D01*
X140613775Y-114614824D01*
X140567378Y-114599319D01*
X140480986Y-114576697D01*
X140362244Y-114549080D01*
X140318022Y-114539395D01*
X140166219Y-114505213D01*
X140020687Y-114469968D01*
X139897518Y-114437710D01*
X139812802Y-114412489D01*
X139810022Y-114411540D01*
X139615854Y-114335594D01*
X139477800Y-114260664D01*
X139395547Y-114186281D01*
X139368786Y-114111980D01*
X139397203Y-114037291D01*
X139480487Y-113961748D01*
X139501274Y-113948028D01*
X139629971Y-113866411D01*
X139451885Y-113849697D01*
X139363171Y-113841512D01*
X139232081Y-113829599D01*
X139072462Y-113815207D01*
X138898161Y-113799588D01*
X138779911Y-113789045D01*
X138332471Y-113745341D01*
X137922657Y-113697389D01*
X137552378Y-113645658D01*
X137223543Y-113590621D01*
X136938059Y-113532747D01*
X136697836Y-113472509D01*
X136504783Y-113410377D01*
X136360809Y-113346822D01*
X136267822Y-113282316D01*
X136227730Y-113217328D01*
X136236955Y-113161522D01*
X136277967Y-113109637D01*
X136347341Y-113062265D01*
X136454115Y-113014530D01*
X136607331Y-112961556D01*
X136608198Y-112961280D01*
X136848925Y-112894264D01*
X137140044Y-112829882D01*
X137475532Y-112769008D01*
X137849364Y-112712517D01*
X138255515Y-112661284D01*
X138687962Y-112616184D01*
X139140680Y-112578093D01*
X139344355Y-112563805D01*
X139514863Y-112552290D01*
X139688119Y-112540115D01*
X139845342Y-112528628D01*
X139967750Y-112519178D01*
X139981552Y-112518052D01*
X140209526Y-112499272D01*
X140212083Y-112481286D01*
X140727244Y-112481286D01*
X140747616Y-112758502D01*
X140810767Y-113006147D01*
X140919746Y-113229853D01*
X141077605Y-113435251D01*
X141287395Y-113627973D01*
X141390466Y-113705590D01*
X141474202Y-113761510D01*
X141576734Y-113824307D01*
X141685283Y-113886870D01*
X141787071Y-113942088D01*
X141869317Y-113982849D01*
X141919242Y-114002041D01*
X141924331Y-114002666D01*
X141920841Y-113979323D01*
X141898583Y-113918377D01*
X141865582Y-113840388D01*
X141772572Y-113587754D01*
X141704008Y-113311964D01*
X141665268Y-113037841D01*
X141658577Y-112884841D01*
X141668039Y-112684145D01*
X141697714Y-112530535D01*
X141749538Y-112417696D01*
X141825446Y-112339310D01*
X141825786Y-112339068D01*
X141956870Y-112270395D01*
X142086605Y-112254405D01*
X142219060Y-112291778D01*
X142358302Y-112383199D01*
X142420886Y-112438925D01*
X142581975Y-112592578D01*
X142646424Y-112415677D01*
X142698779Y-112282065D01*
X142745915Y-112190707D01*
X142796593Y-112129175D01*
X142859576Y-112085038D01*
X142890640Y-112069249D01*
X143015634Y-112035496D01*
X143132981Y-112056767D01*
X143243020Y-112133319D01*
X143346087Y-112265406D01*
X143442522Y-112453283D01*
X143462461Y-112501088D01*
X143506766Y-112606469D01*
X143545478Y-112690396D01*
X143572520Y-112740023D01*
X143579033Y-112747608D01*
X143605795Y-112733747D01*
X143655845Y-112684214D01*
X143719309Y-112609014D01*
X143732430Y-112592180D01*
X143821649Y-112482881D01*
X143892993Y-112414119D01*
X143957292Y-112377830D01*
X144025379Y-112365952D01*
X144036580Y-112365777D01*
X144115579Y-112392377D01*
X144183880Y-112466449D01*
X144237343Y-112579403D01*
X144271829Y-112722650D01*
X144283244Y-112877629D01*
X144275111Y-112941549D01*
X144255570Y-112954828D01*
X144231908Y-112920083D01*
X144213599Y-112852611D01*
X144185826Y-112743293D01*
X144146842Y-112641027D01*
X144103379Y-112559632D01*
X144062165Y-112512927D01*
X144045230Y-112506888D01*
X144008895Y-112529141D01*
X143955597Y-112587475D01*
X143896941Y-112669166D01*
X143801027Y-112810117D01*
X143722821Y-112905819D01*
X143656298Y-112962238D01*
X143595432Y-112985337D01*
X143576214Y-112986666D01*
X143504099Y-112973740D01*
X143436037Y-112930711D01*
X143365970Y-112851206D01*
X143287839Y-112728852D01*
X143228615Y-112620964D01*
X143148501Y-112477706D01*
X143085333Y-112384977D01*
X143036947Y-112340197D01*
X143001178Y-112340783D01*
X142996855Y-112344537D01*
X142984010Y-112376168D01*
X142960853Y-112449835D01*
X142931223Y-112552932D01*
X142912208Y-112622646D01*
X142855627Y-112801725D01*
X142794574Y-112927569D01*
X142726082Y-113003368D01*
X142647187Y-113032312D01*
X142554922Y-113017589D01*
X142547542Y-113014875D01*
X142494096Y-112982778D01*
X142414089Y-112920694D01*
X142320393Y-112839020D01*
X142263926Y-112785872D01*
X142170943Y-112696476D01*
X142109747Y-112641747D01*
X142071786Y-112616871D01*
X142048510Y-112617034D01*
X142031366Y-112637420D01*
X142023981Y-112650774D01*
X142004958Y-112726114D01*
X142001053Y-112843107D01*
X142011125Y-112989355D01*
X142034030Y-113152459D01*
X142068628Y-113320021D01*
X142094644Y-113417954D01*
X142179739Y-113662792D01*
X142290468Y-113908753D01*
X142421000Y-114147272D01*
X142565510Y-114369786D01*
X142718168Y-114567730D01*
X142873146Y-114732539D01*
X143024616Y-114855650D01*
X143105184Y-114902914D01*
X143261213Y-114952385D01*
X143426386Y-114957376D01*
X143580675Y-114917743D01*
X143604596Y-114906448D01*
X143719859Y-114823831D01*
X143835558Y-114697894D01*
X143941330Y-114540722D01*
X143980286Y-114468333D01*
X144036257Y-114340440D01*
X144094453Y-114181205D01*
X144147979Y-114012142D01*
X144189938Y-113854763D01*
X144211002Y-113748666D01*
X144231614Y-113617482D01*
X144248177Y-113534264D01*
X144262960Y-113490891D01*
X144278234Y-113479240D01*
X144285540Y-113481974D01*
X144300235Y-113519690D01*
X144306738Y-113601464D01*
X144305978Y-113715652D01*
X144298883Y-113850609D01*
X144286384Y-113994692D01*
X144269410Y-114136257D01*
X144248889Y-114263658D01*
X144225752Y-114365252D01*
X144211698Y-114407276D01*
X144206987Y-114425617D01*
X144214866Y-114438808D01*
X144242630Y-114447482D01*
X144297573Y-114452271D01*
X144386993Y-114453806D01*
X144518184Y-114452720D01*
X144698442Y-114449644D01*
X144700320Y-114449609D01*
X144864099Y-114445819D01*
X145007616Y-114441097D01*
X145121646Y-114435859D01*
X145196968Y-114430524D01*
X145224158Y-114425877D01*
X145224470Y-114393792D01*
X145212859Y-114320904D01*
X145191676Y-114221022D01*
X145183350Y-114185988D01*
X145159449Y-114070461D01*
X145138723Y-113938090D01*
X145122071Y-113800088D01*
X145110392Y-113667667D01*
X145104584Y-113552039D01*
X145105545Y-113464417D01*
X145114174Y-113416013D01*
X145121170Y-113410000D01*
X145137635Y-113435812D01*
X145157625Y-113504506D01*
X145177573Y-113602967D01*
X145183378Y-113638708D01*
X145237741Y-113897032D01*
X145317514Y-114141639D01*
X145418411Y-114365385D01*
X145536146Y-114561125D01*
X145666435Y-114721713D01*
X145804991Y-114840004D01*
X145944671Y-114908008D01*
X146025178Y-114926249D01*
X146095253Y-114922518D01*
X146183778Y-114894840D01*
X146194069Y-114890941D01*
X146325960Y-114816889D01*
X146466485Y-114695895D01*
X146610112Y-114535654D01*
X146751305Y-114343862D01*
X146884531Y-114128215D01*
X147004256Y-113896407D01*
X147104947Y-113656134D01*
X147127371Y-113593093D01*
X147163843Y-113471424D01*
X147200149Y-113324882D01*
X147232748Y-113170919D01*
X147258100Y-113026986D01*
X147272664Y-112910535D01*
X147274800Y-112866364D01*
X147274800Y-112780519D01*
X147109743Y-112937956D01*
X146966404Y-113052579D01*
X146835298Y-113112301D01*
X146717496Y-113117551D01*
X146614070Y-113068757D01*
X146526090Y-112966348D01*
X146454627Y-112810752D01*
X146412385Y-112658834D01*
X146385989Y-112557600D01*
X146359833Y-112486691D01*
X146338364Y-112457722D01*
X146335446Y-112457821D01*
X146308894Y-112484971D01*
X146261791Y-112549908D01*
X146201858Y-112641568D01*
X146162182Y-112706072D01*
X146074294Y-112842199D01*
X145999408Y-112934366D01*
X145930222Y-112991283D01*
X145916464Y-112999182D01*
X145848362Y-113032456D01*
X145804049Y-113038247D01*
X145758496Y-113017411D01*
X145739548Y-113005246D01*
X145686529Y-112956291D01*
X145620668Y-112875973D01*
X145559773Y-112787136D01*
X145472929Y-112669962D01*
X145393275Y-112608641D01*
X145321271Y-112602983D01*
X145257377Y-112652801D01*
X145202053Y-112757903D01*
X145155762Y-112918103D01*
X145147714Y-112956305D01*
X145104924Y-113170111D01*
X145112004Y-112908925D01*
X145118048Y-112774470D01*
X145129286Y-112682305D01*
X145148415Y-112618329D01*
X145176769Y-112570258D01*
X145265329Y-112486207D01*
X145363352Y-112456926D01*
X145468577Y-112481971D01*
X145578742Y-112560899D01*
X145672692Y-112667518D01*
X145734725Y-112742679D01*
X145787104Y-112793704D01*
X145818427Y-112809534D01*
X145843127Y-112781513D01*
X145885205Y-112713555D01*
X145938097Y-112616841D01*
X145979084Y-112535892D01*
X146074612Y-112361244D01*
X146167606Y-112229912D01*
X146254855Y-112145648D01*
X146333152Y-112112199D01*
X146342074Y-112111777D01*
X146437726Y-112126486D01*
X146516651Y-112174490D01*
X146583335Y-112261609D01*
X146642267Y-112393662D01*
X146696617Y-112571497D01*
X146725645Y-112669170D01*
X146753518Y-112743752D01*
X146774374Y-112779645D01*
X146774971Y-112780050D01*
X146804788Y-112768183D01*
X146862907Y-112722543D01*
X146939734Y-112651186D01*
X146993302Y-112596777D01*
X147112643Y-112480240D01*
X147210089Y-112406928D01*
X147294115Y-112372489D01*
X147373200Y-112372571D01*
X147409936Y-112382890D01*
X147498850Y-112443472D01*
X147562444Y-112549375D01*
X147600457Y-112695341D01*
X147612629Y-112876113D01*
X147598698Y-113086435D01*
X147558404Y-113321048D01*
X147491485Y-113574698D01*
X147472125Y-113635711D01*
X147438315Y-113742974D01*
X147414006Y-113827859D01*
X147402695Y-113877759D01*
X147402843Y-113885520D01*
X147434000Y-113880801D01*
X147499337Y-113849020D01*
X147587872Y-113796974D01*
X147688625Y-113731460D01*
X147790613Y-113659275D01*
X147877144Y-113591950D01*
X148067636Y-113402811D01*
X148231092Y-113176657D01*
X148352424Y-112936869D01*
X148374354Y-112879424D01*
X148390688Y-112824638D01*
X148402188Y-112763265D01*
X148409620Y-112686063D01*
X148413746Y-112583786D01*
X148415329Y-112447189D01*
X148415134Y-112267028D01*
X148414737Y-112182333D01*
X148412792Y-111967977D01*
X148408717Y-111796430D01*
X148401424Y-111654066D01*
X148389827Y-111527258D01*
X148372840Y-111402380D01*
X148349376Y-111265806D01*
X148335965Y-111194555D01*
X148209751Y-110669308D01*
X148031800Y-110136787D01*
X147804786Y-109604730D01*
X147740832Y-109473000D01*
X147664534Y-109320278D01*
X147595613Y-109183550D01*
X147538461Y-109071434D01*
X147497473Y-108992548D01*
X147477042Y-108955509D01*
X147476913Y-108955314D01*
X147456056Y-108941727D01*
X147414081Y-108941723D01*
X147342245Y-108956945D01*
X147231809Y-108989034D01*
X147136625Y-109019250D01*
X146959913Y-109071003D01*
X146739337Y-109127074D01*
X146487054Y-109184864D01*
X146215218Y-109241774D01*
X145935987Y-109295205D01*
X145661515Y-109342557D01*
X145525022Y-109363867D01*
X145335717Y-109385714D01*
X145109745Y-109401423D01*
X144861864Y-109410868D01*
X144606829Y-109413926D01*
X144359396Y-109410471D01*
X144134322Y-109400380D01*
X143946364Y-109383527D01*
X143902244Y-109377557D01*
X143476769Y-109300093D01*
X143031507Y-109192953D01*
X142590438Y-109062107D01*
X142462911Y-109019258D01*
X142309003Y-108966352D01*
X142170332Y-108919269D01*
X142057151Y-108881447D01*
X141979712Y-108856320D01*
X141952001Y-108848058D01*
X141918987Y-108848031D01*
X141884880Y-108871189D01*
X141842128Y-108925770D01*
X141783177Y-109020012D01*
X141762976Y-109054224D01*
X141552547Y-109443864D01*
X141355487Y-109868124D01*
X141179509Y-110308047D01*
X141032322Y-110744676D01*
X140942154Y-111072035D01*
X140882049Y-111337014D01*
X140829123Y-111608525D01*
X140785291Y-111874005D01*
X140752468Y-112120891D01*
X140732571Y-112336621D01*
X140727244Y-112481286D01*
X140212083Y-112481286D01*
X140244097Y-112256136D01*
X140267216Y-112114194D01*
X140298854Y-111946749D01*
X140333393Y-111782941D01*
X140345382Y-111730778D01*
X140372640Y-111613348D01*
X140393561Y-111519102D01*
X140405620Y-111459687D01*
X140407393Y-111445011D01*
X140379516Y-111447892D01*
X140309976Y-111458731D01*
X140212637Y-111475341D01*
X140191022Y-111479168D01*
X139947249Y-111509827D01*
X139694539Y-111518805D01*
X139445765Y-111507186D01*
X139213802Y-111476052D01*
X139011527Y-111426487D01*
X138866975Y-111367788D01*
X138719541Y-111269414D01*
X138620498Y-111153359D01*
X138570109Y-111018694D01*
X138568637Y-110864489D01*
X138616345Y-110689815D01*
X138713495Y-110493742D01*
X138860349Y-110275342D01*
X139057171Y-110033685D01*
X139304224Y-109767841D01*
X139325249Y-109746430D01*
X139666413Y-109439610D01*
X140039522Y-109178101D01*
X140440306Y-108964788D01*
X140558848Y-108913285D01*
X140695688Y-108861066D01*
X140844406Y-108811608D01*
X140995626Y-108767155D01*
X141139966Y-108729949D01*
X141268050Y-108702235D01*
X141370498Y-108686255D01*
X141437932Y-108684252D01*
X141461022Y-108697503D01*
X141437321Y-108719264D01*
X141372651Y-108760289D01*
X141276655Y-108814865D01*
X141158980Y-108877276D01*
X141148736Y-108882529D01*
X140953000Y-108988905D01*
X140740018Y-109115273D01*
X140524449Y-109252132D01*
X140320949Y-109389980D01*
X140144175Y-109519315D01*
X140049972Y-109594803D01*
X139779507Y-109829646D01*
X139536748Y-110054585D01*
X139325460Y-110265649D01*
X139149406Y-110458867D01*
X139012348Y-110630269D01*
X138918050Y-110775883D01*
X138902847Y-110805224D01*
X138862920Y-110890408D01*
X138846718Y-110943615D01*
X138852190Y-110983079D01*
X138877282Y-111027036D01*
X138877796Y-111027820D01*
X138948810Y-111096402D01*
X139064188Y-111161749D01*
X139211892Y-111218474D01*
X139379883Y-111261189D01*
X139412633Y-111267196D01*
X139522826Y-111280346D01*
X139660710Y-111288170D01*
X139815076Y-111291026D01*
X139974714Y-111289269D01*
X140128416Y-111283259D01*
X140264971Y-111273352D01*
X140373171Y-111259905D01*
X140441806Y-111243277D01*
X140457790Y-111233874D01*
X140484374Y-111188506D01*
X140519479Y-111106190D01*
X140555804Y-111004162D01*
X140558116Y-110997000D01*
X140638591Y-110769696D01*
X140740152Y-110518726D01*
X140852769Y-110267513D01*
X140966410Y-110039485D01*
X140975037Y-110023333D01*
X141070106Y-109856489D01*
X141185285Y-109670171D01*
X141311632Y-109477560D01*
X141440208Y-109291837D01*
X141562071Y-109126184D01*
X141668281Y-108993780D01*
X141691013Y-108967784D01*
X141764661Y-108884505D01*
X141805145Y-108832503D01*
X141816948Y-108800996D01*
X141804553Y-108779204D01*
X141777531Y-108759730D01*
X141726617Y-108721091D01*
X141720688Y-108702044D01*
X141761413Y-108702783D01*
X141850461Y-108723504D01*
X141989502Y-108764401D01*
X142089843Y-108796196D01*
X142550417Y-108932814D01*
X142982813Y-109035016D01*
X143401623Y-109105218D01*
X143821442Y-109145836D01*
X144256861Y-109159284D01*
X144283244Y-109159281D01*
X144522850Y-109156747D01*
X144734625Y-109148945D01*
X144931533Y-109134230D01*
X145126536Y-109110960D01*
X145332595Y-109077491D01*
X145562673Y-109032180D01*
X145829733Y-108973383D01*
X145928279Y-108950719D01*
X146362457Y-108842960D01*
X146743876Y-108732704D01*
X147076215Y-108618384D01*
X147363151Y-108498434D01*
X147608364Y-108371287D01*
X147815531Y-108235378D01*
X147988330Y-108089140D01*
X148016028Y-108061639D01*
X148122604Y-107939533D01*
X148205027Y-107810559D01*
X148265873Y-107665800D01*
X148307718Y-107496336D01*
X148333138Y-107293247D01*
X148344709Y-107047616D01*
X148346089Y-106918888D01*
X148325104Y-106417746D01*
X148258849Y-105943064D01*
X148145671Y-105490934D01*
X147983919Y-105057449D01*
X147771940Y-104638702D01*
X147508081Y-104230784D01*
X147190692Y-103829790D01*
X146911444Y-103526014D01*
X146826937Y-103436051D01*
X146761902Y-103360632D01*
X146723683Y-103308692D01*
X146717456Y-103289935D01*
X146751691Y-103292724D01*
D10*
%TO.C,U5*%
X122614000Y-66903600D02*
X122614000Y-36903600D01*
X122614000Y-96903600D02*
X122614000Y-66903600D01*
X166134000Y-96903600D02*
X166134000Y-66903600D01*
X166134000Y-36903600D02*
X144374000Y-36903600D01*
X166134000Y-66903600D02*
X166134000Y-36903600D01*
X166134000Y-96903600D02*
X144374000Y-96903600D01*
X144374000Y-96903600D02*
X122614000Y-96903600D01*
X144374000Y-36903600D02*
X122614000Y-36903600D01*
X117704000Y-97891600D02*
X117704000Y-35915600D01*
X171044000Y-66903600D02*
X171044000Y-97891600D01*
X171044000Y-97891600D02*
X117704000Y-97891600D01*
X171044000Y-35915600D02*
X117704000Y-35915600D01*
X171044000Y-35915600D02*
X171044000Y-66903600D01*
%TO.C,REF\u002A\u002A*%
D12*
X108051666Y-161984380D02*
X107718333Y-161508190D01*
X107480238Y-161984380D02*
X107480238Y-160984380D01*
X107861190Y-160984380D01*
X107956428Y-161032000D01*
X108004047Y-161079619D01*
X108051666Y-161174857D01*
X108051666Y-161317714D01*
X108004047Y-161412952D01*
X107956428Y-161460571D01*
X107861190Y-161508190D01*
X107480238Y-161508190D01*
X108480238Y-161460571D02*
X108813571Y-161460571D01*
X108956428Y-161984380D02*
X108480238Y-161984380D01*
X108480238Y-160984380D01*
X108956428Y-160984380D01*
X109718333Y-161460571D02*
X109385000Y-161460571D01*
X109385000Y-161984380D02*
X109385000Y-160984380D01*
X109861190Y-160984380D01*
X110385000Y-160984380D02*
X110385000Y-161222476D01*
X110146904Y-161127238D02*
X110385000Y-161222476D01*
X110623095Y-161127238D01*
X110242142Y-161412952D02*
X110385000Y-161222476D01*
X110527857Y-161412952D01*
X111146904Y-160984380D02*
X111146904Y-161222476D01*
X110908809Y-161127238D02*
X111146904Y-161222476D01*
X111385000Y-161127238D01*
X111004047Y-161412952D02*
X111146904Y-161222476D01*
X111289761Y-161412952D01*
%TO.C,U8*%
X119772380Y-146557904D02*
X120581904Y-146557904D01*
X120677142Y-146510285D01*
X120724761Y-146462666D01*
X120772380Y-146367428D01*
X120772380Y-146176952D01*
X120724761Y-146081714D01*
X120677142Y-146034095D01*
X120581904Y-145986476D01*
X119772380Y-145986476D01*
X120200952Y-145367428D02*
X120153333Y-145462666D01*
X120105714Y-145510285D01*
X120010476Y-145557904D01*
X119962857Y-145557904D01*
X119867619Y-145510285D01*
X119820000Y-145462666D01*
X119772380Y-145367428D01*
X119772380Y-145176952D01*
X119820000Y-145081714D01*
X119867619Y-145034095D01*
X119962857Y-144986476D01*
X120010476Y-144986476D01*
X120105714Y-145034095D01*
X120153333Y-145081714D01*
X120200952Y-145176952D01*
X120200952Y-145367428D01*
X120248571Y-145462666D01*
X120296190Y-145510285D01*
X120391428Y-145557904D01*
X120581904Y-145557904D01*
X120677142Y-145510285D01*
X120724761Y-145462666D01*
X120772380Y-145367428D01*
X120772380Y-145176952D01*
X120724761Y-145081714D01*
X120677142Y-145034095D01*
X120581904Y-144986476D01*
X120391428Y-144986476D01*
X120296190Y-145034095D01*
X120248571Y-145081714D01*
X120200952Y-145176952D01*
X116439047Y-154367428D02*
X117200952Y-154367428D01*
X123891428Y-154676952D02*
X123891428Y-153915047D01*
X124272380Y-154296000D02*
X123510476Y-154296000D01*
X114177142Y-134296000D02*
X114081904Y-134248380D01*
X113939047Y-134248380D01*
X113796190Y-134296000D01*
X113700952Y-134391238D01*
X113653333Y-134486476D01*
X113605714Y-134676952D01*
X113605714Y-134819809D01*
X113653333Y-135010285D01*
X113700952Y-135105523D01*
X113796190Y-135200761D01*
X113939047Y-135248380D01*
X114034285Y-135248380D01*
X114177142Y-135200761D01*
X114224761Y-135153142D01*
X114224761Y-134819809D01*
X114034285Y-134819809D01*
X114653333Y-134581714D02*
X114653333Y-135248380D01*
X114653333Y-134676952D02*
X114700952Y-134629333D01*
X114796190Y-134581714D01*
X114939047Y-134581714D01*
X115034285Y-134629333D01*
X115081904Y-134724571D01*
X115081904Y-135248380D01*
X115986666Y-135248380D02*
X115986666Y-134248380D01*
X115986666Y-135200761D02*
X115891428Y-135248380D01*
X115700952Y-135248380D01*
X115605714Y-135200761D01*
X115558095Y-135153142D01*
X115510476Y-135057904D01*
X115510476Y-134772190D01*
X115558095Y-134676952D01*
X115605714Y-134629333D01*
X115700952Y-134581714D01*
X115891428Y-134581714D01*
X115986666Y-134629333D01*
X116796190Y-134248380D02*
X117129523Y-135248380D01*
X117462857Y-134248380D01*
X117796190Y-135248380D02*
X117796190Y-134581714D01*
X117796190Y-134248380D02*
X117748571Y-134296000D01*
X117796190Y-134343619D01*
X117843809Y-134296000D01*
X117796190Y-134248380D01*
X117796190Y-134343619D01*
X118272380Y-134581714D02*
X118272380Y-135248380D01*
X118272380Y-134676952D02*
X118320000Y-134629333D01*
X118415238Y-134581714D01*
X118558095Y-134581714D01*
X118653333Y-134629333D01*
X118700952Y-134724571D01*
X118700952Y-135248380D01*
X119534285Y-135200761D02*
X119677142Y-135248380D01*
X119915238Y-135248380D01*
X120010476Y-135200761D01*
X120058095Y-135153142D01*
X120105714Y-135057904D01*
X120105714Y-134962666D01*
X120058095Y-134867428D01*
X120010476Y-134819809D01*
X119915238Y-134772190D01*
X119724761Y-134724571D01*
X119629523Y-134676952D01*
X119581904Y-134629333D01*
X119534285Y-134534095D01*
X119534285Y-134438857D01*
X119581904Y-134343619D01*
X119629523Y-134296000D01*
X119724761Y-134248380D01*
X119962857Y-134248380D01*
X120105714Y-134296000D01*
X120534285Y-135248380D02*
X120534285Y-134248380D01*
X120772380Y-134248380D01*
X120915238Y-134296000D01*
X121010476Y-134391238D01*
X121058095Y-134486476D01*
X121105714Y-134676952D01*
X121105714Y-134819809D01*
X121058095Y-135010285D01*
X121010476Y-135105523D01*
X120915238Y-135200761D01*
X120772380Y-135248380D01*
X120534285Y-135248380D01*
X122462857Y-134962666D02*
X122939047Y-134962666D01*
X122367619Y-135248380D02*
X122700952Y-134248380D01*
X123034285Y-135248380D01*
X123367619Y-134867428D02*
X124129523Y-134867428D01*
X124962857Y-134962666D02*
X125439047Y-134962666D01*
X124867619Y-135248380D02*
X125200952Y-134248380D01*
X125534285Y-135248380D01*
X125867619Y-134867428D02*
X126629523Y-134867428D01*
X126248571Y-135248380D02*
X126248571Y-134486476D01*
%TO.C,C2*%
X137673142Y-150622666D02*
X137720761Y-150670285D01*
X137768380Y-150813142D01*
X137768380Y-150908380D01*
X137720761Y-151051238D01*
X137625523Y-151146476D01*
X137530285Y-151194095D01*
X137339809Y-151241714D01*
X137196952Y-151241714D01*
X137006476Y-151194095D01*
X136911238Y-151146476D01*
X136816000Y-151051238D01*
X136768380Y-150908380D01*
X136768380Y-150813142D01*
X136816000Y-150670285D01*
X136863619Y-150622666D01*
X136863619Y-150241714D02*
X136816000Y-150194095D01*
X136768380Y-150098857D01*
X136768380Y-149860761D01*
X136816000Y-149765523D01*
X136863619Y-149717904D01*
X136958857Y-149670285D01*
X137054095Y-149670285D01*
X137196952Y-149717904D01*
X137768380Y-150289333D01*
X137768380Y-149670285D01*
%TO.C,R2*%
X137898380Y-156630666D02*
X137422190Y-156964000D01*
X137898380Y-157202095D02*
X136898380Y-157202095D01*
X136898380Y-156821142D01*
X136946000Y-156725904D01*
X136993619Y-156678285D01*
X137088857Y-156630666D01*
X137231714Y-156630666D01*
X137326952Y-156678285D01*
X137374571Y-156725904D01*
X137422190Y-156821142D01*
X137422190Y-157202095D01*
X136993619Y-156249714D02*
X136946000Y-156202095D01*
X136898380Y-156106857D01*
X136898380Y-155868761D01*
X136946000Y-155773523D01*
X136993619Y-155725904D01*
X137088857Y-155678285D01*
X137184095Y-155678285D01*
X137326952Y-155725904D01*
X137898380Y-156297333D01*
X137898380Y-155678285D01*
%TO.C,R1*%
X134042380Y-156725666D02*
X133566190Y-157059000D01*
X134042380Y-157297095D02*
X133042380Y-157297095D01*
X133042380Y-156916142D01*
X133090000Y-156820904D01*
X133137619Y-156773285D01*
X133232857Y-156725666D01*
X133375714Y-156725666D01*
X133470952Y-156773285D01*
X133518571Y-156820904D01*
X133566190Y-156916142D01*
X133566190Y-157297095D01*
X134042380Y-155773285D02*
X134042380Y-156344714D01*
X134042380Y-156059000D02*
X133042380Y-156059000D01*
X133185238Y-156154238D01*
X133280476Y-156249476D01*
X133328095Y-156344714D01*
%TO.C,C1*%
X133947142Y-150745666D02*
X133994761Y-150793285D01*
X134042380Y-150936142D01*
X134042380Y-151031380D01*
X133994761Y-151174238D01*
X133899523Y-151269476D01*
X133804285Y-151317095D01*
X133613809Y-151364714D01*
X133470952Y-151364714D01*
X133280476Y-151317095D01*
X133185238Y-151269476D01*
X133090000Y-151174238D01*
X133042380Y-151031380D01*
X133042380Y-150936142D01*
X133090000Y-150793285D01*
X133137619Y-150745666D01*
X134042380Y-149793285D02*
X134042380Y-150364714D01*
X134042380Y-150079000D02*
X133042380Y-150079000D01*
X133185238Y-150174238D01*
X133280476Y-150269476D01*
X133328095Y-150364714D01*
%TO.C,U5*%
X119442380Y-39471504D02*
X120251904Y-39471504D01*
X120347142Y-39423885D01*
X120394761Y-39376266D01*
X120442380Y-39281028D01*
X120442380Y-39090552D01*
X120394761Y-38995314D01*
X120347142Y-38947695D01*
X120251904Y-38900076D01*
X119442380Y-38900076D01*
X119442380Y-37947695D02*
X119442380Y-38423885D01*
X119918571Y-38471504D01*
X119870952Y-38423885D01*
X119823333Y-38328647D01*
X119823333Y-38090552D01*
X119870952Y-37995314D01*
X119918571Y-37947695D01*
X120013809Y-37900076D01*
X120251904Y-37900076D01*
X120347142Y-37947695D01*
X120394761Y-37995314D01*
X120442380Y-38090552D01*
X120442380Y-38328647D01*
X120394761Y-38423885D01*
X120347142Y-38471504D01*
X121220380Y-81802171D02*
X122220380Y-81564076D01*
X121506095Y-81373600D01*
X122220380Y-81183123D01*
X121220380Y-80945028D01*
X122220380Y-79992647D02*
X121744190Y-80325980D01*
X122220380Y-80564076D02*
X121220380Y-80564076D01*
X121220380Y-80183123D01*
X121268000Y-80087885D01*
X121315619Y-80040266D01*
X121410857Y-79992647D01*
X121553714Y-79992647D01*
X121648952Y-80040266D01*
X121696571Y-80087885D01*
X121744190Y-80183123D01*
X121744190Y-80564076D01*
X121268000Y-91795504D02*
X121220380Y-91890742D01*
X121220380Y-92033600D01*
X121268000Y-92176457D01*
X121363238Y-92271695D01*
X121458476Y-92319314D01*
X121648952Y-92366933D01*
X121791809Y-92366933D01*
X121982285Y-92319314D01*
X122077523Y-92271695D01*
X122172761Y-92176457D01*
X122220380Y-92033600D01*
X122220380Y-91938361D01*
X122172761Y-91795504D01*
X122125142Y-91747885D01*
X121791809Y-91747885D01*
X121791809Y-91938361D01*
X122220380Y-91319314D02*
X121220380Y-91319314D01*
X122220380Y-90747885D01*
X121220380Y-90747885D01*
X122220380Y-90271695D02*
X121220380Y-90271695D01*
X121220380Y-90033600D01*
X121268000Y-89890742D01*
X121363238Y-89795504D01*
X121458476Y-89747885D01*
X121648952Y-89700266D01*
X121791809Y-89700266D01*
X121982285Y-89747885D01*
X122077523Y-89795504D01*
X122172761Y-89890742D01*
X122220380Y-90033600D01*
X122220380Y-90271695D01*
X119077142Y-84127885D02*
X119124761Y-84175504D01*
X119172380Y-84318361D01*
X119172380Y-84413600D01*
X119124761Y-84556457D01*
X119029523Y-84651695D01*
X118934285Y-84699314D01*
X118743809Y-84746933D01*
X118600952Y-84746933D01*
X118410476Y-84699314D01*
X118315238Y-84651695D01*
X118220000Y-84556457D01*
X118172380Y-84413600D01*
X118172380Y-84318361D01*
X118220000Y-84175504D01*
X118267619Y-84127885D01*
X118124761Y-82985028D02*
X119410476Y-83842171D01*
X119172380Y-82651695D02*
X118172380Y-82651695D01*
X118172380Y-82413600D01*
X118220000Y-82270742D01*
X118315238Y-82175504D01*
X118410476Y-82127885D01*
X118600952Y-82080266D01*
X118743809Y-82080266D01*
X118934285Y-82127885D01*
X119029523Y-82175504D01*
X119124761Y-82270742D01*
X119172380Y-82413600D01*
X119172380Y-82651695D01*
X119172380Y-78524076D02*
X118696190Y-78857409D01*
X119172380Y-79095504D02*
X118172380Y-79095504D01*
X118172380Y-78714552D01*
X118220000Y-78619314D01*
X118267619Y-78571695D01*
X118362857Y-78524076D01*
X118505714Y-78524076D01*
X118600952Y-78571695D01*
X118648571Y-78619314D01*
X118696190Y-78714552D01*
X118696190Y-79095504D01*
X119172380Y-78095504D02*
X118172380Y-78095504D01*
X118172380Y-77857409D01*
X118220000Y-77714552D01*
X118315238Y-77619314D01*
X118410476Y-77571695D01*
X118600952Y-77524076D01*
X118743809Y-77524076D01*
X118934285Y-77571695D01*
X119029523Y-77619314D01*
X119124761Y-77714552D01*
X119172380Y-77857409D01*
X119172380Y-78095504D01*
X122220380Y-76341219D02*
X121744190Y-76674552D01*
X122220380Y-76912647D02*
X121220380Y-76912647D01*
X121220380Y-76531695D01*
X121268000Y-76436457D01*
X121315619Y-76388838D01*
X121410857Y-76341219D01*
X121553714Y-76341219D01*
X121648952Y-76388838D01*
X121696571Y-76436457D01*
X121744190Y-76531695D01*
X121744190Y-76912647D01*
X122172761Y-75960266D02*
X122220380Y-75817409D01*
X122220380Y-75579314D01*
X122172761Y-75484076D01*
X122125142Y-75436457D01*
X122029904Y-75388838D01*
X121934666Y-75388838D01*
X121839428Y-75436457D01*
X121791809Y-75484076D01*
X121744190Y-75579314D01*
X121696571Y-75769790D01*
X121648952Y-75865028D01*
X121601333Y-75912647D01*
X121506095Y-75960266D01*
X121410857Y-75960266D01*
X121315619Y-75912647D01*
X121268000Y-75865028D01*
X121220380Y-75769790D01*
X121220380Y-75531695D01*
X121268000Y-75388838D01*
X121220380Y-75103123D02*
X121220380Y-74531695D01*
X122220380Y-74817409D02*
X121220380Y-74817409D01*
X119172380Y-73896457D02*
X119172380Y-74372647D01*
X118172380Y-74372647D01*
X119172380Y-73563123D02*
X118505714Y-73563123D01*
X118172380Y-73563123D02*
X118220000Y-73610742D01*
X118267619Y-73563123D01*
X118220000Y-73515504D01*
X118172380Y-73563123D01*
X118267619Y-73563123D01*
X118505714Y-73229790D02*
X118505714Y-72848838D01*
X118172380Y-73086933D02*
X119029523Y-73086933D01*
X119124761Y-73039314D01*
X119172380Y-72944076D01*
X119172380Y-72848838D01*
X119124761Y-72134552D02*
X119172380Y-72229790D01*
X119172380Y-72420266D01*
X119124761Y-72515504D01*
X119029523Y-72563123D01*
X118648571Y-72563123D01*
X118553333Y-72515504D01*
X118505714Y-72420266D01*
X118505714Y-72229790D01*
X118553333Y-72134552D01*
X118648571Y-72086933D01*
X118743809Y-72086933D01*
X118839047Y-72563123D01*
X122125142Y-86120266D02*
X122172761Y-86167885D01*
X122220380Y-86310742D01*
X122220380Y-86405980D01*
X122172761Y-86548838D01*
X122077523Y-86644076D01*
X121982285Y-86691695D01*
X121791809Y-86739314D01*
X121648952Y-86739314D01*
X121458476Y-86691695D01*
X121363238Y-86644076D01*
X121268000Y-86548838D01*
X121220380Y-86405980D01*
X121220380Y-86310742D01*
X121268000Y-86167885D01*
X121315619Y-86120266D01*
X122172761Y-85739314D02*
X122220380Y-85596457D01*
X122220380Y-85358361D01*
X122172761Y-85263123D01*
X122125142Y-85215504D01*
X122029904Y-85167885D01*
X121934666Y-85167885D01*
X121839428Y-85215504D01*
X121791809Y-85263123D01*
X121744190Y-85358361D01*
X121696571Y-85548838D01*
X121648952Y-85644076D01*
X121601333Y-85691695D01*
X121506095Y-85739314D01*
X121410857Y-85739314D01*
X121315619Y-85691695D01*
X121268000Y-85644076D01*
X121220380Y-85548838D01*
X121220380Y-85310742D01*
X121268000Y-85167885D01*
X121220380Y-71665980D02*
X122220380Y-70999314D01*
X121220380Y-70999314D02*
X122220380Y-71665980D01*
X121839428Y-70618361D02*
X121839428Y-69856457D01*
X122220380Y-70237409D02*
X121458476Y-70237409D01*
X118696190Y-68792647D02*
X119172380Y-68792647D01*
X118172380Y-69125980D02*
X118696190Y-68792647D01*
X118172380Y-68459314D01*
X118791428Y-68125980D02*
X118791428Y-67364076D01*
X119172380Y-67745028D02*
X118410476Y-67745028D01*
X118172380Y-89517409D02*
X119172380Y-89184076D01*
X118172380Y-88850742D01*
X119172380Y-88517409D02*
X118505714Y-88517409D01*
X118172380Y-88517409D02*
X118220000Y-88565028D01*
X118267619Y-88517409D01*
X118220000Y-88469790D01*
X118172380Y-88517409D01*
X118267619Y-88517409D01*
X118505714Y-88041219D02*
X119172380Y-88041219D01*
X118600952Y-88041219D02*
X118553333Y-87993600D01*
X118505714Y-87898361D01*
X118505714Y-87755504D01*
X118553333Y-87660266D01*
X118648571Y-87612647D01*
X119172380Y-87612647D01*
X122220380Y-51131695D02*
X121220380Y-51131695D01*
X121220380Y-50893600D01*
X121268000Y-50750742D01*
X121363238Y-50655504D01*
X121458476Y-50607885D01*
X121648952Y-50560266D01*
X121791809Y-50560266D01*
X121982285Y-50607885D01*
X122077523Y-50655504D01*
X122172761Y-50750742D01*
X122220380Y-50893600D01*
X122220380Y-51131695D01*
X121553714Y-49703123D02*
X122220380Y-49703123D01*
X121172761Y-49941219D02*
X121887047Y-50179314D01*
X121887047Y-49560266D01*
X170004190Y-66252647D02*
X170480380Y-66252647D01*
X169480380Y-66585980D02*
X170004190Y-66252647D01*
X169480380Y-65919314D01*
X170099428Y-65585980D02*
X170099428Y-64824076D01*
X170480380Y-65205028D02*
X169718476Y-65205028D01*
X119172380Y-58751695D02*
X118172380Y-58751695D01*
X118172380Y-58513600D01*
X118220000Y-58370742D01*
X118315238Y-58275504D01*
X118410476Y-58227885D01*
X118600952Y-58180266D01*
X118743809Y-58180266D01*
X118934285Y-58227885D01*
X119029523Y-58275504D01*
X119124761Y-58370742D01*
X119172380Y-58513600D01*
X119172380Y-58751695D01*
X119172380Y-57227885D02*
X119172380Y-57799314D01*
X119172380Y-57513600D02*
X118172380Y-57513600D01*
X118315238Y-57608838D01*
X118410476Y-57704076D01*
X118458095Y-57799314D01*
X119172380Y-53671695D02*
X118172380Y-53671695D01*
X118172380Y-53433600D01*
X118220000Y-53290742D01*
X118315238Y-53195504D01*
X118410476Y-53147885D01*
X118600952Y-53100266D01*
X118743809Y-53100266D01*
X118934285Y-53147885D01*
X119029523Y-53195504D01*
X119124761Y-53290742D01*
X119172380Y-53433600D01*
X119172380Y-53671695D01*
X118172380Y-52766933D02*
X118172380Y-52147885D01*
X118553333Y-52481219D01*
X118553333Y-52338361D01*
X118600952Y-52243123D01*
X118648571Y-52195504D01*
X118743809Y-52147885D01*
X118981904Y-52147885D01*
X119077142Y-52195504D01*
X119124761Y-52243123D01*
X119172380Y-52338361D01*
X119172380Y-52624076D01*
X119124761Y-52719314D01*
X119077142Y-52766933D01*
X170385142Y-75960266D02*
X170432761Y-76007885D01*
X170480380Y-76150742D01*
X170480380Y-76245980D01*
X170432761Y-76388838D01*
X170337523Y-76484076D01*
X170242285Y-76531695D01*
X170051809Y-76579314D01*
X169908952Y-76579314D01*
X169718476Y-76531695D01*
X169623238Y-76484076D01*
X169528000Y-76388838D01*
X169480380Y-76245980D01*
X169480380Y-76150742D01*
X169528000Y-76007885D01*
X169575619Y-75960266D01*
X170432761Y-75579314D02*
X170480380Y-75436457D01*
X170480380Y-75198361D01*
X170432761Y-75103123D01*
X170385142Y-75055504D01*
X170289904Y-75007885D01*
X170194666Y-75007885D01*
X170099428Y-75055504D01*
X170051809Y-75103123D01*
X170004190Y-75198361D01*
X169956571Y-75388838D01*
X169908952Y-75484076D01*
X169861333Y-75531695D01*
X169766095Y-75579314D01*
X169670857Y-75579314D01*
X169575619Y-75531695D01*
X169528000Y-75484076D01*
X169480380Y-75388838D01*
X169480380Y-75150742D01*
X169528000Y-75007885D01*
X167432380Y-79905028D02*
X166432380Y-79905028D01*
X167146666Y-79571695D01*
X166432380Y-79238361D01*
X167432380Y-79238361D01*
X166432380Y-78571695D02*
X166432380Y-78381219D01*
X166480000Y-78285980D01*
X166575238Y-78190742D01*
X166765714Y-78143123D01*
X167099047Y-78143123D01*
X167289523Y-78190742D01*
X167384761Y-78285980D01*
X167432380Y-78381219D01*
X167432380Y-78571695D01*
X167384761Y-78666933D01*
X167289523Y-78762171D01*
X167099047Y-78809790D01*
X166765714Y-78809790D01*
X166575238Y-78762171D01*
X166480000Y-78666933D01*
X166432380Y-78571695D01*
X167384761Y-77762171D02*
X167432380Y-77619314D01*
X167432380Y-77381219D01*
X167384761Y-77285980D01*
X167337142Y-77238361D01*
X167241904Y-77190742D01*
X167146666Y-77190742D01*
X167051428Y-77238361D01*
X167003809Y-77285980D01*
X166956190Y-77381219D01*
X166908571Y-77571695D01*
X166860952Y-77666933D01*
X166813333Y-77714552D01*
X166718095Y-77762171D01*
X166622857Y-77762171D01*
X166527619Y-77714552D01*
X166480000Y-77666933D01*
X166432380Y-77571695D01*
X166432380Y-77333600D01*
X166480000Y-77190742D01*
X167432380Y-76762171D02*
X166432380Y-76762171D01*
X166432380Y-64045980D02*
X167432380Y-63379314D01*
X166432380Y-63379314D02*
X167432380Y-64045980D01*
X167051428Y-62998361D02*
X167051428Y-62236457D01*
X167432380Y-62617409D02*
X166670476Y-62617409D01*
X170480380Y-82445028D02*
X169480380Y-82445028D01*
X170194666Y-82111695D01*
X169480380Y-81778361D01*
X170480380Y-81778361D01*
X170480380Y-81302171D02*
X169480380Y-81302171D01*
X170432761Y-80873600D02*
X170480380Y-80730742D01*
X170480380Y-80492647D01*
X170432761Y-80397409D01*
X170385142Y-80349790D01*
X170289904Y-80302171D01*
X170194666Y-80302171D01*
X170099428Y-80349790D01*
X170051809Y-80397409D01*
X170004190Y-80492647D01*
X169956571Y-80683123D01*
X169908952Y-80778361D01*
X169861333Y-80825980D01*
X169766095Y-80873600D01*
X169670857Y-80873600D01*
X169575619Y-80825980D01*
X169528000Y-80778361D01*
X169480380Y-80683123D01*
X169480380Y-80445028D01*
X169528000Y-80302171D01*
X169480380Y-79683123D02*
X169480380Y-79492647D01*
X169528000Y-79397409D01*
X169623238Y-79302171D01*
X169813714Y-79254552D01*
X170147047Y-79254552D01*
X170337523Y-79302171D01*
X170432761Y-79397409D01*
X170480380Y-79492647D01*
X170480380Y-79683123D01*
X170432761Y-79778361D01*
X170337523Y-79873600D01*
X170147047Y-79921219D01*
X169813714Y-79921219D01*
X169623238Y-79873600D01*
X169528000Y-79778361D01*
X169480380Y-79683123D01*
X167432380Y-74539314D02*
X166432380Y-74539314D01*
X166432380Y-74301219D01*
X166480000Y-74158361D01*
X166575238Y-74063123D01*
X166670476Y-74015504D01*
X166860952Y-73967885D01*
X167003809Y-73967885D01*
X167194285Y-74015504D01*
X167289523Y-74063123D01*
X167384761Y-74158361D01*
X167432380Y-74301219D01*
X167432380Y-74539314D01*
X166384761Y-72825028D02*
X167670476Y-73682171D01*
X167337142Y-71920266D02*
X167384761Y-71967885D01*
X167432380Y-72110742D01*
X167432380Y-72205980D01*
X167384761Y-72348838D01*
X167289523Y-72444076D01*
X167194285Y-72491695D01*
X167003809Y-72539314D01*
X166860952Y-72539314D01*
X166670476Y-72491695D01*
X166575238Y-72444076D01*
X166480000Y-72348838D01*
X166432380Y-72205980D01*
X166432380Y-72110742D01*
X166480000Y-71967885D01*
X166527619Y-71920266D01*
X167337142Y-42964076D02*
X167384761Y-43011695D01*
X167432380Y-43154552D01*
X167432380Y-43249790D01*
X167384761Y-43392647D01*
X167289523Y-43487885D01*
X167194285Y-43535504D01*
X167003809Y-43583123D01*
X166860952Y-43583123D01*
X166670476Y-43535504D01*
X166575238Y-43487885D01*
X166480000Y-43392647D01*
X166432380Y-43249790D01*
X166432380Y-43154552D01*
X166480000Y-43011695D01*
X166527619Y-42964076D01*
X167432380Y-42535504D02*
X166432380Y-42535504D01*
X166432380Y-42297409D01*
X166480000Y-42154552D01*
X166575238Y-42059314D01*
X166670476Y-42011695D01*
X166860952Y-41964076D01*
X167003809Y-41964076D01*
X167194285Y-42011695D01*
X167289523Y-42059314D01*
X167384761Y-42154552D01*
X167432380Y-42297409D01*
X167432380Y-42535504D01*
X167432380Y-68816457D02*
X167432380Y-69292647D01*
X166432380Y-69292647D01*
X167432380Y-68483123D02*
X166765714Y-68483123D01*
X166432380Y-68483123D02*
X166480000Y-68530742D01*
X166527619Y-68483123D01*
X166480000Y-68435504D01*
X166432380Y-68483123D01*
X166527619Y-68483123D01*
X166765714Y-68149790D02*
X166765714Y-67768838D01*
X166432380Y-68006933D02*
X167289523Y-68006933D01*
X167384761Y-67959314D01*
X167432380Y-67864076D01*
X167432380Y-67768838D01*
X167384761Y-67054552D02*
X167432380Y-67149790D01*
X167432380Y-67340266D01*
X167384761Y-67435504D01*
X167289523Y-67483123D01*
X166908571Y-67483123D01*
X166813333Y-67435504D01*
X166765714Y-67340266D01*
X166765714Y-67149790D01*
X166813333Y-67054552D01*
X166908571Y-67006933D01*
X167003809Y-67006933D01*
X167099047Y-67483123D01*
X119172380Y-48591695D02*
X118172380Y-48591695D01*
X118172380Y-48353600D01*
X118220000Y-48210742D01*
X118315238Y-48115504D01*
X118410476Y-48067885D01*
X118600952Y-48020266D01*
X118743809Y-48020266D01*
X118934285Y-48067885D01*
X119029523Y-48115504D01*
X119124761Y-48210742D01*
X119172380Y-48353600D01*
X119172380Y-48591695D01*
X118172380Y-47115504D02*
X118172380Y-47591695D01*
X118648571Y-47639314D01*
X118600952Y-47591695D01*
X118553333Y-47496457D01*
X118553333Y-47258361D01*
X118600952Y-47163123D01*
X118648571Y-47115504D01*
X118743809Y-47067885D01*
X118981904Y-47067885D01*
X119077142Y-47115504D01*
X119124761Y-47163123D01*
X119172380Y-47258361D01*
X119172380Y-47496457D01*
X119124761Y-47591695D01*
X119077142Y-47639314D01*
X167337142Y-84008838D02*
X167384761Y-84056457D01*
X167432380Y-84199314D01*
X167432380Y-84294552D01*
X167384761Y-84437409D01*
X167289523Y-84532647D01*
X167194285Y-84580266D01*
X167003809Y-84627885D01*
X166860952Y-84627885D01*
X166670476Y-84580266D01*
X166575238Y-84532647D01*
X166480000Y-84437409D01*
X166432380Y-84294552D01*
X166432380Y-84199314D01*
X166480000Y-84056457D01*
X166527619Y-84008838D01*
X167432380Y-83104076D02*
X167432380Y-83580266D01*
X166432380Y-83580266D01*
X167432380Y-82770742D02*
X166432380Y-82770742D01*
X167432380Y-82199314D02*
X166860952Y-82627885D01*
X166432380Y-82199314D02*
X167003809Y-82770742D01*
X169528000Y-91795504D02*
X169480380Y-91890742D01*
X169480380Y-92033600D01*
X169528000Y-92176457D01*
X169623238Y-92271695D01*
X169718476Y-92319314D01*
X169908952Y-92366933D01*
X170051809Y-92366933D01*
X170242285Y-92319314D01*
X170337523Y-92271695D01*
X170432761Y-92176457D01*
X170480380Y-92033600D01*
X170480380Y-91938361D01*
X170432761Y-91795504D01*
X170385142Y-91747885D01*
X170051809Y-91747885D01*
X170051809Y-91938361D01*
X170480380Y-91319314D02*
X169480380Y-91319314D01*
X170480380Y-90747885D01*
X169480380Y-90747885D01*
X170480380Y-90271695D02*
X169480380Y-90271695D01*
X169480380Y-90033600D01*
X169528000Y-89890742D01*
X169623238Y-89795504D01*
X169718476Y-89747885D01*
X169908952Y-89700266D01*
X170051809Y-89700266D01*
X170242285Y-89747885D01*
X170337523Y-89795504D01*
X170432761Y-89890742D01*
X170480380Y-90033600D01*
X170480380Y-90271695D01*
X167432380Y-48901219D02*
X166432380Y-48901219D01*
X167432380Y-48425028D02*
X166432380Y-48425028D01*
X167146666Y-48091695D01*
X166432380Y-47758361D01*
X167432380Y-47758361D01*
X166432380Y-47377409D02*
X166432380Y-46758361D01*
X166813333Y-47091695D01*
X166813333Y-46948838D01*
X166860952Y-46853600D01*
X166908571Y-46805980D01*
X167003809Y-46758361D01*
X167241904Y-46758361D01*
X167337142Y-46805980D01*
X167384761Y-46853600D01*
X167432380Y-46948838D01*
X167432380Y-47234552D01*
X167384761Y-47329790D01*
X167337142Y-47377409D01*
X121220380Y-66585980D02*
X122220380Y-65919314D01*
X121220380Y-65919314D02*
X122220380Y-66585980D01*
X121839428Y-65538361D02*
X121839428Y-64776457D01*
X166432380Y-89517409D02*
X167432380Y-89184076D01*
X166432380Y-88850742D01*
X167432380Y-88517409D02*
X166765714Y-88517409D01*
X166432380Y-88517409D02*
X166480000Y-88565028D01*
X166527619Y-88517409D01*
X166480000Y-88469790D01*
X166432380Y-88517409D01*
X166527619Y-88517409D01*
X166765714Y-88041219D02*
X167432380Y-88041219D01*
X166860952Y-88041219D02*
X166813333Y-87993600D01*
X166765714Y-87898361D01*
X166765714Y-87755504D01*
X166813333Y-87660266D01*
X166908571Y-87612647D01*
X167432380Y-87612647D01*
X170480380Y-56521219D02*
X169480380Y-56521219D01*
X170480380Y-56045028D02*
X169480380Y-56045028D01*
X170194666Y-55711695D01*
X169480380Y-55378361D01*
X170480380Y-55378361D01*
X169480380Y-54711695D02*
X169480380Y-54616457D01*
X169528000Y-54521219D01*
X169575619Y-54473600D01*
X169670857Y-54425980D01*
X169861333Y-54378361D01*
X170099428Y-54378361D01*
X170289904Y-54425980D01*
X170385142Y-54473600D01*
X170432761Y-54521219D01*
X170480380Y-54616457D01*
X170480380Y-54711695D01*
X170432761Y-54806933D01*
X170385142Y-54854552D01*
X170289904Y-54902171D01*
X170099428Y-54949790D01*
X169861333Y-54949790D01*
X169670857Y-54902171D01*
X169575619Y-54854552D01*
X169528000Y-54806933D01*
X169480380Y-54711695D01*
X170385142Y-45980266D02*
X170432761Y-46027885D01*
X170480380Y-46170742D01*
X170480380Y-46265980D01*
X170432761Y-46408838D01*
X170337523Y-46504076D01*
X170242285Y-46551695D01*
X170051809Y-46599314D01*
X169908952Y-46599314D01*
X169718476Y-46551695D01*
X169623238Y-46504076D01*
X169528000Y-46408838D01*
X169480380Y-46265980D01*
X169480380Y-46170742D01*
X169528000Y-46027885D01*
X169575619Y-45980266D01*
X170385142Y-44980266D02*
X170432761Y-45027885D01*
X170480380Y-45170742D01*
X170480380Y-45265980D01*
X170432761Y-45408838D01*
X170337523Y-45504076D01*
X170242285Y-45551695D01*
X170051809Y-45599314D01*
X169908952Y-45599314D01*
X169718476Y-45551695D01*
X169623238Y-45504076D01*
X169528000Y-45408838D01*
X169480380Y-45265980D01*
X169480380Y-45170742D01*
X169528000Y-45027885D01*
X169575619Y-44980266D01*
X170432761Y-44599314D02*
X170480380Y-44456457D01*
X170480380Y-44218361D01*
X170432761Y-44123123D01*
X170385142Y-44075504D01*
X170289904Y-44027885D01*
X170194666Y-44027885D01*
X170099428Y-44075504D01*
X170051809Y-44123123D01*
X170004190Y-44218361D01*
X169956571Y-44408838D01*
X169908952Y-44504076D01*
X169861333Y-44551695D01*
X169766095Y-44599314D01*
X169670857Y-44599314D01*
X169575619Y-44551695D01*
X169528000Y-44504076D01*
X169480380Y-44408838D01*
X169480380Y-44170742D01*
X169528000Y-44027885D01*
X122220380Y-61291695D02*
X121220380Y-61291695D01*
X121220380Y-61053600D01*
X121268000Y-60910742D01*
X121363238Y-60815504D01*
X121458476Y-60767885D01*
X121648952Y-60720266D01*
X121791809Y-60720266D01*
X121982285Y-60767885D01*
X122077523Y-60815504D01*
X122172761Y-60910742D01*
X122220380Y-61053600D01*
X122220380Y-61291695D01*
X121220380Y-60101219D02*
X121220380Y-60005980D01*
X121268000Y-59910742D01*
X121315619Y-59863123D01*
X121410857Y-59815504D01*
X121601333Y-59767885D01*
X121839428Y-59767885D01*
X122029904Y-59815504D01*
X122125142Y-59863123D01*
X122172761Y-59910742D01*
X122220380Y-60005980D01*
X122220380Y-60101219D01*
X122172761Y-60196457D01*
X122125142Y-60244076D01*
X122029904Y-60291695D01*
X121839428Y-60339314D01*
X121601333Y-60339314D01*
X121410857Y-60291695D01*
X121315619Y-60244076D01*
X121268000Y-60196457D01*
X121220380Y-60101219D01*
X170480380Y-71261219D02*
X170004190Y-71594552D01*
X170480380Y-71832647D02*
X169480380Y-71832647D01*
X169480380Y-71451695D01*
X169528000Y-71356457D01*
X169575619Y-71308838D01*
X169670857Y-71261219D01*
X169813714Y-71261219D01*
X169908952Y-71308838D01*
X169956571Y-71356457D01*
X170004190Y-71451695D01*
X170004190Y-71832647D01*
X170432761Y-70880266D02*
X170480380Y-70737409D01*
X170480380Y-70499314D01*
X170432761Y-70404076D01*
X170385142Y-70356457D01*
X170289904Y-70308838D01*
X170194666Y-70308838D01*
X170099428Y-70356457D01*
X170051809Y-70404076D01*
X170004190Y-70499314D01*
X169956571Y-70689790D01*
X169908952Y-70785028D01*
X169861333Y-70832647D01*
X169766095Y-70880266D01*
X169670857Y-70880266D01*
X169575619Y-70832647D01*
X169528000Y-70785028D01*
X169480380Y-70689790D01*
X169480380Y-70451695D01*
X169528000Y-70308838D01*
X169480380Y-70023123D02*
X169480380Y-69451695D01*
X170480380Y-69737409D02*
X169480380Y-69737409D01*
X119172380Y-43511695D02*
X118172380Y-43511695D01*
X118172380Y-43273600D01*
X118220000Y-43130742D01*
X118315238Y-43035504D01*
X118410476Y-42987885D01*
X118600952Y-42940266D01*
X118743809Y-42940266D01*
X118934285Y-42987885D01*
X119029523Y-43035504D01*
X119124761Y-43130742D01*
X119172380Y-43273600D01*
X119172380Y-43511695D01*
X118172380Y-42606933D02*
X118172380Y-41940266D01*
X119172380Y-42368838D01*
X122220380Y-56211695D02*
X121220380Y-56211695D01*
X121220380Y-55973600D01*
X121268000Y-55830742D01*
X121363238Y-55735504D01*
X121458476Y-55687885D01*
X121648952Y-55640266D01*
X121791809Y-55640266D01*
X121982285Y-55687885D01*
X122077523Y-55735504D01*
X122172761Y-55830742D01*
X122220380Y-55973600D01*
X122220380Y-56211695D01*
X121315619Y-55259314D02*
X121268000Y-55211695D01*
X121220380Y-55116457D01*
X121220380Y-54878361D01*
X121268000Y-54783123D01*
X121315619Y-54735504D01*
X121410857Y-54687885D01*
X121506095Y-54687885D01*
X121648952Y-54735504D01*
X122220380Y-55306933D01*
X122220380Y-54687885D01*
X167432380Y-53981219D02*
X166432380Y-53981219D01*
X167432380Y-53505028D02*
X166432380Y-53505028D01*
X167146666Y-53171695D01*
X166432380Y-52838361D01*
X167432380Y-52838361D01*
X167432380Y-51838361D02*
X167432380Y-52409790D01*
X167432380Y-52124076D02*
X166432380Y-52124076D01*
X166575238Y-52219314D01*
X166670476Y-52314552D01*
X166718095Y-52409790D01*
X122220380Y-46051695D02*
X121220380Y-46051695D01*
X121220380Y-45813600D01*
X121268000Y-45670742D01*
X121363238Y-45575504D01*
X121458476Y-45527885D01*
X121648952Y-45480266D01*
X121791809Y-45480266D01*
X121982285Y-45527885D01*
X122077523Y-45575504D01*
X122172761Y-45670742D01*
X122220380Y-45813600D01*
X122220380Y-46051695D01*
X121220380Y-44623123D02*
X121220380Y-44813600D01*
X121268000Y-44908838D01*
X121315619Y-44956457D01*
X121458476Y-45051695D01*
X121648952Y-45099314D01*
X122029904Y-45099314D01*
X122125142Y-45051695D01*
X122172761Y-45004076D01*
X122220380Y-44908838D01*
X122220380Y-44718361D01*
X122172761Y-44623123D01*
X122125142Y-44575504D01*
X122029904Y-44527885D01*
X121791809Y-44527885D01*
X121696571Y-44575504D01*
X121648952Y-44623123D01*
X121601333Y-44718361D01*
X121601333Y-44908838D01*
X121648952Y-45004076D01*
X121696571Y-45051695D01*
X121791809Y-45099314D01*
X170480380Y-51441219D02*
X169480380Y-51441219D01*
X170480380Y-50965028D02*
X169480380Y-50965028D01*
X170194666Y-50631695D01*
X169480380Y-50298361D01*
X170480380Y-50298361D01*
X169575619Y-49869790D02*
X169528000Y-49822171D01*
X169480380Y-49726933D01*
X169480380Y-49488838D01*
X169528000Y-49393600D01*
X169575619Y-49345980D01*
X169670857Y-49298361D01*
X169766095Y-49298361D01*
X169908952Y-49345980D01*
X170480380Y-49917409D01*
X170480380Y-49298361D01*
X118696190Y-63712647D02*
X119172380Y-63712647D01*
X118172380Y-64045980D02*
X118696190Y-63712647D01*
X118172380Y-63379314D01*
X118791428Y-63045980D02*
X118791428Y-62284076D01*
X169480380Y-86715504D02*
X169480380Y-86096457D01*
X169861333Y-86429790D01*
X169861333Y-86286933D01*
X169908952Y-86191695D01*
X169956571Y-86144076D01*
X170051809Y-86096457D01*
X170289904Y-86096457D01*
X170385142Y-86144076D01*
X170432761Y-86191695D01*
X170480380Y-86286933D01*
X170480380Y-86572647D01*
X170432761Y-86667885D01*
X170385142Y-86715504D01*
X169480380Y-85810742D02*
X170480380Y-85477409D01*
X169480380Y-85144076D01*
X166432380Y-58965980D02*
X167432380Y-58299314D01*
X166432380Y-58299314D02*
X167432380Y-58965980D01*
X167051428Y-57918361D02*
X167051428Y-57156457D01*
X170004190Y-61172647D02*
X170480380Y-61172647D01*
X169480380Y-61505980D02*
X170004190Y-61172647D01*
X169480380Y-60839314D01*
X170099428Y-60505980D02*
X170099428Y-59744076D01*
%TD*%
M02*
