M48
METRIC
T1C0.400
T2C0.762
T3C0.900
T4C1.000
T5C1.400
T6C1.600
%
G90
G05
T1
X112.522Y-123.698
X114.52Y-141.698
X115.824Y-143.002
X116.078Y-123.698
X116.332Y-154.178
X116.332Y-156.718
X117.602Y-104.902
X118.33Y-142.968
X118.872Y-122.174
X119.634Y-144.272
X120.65Y-115.57
X123.952Y-147.066
X124.206Y-115.57
X125.73Y-145.288
X125.984Y-121.412
X126.753Y-128.928
X127.508Y-112.268
X127.508Y-112.268
X128.524Y-107.442
X129.286Y-102.362
X129.54Y-127.508
X129.794Y-106.172
X134.112Y-131.826
X134.431Y-102.301
X134.907Y-137.514
X135.382Y-111.252
X137.414Y-113.03
X138.43Y-131.826
X139.7Y-154.94
X140.97Y-112.522
X141.224Y-156.464
X142.24Y-113.792
X142.251Y-101.436
X147.574Y-116.332
X149.606Y-118.364
X154.94Y-149.098
X156.899Y-149.098
X157.178Y-101.221
X157.226Y-155.702
X157.226Y-158.242
X157.452Y-128.881
X166.667Y-120.396
X168.148Y-97.79
X168.656Y-100.584
X170.688Y-60.706
X172.212Y-74.676
T2
X115.32Y-136.796
X117.86Y-136.796
X118.66Y-154.196
X120.244Y-42.774
X120.244Y-45.314
X120.244Y-47.854
X120.244Y-50.394
X120.244Y-52.934
X120.244Y-55.474
X120.244Y-58.014
X120.244Y-60.554
X120.244Y-63.094
X120.244Y-65.634
X120.244Y-85.954
X120.244Y-88.494
X120.244Y-91.034
X120.294Y-103.226
X120.4Y-136.796
X122.15Y-154.195
X122.834Y-103.226
X122.94Y-136.796
X125.374Y-103.226
X125.48Y-136.796
X127.914Y-103.226
X130.454Y-103.226
X132.182Y-99.568
X132.994Y-103.226
X134.722Y-99.568
X135.534Y-103.226
X137.262Y-99.568
X138.074Y-103.226
X139.802Y-99.568
X140.614Y-103.226
X140.614Y-105.766
X142.342Y-99.568
X143.154Y-103.226
X143.154Y-105.766
X144.882Y-99.568
X145.694Y-103.226
X145.694Y-105.766
X147.422Y-99.568
X148.234Y-103.226
X148.234Y-105.766
X149.962Y-99.568
X150.774Y-103.226
X150.774Y-105.766
X153.314Y-103.226
X153.314Y-105.766
X155.854Y-103.226
X155.854Y-105.766
X158.394Y-103.226
X158.394Y-105.766
X160.934Y-103.226
X160.934Y-105.766
X163.474Y-103.226
X163.474Y-105.766
X166.014Y-103.226
X166.014Y-105.766
X168.504Y-42.774
X168.504Y-45.314
X168.504Y-47.854
X168.504Y-50.394
X168.504Y-52.934
X168.504Y-55.474
X168.504Y-58.014
X168.504Y-60.554
X168.504Y-63.094
X168.504Y-65.634
X168.504Y-68.174
X168.504Y-70.714
X168.504Y-73.254
X168.504Y-75.794
X168.504Y-78.334
X168.504Y-80.874
X168.504Y-83.414
X168.504Y-85.954
X168.504Y-88.494
X168.504Y-91.034
X168.554Y-103.226
X168.554Y-105.766
T3
X173.787Y-63.794
X173.787Y-68.794
T4
X112.382Y-135.509
X112.382Y-138.049
X112.382Y-140.589
X112.382Y-143.129
X112.382Y-145.669
X112.382Y-148.209
X112.382Y-150.749
X112.382Y-153.289
X112.382Y-155.829
X120.581Y-73.851
X120.581Y-77.851
X120.581Y-81.851
X172.923Y-134.62
X175.463Y-134.62
T5
X110.581Y-72.851
X110.581Y-82.851
T6
X149.149Y-151.782
X149.149Y-157.782
T0
M30
