%TF.GenerationSoftware,KiCad,Pcbnew,(5.1.9)-1*%
%TF.CreationDate,2021-03-20T17:22:00+11:00*%
%TF.ProjectId,GBC_motherboard,4742435f-6d6f-4746-9865-72626f617264,rev?*%
%TF.SameCoordinates,Original*%
%TF.FileFunction,Profile,NP*%
%FSLAX46Y46*%
G04 Gerber Fmt 4.6, Leading zero omitted, Abs format (unit mm)*
G04 Created by KiCad (PCBNEW (5.1.9)-1) date 2021-03-20 17:22:00*
%MOMM*%
%LPD*%
G01*
G04 APERTURE LIST*
%TA.AperFunction,Profile*%
%ADD10C,0.050000*%
%TD*%
%TA.AperFunction,Profile*%
%ADD11C,0.000400*%
%TD*%
G04 APERTURE END LIST*
D10*
X122224800Y-39116000D02*
X122224800Y-98552000D01*
X166420800Y-98552000D02*
X166420800Y-39116000D01*
X166420800Y-98552000D02*
X122224800Y-98552000D01*
X122224800Y-39116000D02*
X122224800Y-38653817D01*
X112177028Y-38653817D02*
X122224800Y-38653817D01*
X166420800Y-39116000D02*
X166420800Y-38618375D01*
X179664675Y-38618375D02*
X166420800Y-38618375D01*
D11*
%TO.C,REF\u002A\u002A*%
X157804500Y-136710375D02*
X157589839Y-136705357D01*
X158019160Y-136705357D02*
X157804500Y-136710375D01*
X131446750Y-135860125D02*
X131232089Y-135855107D01*
X131661410Y-135855107D02*
X131446750Y-135860125D01*
X132853179Y-134450500D02*
X132848437Y-134646741D01*
X132848437Y-134254260D02*
X132853179Y-134450500D01*
X111488250Y-133891125D02*
X111273589Y-133886107D01*
X111702910Y-133886107D02*
X111488250Y-133891125D01*
X133281500Y-129997875D02*
X133066839Y-129992857D01*
X133496160Y-129992857D02*
X133281500Y-129997875D01*
X134687929Y-128588250D02*
X134683187Y-128784491D01*
X134683187Y-128392010D02*
X134687929Y-128588250D01*
X176778500Y-128879125D02*
X176563839Y-128874107D01*
X176993160Y-128874107D02*
X176778500Y-128879125D01*
X178187250Y-127469500D02*
X178182518Y-127666817D01*
X178182518Y-127272184D02*
X178187250Y-127469500D01*
X164339993Y-124049601D02*
X164444671Y-123824081D01*
X164270875Y-124650250D02*
X164275519Y-124350514D01*
X164275519Y-124949987D02*
X164270875Y-124650250D01*
X164444671Y-125476420D02*
X164339993Y-125250900D01*
X164524701Y-125624468D02*
X164444671Y-125476420D01*
X164621524Y-125778539D02*
X164524701Y-125624468D01*
X164719812Y-125916383D02*
X164621524Y-125778539D01*
X168050256Y-125250900D02*
X167945578Y-125476420D01*
X168119375Y-124650250D02*
X168114730Y-124949987D01*
X168114730Y-124350514D02*
X168119375Y-124650250D01*
X167945578Y-123824081D02*
X168050256Y-124049601D01*
X167865548Y-123676033D02*
X167945578Y-123824081D01*
X167768725Y-123521962D02*
X167865548Y-123676033D01*
X167670437Y-123384118D02*
X167768725Y-123521962D01*
X138651500Y-122077125D02*
X138436839Y-122072107D01*
X138866160Y-122072107D02*
X138651500Y-122077125D01*
X140057929Y-120667500D02*
X140053187Y-120863741D01*
X140053187Y-120471260D02*
X140057929Y-120667500D01*
X161189537Y-112364530D02*
X161344842Y-112439825D01*
X160745005Y-112275026D02*
X160921098Y-112290728D01*
X160490444Y-112271534D02*
X160745005Y-112275026D01*
X159908428Y-112459690D02*
X160129454Y-112351379D01*
X160135086Y-114939589D02*
X159956787Y-114850709D01*
X160646125Y-115005492D02*
X160402249Y-115000591D01*
X160890000Y-115000591D02*
X160646125Y-115005492D01*
X161335462Y-114850709D02*
X161157163Y-114939589D01*
X111443500Y-90841625D02*
X111228839Y-90836607D01*
X111658160Y-90836607D02*
X111443500Y-90841625D01*
X176957500Y-90752125D02*
X176742839Y-90747107D01*
X177172160Y-90747107D02*
X176957500Y-90752125D01*
X178366250Y-89342500D02*
X178361518Y-89539817D01*
X178361518Y-89145184D02*
X178366250Y-89342500D01*
X111622500Y-47299875D02*
X111407839Y-47294857D01*
X111837160Y-47294857D02*
X111622500Y-47299875D01*
X177315500Y-46360125D02*
X177100839Y-46355107D01*
X177530160Y-46355107D02*
X177315500Y-46360125D01*
X178724250Y-44950500D02*
X178719518Y-45147817D01*
X178719518Y-44753184D02*
X178724250Y-44950500D01*
X179664875Y-46002125D02*
X179664875Y-38618375D01*
X179664875Y-53385875D02*
X179664875Y-46002125D01*
X178763410Y-53397975D02*
X179664875Y-53385875D01*
X178317037Y-53406667D02*
X178763410Y-53397975D01*
X178046266Y-53420284D02*
X178317037Y-53406667D01*
X177868541Y-53438587D02*
X178046266Y-53420284D01*
X177772385Y-54424059D02*
X177787148Y-53538309D01*
X177759935Y-55596104D02*
X177772385Y-54424059D01*
X177752062Y-57395285D02*
X177759935Y-55596104D01*
X177740625Y-61261875D02*
X177752062Y-57395285D01*
X176536062Y-61273808D02*
X177740625Y-61261875D01*
X176002943Y-61281943D02*
X176536062Y-61273808D01*
X175619801Y-61295196D02*
X176002943Y-61281943D01*
X175331221Y-61311599D02*
X175619801Y-61295196D01*
X175205456Y-66408099D02*
X175206608Y-61474124D01*
X175206546Y-71342076D02*
X175205456Y-66408099D01*
X175599665Y-71520886D02*
X175330057Y-71504341D01*
X175956433Y-71534232D02*
X175599665Y-71520886D01*
X176446498Y-71542390D02*
X175956433Y-71534232D01*
X177561625Y-71554375D02*
X176446498Y-71542390D01*
X177572998Y-76808139D02*
X177561625Y-71554375D01*
X177580831Y-79263112D02*
X177572998Y-76808139D01*
X177593184Y-80847510D02*
X177580831Y-79263112D01*
X177607696Y-82051090D02*
X177593184Y-80847510D01*
X177820528Y-82169516D02*
X177683901Y-82150417D01*
X178024439Y-82183674D02*
X177820528Y-82169516D01*
X178338070Y-82192518D02*
X178024439Y-82183674D01*
X178993625Y-82204875D02*
X178338070Y-82192518D01*
X178993625Y-90349375D02*
X178993625Y-82204875D01*
X178993625Y-98493875D02*
X178993625Y-90349375D01*
X178392451Y-98506419D02*
X178993625Y-98493875D01*
X178148781Y-98514789D02*
X178392451Y-98506419D01*
X177944094Y-98529201D02*
X178148781Y-98514789D01*
X177780352Y-98547067D02*
X177944094Y-98529201D01*
X177667315Y-100932770D02*
X177669582Y-98701225D01*
X177669627Y-103164314D02*
X177667315Y-100932770D01*
X177949241Y-103336437D02*
X177781076Y-103318660D01*
X178160560Y-103350765D02*
X177949241Y-103336437D01*
X178414874Y-103359122D02*
X178160560Y-103350765D01*
X179038375Y-103371625D02*
X178414874Y-103359122D01*
X179038375Y-120689875D02*
X179038375Y-103371625D01*
X179038375Y-138008125D02*
X179038375Y-120689875D01*
X173511750Y-138036456D02*
X179038375Y-138008125D01*
X171184395Y-138051257D02*
X173511750Y-138036456D01*
X169376125Y-138069675D02*
X171184395Y-138051257D01*
X167929623Y-138089881D02*
X169376125Y-138069675D01*
X166811386Y-138255542D02*
X167649500Y-138111358D01*
X166042765Y-138446128D02*
X166811386Y-138255542D01*
X165318154Y-138690346D02*
X166042765Y-138446128D01*
X164612349Y-138995445D02*
X165318154Y-138690346D01*
X159921825Y-144118092D02*
X160261959Y-143333375D01*
X159373201Y-146555375D02*
X159483494Y-145707168D01*
X159352450Y-146989576D02*
X159373201Y-146555375D01*
X159339020Y-148638815D02*
X159352450Y-146989576D01*
X159329569Y-150751936D02*
X159339020Y-148638815D01*
X159326461Y-153486326D02*
X159329569Y-150751936D01*
X159326000Y-159880277D02*
X159326461Y-153486326D01*
X159135466Y-160070811D02*
X159326000Y-159880277D01*
X156148750Y-160583279D02*
X157786529Y-160468440D01*
X155475066Y-160625468D02*
X156148750Y-160583279D01*
X154547259Y-160679897D02*
X155475066Y-160625468D01*
X153544431Y-160736495D02*
X154547259Y-160679897D01*
X152613500Y-160786715D02*
X153544431Y-160736495D01*
X151705432Y-160835172D02*
X152613500Y-160786715D01*
X150771757Y-160886427D02*
X151705432Y-160835172D01*
X149939289Y-160933349D02*
X150771757Y-160886427D01*
X149391500Y-160965959D02*
X149939289Y-160933349D01*
X148666573Y-160997655D02*
X149391500Y-160965959D01*
X147637997Y-161017092D02*
X148666573Y-160997655D01*
X146194055Y-161028169D02*
X147637997Y-161017092D01*
X144050227Y-161031561D02*
X146194055Y-161028169D01*
X140830751Y-161018467D02*
X144050227Y-161031561D01*
X138692144Y-160972034D02*
X140830751Y-161018467D01*
X136326804Y-160863224D02*
X138692144Y-160972034D01*
X131939000Y-160605301D02*
X136326804Y-160863224D01*
X130759338Y-160521922D02*
X131939000Y-160605301D01*
X129372397Y-160401585D02*
X130759338Y-160521922D01*
X128053099Y-160271049D02*
X129372397Y-160401585D01*
X127128375Y-160158380D02*
X128053099Y-160271049D01*
X125916352Y-159989348D02*
X127128375Y-160158380D01*
X122066960Y-159449645D02*
X125916352Y-159989348D01*
X118308238Y-158922310D02*
X122066960Y-159449645D01*
X116455500Y-158661592D02*
X118308238Y-158922310D01*
X114484281Y-158332788D02*
X116455500Y-158661592D01*
X112830356Y-157943654D02*
X114484281Y-158332788D01*
X109418736Y-151954461D02*
X109432940Y-154912164D01*
X109409031Y-146925735D02*
X109418736Y-151954461D01*
X109407375Y-132682875D02*
X109409031Y-146925735D01*
X109407375Y-110352625D02*
X109407375Y-132682875D01*
X109899625Y-110327643D02*
X109407375Y-110352625D01*
X110141944Y-110310953D02*
X109899625Y-110327643D01*
X110326311Y-110287521D02*
X110141944Y-110310953D01*
X110161428Y-107603708D02*
X110325498Y-107633147D01*
X109981007Y-107578628D02*
X110161428Y-107603708D01*
X109810125Y-107562321D02*
X109981007Y-107578628D01*
X109407375Y-107533375D02*
X109810125Y-107562321D01*
X109407375Y-105474875D02*
X109407375Y-107533375D01*
X109407375Y-103416375D02*
X109407375Y-105474875D01*
X110023201Y-103432615D02*
X109407375Y-103416375D01*
X110316522Y-103437410D02*
X110023201Y-103432615D01*
X110512824Y-103432420D02*
X110316522Y-103437410D01*
X110646703Y-103419480D02*
X110512824Y-103432420D01*
X110760467Y-102942368D02*
X110745157Y-103314986D01*
X110770112Y-102333327D02*
X110760467Y-102942368D01*
X110772250Y-101044625D02*
X110770112Y-102333327D01*
X110769927Y-99844898D02*
X110772250Y-101044625D01*
X110760536Y-99197455D02*
X110769927Y-99844898D01*
X110746746Y-98769692D02*
X110760536Y-99197455D01*
X110501655Y-98663451D02*
X110665397Y-98681317D01*
X110296968Y-98649039D02*
X110501655Y-98663451D01*
X110053298Y-98640669D02*
X110296968Y-98649039D01*
X109452125Y-98628125D02*
X110053298Y-98640669D01*
X109441964Y-78020750D02*
X109452125Y-98628125D01*
X109440463Y-69524019D02*
X109441964Y-78020750D01*
X109444345Y-61034909D02*
X109440463Y-69524019D01*
X109452375Y-53628781D02*
X109444345Y-61034909D01*
X109464339Y-49134625D02*
X109452375Y-53628781D01*
X109496875Y-40855875D02*
X109464339Y-49134625D01*
X110768519Y-40843978D02*
X109496875Y-40855875D01*
X111333951Y-40835859D02*
X110768519Y-40843978D01*
X111736864Y-40822666D02*
X111333951Y-40835859D01*
X112039738Y-40806361D02*
X111736864Y-40822666D01*
X112147136Y-40528080D02*
X112131350Y-40723775D01*
X112156947Y-40223585D02*
X112147136Y-40528080D01*
X112159500Y-39694354D02*
X112156947Y-40223585D01*
X112161653Y-39294024D02*
X112159500Y-39694354D01*
X112168272Y-38952009D02*
X112161653Y-39294024D01*
X112177228Y-38653817D02*
X112168272Y-38952009D01*
X112131350Y-40723775D02*
G75*
G02*
X112099832Y-40782562I-88102J9392D01*
G01*
X112099832Y-40782562D02*
G75*
G02*
X112039738Y-40806361I-66488J80114D01*
G01*
X110665397Y-98681317D02*
G75*
G02*
X110713361Y-98702086I-11586J-92523D01*
G01*
X110713362Y-98702086D02*
G75*
G02*
X110746746Y-98769692I-59129J-71245D01*
G01*
X110745157Y-103314987D02*
G75*
G02*
X110705639Y-103393574I-109638J5903D01*
G01*
X110705639Y-103393573D02*
G75*
G02*
X110646703Y-103419480I-74757J90076D01*
G01*
X110325498Y-107633147D02*
G75*
G02*
X110440489Y-107662567I-219272J-1096479D01*
G01*
X110440489Y-107662566D02*
G75*
G02*
X111102295Y-108123682I-401514J-1281743D01*
G01*
X111102295Y-108123682D02*
G75*
G02*
X111388021Y-108885039I-1095390J-845376D01*
G01*
X111388021Y-108885039D02*
G75*
G02*
X111196566Y-109674727I-1378450J-83856D01*
G01*
X111196566Y-109674726D02*
G75*
G02*
X110595523Y-110211039I-1149974J683819D01*
G01*
X110595523Y-110211039D02*
G75*
G02*
X110472778Y-110255215I-346547J770285D01*
G01*
X110472778Y-110255215D02*
G75*
G02*
X110326311Y-110287521I-389207J1416393D01*
G01*
X109489334Y-155278687D02*
G75*
G02*
X109432940Y-154912164I1212138J374104D01*
G01*
X109688640Y-155770011D02*
G75*
G02*
X109489335Y-155278687I2749473J1401410D01*
G01*
X109984725Y-156266244D02*
G75*
G02*
X109688641Y-155770011I3572857J2468236D01*
G01*
X110341479Y-156715154D02*
G75*
G02*
X109984725Y-156266245I3168431J2884211D01*
G01*
X110722802Y-157064176D02*
G75*
G02*
X110341479Y-156715154I1719196J2261120D01*
G01*
X111533642Y-157515603D02*
G75*
G02*
X110722802Y-157064176I1172573J3060059D01*
G01*
X112830356Y-157943654D02*
G75*
G02*
X111533642Y-157515603I3893773J13973690D01*
G01*
X158459398Y-160385748D02*
G75*
G02*
X157786529Y-160468440I-1203531J7014288D01*
G01*
X158845882Y-160269195D02*
G75*
G02*
X158459398Y-160385748I-664756J1505240D01*
G01*
X159135466Y-160070810D02*
G75*
G02*
X158845882Y-160269195I-675527J675526D01*
G01*
X159483494Y-145707168D02*
G75*
G02*
X159664295Y-144902032I8426843J-1469457D01*
G01*
X159664295Y-144902032D02*
G75*
G02*
X159921825Y-144118092I8245409J-2274416D01*
G01*
X160261959Y-143333376D02*
G75*
G02*
X161070221Y-141957453I9119279J-4431599D01*
G01*
X161070222Y-141957453D02*
G75*
G02*
X162057040Y-140781971I7119890J-4975199D01*
G01*
X162057040Y-140781971D02*
G75*
G02*
X163235041Y-139798841I6129263J-6146862D01*
G01*
X163235041Y-139798841D02*
G75*
G02*
X164612349Y-138995445I5767956J-8306042D01*
G01*
X167649499Y-138111358D02*
G75*
G02*
X167929623Y-138089881I314850J-2268994D01*
G01*
X177781075Y-103318661D02*
G75*
G02*
X177732436Y-103297705I11322J93205D01*
G01*
X177732437Y-103297705D02*
G75*
G02*
X177669627Y-103164314I111002J133750D01*
G01*
X177669581Y-98701226D02*
G75*
G02*
X177732388Y-98567836I173805J-354D01*
G01*
X177732388Y-98567836D02*
G75*
G02*
X177780352Y-98547067I59550J-71754D01*
G01*
X177683901Y-82150417D02*
G75*
G02*
X177633443Y-82121031I14936J83658D01*
G01*
X177633443Y-82121031D02*
G75*
G02*
X177607696Y-82051090I85989J71364D01*
G01*
X175330057Y-71504341D02*
G75*
G02*
X175271810Y-71480973I7204J102231D01*
G01*
X175271811Y-71480973D02*
G75*
G02*
X175206546Y-71342076I115341J138978D01*
G01*
X175206608Y-61474124D02*
G75*
G02*
X175271874Y-61335225I180612J-83D01*
G01*
X175271874Y-61335225D02*
G75*
G02*
X175331221Y-61311599I66068J-79607D01*
G01*
X177787148Y-53538310D02*
G75*
G02*
X177812722Y-53469384I111017J-1984D01*
G01*
X177812722Y-53469384D02*
G75*
G02*
X177868541Y-53438587I67156J-55734D01*
G01*
X177966902Y-43674402D02*
G75*
G02*
X178166174Y-43796487I-543303J-1110473D01*
G01*
X178166175Y-43796487D02*
G75*
G02*
X178350987Y-43960142I-922844J-1228330D01*
G01*
X178350987Y-43960142D02*
G75*
G02*
X178509132Y-44153312I-1131958J-1088035D01*
G01*
X178509132Y-44153313D02*
G75*
G02*
X178629042Y-44363273I-1136205J-788114D01*
G01*
X178629041Y-44363273D02*
G75*
G02*
X178675322Y-44483954I-901513J-414940D01*
G01*
X178675323Y-44483953D02*
G75*
G02*
X178704179Y-44606707I-859082J-266717D01*
G01*
X178704178Y-44606707D02*
G75*
G02*
X178719518Y-44753184I-1289760J-209111D01*
G01*
X178719519Y-45147817D02*
G75*
G02*
X178704179Y-45294294I-1305101J62634D01*
G01*
X178704178Y-45294294D02*
G75*
G02*
X178675322Y-45417047I-887937J143963D01*
G01*
X178675323Y-45417047D02*
G75*
G02*
X178629042Y-45537728I-947795J294259D01*
G01*
X178629042Y-45537728D02*
G75*
G02*
X178507329Y-45750459I-1262007J580865D01*
G01*
X178507330Y-45750459D02*
G75*
G02*
X178347432Y-45944149I-1256725J874625D01*
G01*
X178347432Y-45944148D02*
G75*
G02*
X178158175Y-46108932I-1094903J1066440D01*
G01*
X178158175Y-46108932D02*
G75*
G02*
X177949184Y-46235730I-816123J1109519D01*
G01*
X177949184Y-46235731D02*
G75*
G02*
X177798504Y-46301635I-820769J1671358D01*
G01*
X177798504Y-46301635D02*
G75*
G02*
X177673099Y-46337829I-269840J699582D01*
G01*
X177673099Y-46337829D02*
G75*
G02*
X177530160Y-46355107I-188721J961364D01*
G01*
X177100839Y-46355107D02*
G75*
G02*
X176957900Y-46337829I45782J978642D01*
G01*
X176957900Y-46337829D02*
G75*
G02*
X176832495Y-46301635I144435J735776D01*
G01*
X176832495Y-46301634D02*
G75*
G02*
X176681815Y-46235730I670089J1737261D01*
G01*
X176681815Y-46235730D02*
G75*
G02*
X176472416Y-46108659I607752J1237581D01*
G01*
X176472415Y-46108659D02*
G75*
G02*
X176283063Y-45943621I903005J1227183D01*
G01*
X176283063Y-45943621D02*
G75*
G02*
X176123617Y-45749940I1089656J1059521D01*
G01*
X176123618Y-45749940D02*
G75*
G02*
X176003118Y-45537728I1119451J775971D01*
G01*
X176003118Y-45537727D02*
G75*
G02*
X175928274Y-45283422I861627J391748D01*
G01*
X175928273Y-45283423D02*
G75*
G02*
X175903842Y-44951480I2280697J334732D01*
G01*
X175903843Y-44951479D02*
G75*
G02*
X175927451Y-44619809I2302451J2787D01*
G01*
X175927450Y-44619809D02*
G75*
G02*
X176001700Y-44366477I924543J-133429D01*
G01*
X176001701Y-44366477D02*
G75*
G02*
X176161138Y-44095316I1370515J-623385D01*
G01*
X176161138Y-44095316D02*
G75*
G02*
X176371299Y-43867794I1139226J-841474D01*
G01*
X176371299Y-43867795D02*
G75*
G02*
X176624365Y-43692759I916231J-1054228D01*
G01*
X176624365Y-43692759D02*
G75*
G02*
X176910537Y-43576607I672972J-1247440D01*
G01*
X176910537Y-43576607D02*
G75*
G02*
X177156895Y-43535526I307181J-1082902D01*
G01*
X177156895Y-43535526D02*
G75*
G02*
X177444540Y-43541028I106300J-1964371D01*
G01*
X177444540Y-43541028D02*
G75*
G02*
X177729261Y-43588542I-182315J-1969325D01*
G01*
X177729261Y-43588542D02*
G75*
G02*
X177966902Y-43674402I-275996J-1135698D01*
G01*
X112273902Y-44614152D02*
G75*
G02*
X112473579Y-44736509I-543931J-1111758D01*
G01*
X112473579Y-44736510D02*
G75*
G02*
X112658477Y-44900414I-919905J-1223974D01*
G01*
X112658478Y-44900414D02*
G75*
G02*
X112816169Y-45093574I-1124452J-1078923D01*
G01*
X112816168Y-45093574D02*
G75*
G02*
X112934881Y-45303023I-1115337J-770525D01*
G01*
X112934881Y-45303023D02*
G75*
G02*
X113010010Y-45558234I-865102J-393329D01*
G01*
X113010010Y-45558234D02*
G75*
G02*
X113034266Y-45890250I-2260174J-332017D01*
G01*
X113034266Y-45890251D02*
G75*
G02*
X113010010Y-46222267I-2284430J1D01*
G01*
X113010010Y-46222267D02*
G75*
G02*
X112934881Y-46477478I-940231J138118D01*
G01*
X112934881Y-46477478D02*
G75*
G02*
X112814382Y-46689690I-1239951J563759D01*
G01*
X112814382Y-46689690D02*
G75*
G02*
X112654936Y-46883371I-1249102J865840D01*
G01*
X112654935Y-46883371D02*
G75*
G02*
X112465583Y-47048409I-1092356J1062145D01*
G01*
X112465583Y-47048409D02*
G75*
G02*
X112256184Y-47175480I-817151J1110510D01*
G01*
X112256184Y-47175481D02*
G75*
G02*
X112105504Y-47241385I-820769J1671358D01*
G01*
X112105504Y-47241385D02*
G75*
G02*
X111980099Y-47277579I-269840J699582D01*
G01*
X111980099Y-47277579D02*
G75*
G02*
X111837160Y-47294857I-188721J961364D01*
G01*
X111407839Y-47294857D02*
G75*
G02*
X111264900Y-47277579I45782J978642D01*
G01*
X111264900Y-47277579D02*
G75*
G02*
X111139495Y-47241385I144435J735776D01*
G01*
X111139495Y-47241384D02*
G75*
G02*
X110988815Y-47175480I670089J1737261D01*
G01*
X110988815Y-47175480D02*
G75*
G02*
X110439777Y-46694456I618872J1260223D01*
G01*
X110439776Y-46694455D02*
G75*
G02*
X110200044Y-45998303I1206157J804715D01*
G01*
X110200044Y-45998303D02*
G75*
G02*
X110332859Y-45272509I1453245J109116D01*
G01*
X110332859Y-45272510D02*
G75*
G02*
X110803745Y-44710666I1288797J-601903D01*
G01*
X110803745Y-44710665D02*
G75*
G02*
X111130678Y-44548258I695118J-989035D01*
G01*
X111130678Y-44548258D02*
G75*
G02*
X111516849Y-44474983I491991J-1538633D01*
G01*
X111516849Y-44474983D02*
G75*
G02*
X111914166Y-44496838I108417J-1651476D01*
G01*
X111914166Y-44496839D02*
G75*
G02*
X112273902Y-44614152I-237039J-1337078D01*
G01*
X177608902Y-88066402D02*
G75*
G02*
X177808174Y-88188487I-543303J-1110473D01*
G01*
X177808175Y-88188487D02*
G75*
G02*
X177992987Y-88352142I-922844J-1228330D01*
G01*
X177992987Y-88352142D02*
G75*
G02*
X178151132Y-88545312I-1131958J-1088035D01*
G01*
X178151132Y-88545313D02*
G75*
G02*
X178271042Y-88755273I-1136205J-788114D01*
G01*
X178271041Y-88755273D02*
G75*
G02*
X178317322Y-88875954I-901513J-414940D01*
G01*
X178317323Y-88875953D02*
G75*
G02*
X178346179Y-88998707I-859082J-266717D01*
G01*
X178346178Y-88998707D02*
G75*
G02*
X178361518Y-89145184I-1289760J-209111D01*
G01*
X178361519Y-89539817D02*
G75*
G02*
X178346179Y-89686294I-1305101J62634D01*
G01*
X178346178Y-89686294D02*
G75*
G02*
X178317322Y-89809047I-887937J143963D01*
G01*
X178317323Y-89809047D02*
G75*
G02*
X178271042Y-89929728I-947795J294259D01*
G01*
X178271042Y-89929728D02*
G75*
G02*
X178149329Y-90142459I-1262007J580865D01*
G01*
X178149330Y-90142459D02*
G75*
G02*
X177989432Y-90336149I-1256725J874625D01*
G01*
X177989432Y-90336148D02*
G75*
G02*
X177800175Y-90500932I-1094903J1066440D01*
G01*
X177800175Y-90500932D02*
G75*
G02*
X177591184Y-90627730I-816123J1109519D01*
G01*
X177591184Y-90627731D02*
G75*
G02*
X177440504Y-90693635I-820769J1671358D01*
G01*
X177440504Y-90693635D02*
G75*
G02*
X177315099Y-90729829I-269840J699582D01*
G01*
X177315099Y-90729829D02*
G75*
G02*
X177172160Y-90747107I-188721J961364D01*
G01*
X176742839Y-90747107D02*
G75*
G02*
X176599900Y-90729829I45782J978642D01*
G01*
X176599900Y-90729829D02*
G75*
G02*
X176474495Y-90693635I144435J735776D01*
G01*
X176474495Y-90693634D02*
G75*
G02*
X176323815Y-90627730I670089J1737261D01*
G01*
X176323815Y-90627730D02*
G75*
G02*
X176114416Y-90500659I607752J1237581D01*
G01*
X176114415Y-90500659D02*
G75*
G02*
X175925063Y-90335621I903005J1227183D01*
G01*
X175925063Y-90335621D02*
G75*
G02*
X175765617Y-90141940I1089656J1059521D01*
G01*
X175765618Y-90141940D02*
G75*
G02*
X175645118Y-89929728I1119451J775971D01*
G01*
X175645118Y-89929727D02*
G75*
G02*
X175570274Y-89675422I861627J391748D01*
G01*
X175570273Y-89675423D02*
G75*
G02*
X175545842Y-89343480I2280697J334732D01*
G01*
X175545843Y-89343479D02*
G75*
G02*
X175569451Y-89011809I2302451J2787D01*
G01*
X175569450Y-89011809D02*
G75*
G02*
X175643700Y-88758477I924543J-133429D01*
G01*
X175643701Y-88758477D02*
G75*
G02*
X175803138Y-88487316I1370515J-623385D01*
G01*
X175803138Y-88487316D02*
G75*
G02*
X176013299Y-88259794I1139226J-841474D01*
G01*
X176013299Y-88259795D02*
G75*
G02*
X176266365Y-88084759I916231J-1054228D01*
G01*
X176266365Y-88084759D02*
G75*
G02*
X176552537Y-87968607I672972J-1247440D01*
G01*
X176552537Y-87968607D02*
G75*
G02*
X176798895Y-87927526I307181J-1082902D01*
G01*
X176798895Y-87927526D02*
G75*
G02*
X177086540Y-87933028I106300J-1964371D01*
G01*
X177086540Y-87933028D02*
G75*
G02*
X177371261Y-87980542I-182315J-1969325D01*
G01*
X177371261Y-87980542D02*
G75*
G02*
X177608902Y-88066402I-275996J-1135698D01*
G01*
X112094902Y-88155902D02*
G75*
G02*
X112294579Y-88278259I-543931J-1111758D01*
G01*
X112294579Y-88278260D02*
G75*
G02*
X112479477Y-88442164I-919905J-1223974D01*
G01*
X112479478Y-88442164D02*
G75*
G02*
X112637169Y-88635324I-1124452J-1078923D01*
G01*
X112637168Y-88635324D02*
G75*
G02*
X112755881Y-88844773I-1115337J-770525D01*
G01*
X112755881Y-88844773D02*
G75*
G02*
X112831010Y-89099984I-865102J-393329D01*
G01*
X112831010Y-89099984D02*
G75*
G02*
X112855266Y-89432000I-2260174J-332017D01*
G01*
X112855266Y-89432001D02*
G75*
G02*
X112831010Y-89764017I-2284430J1D01*
G01*
X112831010Y-89764017D02*
G75*
G02*
X112755881Y-90019228I-940231J138118D01*
G01*
X112755881Y-90019228D02*
G75*
G02*
X112635382Y-90231440I-1239951J563759D01*
G01*
X112635382Y-90231440D02*
G75*
G02*
X112475936Y-90425121I-1249102J865840D01*
G01*
X112475935Y-90425121D02*
G75*
G02*
X112286583Y-90590159I-1092356J1062145D01*
G01*
X112286583Y-90590159D02*
G75*
G02*
X112077184Y-90717230I-817151J1110510D01*
G01*
X112077184Y-90717231D02*
G75*
G02*
X111926504Y-90783135I-820769J1671358D01*
G01*
X111926504Y-90783135D02*
G75*
G02*
X111801099Y-90819329I-269840J699582D01*
G01*
X111801099Y-90819329D02*
G75*
G02*
X111658160Y-90836607I-188721J961364D01*
G01*
X111228839Y-90836607D02*
G75*
G02*
X111085900Y-90819329I45782J978642D01*
G01*
X111085900Y-90819329D02*
G75*
G02*
X110960495Y-90783135I144435J735776D01*
G01*
X110960495Y-90783134D02*
G75*
G02*
X110809815Y-90717230I670089J1737261D01*
G01*
X110809815Y-90717230D02*
G75*
G02*
X110260777Y-90236206I618872J1260223D01*
G01*
X110260776Y-90236205D02*
G75*
G02*
X110021044Y-89540053I1206157J804715D01*
G01*
X110021044Y-89540053D02*
G75*
G02*
X110153859Y-88814259I1453245J109116D01*
G01*
X110153859Y-88814260D02*
G75*
G02*
X110624745Y-88252416I1288797J-601903D01*
G01*
X110624745Y-88252415D02*
G75*
G02*
X110951678Y-88090008I695118J-989035D01*
G01*
X110951678Y-88090008D02*
G75*
G02*
X111337849Y-88016733I491991J-1538633D01*
G01*
X111337849Y-88016733D02*
G75*
G02*
X111735166Y-88038588I108417J-1651476D01*
G01*
X111735166Y-88038589D02*
G75*
G02*
X112094902Y-88155902I-237039J-1337078D01*
G01*
X161344842Y-112439825D02*
G75*
G02*
X161650892Y-112653883I-729817J-1369277D01*
G01*
X161650892Y-112653882D02*
G75*
G02*
X161862583Y-112916919I-698094J-778528D01*
G01*
X161862583Y-112916920D02*
G75*
G02*
X161984964Y-113242280I-974964J-552419D01*
G01*
X161984964Y-113242279D02*
G75*
G02*
X162025860Y-113641750I-1930572J-399470D01*
G01*
X162025859Y-113641751D02*
G75*
G02*
X161984820Y-114042725I-1979384J1D01*
G01*
X161984821Y-114042725D02*
G75*
G02*
X161861916Y-114367838I-1085379J224526D01*
G01*
X161861916Y-114367838D02*
G75*
G02*
X161647830Y-114631867I-912572J521140D01*
G01*
X161647830Y-114631867D02*
G75*
G02*
X161335462Y-114850709I-1095903J1231906D01*
G01*
X161157163Y-114939588D02*
G75*
G02*
X161031277Y-114982044I-265535J579486D01*
G01*
X161031277Y-114982045D02*
G75*
G02*
X160890000Y-115000591I-173003J770479D01*
G01*
X160402249Y-115000590D02*
G75*
G02*
X160260972Y-114982044I31726J789024D01*
G01*
X160260972Y-114982045D02*
G75*
G02*
X160135086Y-114939589I139649J621943D01*
G01*
X159956788Y-114850708D02*
G75*
G02*
X159644419Y-114631867I783534J1450747D01*
G01*
X159644419Y-114631868D02*
G75*
G02*
X159430333Y-114367838I698486J785170D01*
G01*
X159430334Y-114367838D02*
G75*
G02*
X159307429Y-114042725I962473J549639D01*
G01*
X159307428Y-114042724D02*
G75*
G02*
X159266389Y-113641750I1938346J400974D01*
G01*
X159266390Y-113641750D02*
G75*
G02*
X159306195Y-113252673I1921434J-2D01*
G01*
X159306194Y-113252673D02*
G75*
G02*
X159424895Y-112928234I1156183J-239073D01*
G01*
X159424895Y-112928235D02*
G75*
G02*
X159625808Y-112665722I936745J-508794D01*
G01*
X159625809Y-112665722D02*
G75*
G02*
X159908428Y-112459690I917586J-961824D01*
G01*
X160129454Y-112351379D02*
G75*
G02*
X160304914Y-112294152I378705J-863528D01*
G01*
X160304914Y-112294152D02*
G75*
G02*
X160490444Y-112271534I210272J-952585D01*
G01*
X160921098Y-112290729D02*
G75*
G02*
X161058586Y-112318112I-122354J-973162D01*
G01*
X161058586Y-112318112D02*
G75*
G02*
X161189537Y-112364530I-253972J-924411D01*
G01*
X139302902Y-119391402D02*
G75*
G02*
X139502579Y-119513759I-543931J-1111758D01*
G01*
X139502579Y-119513760D02*
G75*
G02*
X139687477Y-119677664I-919905J-1223974D01*
G01*
X139687478Y-119677664D02*
G75*
G02*
X139845169Y-119870824I-1124452J-1078923D01*
G01*
X139845168Y-119870824D02*
G75*
G02*
X139963881Y-120080273I-1115337J-770525D01*
G01*
X139963882Y-120080273D02*
G75*
G02*
X140009334Y-120200591I-894015J-406474D01*
G01*
X140009333Y-120200591D02*
G75*
G02*
X140037892Y-120324096I-886740J-270096D01*
G01*
X140037892Y-120324096D02*
G75*
G02*
X140053187Y-120471260I-1322946J-211877D01*
G01*
X140053187Y-120863741D02*
G75*
G02*
X140037892Y-121010905I-1338241J64713D01*
G01*
X140037893Y-121010905D02*
G75*
G02*
X140009334Y-121134410I-915300J146591D01*
G01*
X140009334Y-121134411D02*
G75*
G02*
X139963881Y-121254728I-939467J286157D01*
G01*
X139963881Y-121254728D02*
G75*
G02*
X139843382Y-121466940I-1239951J563759D01*
G01*
X139843382Y-121466940D02*
G75*
G02*
X139683936Y-121660621I-1249102J865840D01*
G01*
X139683935Y-121660621D02*
G75*
G02*
X139494583Y-121825659I-1092356J1062145D01*
G01*
X139494583Y-121825659D02*
G75*
G02*
X139285184Y-121952730I-817151J1110510D01*
G01*
X139285184Y-121952731D02*
G75*
G02*
X139134504Y-122018635I-820769J1671358D01*
G01*
X139134504Y-122018635D02*
G75*
G02*
X139009099Y-122054829I-269840J699582D01*
G01*
X139009099Y-122054829D02*
G75*
G02*
X138866160Y-122072107I-188721J961364D01*
G01*
X138436839Y-122072107D02*
G75*
G02*
X138293900Y-122054829I45782J978642D01*
G01*
X138293900Y-122054829D02*
G75*
G02*
X138168495Y-122018635I144435J735776D01*
G01*
X138168495Y-122018634D02*
G75*
G02*
X138017815Y-121952730I670089J1737261D01*
G01*
X138017815Y-121952730D02*
G75*
G02*
X137808416Y-121825659I607752J1237581D01*
G01*
X137808415Y-121825659D02*
G75*
G02*
X137619063Y-121660621I903005J1227183D01*
G01*
X137619063Y-121660621D02*
G75*
G02*
X137459617Y-121466940I1089656J1059521D01*
G01*
X137459618Y-121466940D02*
G75*
G02*
X137339118Y-121254728I1119451J775971D01*
G01*
X137339118Y-121254727D02*
G75*
G02*
X137264274Y-121000422I861627J391748D01*
G01*
X137264273Y-121000423D02*
G75*
G02*
X137239842Y-120668480I2280697J334732D01*
G01*
X137239843Y-120668479D02*
G75*
G02*
X137263451Y-120336809I2302451J2787D01*
G01*
X137263450Y-120336809D02*
G75*
G02*
X137337700Y-120083477I924543J-133429D01*
G01*
X137337701Y-120083477D02*
G75*
G02*
X137497138Y-119812316I1370515J-623385D01*
G01*
X137497138Y-119812316D02*
G75*
G02*
X137707299Y-119584794I1139226J-841474D01*
G01*
X137707299Y-119584795D02*
G75*
G02*
X137960365Y-119409759I916231J-1054228D01*
G01*
X137960365Y-119409759D02*
G75*
G02*
X138246537Y-119293607I672972J-1247440D01*
G01*
X138246537Y-119293607D02*
G75*
G02*
X138492895Y-119252526I307181J-1082902D01*
G01*
X138492895Y-119252526D02*
G75*
G02*
X138780540Y-119258028I106300J-1964371D01*
G01*
X138780540Y-119258028D02*
G75*
G02*
X139065261Y-119305542I-182315J-1969325D01*
G01*
X139065261Y-119305542D02*
G75*
G02*
X139302902Y-119391402I-275996J-1135698D01*
G01*
X166629234Y-122775615D02*
G75*
G02*
X166876135Y-122849638I-310743J-1485240D01*
G01*
X166876135Y-122849638D02*
G75*
G02*
X167142290Y-122973065I-931561J-2357477D01*
G01*
X167142290Y-122973065D02*
G75*
G02*
X167391657Y-123125995I-1192253J-2223855D01*
G01*
X167391657Y-123125995D02*
G75*
G02*
X167587578Y-123289401I-838405J-1204388D01*
G01*
X167587578Y-123289401D02*
G75*
G02*
X167670437Y-123384118I-635143J-639231D01*
G01*
X168050257Y-124049600D02*
G75*
G02*
X168095799Y-124192400I-679032J-295224D01*
G01*
X168095799Y-124192401D02*
G75*
G02*
X168114730Y-124350514I-884780J-186126D01*
G01*
X168114730Y-124949988D02*
G75*
G02*
X168095799Y-125108101I-903711J28014D01*
G01*
X168095798Y-125108100D02*
G75*
G02*
X168050256Y-125250900I-724573J152423D01*
G01*
X167945578Y-125476420D02*
G75*
G02*
X167782878Y-125759970I-2368356J1170504D01*
G01*
X167782878Y-125759970D02*
G75*
G02*
X167601884Y-125988485I-1400047J922965D01*
G01*
X167601883Y-125988485D02*
G75*
G02*
X167390009Y-126175591I-1136893J1073875D01*
G01*
X167390010Y-126175590D02*
G75*
G02*
X167134875Y-126334698I-1182110J1611446D01*
G01*
X167134874Y-126334699D02*
G75*
G02*
X166537031Y-126537075I-942689J1800579D01*
G01*
X166537031Y-126537075D02*
G75*
G02*
X165903549Y-126547409I-349988J2032836D01*
G01*
X165903550Y-126547409D02*
G75*
G02*
X165303560Y-126365769I277093J1997043D01*
G01*
X165303560Y-126365769D02*
G75*
G02*
X164802671Y-126011100I807594J1671572D01*
G01*
X164802671Y-126011100D02*
G75*
G02*
X164719812Y-125916383I635143J639231D01*
G01*
X164339992Y-125250901D02*
G75*
G02*
X164294450Y-125108101I679032J295224D01*
G01*
X164294450Y-125108100D02*
G75*
G02*
X164275519Y-124949987I884780J186126D01*
G01*
X164275519Y-124350513D02*
G75*
G02*
X164294450Y-124192400I903711J-28014D01*
G01*
X164294451Y-124192401D02*
G75*
G02*
X164339993Y-124049601I724573J-152423D01*
G01*
X164444670Y-123824080D02*
G75*
G02*
X164604129Y-123545823I2344422J-1158676D01*
G01*
X164604129Y-123545823D02*
G75*
G02*
X164782737Y-123318031I1454625J-956628D01*
G01*
X164782736Y-123318031D02*
G75*
G02*
X164989565Y-123130872I1175178J-1090817D01*
G01*
X164989566Y-123130872D02*
G75*
G02*
X165233352Y-122974406I1125108J-1484858D01*
G01*
X165233351Y-122974405D02*
G75*
G02*
X165564526Y-122831874I988807J-1841499D01*
G01*
X165564526Y-122831874D02*
G75*
G02*
X165911577Y-122750335I628844J-1897179D01*
G01*
X165911577Y-122750335D02*
G75*
G02*
X166268561Y-122731603I283410J-1990069D01*
G01*
X166268560Y-122731603D02*
G75*
G02*
X166629234Y-122775615I-78493J-2143090D01*
G01*
X177429902Y-126193402D02*
G75*
G02*
X177629174Y-126315487I-543303J-1110473D01*
G01*
X177629175Y-126315487D02*
G75*
G02*
X177813987Y-126479142I-922844J-1228330D01*
G01*
X177813987Y-126479142D02*
G75*
G02*
X177972132Y-126672312I-1131958J-1088035D01*
G01*
X177972132Y-126672313D02*
G75*
G02*
X178092042Y-126882273I-1136205J-788114D01*
G01*
X178092041Y-126882273D02*
G75*
G02*
X178138322Y-127002954I-901513J-414940D01*
G01*
X178138323Y-127002953D02*
G75*
G02*
X178167179Y-127125707I-859082J-266717D01*
G01*
X178167178Y-127125707D02*
G75*
G02*
X178182518Y-127272184I-1289760J-209111D01*
G01*
X178182519Y-127666817D02*
G75*
G02*
X178167179Y-127813294I-1305101J62634D01*
G01*
X178167178Y-127813294D02*
G75*
G02*
X178138322Y-127936047I-887937J143963D01*
G01*
X178138323Y-127936047D02*
G75*
G02*
X178092042Y-128056728I-947795J294259D01*
G01*
X178092042Y-128056728D02*
G75*
G02*
X177970329Y-128269459I-1262007J580865D01*
G01*
X177970330Y-128269459D02*
G75*
G02*
X177810432Y-128463149I-1256725J874625D01*
G01*
X177810432Y-128463148D02*
G75*
G02*
X177621175Y-128627932I-1094903J1066440D01*
G01*
X177621175Y-128627932D02*
G75*
G02*
X177412184Y-128754730I-816123J1109519D01*
G01*
X177412184Y-128754731D02*
G75*
G02*
X177261504Y-128820635I-820769J1671358D01*
G01*
X177261504Y-128820635D02*
G75*
G02*
X177136099Y-128856829I-269840J699582D01*
G01*
X177136099Y-128856829D02*
G75*
G02*
X176993160Y-128874107I-188721J961364D01*
G01*
X176563839Y-128874107D02*
G75*
G02*
X176420900Y-128856829I45782J978642D01*
G01*
X176420900Y-128856829D02*
G75*
G02*
X176295495Y-128820635I144435J735776D01*
G01*
X176295495Y-128820634D02*
G75*
G02*
X176144815Y-128754730I670089J1737261D01*
G01*
X176144815Y-128754730D02*
G75*
G02*
X175935416Y-128627659I607752J1237581D01*
G01*
X175935415Y-128627659D02*
G75*
G02*
X175746063Y-128462621I903005J1227183D01*
G01*
X175746063Y-128462621D02*
G75*
G02*
X175586617Y-128268940I1089656J1059521D01*
G01*
X175586618Y-128268940D02*
G75*
G02*
X175466118Y-128056728I1119451J775971D01*
G01*
X175466118Y-128056727D02*
G75*
G02*
X175391274Y-127802422I861627J391748D01*
G01*
X175391273Y-127802423D02*
G75*
G02*
X175366842Y-127470480I2280697J334732D01*
G01*
X175366843Y-127470479D02*
G75*
G02*
X175390451Y-127138809I2302451J2787D01*
G01*
X175390450Y-127138809D02*
G75*
G02*
X175464700Y-126885477I924543J-133429D01*
G01*
X175464701Y-126885477D02*
G75*
G02*
X175624138Y-126614316I1370515J-623385D01*
G01*
X175624138Y-126614316D02*
G75*
G02*
X175834299Y-126386794I1139226J-841474D01*
G01*
X175834299Y-126386795D02*
G75*
G02*
X176087365Y-126211759I916231J-1054228D01*
G01*
X176087365Y-126211759D02*
G75*
G02*
X176373537Y-126095607I672972J-1247440D01*
G01*
X176373537Y-126095607D02*
G75*
G02*
X176619895Y-126054526I307181J-1082902D01*
G01*
X176619895Y-126054526D02*
G75*
G02*
X176907540Y-126060028I106300J-1964371D01*
G01*
X176907540Y-126060028D02*
G75*
G02*
X177192261Y-126107542I-182315J-1969325D01*
G01*
X177192261Y-126107542D02*
G75*
G02*
X177429902Y-126193402I-275996J-1135698D01*
G01*
X133932902Y-127312152D02*
G75*
G02*
X134132579Y-127434509I-543931J-1111758D01*
G01*
X134132579Y-127434510D02*
G75*
G02*
X134317477Y-127598414I-919905J-1223974D01*
G01*
X134317478Y-127598414D02*
G75*
G02*
X134475169Y-127791574I-1124452J-1078923D01*
G01*
X134475168Y-127791574D02*
G75*
G02*
X134593881Y-128001023I-1115337J-770525D01*
G01*
X134593882Y-128001023D02*
G75*
G02*
X134639334Y-128121341I-894015J-406474D01*
G01*
X134639333Y-128121341D02*
G75*
G02*
X134667892Y-128244846I-886740J-270096D01*
G01*
X134667892Y-128244846D02*
G75*
G02*
X134683187Y-128392010I-1322946J-211877D01*
G01*
X134683187Y-128784491D02*
G75*
G02*
X134667892Y-128931655I-1338241J64713D01*
G01*
X134667893Y-128931655D02*
G75*
G02*
X134639334Y-129055160I-915300J146591D01*
G01*
X134639334Y-129055161D02*
G75*
G02*
X134593881Y-129175478I-939467J286157D01*
G01*
X134593881Y-129175478D02*
G75*
G02*
X134473382Y-129387690I-1239951J563759D01*
G01*
X134473382Y-129387690D02*
G75*
G02*
X134313936Y-129581371I-1249102J865840D01*
G01*
X134313935Y-129581371D02*
G75*
G02*
X134124583Y-129746409I-1092356J1062145D01*
G01*
X134124583Y-129746409D02*
G75*
G02*
X133915184Y-129873480I-817151J1110510D01*
G01*
X133915184Y-129873481D02*
G75*
G02*
X133764504Y-129939385I-820769J1671358D01*
G01*
X133764504Y-129939385D02*
G75*
G02*
X133639099Y-129975579I-269840J699582D01*
G01*
X133639099Y-129975579D02*
G75*
G02*
X133496160Y-129992857I-188721J961364D01*
G01*
X133066839Y-129992857D02*
G75*
G02*
X132923900Y-129975579I45782J978642D01*
G01*
X132923900Y-129975579D02*
G75*
G02*
X132798495Y-129939385I144435J735776D01*
G01*
X132798495Y-129939384D02*
G75*
G02*
X132647815Y-129873480I670089J1737261D01*
G01*
X132647815Y-129873480D02*
G75*
G02*
X132438416Y-129746409I607752J1237581D01*
G01*
X132438415Y-129746409D02*
G75*
G02*
X132249063Y-129581371I903005J1227183D01*
G01*
X132249063Y-129581371D02*
G75*
G02*
X132089617Y-129387690I1089656J1059521D01*
G01*
X132089618Y-129387690D02*
G75*
G02*
X131969118Y-129175478I1119451J775971D01*
G01*
X131969118Y-129175477D02*
G75*
G02*
X131894274Y-128921172I861627J391748D01*
G01*
X131894273Y-128921173D02*
G75*
G02*
X131869842Y-128589230I2280697J334732D01*
G01*
X131869843Y-128589229D02*
G75*
G02*
X131893451Y-128257559I2302451J2787D01*
G01*
X131893450Y-128257559D02*
G75*
G02*
X131967700Y-128004227I924543J-133429D01*
G01*
X131967701Y-128004227D02*
G75*
G02*
X132127138Y-127733066I1370515J-623385D01*
G01*
X132127138Y-127733066D02*
G75*
G02*
X132337299Y-127505544I1139226J-841474D01*
G01*
X132337299Y-127505545D02*
G75*
G02*
X132590365Y-127330509I916231J-1054228D01*
G01*
X132590365Y-127330509D02*
G75*
G02*
X132876537Y-127214357I672972J-1247440D01*
G01*
X132876537Y-127214357D02*
G75*
G02*
X133122895Y-127173276I307181J-1082902D01*
G01*
X133122895Y-127173276D02*
G75*
G02*
X133410540Y-127178778I106300J-1964371D01*
G01*
X133410540Y-127178778D02*
G75*
G02*
X133695261Y-127226292I-182315J-1969325D01*
G01*
X133695261Y-127226292D02*
G75*
G02*
X133932902Y-127312152I-275996J-1135698D01*
G01*
X112139652Y-131205402D02*
G75*
G02*
X112339329Y-131327759I-543931J-1111758D01*
G01*
X112339329Y-131327760D02*
G75*
G02*
X112524227Y-131491664I-919905J-1223974D01*
G01*
X112524228Y-131491664D02*
G75*
G02*
X112681919Y-131684824I-1124452J-1078923D01*
G01*
X112681918Y-131684824D02*
G75*
G02*
X112800631Y-131894273I-1115337J-770525D01*
G01*
X112800631Y-131894273D02*
G75*
G02*
X112875760Y-132149484I-865102J-393329D01*
G01*
X112875760Y-132149484D02*
G75*
G02*
X112900016Y-132481500I-2260174J-332017D01*
G01*
X112900016Y-132481501D02*
G75*
G02*
X112875760Y-132813517I-2284430J1D01*
G01*
X112875760Y-132813517D02*
G75*
G02*
X112800631Y-133068728I-940231J138118D01*
G01*
X112800631Y-133068728D02*
G75*
G02*
X112680132Y-133280940I-1239951J563759D01*
G01*
X112680132Y-133280940D02*
G75*
G02*
X112520686Y-133474621I-1249102J865840D01*
G01*
X112520685Y-133474621D02*
G75*
G02*
X112331333Y-133639659I-1092356J1062145D01*
G01*
X112331333Y-133639659D02*
G75*
G02*
X112121934Y-133766730I-817151J1110510D01*
G01*
X112121934Y-133766731D02*
G75*
G02*
X111971254Y-133832635I-820769J1671358D01*
G01*
X111971254Y-133832635D02*
G75*
G02*
X111845849Y-133868829I-269840J699582D01*
G01*
X111845849Y-133868829D02*
G75*
G02*
X111702910Y-133886107I-188721J961364D01*
G01*
X111273589Y-133886107D02*
G75*
G02*
X111130650Y-133868829I45782J978642D01*
G01*
X111130650Y-133868829D02*
G75*
G02*
X111005245Y-133832635I144435J735776D01*
G01*
X111005245Y-133832634D02*
G75*
G02*
X110854565Y-133766730I670089J1737261D01*
G01*
X110854565Y-133766730D02*
G75*
G02*
X110305527Y-133285706I618872J1260223D01*
G01*
X110305526Y-133285705D02*
G75*
G02*
X110065794Y-132589553I1206157J804715D01*
G01*
X110065794Y-132589553D02*
G75*
G02*
X110198609Y-131863759I1453245J109116D01*
G01*
X110198609Y-131863760D02*
G75*
G02*
X110669495Y-131301916I1288797J-601903D01*
G01*
X110669495Y-131301915D02*
G75*
G02*
X110996428Y-131139508I695118J-989035D01*
G01*
X110996428Y-131139508D02*
G75*
G02*
X111382599Y-131066233I491991J-1538633D01*
G01*
X111382599Y-131066233D02*
G75*
G02*
X111779916Y-131088088I108417J-1651476D01*
G01*
X111779916Y-131088089D02*
G75*
G02*
X112139652Y-131205402I-237039J-1337078D01*
G01*
X132098152Y-133174402D02*
G75*
G02*
X132297829Y-133296759I-543931J-1111758D01*
G01*
X132297829Y-133296760D02*
G75*
G02*
X132482727Y-133460664I-919905J-1223974D01*
G01*
X132482728Y-133460664D02*
G75*
G02*
X132640419Y-133653824I-1124452J-1078923D01*
G01*
X132640418Y-133653824D02*
G75*
G02*
X132759131Y-133863273I-1115337J-770525D01*
G01*
X132759132Y-133863273D02*
G75*
G02*
X132804584Y-133983591I-894015J-406474D01*
G01*
X132804583Y-133983591D02*
G75*
G02*
X132833142Y-134107096I-886740J-270096D01*
G01*
X132833142Y-134107096D02*
G75*
G02*
X132848437Y-134254260I-1322946J-211877D01*
G01*
X132848437Y-134646741D02*
G75*
G02*
X132833142Y-134793905I-1338241J64713D01*
G01*
X132833143Y-134793905D02*
G75*
G02*
X132804584Y-134917410I-915300J146591D01*
G01*
X132804584Y-134917411D02*
G75*
G02*
X132759131Y-135037728I-939467J286157D01*
G01*
X132759131Y-135037728D02*
G75*
G02*
X132638632Y-135249940I-1239951J563759D01*
G01*
X132638632Y-135249940D02*
G75*
G02*
X132479186Y-135443621I-1249102J865840D01*
G01*
X132479185Y-135443621D02*
G75*
G02*
X132289833Y-135608659I-1092356J1062145D01*
G01*
X132289833Y-135608659D02*
G75*
G02*
X132080434Y-135735730I-817151J1110510D01*
G01*
X132080434Y-135735731D02*
G75*
G02*
X131929754Y-135801635I-820769J1671358D01*
G01*
X131929754Y-135801635D02*
G75*
G02*
X131804349Y-135837829I-269840J699582D01*
G01*
X131804349Y-135837829D02*
G75*
G02*
X131661410Y-135855107I-188721J961364D01*
G01*
X131232089Y-135855107D02*
G75*
G02*
X131089150Y-135837829I45782J978642D01*
G01*
X131089150Y-135837829D02*
G75*
G02*
X130963745Y-135801635I144435J735776D01*
G01*
X130963745Y-135801634D02*
G75*
G02*
X130813065Y-135735730I670089J1737261D01*
G01*
X130813065Y-135735730D02*
G75*
G02*
X130603666Y-135608659I607752J1237581D01*
G01*
X130603665Y-135608659D02*
G75*
G02*
X130414313Y-135443621I903005J1227183D01*
G01*
X130414313Y-135443621D02*
G75*
G02*
X130254867Y-135249940I1089656J1059521D01*
G01*
X130254868Y-135249940D02*
G75*
G02*
X130134368Y-135037728I1119451J775971D01*
G01*
X130134368Y-135037727D02*
G75*
G02*
X130059524Y-134783422I861627J391748D01*
G01*
X130059523Y-134783423D02*
G75*
G02*
X130035092Y-134451480I2280697J334732D01*
G01*
X130035093Y-134451479D02*
G75*
G02*
X130058701Y-134119809I2302451J2787D01*
G01*
X130058700Y-134119809D02*
G75*
G02*
X130132950Y-133866477I924543J-133429D01*
G01*
X130132951Y-133866477D02*
G75*
G02*
X130292388Y-133595316I1370515J-623385D01*
G01*
X130292388Y-133595316D02*
G75*
G02*
X130502549Y-133367794I1139226J-841474D01*
G01*
X130502549Y-133367795D02*
G75*
G02*
X130755615Y-133192759I916231J-1054228D01*
G01*
X130755615Y-133192759D02*
G75*
G02*
X131041787Y-133076607I672972J-1247440D01*
G01*
X131041787Y-133076607D02*
G75*
G02*
X131288145Y-133035526I307181J-1082902D01*
G01*
X131288145Y-133035526D02*
G75*
G02*
X131575790Y-133041028I106300J-1964371D01*
G01*
X131575790Y-133041028D02*
G75*
G02*
X131860511Y-133088542I-182315J-1969325D01*
G01*
X131860511Y-133088542D02*
G75*
G02*
X132098152Y-133174402I-275996J-1135698D01*
G01*
X158455902Y-134024652D02*
G75*
G02*
X158655579Y-134147009I-543931J-1111758D01*
G01*
X158655579Y-134147010D02*
G75*
G02*
X158840477Y-134310914I-919905J-1223974D01*
G01*
X158840478Y-134310914D02*
G75*
G02*
X158998169Y-134504074I-1124452J-1078923D01*
G01*
X158998168Y-134504074D02*
G75*
G02*
X159116881Y-134713523I-1115337J-770525D01*
G01*
X159116881Y-134713523D02*
G75*
G02*
X159192010Y-134968734I-865102J-393329D01*
G01*
X159192010Y-134968734D02*
G75*
G02*
X159216266Y-135300750I-2260174J-332017D01*
G01*
X159216266Y-135300751D02*
G75*
G02*
X159192010Y-135632767I-2284430J1D01*
G01*
X159192010Y-135632767D02*
G75*
G02*
X159116881Y-135887978I-940231J138118D01*
G01*
X159116881Y-135887978D02*
G75*
G02*
X158996382Y-136100190I-1239951J563759D01*
G01*
X158996382Y-136100190D02*
G75*
G02*
X158836936Y-136293871I-1249102J865840D01*
G01*
X158836935Y-136293871D02*
G75*
G02*
X158647583Y-136458909I-1092356J1062145D01*
G01*
X158647583Y-136458909D02*
G75*
G02*
X158438184Y-136585980I-817151J1110510D01*
G01*
X158438184Y-136585981D02*
G75*
G02*
X158287504Y-136651885I-820769J1671358D01*
G01*
X158287504Y-136651885D02*
G75*
G02*
X158162099Y-136688079I-269840J699582D01*
G01*
X158162099Y-136688079D02*
G75*
G02*
X158019160Y-136705357I-188721J961364D01*
G01*
X157589839Y-136705357D02*
G75*
G02*
X157446900Y-136688079I45782J978642D01*
G01*
X157446900Y-136688079D02*
G75*
G02*
X157321495Y-136651885I144435J735776D01*
G01*
X157321495Y-136651884D02*
G75*
G02*
X157170815Y-136585980I670089J1737261D01*
G01*
X157170815Y-136585980D02*
G75*
G02*
X156961416Y-136458909I607752J1237581D01*
G01*
X156961415Y-136458909D02*
G75*
G02*
X156772063Y-136293871I903005J1227183D01*
G01*
X156772063Y-136293871D02*
G75*
G02*
X156612617Y-136100190I1089656J1059521D01*
G01*
X156612618Y-136100190D02*
G75*
G02*
X156492118Y-135887978I1119451J775971D01*
G01*
X156492118Y-135887977D02*
G75*
G02*
X156417274Y-135633672I861627J391748D01*
G01*
X156417273Y-135633673D02*
G75*
G02*
X156392842Y-135301730I2280697J334732D01*
G01*
X156392843Y-135301729D02*
G75*
G02*
X156416451Y-134970059I2302451J2787D01*
G01*
X156416450Y-134970059D02*
G75*
G02*
X156490700Y-134716727I924543J-133429D01*
G01*
X156490701Y-134716727D02*
G75*
G02*
X156650138Y-134445566I1370515J-623385D01*
G01*
X156650138Y-134445566D02*
G75*
G02*
X156860299Y-134218044I1139226J-841474D01*
G01*
X156860299Y-134218045D02*
G75*
G02*
X157113365Y-134043009I916231J-1054228D01*
G01*
X157113365Y-134043009D02*
G75*
G02*
X157399537Y-133926857I672972J-1247440D01*
G01*
X157399537Y-133926857D02*
G75*
G02*
X157645895Y-133885776I307181J-1082902D01*
G01*
X157645895Y-133885776D02*
G75*
G02*
X157933540Y-133891278I106300J-1964371D01*
G01*
X157933540Y-133891278D02*
G75*
G02*
X158218261Y-133938792I-182315J-1969325D01*
G01*
X158218261Y-133938792D02*
G75*
G02*
X158455902Y-134024652I-275996J-1135698D01*
G01*
%TD*%
M02*
