%TF.GenerationSoftware,KiCad,Pcbnew,(5.1.9)-1*%
%TF.CreationDate,2021-03-20T17:22:00+11:00*%
%TF.ProjectId,GBC_motherboard,4742435f-6d6f-4746-9865-72626f617264,rev?*%
%TF.SameCoordinates,Original*%
%TF.FileFunction,Soldermask,Top*%
%TF.FilePolarity,Negative*%
%FSLAX46Y46*%
G04 Gerber Fmt 4.6, Leading zero omitted, Abs format (unit mm)*
G04 Created by KiCad (PCBNEW (5.1.9)-1) date 2021-03-20 17:22:00*
%MOMM*%
%LPD*%
G01*
G04 APERTURE LIST*
%ADD10O,1.200000X1.050000*%
%ADD11O,2.000000X1.200000*%
%ADD12C,0.900000*%
%ADD13R,1.700000X1.700000*%
%ADD14O,1.700000X1.700000*%
%ADD15C,1.524000*%
%ADD16R,1.524000X1.524000*%
%ADD17C,0.100000*%
%ADD18C,1.650000*%
%ADD19C,1.600000*%
G04 APERTURE END LIST*
D10*
%TO.C,U1*%
X114725000Y-61275000D03*
X114725000Y-65725000D03*
D11*
X112575000Y-60000000D03*
X112575000Y-67000000D03*
%TD*%
D12*
%TO.C,U2*%
X173787000Y-63794000D03*
X173787000Y-68794000D03*
%TD*%
D13*
%TO.C,J1*%
X112382000Y-155829000D03*
D14*
X112382000Y-153289000D03*
X112382000Y-150749000D03*
X112382000Y-148209000D03*
X112382000Y-145669000D03*
X112382000Y-143129000D03*
X112382000Y-140589000D03*
X112382000Y-138049000D03*
X112382000Y-135509000D03*
%TD*%
D15*
%TO.C,U6*%
X125374000Y-103226000D03*
X160934000Y-103226000D03*
X140614000Y-105766000D03*
X143154000Y-105766000D03*
X130454000Y-103226000D03*
X145694000Y-105766000D03*
X163474000Y-103226000D03*
X148234000Y-105766000D03*
X150774000Y-105766000D03*
X153314000Y-105766000D03*
X158394000Y-105766000D03*
X163474000Y-105766000D03*
X140614000Y-103226000D03*
X155854000Y-105766000D03*
X160934000Y-105766000D03*
X120294000Y-103226000D03*
X145694000Y-103226000D03*
X150774000Y-103226000D03*
X153314000Y-103226000D03*
X135534000Y-103226000D03*
X166014000Y-105766000D03*
D16*
X168554000Y-105766000D03*
D15*
X138074000Y-103226000D03*
X166014000Y-103226000D03*
X158394000Y-103226000D03*
X155854000Y-103226000D03*
X127914000Y-103226000D03*
X122834000Y-103226000D03*
X143154000Y-103226000D03*
X132994000Y-103226000D03*
X168554000Y-103226000D03*
X148234000Y-103226000D03*
%TD*%
%TO.C,U8*%
X118660000Y-154196000D03*
X122150000Y-154195000D03*
X125480000Y-136796000D03*
X122940000Y-136796000D03*
X120400000Y-136796000D03*
X117860000Y-136796000D03*
X115320000Y-136796000D03*
%TD*%
%TO.C,C2*%
G36*
G01*
X134815998Y-151356000D02*
X136116002Y-151356000D01*
G75*
G02*
X136366000Y-151605998I0J-249998D01*
G01*
X136366000Y-152431002D01*
G75*
G02*
X136116002Y-152681000I-249998J0D01*
G01*
X134815998Y-152681000D01*
G75*
G02*
X134566000Y-152431002I0J249998D01*
G01*
X134566000Y-151605998D01*
G75*
G02*
X134815998Y-151356000I249998J0D01*
G01*
G37*
G36*
G01*
X134815998Y-148231000D02*
X136116002Y-148231000D01*
G75*
G02*
X136366000Y-148480998I0J-249998D01*
G01*
X136366000Y-149306002D01*
G75*
G02*
X136116002Y-149556000I-249998J0D01*
G01*
X134815998Y-149556000D01*
G75*
G02*
X134566000Y-149306002I0J249998D01*
G01*
X134566000Y-148480998D01*
G75*
G02*
X134815998Y-148231000I249998J0D01*
G01*
G37*
%TD*%
D17*
%TO.C,U4*%
G36*
X122583062Y-108072597D02*
G01*
X122601426Y-108072597D01*
X122845383Y-108084529D01*
X122852354Y-108084919D01*
X122873172Y-108087254D01*
X122893997Y-108089296D01*
X123135622Y-108124975D01*
X123135628Y-108124976D01*
X123135635Y-108124977D01*
X123142525Y-108126044D01*
X123162982Y-108130392D01*
X123183547Y-108134464D01*
X123420536Y-108193552D01*
X123420541Y-108193553D01*
X123420547Y-108193555D01*
X123427302Y-108195289D01*
X123447239Y-108201614D01*
X123467305Y-108207672D01*
X123697402Y-108289606D01*
X123703962Y-108291994D01*
X123723183Y-108300232D01*
X123742565Y-108308221D01*
X123963569Y-108412217D01*
X123969864Y-108415234D01*
X123988212Y-108425321D01*
X124006701Y-108435151D01*
X124216493Y-108560212D01*
X124216502Y-108560217D01*
X124216512Y-108560224D01*
X124222472Y-108563834D01*
X124239693Y-108575625D01*
X124257189Y-108587250D01*
X124453765Y-108732179D01*
X124453782Y-108732191D01*
X124453801Y-108732206D01*
X124459373Y-108736375D01*
X124475403Y-108749825D01*
X124491637Y-108763066D01*
X124673145Y-108926494D01*
X124673153Y-108926501D01*
X124673162Y-108926510D01*
X124678305Y-108931207D01*
X124692955Y-108946166D01*
X124707814Y-108960923D01*
X124872512Y-109141290D01*
X124877183Y-109146478D01*
X124890291Y-109162782D01*
X124903649Y-109178928D01*
X125049960Y-109374506D01*
X125054102Y-109380125D01*
X125065578Y-109397662D01*
X125077276Y-109415005D01*
X125203797Y-109623916D01*
X125203803Y-109623925D01*
X125203809Y-109623936D01*
X125207378Y-109629922D01*
X125217087Y-109648494D01*
X125227037Y-109666896D01*
X125332574Y-109887167D01*
X125335546Y-109893484D01*
X125343392Y-109912901D01*
X125351504Y-109932201D01*
X125435038Y-110161710D01*
X125435043Y-110161721D01*
X125435047Y-110161735D01*
X125437384Y-110168297D01*
X125443280Y-110188332D01*
X125449488Y-110208385D01*
X125510230Y-110444960D01*
X125511918Y-110451734D01*
X125515835Y-110472269D01*
X125520052Y-110492811D01*
X125557417Y-110734173D01*
X125557420Y-110734187D01*
X125557422Y-110734204D01*
X125558439Y-110741091D01*
X125560336Y-110761936D01*
X125562525Y-110782769D01*
X125576158Y-111026617D01*
X125576160Y-111026637D01*
X125576160Y-111026661D01*
X125576500Y-111033610D01*
X125576354Y-111054453D01*
X125576436Y-111066272D01*
X125577000Y-111072000D01*
X125576384Y-111078256D01*
X125566273Y-111319499D01*
X125566273Y-111319520D01*
X125566271Y-111319545D01*
X125565931Y-111326492D01*
X125563747Y-111347271D01*
X125561845Y-111368168D01*
X125527852Y-111610040D01*
X125526832Y-111616946D01*
X125522625Y-111637442D01*
X125518699Y-111658024D01*
X125461266Y-111895424D01*
X125459577Y-111902198D01*
X125453384Y-111922204D01*
X125447473Y-111942287D01*
X125367148Y-112172949D01*
X125364806Y-112179526D01*
X125356700Y-112198810D01*
X125348848Y-112218243D01*
X125246398Y-112439966D01*
X125243425Y-112446283D01*
X125233473Y-112464689D01*
X125223766Y-112483256D01*
X125100168Y-112693925D01*
X125096593Y-112699921D01*
X125084914Y-112717236D01*
X125073420Y-112734801D01*
X124929854Y-112932402D01*
X124925711Y-112938021D01*
X124912371Y-112954146D01*
X124899243Y-112970474D01*
X124737081Y-113153122D01*
X124732409Y-113158310D01*
X124717546Y-113173070D01*
X124702902Y-113188023D01*
X124523690Y-113353976D01*
X124518534Y-113358683D01*
X124502324Y-113371904D01*
X124486270Y-113385375D01*
X124291719Y-113533048D01*
X124286128Y-113537230D01*
X124268696Y-113548812D01*
X124251410Y-113560648D01*
X124043376Y-113688631D01*
X124037405Y-113692247D01*
X124018910Y-113702081D01*
X124000569Y-113712164D01*
X123781049Y-113819231D01*
X123781041Y-113819235D01*
X123781032Y-113819239D01*
X123774744Y-113822252D01*
X123755399Y-113830225D01*
X123736142Y-113838479D01*
X123507215Y-113923617D01*
X123507210Y-113923619D01*
X123507204Y-113923621D01*
X123500652Y-113926005D01*
X123480646Y-113932045D01*
X123460647Y-113938389D01*
X123224507Y-114000779D01*
X123224502Y-114000781D01*
X123224496Y-114000782D01*
X123217739Y-114002517D01*
X123197218Y-114006580D01*
X123176720Y-114010937D01*
X122935624Y-114049986D01*
X122935611Y-114049989D01*
X122935595Y-114049991D01*
X122928714Y-114051056D01*
X122907879Y-114053099D01*
X122887066Y-114055433D01*
X122643299Y-114070769D01*
X122636329Y-114071159D01*
X122625863Y-114071159D01*
X122615400Y-114071744D01*
X122580495Y-114071988D01*
X122577122Y-114071988D01*
X122577000Y-114072000D01*
X122576878Y-114071988D01*
X122573514Y-114071988D01*
X122524741Y-114069261D01*
X122481964Y-114062640D01*
X122479455Y-114062393D01*
X122478504Y-114062105D01*
X122476465Y-114061789D01*
X122429150Y-114049640D01*
X122387774Y-114034582D01*
X122385658Y-114033940D01*
X122384906Y-114033538D01*
X122383246Y-114032934D01*
X122339192Y-114011826D01*
X122300877Y-113988623D01*
X122299215Y-113987735D01*
X122298666Y-113987284D01*
X122297407Y-113986522D01*
X122258291Y-113957259D01*
X122224635Y-113926528D01*
X122223447Y-113925553D01*
X122223087Y-113925115D01*
X122222218Y-113924321D01*
X122189531Y-113888018D01*
X122162022Y-113850708D01*
X122161265Y-113849785D01*
X122161062Y-113849405D01*
X122160542Y-113848700D01*
X122135528Y-113806740D01*
X122115452Y-113764075D01*
X122115060Y-113763342D01*
X122114975Y-113763062D01*
X122114729Y-113762539D01*
X122098342Y-113716520D01*
X122086728Y-113669943D01*
X122086607Y-113669545D01*
X122086593Y-113669403D01*
X122086523Y-113669122D01*
X122079387Y-113620796D01*
X122077000Y-113572004D01*
X122077000Y-108572000D01*
X122077630Y-108565605D01*
X122077780Y-108544088D01*
X122082886Y-108495506D01*
X122086054Y-108480073D01*
X122086607Y-108474455D01*
X122088462Y-108468339D01*
X122092708Y-108447654D01*
X122107154Y-108400989D01*
X122113400Y-108386130D01*
X122115060Y-108380658D01*
X122118058Y-108375049D01*
X122126084Y-108355956D01*
X122149319Y-108312986D01*
X122158535Y-108299323D01*
X122161265Y-108294215D01*
X122165279Y-108289323D01*
X122176635Y-108272488D01*
X122207773Y-108234848D01*
X122219737Y-108222967D01*
X122223447Y-108218447D01*
X122228301Y-108214464D01*
X122242436Y-108200427D01*
X122280291Y-108169553D01*
X122294643Y-108160017D01*
X122299215Y-108156265D01*
X122304715Y-108153325D01*
X122320979Y-108142519D01*
X122364111Y-108119586D01*
X122380385Y-108112878D01*
X122385658Y-108110060D01*
X122391586Y-108108262D01*
X122409275Y-108100971D01*
X122456040Y-108086852D01*
X122473679Y-108083359D01*
X122479455Y-108081607D01*
X122485568Y-108081005D01*
X122503960Y-108077363D01*
X122552577Y-108072597D01*
X122570938Y-108072597D01*
X122577000Y-108072000D01*
X122583062Y-108072597D01*
G37*
G36*
X121320938Y-114071403D02*
G01*
X121302574Y-114071403D01*
X121058617Y-114059471D01*
X121051646Y-114059081D01*
X121030828Y-114056746D01*
X121010003Y-114054704D01*
X120768378Y-114019025D01*
X120768372Y-114019024D01*
X120768365Y-114019023D01*
X120761475Y-114017956D01*
X120741018Y-114013608D01*
X120720453Y-114009536D01*
X120483464Y-113950448D01*
X120483459Y-113950447D01*
X120483453Y-113950445D01*
X120476698Y-113948711D01*
X120456761Y-113942386D01*
X120436695Y-113936328D01*
X120206598Y-113854394D01*
X120200038Y-113852006D01*
X120180817Y-113843768D01*
X120161435Y-113835779D01*
X119940431Y-113731783D01*
X119934136Y-113728766D01*
X119915788Y-113718679D01*
X119897299Y-113708849D01*
X119687507Y-113583788D01*
X119687498Y-113583783D01*
X119687488Y-113583776D01*
X119681528Y-113580166D01*
X119664307Y-113568375D01*
X119646811Y-113556750D01*
X119450235Y-113411821D01*
X119450218Y-113411809D01*
X119450199Y-113411794D01*
X119444627Y-113407625D01*
X119428597Y-113394175D01*
X119412363Y-113380934D01*
X119230855Y-113217506D01*
X119230847Y-113217499D01*
X119230838Y-113217490D01*
X119225695Y-113212793D01*
X119211045Y-113197834D01*
X119196186Y-113183077D01*
X119031488Y-113002710D01*
X119026817Y-112997522D01*
X119013709Y-112981218D01*
X119000351Y-112965072D01*
X118854040Y-112769494D01*
X118849898Y-112763875D01*
X118838422Y-112746338D01*
X118826724Y-112728995D01*
X118700203Y-112520084D01*
X118700197Y-112520075D01*
X118700191Y-112520064D01*
X118696622Y-112514078D01*
X118686913Y-112495506D01*
X118676963Y-112477104D01*
X118571426Y-112256833D01*
X118568454Y-112250516D01*
X118560608Y-112231099D01*
X118552496Y-112211799D01*
X118468962Y-111982290D01*
X118468957Y-111982279D01*
X118468953Y-111982265D01*
X118466616Y-111975703D01*
X118460720Y-111955668D01*
X118454512Y-111935615D01*
X118393770Y-111699040D01*
X118392082Y-111692266D01*
X118388165Y-111671731D01*
X118383948Y-111651189D01*
X118346583Y-111409827D01*
X118346580Y-111409813D01*
X118346578Y-111409796D01*
X118345561Y-111402909D01*
X118343664Y-111382064D01*
X118341475Y-111361231D01*
X118327842Y-111117383D01*
X118327840Y-111117363D01*
X118327840Y-111117339D01*
X118327500Y-111110390D01*
X118327646Y-111089547D01*
X118327564Y-111077728D01*
X118327000Y-111072000D01*
X118327616Y-111065744D01*
X118337727Y-110824501D01*
X118337727Y-110824480D01*
X118337729Y-110824455D01*
X118338069Y-110817508D01*
X118340253Y-110796729D01*
X118342155Y-110775832D01*
X118376148Y-110533960D01*
X118377168Y-110527054D01*
X118381375Y-110506558D01*
X118385301Y-110485976D01*
X118442734Y-110248576D01*
X118444423Y-110241802D01*
X118450616Y-110221796D01*
X118456527Y-110201713D01*
X118536852Y-109971051D01*
X118539194Y-109964474D01*
X118547300Y-109945190D01*
X118555152Y-109925757D01*
X118657602Y-109704034D01*
X118660575Y-109697717D01*
X118670527Y-109679311D01*
X118680234Y-109660744D01*
X118803832Y-109450075D01*
X118807407Y-109444079D01*
X118819086Y-109426764D01*
X118830580Y-109409199D01*
X118974146Y-109211598D01*
X118978289Y-109205979D01*
X118991629Y-109189854D01*
X119004757Y-109173526D01*
X119166919Y-108990878D01*
X119171591Y-108985690D01*
X119186454Y-108970930D01*
X119201098Y-108955977D01*
X119380310Y-108790024D01*
X119385466Y-108785317D01*
X119401676Y-108772096D01*
X119417730Y-108758625D01*
X119612281Y-108610952D01*
X119617872Y-108606770D01*
X119635304Y-108595188D01*
X119652590Y-108583352D01*
X119860624Y-108455369D01*
X119866595Y-108451753D01*
X119885090Y-108441919D01*
X119903431Y-108431836D01*
X120122951Y-108324769D01*
X120122959Y-108324765D01*
X120122968Y-108324761D01*
X120129256Y-108321748D01*
X120148601Y-108313775D01*
X120167858Y-108305521D01*
X120396785Y-108220383D01*
X120396790Y-108220381D01*
X120396796Y-108220379D01*
X120403348Y-108217995D01*
X120423354Y-108211955D01*
X120443353Y-108205611D01*
X120679493Y-108143221D01*
X120679498Y-108143219D01*
X120679504Y-108143218D01*
X120686261Y-108141483D01*
X120706782Y-108137420D01*
X120727280Y-108133063D01*
X120968376Y-108094014D01*
X120968389Y-108094011D01*
X120968405Y-108094009D01*
X120975286Y-108092944D01*
X120996121Y-108090901D01*
X121016934Y-108088567D01*
X121260701Y-108073231D01*
X121267671Y-108072841D01*
X121278137Y-108072841D01*
X121288600Y-108072256D01*
X121323505Y-108072012D01*
X121326878Y-108072012D01*
X121327000Y-108072000D01*
X121327122Y-108072012D01*
X121330486Y-108072012D01*
X121379259Y-108074739D01*
X121422036Y-108081360D01*
X121424545Y-108081607D01*
X121425496Y-108081895D01*
X121427535Y-108082211D01*
X121474850Y-108094360D01*
X121516226Y-108109418D01*
X121518342Y-108110060D01*
X121519094Y-108110462D01*
X121520754Y-108111066D01*
X121564808Y-108132174D01*
X121603123Y-108155377D01*
X121604785Y-108156265D01*
X121605334Y-108156716D01*
X121606593Y-108157478D01*
X121645709Y-108186741D01*
X121679365Y-108217472D01*
X121680553Y-108218447D01*
X121680913Y-108218885D01*
X121681782Y-108219679D01*
X121714469Y-108255982D01*
X121741978Y-108293292D01*
X121742735Y-108294215D01*
X121742938Y-108294595D01*
X121743458Y-108295300D01*
X121768472Y-108337260D01*
X121788548Y-108379925D01*
X121788940Y-108380658D01*
X121789025Y-108380938D01*
X121789271Y-108381461D01*
X121805658Y-108427480D01*
X121817272Y-108474057D01*
X121817393Y-108474455D01*
X121817407Y-108474597D01*
X121817477Y-108474878D01*
X121824613Y-108523204D01*
X121827000Y-108571996D01*
X121827000Y-113572000D01*
X121826370Y-113578395D01*
X121826220Y-113599912D01*
X121821114Y-113648494D01*
X121817946Y-113663927D01*
X121817393Y-113669545D01*
X121815538Y-113675661D01*
X121811292Y-113696346D01*
X121796846Y-113743011D01*
X121790600Y-113757870D01*
X121788940Y-113763342D01*
X121785942Y-113768951D01*
X121777916Y-113788044D01*
X121754681Y-113831014D01*
X121745465Y-113844677D01*
X121742735Y-113849785D01*
X121738721Y-113854677D01*
X121727365Y-113871512D01*
X121696227Y-113909152D01*
X121684263Y-113921033D01*
X121680553Y-113925553D01*
X121675699Y-113929536D01*
X121661564Y-113943573D01*
X121623709Y-113974447D01*
X121609357Y-113983983D01*
X121604785Y-113987735D01*
X121599285Y-113990675D01*
X121583021Y-114001481D01*
X121539889Y-114024414D01*
X121523615Y-114031122D01*
X121518342Y-114033940D01*
X121512414Y-114035738D01*
X121494725Y-114043029D01*
X121447960Y-114057148D01*
X121430321Y-114060641D01*
X121424545Y-114062393D01*
X121418432Y-114062995D01*
X121400040Y-114066637D01*
X121351423Y-114071403D01*
X121333062Y-114071403D01*
X121327000Y-114072000D01*
X121320938Y-114071403D01*
G37*
G36*
X114583062Y-115822597D02*
G01*
X114601426Y-115822597D01*
X114845383Y-115834529D01*
X114852354Y-115834919D01*
X114873172Y-115837254D01*
X114893997Y-115839296D01*
X115135622Y-115874975D01*
X115135628Y-115874976D01*
X115135635Y-115874977D01*
X115142525Y-115876044D01*
X115162982Y-115880392D01*
X115183547Y-115884464D01*
X115420536Y-115943552D01*
X115420541Y-115943553D01*
X115420547Y-115943555D01*
X115427302Y-115945289D01*
X115447239Y-115951614D01*
X115467305Y-115957672D01*
X115697402Y-116039606D01*
X115703962Y-116041994D01*
X115723183Y-116050232D01*
X115742565Y-116058221D01*
X115963569Y-116162217D01*
X115969864Y-116165234D01*
X115988212Y-116175321D01*
X116006701Y-116185151D01*
X116216493Y-116310212D01*
X116216502Y-116310217D01*
X116216512Y-116310224D01*
X116222472Y-116313834D01*
X116239693Y-116325625D01*
X116257189Y-116337250D01*
X116453765Y-116482179D01*
X116453782Y-116482191D01*
X116453801Y-116482206D01*
X116459373Y-116486375D01*
X116475403Y-116499825D01*
X116491637Y-116513066D01*
X116673145Y-116676494D01*
X116673153Y-116676501D01*
X116673162Y-116676510D01*
X116678305Y-116681207D01*
X116692955Y-116696166D01*
X116707814Y-116710923D01*
X116872512Y-116891290D01*
X116877183Y-116896478D01*
X116890291Y-116912782D01*
X116903649Y-116928928D01*
X117049960Y-117124506D01*
X117054102Y-117130125D01*
X117065578Y-117147662D01*
X117077276Y-117165005D01*
X117203797Y-117373916D01*
X117203803Y-117373925D01*
X117203809Y-117373936D01*
X117207378Y-117379922D01*
X117217087Y-117398494D01*
X117227037Y-117416896D01*
X117332574Y-117637167D01*
X117335546Y-117643484D01*
X117343392Y-117662901D01*
X117351504Y-117682201D01*
X117435038Y-117911710D01*
X117435043Y-117911721D01*
X117435047Y-117911735D01*
X117437384Y-117918297D01*
X117443280Y-117938332D01*
X117449488Y-117958385D01*
X117510230Y-118194960D01*
X117511918Y-118201734D01*
X117515835Y-118222269D01*
X117520052Y-118242811D01*
X117557417Y-118484173D01*
X117557420Y-118484187D01*
X117557422Y-118484204D01*
X117558439Y-118491091D01*
X117560336Y-118511936D01*
X117562525Y-118532769D01*
X117576158Y-118776617D01*
X117576160Y-118776637D01*
X117576160Y-118776661D01*
X117576500Y-118783610D01*
X117576354Y-118804453D01*
X117576436Y-118816272D01*
X117577000Y-118822000D01*
X117576384Y-118828256D01*
X117566273Y-119069499D01*
X117566273Y-119069520D01*
X117566271Y-119069545D01*
X117565931Y-119076492D01*
X117563747Y-119097271D01*
X117561845Y-119118168D01*
X117527852Y-119360040D01*
X117526832Y-119366946D01*
X117522625Y-119387442D01*
X117518699Y-119408024D01*
X117461266Y-119645424D01*
X117459577Y-119652198D01*
X117453384Y-119672204D01*
X117447473Y-119692287D01*
X117367148Y-119922949D01*
X117364806Y-119929526D01*
X117356700Y-119948810D01*
X117348848Y-119968243D01*
X117246398Y-120189966D01*
X117243425Y-120196283D01*
X117233473Y-120214689D01*
X117223766Y-120233256D01*
X117100168Y-120443925D01*
X117096593Y-120449921D01*
X117084914Y-120467236D01*
X117073420Y-120484801D01*
X116929854Y-120682402D01*
X116925711Y-120688021D01*
X116912371Y-120704146D01*
X116899243Y-120720474D01*
X116737081Y-120903122D01*
X116732409Y-120908310D01*
X116717546Y-120923070D01*
X116702902Y-120938023D01*
X116523690Y-121103976D01*
X116518534Y-121108683D01*
X116502324Y-121121904D01*
X116486270Y-121135375D01*
X116291719Y-121283048D01*
X116286128Y-121287230D01*
X116268696Y-121298812D01*
X116251410Y-121310648D01*
X116043376Y-121438631D01*
X116037405Y-121442247D01*
X116018910Y-121452081D01*
X116000569Y-121462164D01*
X115781049Y-121569231D01*
X115781041Y-121569235D01*
X115781032Y-121569239D01*
X115774744Y-121572252D01*
X115755399Y-121580225D01*
X115736142Y-121588479D01*
X115507215Y-121673617D01*
X115507210Y-121673619D01*
X115507204Y-121673621D01*
X115500652Y-121676005D01*
X115480646Y-121682045D01*
X115460647Y-121688389D01*
X115224507Y-121750779D01*
X115224502Y-121750781D01*
X115224496Y-121750782D01*
X115217739Y-121752517D01*
X115197218Y-121756580D01*
X115176720Y-121760937D01*
X114935624Y-121799986D01*
X114935611Y-121799989D01*
X114935595Y-121799991D01*
X114928714Y-121801056D01*
X114907879Y-121803099D01*
X114887066Y-121805433D01*
X114643299Y-121820769D01*
X114636329Y-121821159D01*
X114625863Y-121821159D01*
X114615400Y-121821744D01*
X114580495Y-121821988D01*
X114577122Y-121821988D01*
X114577000Y-121822000D01*
X114576878Y-121821988D01*
X114573514Y-121821988D01*
X114524741Y-121819261D01*
X114481964Y-121812640D01*
X114479455Y-121812393D01*
X114478504Y-121812105D01*
X114476465Y-121811789D01*
X114429150Y-121799640D01*
X114387774Y-121784582D01*
X114385658Y-121783940D01*
X114384906Y-121783538D01*
X114383246Y-121782934D01*
X114339192Y-121761826D01*
X114300877Y-121738623D01*
X114299215Y-121737735D01*
X114298666Y-121737284D01*
X114297407Y-121736522D01*
X114258291Y-121707259D01*
X114224635Y-121676528D01*
X114223447Y-121675553D01*
X114223087Y-121675115D01*
X114222218Y-121674321D01*
X114189531Y-121638018D01*
X114162022Y-121600708D01*
X114161265Y-121599785D01*
X114161062Y-121599405D01*
X114160542Y-121598700D01*
X114135528Y-121556740D01*
X114115452Y-121514075D01*
X114115060Y-121513342D01*
X114114975Y-121513062D01*
X114114729Y-121512539D01*
X114098342Y-121466520D01*
X114086728Y-121419943D01*
X114086607Y-121419545D01*
X114086593Y-121419403D01*
X114086523Y-121419122D01*
X114079387Y-121370796D01*
X114077000Y-121322004D01*
X114077000Y-116322000D01*
X114077630Y-116315605D01*
X114077780Y-116294088D01*
X114082886Y-116245506D01*
X114086054Y-116230073D01*
X114086607Y-116224455D01*
X114088462Y-116218339D01*
X114092708Y-116197654D01*
X114107154Y-116150989D01*
X114113400Y-116136130D01*
X114115060Y-116130658D01*
X114118058Y-116125049D01*
X114126084Y-116105956D01*
X114149319Y-116062986D01*
X114158535Y-116049323D01*
X114161265Y-116044215D01*
X114165279Y-116039323D01*
X114176635Y-116022488D01*
X114207773Y-115984848D01*
X114219737Y-115972967D01*
X114223447Y-115968447D01*
X114228301Y-115964464D01*
X114242436Y-115950427D01*
X114280291Y-115919553D01*
X114294643Y-115910017D01*
X114299215Y-115906265D01*
X114304715Y-115903325D01*
X114320979Y-115892519D01*
X114364111Y-115869586D01*
X114380385Y-115862878D01*
X114385658Y-115860060D01*
X114391586Y-115858262D01*
X114409275Y-115850971D01*
X114456040Y-115836852D01*
X114473679Y-115833359D01*
X114479455Y-115831607D01*
X114485568Y-115831005D01*
X114503960Y-115827363D01*
X114552577Y-115822597D01*
X114570938Y-115822597D01*
X114577000Y-115822000D01*
X114583062Y-115822597D01*
G37*
G36*
X113320938Y-122071403D02*
G01*
X113302574Y-122071403D01*
X113058617Y-122059471D01*
X113051646Y-122059081D01*
X113030828Y-122056746D01*
X113010003Y-122054704D01*
X112768378Y-122019025D01*
X112768372Y-122019024D01*
X112768365Y-122019023D01*
X112761475Y-122017956D01*
X112741018Y-122013608D01*
X112720453Y-122009536D01*
X112483464Y-121950448D01*
X112483459Y-121950447D01*
X112483453Y-121950445D01*
X112476698Y-121948711D01*
X112456761Y-121942386D01*
X112436695Y-121936328D01*
X112206598Y-121854394D01*
X112200038Y-121852006D01*
X112180817Y-121843768D01*
X112161435Y-121835779D01*
X111940431Y-121731783D01*
X111934136Y-121728766D01*
X111915788Y-121718679D01*
X111897299Y-121708849D01*
X111687507Y-121583788D01*
X111687498Y-121583783D01*
X111687488Y-121583776D01*
X111681528Y-121580166D01*
X111664307Y-121568375D01*
X111646811Y-121556750D01*
X111450235Y-121411821D01*
X111450218Y-121411809D01*
X111450199Y-121411794D01*
X111444627Y-121407625D01*
X111428597Y-121394175D01*
X111412363Y-121380934D01*
X111230855Y-121217506D01*
X111230847Y-121217499D01*
X111230838Y-121217490D01*
X111225695Y-121212793D01*
X111211045Y-121197834D01*
X111196186Y-121183077D01*
X111031488Y-121002710D01*
X111026817Y-120997522D01*
X111013709Y-120981218D01*
X111000351Y-120965072D01*
X110854040Y-120769494D01*
X110849898Y-120763875D01*
X110838422Y-120746338D01*
X110826724Y-120728995D01*
X110700203Y-120520084D01*
X110700197Y-120520075D01*
X110700191Y-120520064D01*
X110696622Y-120514078D01*
X110686913Y-120495506D01*
X110676963Y-120477104D01*
X110571426Y-120256833D01*
X110568454Y-120250516D01*
X110560608Y-120231099D01*
X110552496Y-120211799D01*
X110468962Y-119982290D01*
X110468957Y-119982279D01*
X110468953Y-119982265D01*
X110466616Y-119975703D01*
X110460720Y-119955668D01*
X110454512Y-119935615D01*
X110393770Y-119699040D01*
X110392082Y-119692266D01*
X110388165Y-119671731D01*
X110383948Y-119651189D01*
X110346583Y-119409827D01*
X110346580Y-119409813D01*
X110346578Y-119409796D01*
X110345561Y-119402909D01*
X110343664Y-119382064D01*
X110341475Y-119361231D01*
X110327842Y-119117383D01*
X110327840Y-119117363D01*
X110327840Y-119117339D01*
X110327500Y-119110390D01*
X110327646Y-119089547D01*
X110327564Y-119077728D01*
X110327000Y-119072000D01*
X110327616Y-119065744D01*
X110337727Y-118824501D01*
X110337727Y-118824480D01*
X110337729Y-118824455D01*
X110338069Y-118817508D01*
X110340253Y-118796729D01*
X110342155Y-118775832D01*
X110376148Y-118533960D01*
X110377168Y-118527054D01*
X110381375Y-118506558D01*
X110385301Y-118485976D01*
X110442734Y-118248576D01*
X110444423Y-118241802D01*
X110450616Y-118221796D01*
X110456527Y-118201713D01*
X110536852Y-117971051D01*
X110539194Y-117964474D01*
X110547300Y-117945190D01*
X110555152Y-117925757D01*
X110657602Y-117704034D01*
X110660575Y-117697717D01*
X110670527Y-117679311D01*
X110680234Y-117660744D01*
X110803832Y-117450075D01*
X110807407Y-117444079D01*
X110819086Y-117426764D01*
X110830580Y-117409199D01*
X110974146Y-117211598D01*
X110978289Y-117205979D01*
X110991629Y-117189854D01*
X111004757Y-117173526D01*
X111166919Y-116990878D01*
X111171591Y-116985690D01*
X111186454Y-116970930D01*
X111201098Y-116955977D01*
X111380310Y-116790024D01*
X111385466Y-116785317D01*
X111401676Y-116772096D01*
X111417730Y-116758625D01*
X111612281Y-116610952D01*
X111617872Y-116606770D01*
X111635304Y-116595188D01*
X111652590Y-116583352D01*
X111860624Y-116455369D01*
X111866595Y-116451753D01*
X111885090Y-116441919D01*
X111903431Y-116431836D01*
X112122951Y-116324769D01*
X112122959Y-116324765D01*
X112122968Y-116324761D01*
X112129256Y-116321748D01*
X112148601Y-116313775D01*
X112167858Y-116305521D01*
X112396785Y-116220383D01*
X112396790Y-116220381D01*
X112396796Y-116220379D01*
X112403348Y-116217995D01*
X112423354Y-116211955D01*
X112443353Y-116205611D01*
X112679493Y-116143221D01*
X112679498Y-116143219D01*
X112679504Y-116143218D01*
X112686261Y-116141483D01*
X112706782Y-116137420D01*
X112727280Y-116133063D01*
X112968376Y-116094014D01*
X112968389Y-116094011D01*
X112968405Y-116094009D01*
X112975286Y-116092944D01*
X112996121Y-116090901D01*
X113016934Y-116088567D01*
X113260701Y-116073231D01*
X113267671Y-116072841D01*
X113278137Y-116072841D01*
X113288600Y-116072256D01*
X113323505Y-116072012D01*
X113326878Y-116072012D01*
X113327000Y-116072000D01*
X113327122Y-116072012D01*
X113330486Y-116072012D01*
X113379259Y-116074739D01*
X113422036Y-116081360D01*
X113424545Y-116081607D01*
X113425496Y-116081895D01*
X113427535Y-116082211D01*
X113474850Y-116094360D01*
X113516226Y-116109418D01*
X113518342Y-116110060D01*
X113519094Y-116110462D01*
X113520754Y-116111066D01*
X113564808Y-116132174D01*
X113603123Y-116155377D01*
X113604785Y-116156265D01*
X113605334Y-116156716D01*
X113606593Y-116157478D01*
X113645709Y-116186741D01*
X113679365Y-116217472D01*
X113680553Y-116218447D01*
X113680913Y-116218885D01*
X113681782Y-116219679D01*
X113714469Y-116255982D01*
X113741978Y-116293292D01*
X113742735Y-116294215D01*
X113742938Y-116294595D01*
X113743458Y-116295300D01*
X113768472Y-116337260D01*
X113788548Y-116379925D01*
X113788940Y-116380658D01*
X113789025Y-116380938D01*
X113789271Y-116381461D01*
X113805658Y-116427480D01*
X113817272Y-116474057D01*
X113817393Y-116474455D01*
X113817407Y-116474597D01*
X113817477Y-116474878D01*
X113824613Y-116523204D01*
X113827000Y-116571996D01*
X113827000Y-121572000D01*
X113826370Y-121578395D01*
X113826220Y-121599912D01*
X113821114Y-121648494D01*
X113817946Y-121663927D01*
X113817393Y-121669545D01*
X113815538Y-121675661D01*
X113811292Y-121696346D01*
X113796846Y-121743011D01*
X113790600Y-121757870D01*
X113788940Y-121763342D01*
X113785942Y-121768951D01*
X113777916Y-121788044D01*
X113754681Y-121831014D01*
X113745465Y-121844677D01*
X113742735Y-121849785D01*
X113738721Y-121854677D01*
X113727365Y-121871512D01*
X113696227Y-121909152D01*
X113684263Y-121921033D01*
X113680553Y-121925553D01*
X113675699Y-121929536D01*
X113661564Y-121943573D01*
X113623709Y-121974447D01*
X113609357Y-121983983D01*
X113604785Y-121987735D01*
X113599285Y-121990675D01*
X113583021Y-122001481D01*
X113539889Y-122024414D01*
X113523615Y-122031122D01*
X113518342Y-122033940D01*
X113512414Y-122035738D01*
X113494725Y-122043029D01*
X113447960Y-122057148D01*
X113430321Y-122060641D01*
X113424545Y-122062393D01*
X113418432Y-122062995D01*
X113400040Y-122066637D01*
X113351423Y-122071403D01*
X113333062Y-122071403D01*
X113327000Y-122072000D01*
X113320938Y-122071403D01*
G37*
G36*
X122333062Y-123822597D02*
G01*
X122351426Y-123822597D01*
X122595383Y-123834529D01*
X122602354Y-123834919D01*
X122623172Y-123837254D01*
X122643997Y-123839296D01*
X122885622Y-123874975D01*
X122885628Y-123874976D01*
X122885635Y-123874977D01*
X122892525Y-123876044D01*
X122912982Y-123880392D01*
X122933547Y-123884464D01*
X123170536Y-123943552D01*
X123170541Y-123943553D01*
X123170547Y-123943555D01*
X123177302Y-123945289D01*
X123197239Y-123951614D01*
X123217305Y-123957672D01*
X123447402Y-124039606D01*
X123453962Y-124041994D01*
X123473183Y-124050232D01*
X123492565Y-124058221D01*
X123713569Y-124162217D01*
X123719864Y-124165234D01*
X123738212Y-124175321D01*
X123756701Y-124185151D01*
X123966493Y-124310212D01*
X123966502Y-124310217D01*
X123966512Y-124310224D01*
X123972472Y-124313834D01*
X123989693Y-124325625D01*
X124007189Y-124337250D01*
X124203765Y-124482179D01*
X124203782Y-124482191D01*
X124203801Y-124482206D01*
X124209373Y-124486375D01*
X124225403Y-124499825D01*
X124241637Y-124513066D01*
X124423145Y-124676494D01*
X124423153Y-124676501D01*
X124423162Y-124676510D01*
X124428305Y-124681207D01*
X124442955Y-124696166D01*
X124457814Y-124710923D01*
X124622512Y-124891290D01*
X124627183Y-124896478D01*
X124640291Y-124912782D01*
X124653649Y-124928928D01*
X124799960Y-125124506D01*
X124804102Y-125130125D01*
X124815578Y-125147662D01*
X124827276Y-125165005D01*
X124953797Y-125373916D01*
X124953803Y-125373925D01*
X124953809Y-125373936D01*
X124957378Y-125379922D01*
X124967087Y-125398494D01*
X124977037Y-125416896D01*
X125082574Y-125637167D01*
X125085546Y-125643484D01*
X125093392Y-125662901D01*
X125101504Y-125682201D01*
X125185038Y-125911710D01*
X125185043Y-125911721D01*
X125185047Y-125911735D01*
X125187384Y-125918297D01*
X125193280Y-125938332D01*
X125199488Y-125958385D01*
X125260230Y-126194960D01*
X125261918Y-126201734D01*
X125265835Y-126222269D01*
X125270052Y-126242811D01*
X125307417Y-126484173D01*
X125307420Y-126484187D01*
X125307422Y-126484204D01*
X125308439Y-126491091D01*
X125310336Y-126511936D01*
X125312525Y-126532769D01*
X125326158Y-126776617D01*
X125326160Y-126776637D01*
X125326160Y-126776661D01*
X125326500Y-126783610D01*
X125326354Y-126804453D01*
X125326436Y-126816272D01*
X125327000Y-126822000D01*
X125326384Y-126828256D01*
X125316273Y-127069499D01*
X125316273Y-127069520D01*
X125316271Y-127069545D01*
X125315931Y-127076492D01*
X125313747Y-127097271D01*
X125311845Y-127118168D01*
X125277852Y-127360040D01*
X125276832Y-127366946D01*
X125272625Y-127387442D01*
X125268699Y-127408024D01*
X125211266Y-127645424D01*
X125209577Y-127652198D01*
X125203384Y-127672204D01*
X125197473Y-127692287D01*
X125117148Y-127922949D01*
X125114806Y-127929526D01*
X125106700Y-127948810D01*
X125098848Y-127968243D01*
X124996398Y-128189966D01*
X124993425Y-128196283D01*
X124983473Y-128214689D01*
X124973766Y-128233256D01*
X124850168Y-128443925D01*
X124846593Y-128449921D01*
X124834914Y-128467236D01*
X124823420Y-128484801D01*
X124679854Y-128682402D01*
X124675711Y-128688021D01*
X124662371Y-128704146D01*
X124649243Y-128720474D01*
X124487081Y-128903122D01*
X124482409Y-128908310D01*
X124467546Y-128923070D01*
X124452902Y-128938023D01*
X124273690Y-129103976D01*
X124268534Y-129108683D01*
X124252324Y-129121904D01*
X124236270Y-129135375D01*
X124041719Y-129283048D01*
X124036128Y-129287230D01*
X124018696Y-129298812D01*
X124001410Y-129310648D01*
X123793376Y-129438631D01*
X123787405Y-129442247D01*
X123768910Y-129452081D01*
X123750569Y-129462164D01*
X123531049Y-129569231D01*
X123531041Y-129569235D01*
X123531032Y-129569239D01*
X123524744Y-129572252D01*
X123505399Y-129580225D01*
X123486142Y-129588479D01*
X123257215Y-129673617D01*
X123257210Y-129673619D01*
X123257204Y-129673621D01*
X123250652Y-129676005D01*
X123230646Y-129682045D01*
X123210647Y-129688389D01*
X122974507Y-129750779D01*
X122974502Y-129750781D01*
X122974496Y-129750782D01*
X122967739Y-129752517D01*
X122947218Y-129756580D01*
X122926720Y-129760937D01*
X122685624Y-129799986D01*
X122685611Y-129799989D01*
X122685595Y-129799991D01*
X122678714Y-129801056D01*
X122657879Y-129803099D01*
X122637066Y-129805433D01*
X122393299Y-129820769D01*
X122386329Y-129821159D01*
X122375863Y-129821159D01*
X122365400Y-129821744D01*
X122330495Y-129821988D01*
X122327122Y-129821988D01*
X122327000Y-129822000D01*
X122326878Y-129821988D01*
X122323514Y-129821988D01*
X122274741Y-129819261D01*
X122231964Y-129812640D01*
X122229455Y-129812393D01*
X122228504Y-129812105D01*
X122226465Y-129811789D01*
X122179150Y-129799640D01*
X122137774Y-129784582D01*
X122135658Y-129783940D01*
X122134906Y-129783538D01*
X122133246Y-129782934D01*
X122089192Y-129761826D01*
X122050877Y-129738623D01*
X122049215Y-129737735D01*
X122048666Y-129737284D01*
X122047407Y-129736522D01*
X122008291Y-129707259D01*
X121974635Y-129676528D01*
X121973447Y-129675553D01*
X121973087Y-129675115D01*
X121972218Y-129674321D01*
X121939531Y-129638018D01*
X121912022Y-129600708D01*
X121911265Y-129599785D01*
X121911062Y-129599405D01*
X121910542Y-129598700D01*
X121885528Y-129556740D01*
X121865452Y-129514075D01*
X121865060Y-129513342D01*
X121864975Y-129513062D01*
X121864729Y-129512539D01*
X121848342Y-129466520D01*
X121836728Y-129419943D01*
X121836607Y-129419545D01*
X121836593Y-129419403D01*
X121836523Y-129419122D01*
X121829387Y-129370796D01*
X121827000Y-129322004D01*
X121827000Y-124322000D01*
X121827630Y-124315605D01*
X121827780Y-124294088D01*
X121832886Y-124245506D01*
X121836054Y-124230073D01*
X121836607Y-124224455D01*
X121838462Y-124218339D01*
X121842708Y-124197654D01*
X121857154Y-124150989D01*
X121863400Y-124136130D01*
X121865060Y-124130658D01*
X121868058Y-124125049D01*
X121876084Y-124105956D01*
X121899319Y-124062986D01*
X121908535Y-124049323D01*
X121911265Y-124044215D01*
X121915279Y-124039323D01*
X121926635Y-124022488D01*
X121957773Y-123984848D01*
X121969737Y-123972967D01*
X121973447Y-123968447D01*
X121978301Y-123964464D01*
X121992436Y-123950427D01*
X122030291Y-123919553D01*
X122044643Y-123910017D01*
X122049215Y-123906265D01*
X122054715Y-123903325D01*
X122070979Y-123892519D01*
X122114111Y-123869586D01*
X122130385Y-123862878D01*
X122135658Y-123860060D01*
X122141586Y-123858262D01*
X122159275Y-123850971D01*
X122206040Y-123836852D01*
X122223679Y-123833359D01*
X122229455Y-123831607D01*
X122235568Y-123831005D01*
X122253960Y-123827363D01*
X122302577Y-123822597D01*
X122320938Y-123822597D01*
X122327000Y-123822000D01*
X122333062Y-123822597D01*
G37*
G36*
X121070938Y-129821403D02*
G01*
X121052574Y-129821403D01*
X120808617Y-129809471D01*
X120801646Y-129809081D01*
X120780828Y-129806746D01*
X120760003Y-129804704D01*
X120518378Y-129769025D01*
X120518372Y-129769024D01*
X120518365Y-129769023D01*
X120511475Y-129767956D01*
X120491018Y-129763608D01*
X120470453Y-129759536D01*
X120233464Y-129700448D01*
X120233459Y-129700447D01*
X120233453Y-129700445D01*
X120226698Y-129698711D01*
X120206761Y-129692386D01*
X120186695Y-129686328D01*
X119956598Y-129604394D01*
X119950038Y-129602006D01*
X119930817Y-129593768D01*
X119911435Y-129585779D01*
X119690431Y-129481783D01*
X119684136Y-129478766D01*
X119665788Y-129468679D01*
X119647299Y-129458849D01*
X119437507Y-129333788D01*
X119437498Y-129333783D01*
X119437488Y-129333776D01*
X119431528Y-129330166D01*
X119414307Y-129318375D01*
X119396811Y-129306750D01*
X119200235Y-129161821D01*
X119200218Y-129161809D01*
X119200199Y-129161794D01*
X119194627Y-129157625D01*
X119178597Y-129144175D01*
X119162363Y-129130934D01*
X118980855Y-128967506D01*
X118980847Y-128967499D01*
X118980838Y-128967490D01*
X118975695Y-128962793D01*
X118961045Y-128947834D01*
X118946186Y-128933077D01*
X118781488Y-128752710D01*
X118776817Y-128747522D01*
X118763709Y-128731218D01*
X118750351Y-128715072D01*
X118604040Y-128519494D01*
X118599898Y-128513875D01*
X118588422Y-128496338D01*
X118576724Y-128478995D01*
X118450203Y-128270084D01*
X118450197Y-128270075D01*
X118450191Y-128270064D01*
X118446622Y-128264078D01*
X118436913Y-128245506D01*
X118426963Y-128227104D01*
X118321426Y-128006833D01*
X118318454Y-128000516D01*
X118310608Y-127981099D01*
X118302496Y-127961799D01*
X118218962Y-127732290D01*
X118218957Y-127732279D01*
X118218953Y-127732265D01*
X118216616Y-127725703D01*
X118210720Y-127705668D01*
X118204512Y-127685615D01*
X118143770Y-127449040D01*
X118142082Y-127442266D01*
X118138165Y-127421731D01*
X118133948Y-127401189D01*
X118096583Y-127159827D01*
X118096580Y-127159813D01*
X118096578Y-127159796D01*
X118095561Y-127152909D01*
X118093664Y-127132064D01*
X118091475Y-127111231D01*
X118077842Y-126867383D01*
X118077840Y-126867363D01*
X118077840Y-126867339D01*
X118077500Y-126860390D01*
X118077646Y-126839547D01*
X118077564Y-126827728D01*
X118077000Y-126822000D01*
X118077616Y-126815744D01*
X118087727Y-126574501D01*
X118087727Y-126574480D01*
X118087729Y-126574455D01*
X118088069Y-126567508D01*
X118090253Y-126546729D01*
X118092155Y-126525832D01*
X118126148Y-126283960D01*
X118127168Y-126277054D01*
X118131375Y-126256558D01*
X118135301Y-126235976D01*
X118192734Y-125998576D01*
X118194423Y-125991802D01*
X118200616Y-125971796D01*
X118206527Y-125951713D01*
X118286852Y-125721051D01*
X118289194Y-125714474D01*
X118297300Y-125695190D01*
X118305152Y-125675757D01*
X118407602Y-125454034D01*
X118410575Y-125447717D01*
X118420527Y-125429311D01*
X118430234Y-125410744D01*
X118553832Y-125200075D01*
X118557407Y-125194079D01*
X118569086Y-125176764D01*
X118580580Y-125159199D01*
X118724146Y-124961598D01*
X118728289Y-124955979D01*
X118741629Y-124939854D01*
X118754757Y-124923526D01*
X118916919Y-124740878D01*
X118921591Y-124735690D01*
X118936454Y-124720930D01*
X118951098Y-124705977D01*
X119130310Y-124540024D01*
X119135466Y-124535317D01*
X119151676Y-124522096D01*
X119167730Y-124508625D01*
X119362281Y-124360952D01*
X119367872Y-124356770D01*
X119385304Y-124345188D01*
X119402590Y-124333352D01*
X119610624Y-124205369D01*
X119616595Y-124201753D01*
X119635090Y-124191919D01*
X119653431Y-124181836D01*
X119872951Y-124074769D01*
X119872959Y-124074765D01*
X119872968Y-124074761D01*
X119879256Y-124071748D01*
X119898601Y-124063775D01*
X119917858Y-124055521D01*
X120146785Y-123970383D01*
X120146790Y-123970381D01*
X120146796Y-123970379D01*
X120153348Y-123967995D01*
X120173354Y-123961955D01*
X120193353Y-123955611D01*
X120429493Y-123893221D01*
X120429498Y-123893219D01*
X120429504Y-123893218D01*
X120436261Y-123891483D01*
X120456782Y-123887420D01*
X120477280Y-123883063D01*
X120718376Y-123844014D01*
X120718389Y-123844011D01*
X120718405Y-123844009D01*
X120725286Y-123842944D01*
X120746121Y-123840901D01*
X120766934Y-123838567D01*
X121010701Y-123823231D01*
X121017671Y-123822841D01*
X121028137Y-123822841D01*
X121038600Y-123822256D01*
X121073505Y-123822012D01*
X121076878Y-123822012D01*
X121077000Y-123822000D01*
X121077122Y-123822012D01*
X121080486Y-123822012D01*
X121129259Y-123824739D01*
X121172036Y-123831360D01*
X121174545Y-123831607D01*
X121175496Y-123831895D01*
X121177535Y-123832211D01*
X121224850Y-123844360D01*
X121266226Y-123859418D01*
X121268342Y-123860060D01*
X121269094Y-123860462D01*
X121270754Y-123861066D01*
X121314808Y-123882174D01*
X121353123Y-123905377D01*
X121354785Y-123906265D01*
X121355334Y-123906716D01*
X121356593Y-123907478D01*
X121395709Y-123936741D01*
X121429365Y-123967472D01*
X121430553Y-123968447D01*
X121430913Y-123968885D01*
X121431782Y-123969679D01*
X121464469Y-124005982D01*
X121491978Y-124043292D01*
X121492735Y-124044215D01*
X121492938Y-124044595D01*
X121493458Y-124045300D01*
X121518472Y-124087260D01*
X121538548Y-124129925D01*
X121538940Y-124130658D01*
X121539025Y-124130938D01*
X121539271Y-124131461D01*
X121555658Y-124177480D01*
X121567272Y-124224057D01*
X121567393Y-124224455D01*
X121567407Y-124224597D01*
X121567477Y-124224878D01*
X121574613Y-124273204D01*
X121577000Y-124321996D01*
X121577000Y-129322000D01*
X121576370Y-129328395D01*
X121576220Y-129349912D01*
X121571114Y-129398494D01*
X121567946Y-129413927D01*
X121567393Y-129419545D01*
X121565538Y-129425661D01*
X121561292Y-129446346D01*
X121546846Y-129493011D01*
X121540600Y-129507870D01*
X121538940Y-129513342D01*
X121535942Y-129518951D01*
X121527916Y-129538044D01*
X121504681Y-129581014D01*
X121495465Y-129594677D01*
X121492735Y-129599785D01*
X121488721Y-129604677D01*
X121477365Y-129621512D01*
X121446227Y-129659152D01*
X121434263Y-129671033D01*
X121430553Y-129675553D01*
X121425699Y-129679536D01*
X121411564Y-129693573D01*
X121373709Y-129724447D01*
X121359357Y-129733983D01*
X121354785Y-129737735D01*
X121349285Y-129740675D01*
X121333021Y-129751481D01*
X121289889Y-129774414D01*
X121273615Y-129781122D01*
X121268342Y-129783940D01*
X121262414Y-129785738D01*
X121244725Y-129793029D01*
X121197960Y-129807148D01*
X121180321Y-129810641D01*
X121174545Y-129812393D01*
X121168432Y-129812995D01*
X121150040Y-129816637D01*
X121101423Y-129821403D01*
X121083062Y-129821403D01*
X121077000Y-129822000D01*
X121070938Y-129821403D01*
G37*
G36*
X130333062Y-115822597D02*
G01*
X130351426Y-115822597D01*
X130595383Y-115834529D01*
X130602354Y-115834919D01*
X130623172Y-115837254D01*
X130643997Y-115839296D01*
X130885622Y-115874975D01*
X130885628Y-115874976D01*
X130885635Y-115874977D01*
X130892525Y-115876044D01*
X130912982Y-115880392D01*
X130933547Y-115884464D01*
X131170536Y-115943552D01*
X131170541Y-115943553D01*
X131170547Y-115943555D01*
X131177302Y-115945289D01*
X131197239Y-115951614D01*
X131217305Y-115957672D01*
X131447402Y-116039606D01*
X131453962Y-116041994D01*
X131473183Y-116050232D01*
X131492565Y-116058221D01*
X131713569Y-116162217D01*
X131719864Y-116165234D01*
X131738212Y-116175321D01*
X131756701Y-116185151D01*
X131966493Y-116310212D01*
X131966502Y-116310217D01*
X131966512Y-116310224D01*
X131972472Y-116313834D01*
X131989693Y-116325625D01*
X132007189Y-116337250D01*
X132203765Y-116482179D01*
X132203782Y-116482191D01*
X132203801Y-116482206D01*
X132209373Y-116486375D01*
X132225403Y-116499825D01*
X132241637Y-116513066D01*
X132423145Y-116676494D01*
X132423153Y-116676501D01*
X132423162Y-116676510D01*
X132428305Y-116681207D01*
X132442955Y-116696166D01*
X132457814Y-116710923D01*
X132622512Y-116891290D01*
X132627183Y-116896478D01*
X132640291Y-116912782D01*
X132653649Y-116928928D01*
X132799960Y-117124506D01*
X132804102Y-117130125D01*
X132815578Y-117147662D01*
X132827276Y-117165005D01*
X132953797Y-117373916D01*
X132953803Y-117373925D01*
X132953809Y-117373936D01*
X132957378Y-117379922D01*
X132967087Y-117398494D01*
X132977037Y-117416896D01*
X133082574Y-117637167D01*
X133085546Y-117643484D01*
X133093392Y-117662901D01*
X133101504Y-117682201D01*
X133185038Y-117911710D01*
X133185043Y-117911721D01*
X133185047Y-117911735D01*
X133187384Y-117918297D01*
X133193280Y-117938332D01*
X133199488Y-117958385D01*
X133260230Y-118194960D01*
X133261918Y-118201734D01*
X133265835Y-118222269D01*
X133270052Y-118242811D01*
X133307417Y-118484173D01*
X133307420Y-118484187D01*
X133307422Y-118484204D01*
X133308439Y-118491091D01*
X133310336Y-118511936D01*
X133312525Y-118532769D01*
X133326158Y-118776617D01*
X133326160Y-118776637D01*
X133326160Y-118776661D01*
X133326500Y-118783610D01*
X133326354Y-118804453D01*
X133326436Y-118816272D01*
X133327000Y-118822000D01*
X133326384Y-118828256D01*
X133316273Y-119069499D01*
X133316273Y-119069520D01*
X133316271Y-119069545D01*
X133315931Y-119076492D01*
X133313747Y-119097271D01*
X133311845Y-119118168D01*
X133277852Y-119360040D01*
X133276832Y-119366946D01*
X133272625Y-119387442D01*
X133268699Y-119408024D01*
X133211266Y-119645424D01*
X133209577Y-119652198D01*
X133203384Y-119672204D01*
X133197473Y-119692287D01*
X133117148Y-119922949D01*
X133114806Y-119929526D01*
X133106700Y-119948810D01*
X133098848Y-119968243D01*
X132996398Y-120189966D01*
X132993425Y-120196283D01*
X132983473Y-120214689D01*
X132973766Y-120233256D01*
X132850168Y-120443925D01*
X132846593Y-120449921D01*
X132834914Y-120467236D01*
X132823420Y-120484801D01*
X132679854Y-120682402D01*
X132675711Y-120688021D01*
X132662371Y-120704146D01*
X132649243Y-120720474D01*
X132487081Y-120903122D01*
X132482409Y-120908310D01*
X132467546Y-120923070D01*
X132452902Y-120938023D01*
X132273690Y-121103976D01*
X132268534Y-121108683D01*
X132252324Y-121121904D01*
X132236270Y-121135375D01*
X132041719Y-121283048D01*
X132036128Y-121287230D01*
X132018696Y-121298812D01*
X132001410Y-121310648D01*
X131793376Y-121438631D01*
X131787405Y-121442247D01*
X131768910Y-121452081D01*
X131750569Y-121462164D01*
X131531049Y-121569231D01*
X131531041Y-121569235D01*
X131531032Y-121569239D01*
X131524744Y-121572252D01*
X131505399Y-121580225D01*
X131486142Y-121588479D01*
X131257215Y-121673617D01*
X131257210Y-121673619D01*
X131257204Y-121673621D01*
X131250652Y-121676005D01*
X131230646Y-121682045D01*
X131210647Y-121688389D01*
X130974507Y-121750779D01*
X130974502Y-121750781D01*
X130974496Y-121750782D01*
X130967739Y-121752517D01*
X130947218Y-121756580D01*
X130926720Y-121760937D01*
X130685624Y-121799986D01*
X130685611Y-121799989D01*
X130685595Y-121799991D01*
X130678714Y-121801056D01*
X130657879Y-121803099D01*
X130637066Y-121805433D01*
X130393299Y-121820769D01*
X130386329Y-121821159D01*
X130375863Y-121821159D01*
X130365400Y-121821744D01*
X130330495Y-121821988D01*
X130327122Y-121821988D01*
X130327000Y-121822000D01*
X130326878Y-121821988D01*
X130323514Y-121821988D01*
X130274741Y-121819261D01*
X130231964Y-121812640D01*
X130229455Y-121812393D01*
X130228504Y-121812105D01*
X130226465Y-121811789D01*
X130179150Y-121799640D01*
X130137774Y-121784582D01*
X130135658Y-121783940D01*
X130134906Y-121783538D01*
X130133246Y-121782934D01*
X130089192Y-121761826D01*
X130050877Y-121738623D01*
X130049215Y-121737735D01*
X130048666Y-121737284D01*
X130047407Y-121736522D01*
X130008291Y-121707259D01*
X129974635Y-121676528D01*
X129973447Y-121675553D01*
X129973087Y-121675115D01*
X129972218Y-121674321D01*
X129939531Y-121638018D01*
X129912022Y-121600708D01*
X129911265Y-121599785D01*
X129911062Y-121599405D01*
X129910542Y-121598700D01*
X129885528Y-121556740D01*
X129865452Y-121514075D01*
X129865060Y-121513342D01*
X129864975Y-121513062D01*
X129864729Y-121512539D01*
X129848342Y-121466520D01*
X129836728Y-121419943D01*
X129836607Y-121419545D01*
X129836593Y-121419403D01*
X129836523Y-121419122D01*
X129829387Y-121370796D01*
X129827000Y-121322004D01*
X129827000Y-116322000D01*
X129827630Y-116315605D01*
X129827780Y-116294088D01*
X129832886Y-116245506D01*
X129836054Y-116230073D01*
X129836607Y-116224455D01*
X129838462Y-116218339D01*
X129842708Y-116197654D01*
X129857154Y-116150989D01*
X129863400Y-116136130D01*
X129865060Y-116130658D01*
X129868058Y-116125049D01*
X129876084Y-116105956D01*
X129899319Y-116062986D01*
X129908535Y-116049323D01*
X129911265Y-116044215D01*
X129915279Y-116039323D01*
X129926635Y-116022488D01*
X129957773Y-115984848D01*
X129969737Y-115972967D01*
X129973447Y-115968447D01*
X129978301Y-115964464D01*
X129992436Y-115950427D01*
X130030291Y-115919553D01*
X130044643Y-115910017D01*
X130049215Y-115906265D01*
X130054715Y-115903325D01*
X130070979Y-115892519D01*
X130114111Y-115869586D01*
X130130385Y-115862878D01*
X130135658Y-115860060D01*
X130141586Y-115858262D01*
X130159275Y-115850971D01*
X130206040Y-115836852D01*
X130223679Y-115833359D01*
X130229455Y-115831607D01*
X130235568Y-115831005D01*
X130253960Y-115827363D01*
X130302577Y-115822597D01*
X130320938Y-115822597D01*
X130327000Y-115822000D01*
X130333062Y-115822597D01*
G37*
G36*
X129070938Y-121821403D02*
G01*
X129052574Y-121821403D01*
X128808617Y-121809471D01*
X128801646Y-121809081D01*
X128780828Y-121806746D01*
X128760003Y-121804704D01*
X128518378Y-121769025D01*
X128518372Y-121769024D01*
X128518365Y-121769023D01*
X128511475Y-121767956D01*
X128491018Y-121763608D01*
X128470453Y-121759536D01*
X128233464Y-121700448D01*
X128233459Y-121700447D01*
X128233453Y-121700445D01*
X128226698Y-121698711D01*
X128206761Y-121692386D01*
X128186695Y-121686328D01*
X127956598Y-121604394D01*
X127950038Y-121602006D01*
X127930817Y-121593768D01*
X127911435Y-121585779D01*
X127690431Y-121481783D01*
X127684136Y-121478766D01*
X127665788Y-121468679D01*
X127647299Y-121458849D01*
X127437507Y-121333788D01*
X127437498Y-121333783D01*
X127437488Y-121333776D01*
X127431528Y-121330166D01*
X127414307Y-121318375D01*
X127396811Y-121306750D01*
X127200235Y-121161821D01*
X127200218Y-121161809D01*
X127200199Y-121161794D01*
X127194627Y-121157625D01*
X127178597Y-121144175D01*
X127162363Y-121130934D01*
X126980855Y-120967506D01*
X126980847Y-120967499D01*
X126980838Y-120967490D01*
X126975695Y-120962793D01*
X126961045Y-120947834D01*
X126946186Y-120933077D01*
X126781488Y-120752710D01*
X126776817Y-120747522D01*
X126763709Y-120731218D01*
X126750351Y-120715072D01*
X126604040Y-120519494D01*
X126599898Y-120513875D01*
X126588422Y-120496338D01*
X126576724Y-120478995D01*
X126450203Y-120270084D01*
X126450197Y-120270075D01*
X126450191Y-120270064D01*
X126446622Y-120264078D01*
X126436913Y-120245506D01*
X126426963Y-120227104D01*
X126321426Y-120006833D01*
X126318454Y-120000516D01*
X126310608Y-119981099D01*
X126302496Y-119961799D01*
X126218962Y-119732290D01*
X126218957Y-119732279D01*
X126218953Y-119732265D01*
X126216616Y-119725703D01*
X126210720Y-119705668D01*
X126204512Y-119685615D01*
X126143770Y-119449040D01*
X126142082Y-119442266D01*
X126138165Y-119421731D01*
X126133948Y-119401189D01*
X126096583Y-119159827D01*
X126096580Y-119159813D01*
X126096578Y-119159796D01*
X126095561Y-119152909D01*
X126093664Y-119132064D01*
X126091475Y-119111231D01*
X126077842Y-118867383D01*
X126077840Y-118867363D01*
X126077840Y-118867339D01*
X126077500Y-118860390D01*
X126077646Y-118839547D01*
X126077564Y-118827728D01*
X126077000Y-118822000D01*
X126077616Y-118815744D01*
X126087727Y-118574501D01*
X126087727Y-118574480D01*
X126087729Y-118574455D01*
X126088069Y-118567508D01*
X126090253Y-118546729D01*
X126092155Y-118525832D01*
X126126148Y-118283960D01*
X126127168Y-118277054D01*
X126131375Y-118256558D01*
X126135301Y-118235976D01*
X126192734Y-117998576D01*
X126194423Y-117991802D01*
X126200616Y-117971796D01*
X126206527Y-117951713D01*
X126286852Y-117721051D01*
X126289194Y-117714474D01*
X126297300Y-117695190D01*
X126305152Y-117675757D01*
X126407602Y-117454034D01*
X126410575Y-117447717D01*
X126420527Y-117429311D01*
X126430234Y-117410744D01*
X126553832Y-117200075D01*
X126557407Y-117194079D01*
X126569086Y-117176764D01*
X126580580Y-117159199D01*
X126724146Y-116961598D01*
X126728289Y-116955979D01*
X126741629Y-116939854D01*
X126754757Y-116923526D01*
X126916919Y-116740878D01*
X126921591Y-116735690D01*
X126936454Y-116720930D01*
X126951098Y-116705977D01*
X127130310Y-116540024D01*
X127135466Y-116535317D01*
X127151676Y-116522096D01*
X127167730Y-116508625D01*
X127362281Y-116360952D01*
X127367872Y-116356770D01*
X127385304Y-116345188D01*
X127402590Y-116333352D01*
X127610624Y-116205369D01*
X127616595Y-116201753D01*
X127635090Y-116191919D01*
X127653431Y-116181836D01*
X127872951Y-116074769D01*
X127872959Y-116074765D01*
X127872968Y-116074761D01*
X127879256Y-116071748D01*
X127898601Y-116063775D01*
X127917858Y-116055521D01*
X128146785Y-115970383D01*
X128146790Y-115970381D01*
X128146796Y-115970379D01*
X128153348Y-115967995D01*
X128173354Y-115961955D01*
X128193353Y-115955611D01*
X128429493Y-115893221D01*
X128429498Y-115893219D01*
X128429504Y-115893218D01*
X128436261Y-115891483D01*
X128456782Y-115887420D01*
X128477280Y-115883063D01*
X128718376Y-115844014D01*
X128718389Y-115844011D01*
X128718405Y-115844009D01*
X128725286Y-115842944D01*
X128746121Y-115840901D01*
X128766934Y-115838567D01*
X129010701Y-115823231D01*
X129017671Y-115822841D01*
X129028137Y-115822841D01*
X129038600Y-115822256D01*
X129073505Y-115822012D01*
X129076878Y-115822012D01*
X129077000Y-115822000D01*
X129077122Y-115822012D01*
X129080486Y-115822012D01*
X129129259Y-115824739D01*
X129172036Y-115831360D01*
X129174545Y-115831607D01*
X129175496Y-115831895D01*
X129177535Y-115832211D01*
X129224850Y-115844360D01*
X129266226Y-115859418D01*
X129268342Y-115860060D01*
X129269094Y-115860462D01*
X129270754Y-115861066D01*
X129314808Y-115882174D01*
X129353123Y-115905377D01*
X129354785Y-115906265D01*
X129355334Y-115906716D01*
X129356593Y-115907478D01*
X129395709Y-115936741D01*
X129429365Y-115967472D01*
X129430553Y-115968447D01*
X129430913Y-115968885D01*
X129431782Y-115969679D01*
X129464469Y-116005982D01*
X129491978Y-116043292D01*
X129492735Y-116044215D01*
X129492938Y-116044595D01*
X129493458Y-116045300D01*
X129518472Y-116087260D01*
X129538548Y-116129925D01*
X129538940Y-116130658D01*
X129539025Y-116130938D01*
X129539271Y-116131461D01*
X129555658Y-116177480D01*
X129567272Y-116224057D01*
X129567393Y-116224455D01*
X129567407Y-116224597D01*
X129567477Y-116224878D01*
X129574613Y-116273204D01*
X129577000Y-116321996D01*
X129577000Y-121322000D01*
X129576370Y-121328395D01*
X129576220Y-121349912D01*
X129571114Y-121398494D01*
X129567946Y-121413927D01*
X129567393Y-121419545D01*
X129565538Y-121425661D01*
X129561292Y-121446346D01*
X129546846Y-121493011D01*
X129540600Y-121507870D01*
X129538940Y-121513342D01*
X129535942Y-121518951D01*
X129527916Y-121538044D01*
X129504681Y-121581014D01*
X129495465Y-121594677D01*
X129492735Y-121599785D01*
X129488721Y-121604677D01*
X129477365Y-121621512D01*
X129446227Y-121659152D01*
X129434263Y-121671033D01*
X129430553Y-121675553D01*
X129425699Y-121679536D01*
X129411564Y-121693573D01*
X129373709Y-121724447D01*
X129359357Y-121733983D01*
X129354785Y-121737735D01*
X129349285Y-121740675D01*
X129333021Y-121751481D01*
X129289889Y-121774414D01*
X129273615Y-121781122D01*
X129268342Y-121783940D01*
X129262414Y-121785738D01*
X129244725Y-121793029D01*
X129197960Y-121807148D01*
X129180321Y-121810641D01*
X129174545Y-121812393D01*
X129168432Y-121812995D01*
X129150040Y-121816637D01*
X129101423Y-121821403D01*
X129083062Y-121821403D01*
X129077000Y-121822000D01*
X129070938Y-121821403D01*
G37*
G36*
X153333062Y-117822597D02*
G01*
X153351426Y-117822597D01*
X153595383Y-117834529D01*
X153602354Y-117834919D01*
X153623172Y-117837254D01*
X153643997Y-117839296D01*
X153885622Y-117874975D01*
X153885628Y-117874976D01*
X153885635Y-117874977D01*
X153892525Y-117876044D01*
X153912982Y-117880392D01*
X153933547Y-117884464D01*
X154170536Y-117943552D01*
X154170541Y-117943553D01*
X154170547Y-117943555D01*
X154177302Y-117945289D01*
X154197239Y-117951614D01*
X154217305Y-117957672D01*
X154447402Y-118039606D01*
X154453962Y-118041994D01*
X154473183Y-118050232D01*
X154492565Y-118058221D01*
X154713569Y-118162217D01*
X154719864Y-118165234D01*
X154738212Y-118175321D01*
X154756701Y-118185151D01*
X154966493Y-118310212D01*
X154966502Y-118310217D01*
X154966512Y-118310224D01*
X154972472Y-118313834D01*
X154989693Y-118325625D01*
X155007189Y-118337250D01*
X155203765Y-118482179D01*
X155203782Y-118482191D01*
X155203801Y-118482206D01*
X155209373Y-118486375D01*
X155225403Y-118499825D01*
X155241637Y-118513066D01*
X155423145Y-118676494D01*
X155423153Y-118676501D01*
X155423162Y-118676510D01*
X155428305Y-118681207D01*
X155442955Y-118696166D01*
X155457814Y-118710923D01*
X155622512Y-118891290D01*
X155627183Y-118896478D01*
X155640291Y-118912782D01*
X155653649Y-118928928D01*
X155799960Y-119124506D01*
X155804102Y-119130125D01*
X155815578Y-119147662D01*
X155827276Y-119165005D01*
X155953797Y-119373916D01*
X155953803Y-119373925D01*
X155953809Y-119373936D01*
X155957378Y-119379922D01*
X155967087Y-119398494D01*
X155977037Y-119416896D01*
X156082574Y-119637167D01*
X156085546Y-119643484D01*
X156093392Y-119662901D01*
X156101504Y-119682201D01*
X156185038Y-119911710D01*
X156185043Y-119911721D01*
X156185047Y-119911735D01*
X156187384Y-119918297D01*
X156193280Y-119938332D01*
X156199488Y-119958385D01*
X156260230Y-120194960D01*
X156261918Y-120201734D01*
X156265835Y-120222269D01*
X156270052Y-120242811D01*
X156307417Y-120484173D01*
X156307420Y-120484187D01*
X156307422Y-120484204D01*
X156308439Y-120491091D01*
X156310336Y-120511936D01*
X156312525Y-120532769D01*
X156326158Y-120776617D01*
X156326160Y-120776637D01*
X156326160Y-120776661D01*
X156326500Y-120783610D01*
X156326354Y-120804453D01*
X156326436Y-120816272D01*
X156327000Y-120822000D01*
X156326384Y-120828256D01*
X156316273Y-121069499D01*
X156316273Y-121069520D01*
X156316271Y-121069545D01*
X156315931Y-121076492D01*
X156313747Y-121097271D01*
X156311845Y-121118168D01*
X156277852Y-121360040D01*
X156276832Y-121366946D01*
X156272625Y-121387442D01*
X156268699Y-121408024D01*
X156211266Y-121645424D01*
X156209577Y-121652198D01*
X156203384Y-121672204D01*
X156197473Y-121692287D01*
X156117148Y-121922949D01*
X156114806Y-121929526D01*
X156106700Y-121948810D01*
X156098848Y-121968243D01*
X155996398Y-122189966D01*
X155993425Y-122196283D01*
X155983473Y-122214689D01*
X155973766Y-122233256D01*
X155850168Y-122443925D01*
X155846593Y-122449921D01*
X155834914Y-122467236D01*
X155823420Y-122484801D01*
X155679854Y-122682402D01*
X155675711Y-122688021D01*
X155662371Y-122704146D01*
X155649243Y-122720474D01*
X155487081Y-122903122D01*
X155482409Y-122908310D01*
X155467546Y-122923070D01*
X155452902Y-122938023D01*
X155273690Y-123103976D01*
X155268534Y-123108683D01*
X155252324Y-123121904D01*
X155236270Y-123135375D01*
X155041719Y-123283048D01*
X155036128Y-123287230D01*
X155018696Y-123298812D01*
X155001410Y-123310648D01*
X154793376Y-123438631D01*
X154787405Y-123442247D01*
X154768910Y-123452081D01*
X154750569Y-123462164D01*
X154531049Y-123569231D01*
X154531041Y-123569235D01*
X154531032Y-123569239D01*
X154524744Y-123572252D01*
X154505399Y-123580225D01*
X154486142Y-123588479D01*
X154257215Y-123673617D01*
X154257210Y-123673619D01*
X154257204Y-123673621D01*
X154250652Y-123676005D01*
X154230646Y-123682045D01*
X154210647Y-123688389D01*
X153974507Y-123750779D01*
X153974502Y-123750781D01*
X153974496Y-123750782D01*
X153967739Y-123752517D01*
X153947218Y-123756580D01*
X153926720Y-123760937D01*
X153685624Y-123799986D01*
X153685611Y-123799989D01*
X153685595Y-123799991D01*
X153678714Y-123801056D01*
X153657879Y-123803099D01*
X153637066Y-123805433D01*
X153393299Y-123820769D01*
X153386329Y-123821159D01*
X153375863Y-123821159D01*
X153365400Y-123821744D01*
X153330495Y-123821988D01*
X153327122Y-123821988D01*
X153327000Y-123822000D01*
X153326878Y-123821988D01*
X153323514Y-123821988D01*
X153274741Y-123819261D01*
X153231964Y-123812640D01*
X153229455Y-123812393D01*
X153228504Y-123812105D01*
X153226465Y-123811789D01*
X153179150Y-123799640D01*
X153137774Y-123784582D01*
X153135658Y-123783940D01*
X153134906Y-123783538D01*
X153133246Y-123782934D01*
X153089192Y-123761826D01*
X153050877Y-123738623D01*
X153049215Y-123737735D01*
X153048666Y-123737284D01*
X153047407Y-123736522D01*
X153008291Y-123707259D01*
X152974635Y-123676528D01*
X152973447Y-123675553D01*
X152973087Y-123675115D01*
X152972218Y-123674321D01*
X152939531Y-123638018D01*
X152912022Y-123600708D01*
X152911265Y-123599785D01*
X152911062Y-123599405D01*
X152910542Y-123598700D01*
X152885528Y-123556740D01*
X152865452Y-123514075D01*
X152865060Y-123513342D01*
X152864975Y-123513062D01*
X152864729Y-123512539D01*
X152848342Y-123466520D01*
X152836728Y-123419943D01*
X152836607Y-123419545D01*
X152836593Y-123419403D01*
X152836523Y-123419122D01*
X152829387Y-123370796D01*
X152827000Y-123322004D01*
X152827000Y-118322000D01*
X152827630Y-118315605D01*
X152827780Y-118294088D01*
X152832886Y-118245506D01*
X152836054Y-118230073D01*
X152836607Y-118224455D01*
X152838462Y-118218339D01*
X152842708Y-118197654D01*
X152857154Y-118150989D01*
X152863400Y-118136130D01*
X152865060Y-118130658D01*
X152868058Y-118125049D01*
X152876084Y-118105956D01*
X152899319Y-118062986D01*
X152908535Y-118049323D01*
X152911265Y-118044215D01*
X152915279Y-118039323D01*
X152926635Y-118022488D01*
X152957773Y-117984848D01*
X152969737Y-117972967D01*
X152973447Y-117968447D01*
X152978301Y-117964464D01*
X152992436Y-117950427D01*
X153030291Y-117919553D01*
X153044643Y-117910017D01*
X153049215Y-117906265D01*
X153054715Y-117903325D01*
X153070979Y-117892519D01*
X153114111Y-117869586D01*
X153130385Y-117862878D01*
X153135658Y-117860060D01*
X153141586Y-117858262D01*
X153159275Y-117850971D01*
X153206040Y-117836852D01*
X153223679Y-117833359D01*
X153229455Y-117831607D01*
X153235568Y-117831005D01*
X153253960Y-117827363D01*
X153302577Y-117822597D01*
X153320938Y-117822597D01*
X153327000Y-117822000D01*
X153333062Y-117822597D01*
G37*
G36*
X162040938Y-124071403D02*
G01*
X162022574Y-124071403D01*
X161778617Y-124059471D01*
X161771646Y-124059081D01*
X161750828Y-124056746D01*
X161730003Y-124054704D01*
X161488378Y-124019025D01*
X161488372Y-124019024D01*
X161488365Y-124019023D01*
X161481475Y-124017956D01*
X161461018Y-124013608D01*
X161440453Y-124009536D01*
X161203464Y-123950448D01*
X161203459Y-123950447D01*
X161203453Y-123950445D01*
X161196698Y-123948711D01*
X161176761Y-123942386D01*
X161156695Y-123936328D01*
X160926598Y-123854394D01*
X160920038Y-123852006D01*
X160900817Y-123843768D01*
X160881435Y-123835779D01*
X160660431Y-123731783D01*
X160654136Y-123728766D01*
X160635788Y-123718679D01*
X160617299Y-123708849D01*
X160407507Y-123583788D01*
X160407498Y-123583783D01*
X160407488Y-123583776D01*
X160401528Y-123580166D01*
X160384307Y-123568375D01*
X160366811Y-123556750D01*
X160170235Y-123411821D01*
X160170218Y-123411809D01*
X160170199Y-123411794D01*
X160164627Y-123407625D01*
X160148597Y-123394175D01*
X160132363Y-123380934D01*
X159950855Y-123217506D01*
X159950847Y-123217499D01*
X159950838Y-123217490D01*
X159945695Y-123212793D01*
X159931045Y-123197834D01*
X159916186Y-123183077D01*
X159751488Y-123002710D01*
X159746817Y-122997522D01*
X159733709Y-122981218D01*
X159720351Y-122965072D01*
X159574040Y-122769494D01*
X159569898Y-122763875D01*
X159558422Y-122746338D01*
X159546724Y-122728995D01*
X159420203Y-122520084D01*
X159420197Y-122520075D01*
X159420191Y-122520064D01*
X159416622Y-122514078D01*
X159406913Y-122495506D01*
X159396963Y-122477104D01*
X159291426Y-122256833D01*
X159288454Y-122250516D01*
X159280608Y-122231099D01*
X159272496Y-122211799D01*
X159188962Y-121982290D01*
X159188957Y-121982279D01*
X159188953Y-121982265D01*
X159186616Y-121975703D01*
X159180720Y-121955668D01*
X159174512Y-121935615D01*
X159113770Y-121699040D01*
X159112082Y-121692266D01*
X159108165Y-121671731D01*
X159103948Y-121651189D01*
X159066583Y-121409827D01*
X159066580Y-121409813D01*
X159066578Y-121409796D01*
X159065561Y-121402909D01*
X159063664Y-121382064D01*
X159061475Y-121361231D01*
X159047842Y-121117383D01*
X159047840Y-121117363D01*
X159047840Y-121117339D01*
X159047500Y-121110390D01*
X159047646Y-121089547D01*
X159047564Y-121077728D01*
X159047000Y-121072000D01*
X159047616Y-121065744D01*
X159057727Y-120824501D01*
X159057727Y-120824480D01*
X159057729Y-120824455D01*
X159058069Y-120817508D01*
X159060253Y-120796729D01*
X159062155Y-120775832D01*
X159096148Y-120533960D01*
X159097168Y-120527054D01*
X159101375Y-120506558D01*
X159105301Y-120485976D01*
X159162734Y-120248576D01*
X159164423Y-120241802D01*
X159170616Y-120221796D01*
X159176527Y-120201713D01*
X159256852Y-119971051D01*
X159259194Y-119964474D01*
X159267300Y-119945190D01*
X159275152Y-119925757D01*
X159377602Y-119704034D01*
X159380575Y-119697717D01*
X159390527Y-119679311D01*
X159400234Y-119660744D01*
X159523832Y-119450075D01*
X159527407Y-119444079D01*
X159539086Y-119426764D01*
X159550580Y-119409199D01*
X159694146Y-119211598D01*
X159698289Y-119205979D01*
X159711629Y-119189854D01*
X159724757Y-119173526D01*
X159886919Y-118990878D01*
X159891591Y-118985690D01*
X159906454Y-118970930D01*
X159921098Y-118955977D01*
X160100310Y-118790024D01*
X160105466Y-118785317D01*
X160121676Y-118772096D01*
X160137730Y-118758625D01*
X160332281Y-118610952D01*
X160337872Y-118606770D01*
X160355304Y-118595188D01*
X160372590Y-118583352D01*
X160580624Y-118455369D01*
X160586595Y-118451753D01*
X160605090Y-118441919D01*
X160623431Y-118431836D01*
X160842951Y-118324769D01*
X160842959Y-118324765D01*
X160842968Y-118324761D01*
X160849256Y-118321748D01*
X160868601Y-118313775D01*
X160887858Y-118305521D01*
X161116785Y-118220383D01*
X161116790Y-118220381D01*
X161116796Y-118220379D01*
X161123348Y-118217995D01*
X161143354Y-118211955D01*
X161163353Y-118205611D01*
X161399493Y-118143221D01*
X161399498Y-118143219D01*
X161399504Y-118143218D01*
X161406261Y-118141483D01*
X161426782Y-118137420D01*
X161447280Y-118133063D01*
X161688376Y-118094014D01*
X161688389Y-118094011D01*
X161688405Y-118094009D01*
X161695286Y-118092944D01*
X161716121Y-118090901D01*
X161736934Y-118088567D01*
X161980701Y-118073231D01*
X161987671Y-118072841D01*
X161998137Y-118072841D01*
X162008600Y-118072256D01*
X162043505Y-118072012D01*
X162046878Y-118072012D01*
X162047000Y-118072000D01*
X162047122Y-118072012D01*
X162050486Y-118072012D01*
X162099259Y-118074739D01*
X162142036Y-118081360D01*
X162144545Y-118081607D01*
X162145496Y-118081895D01*
X162147535Y-118082211D01*
X162194850Y-118094360D01*
X162236226Y-118109418D01*
X162238342Y-118110060D01*
X162239094Y-118110462D01*
X162240754Y-118111066D01*
X162284808Y-118132174D01*
X162323123Y-118155377D01*
X162324785Y-118156265D01*
X162325334Y-118156716D01*
X162326593Y-118157478D01*
X162365709Y-118186741D01*
X162399365Y-118217472D01*
X162400553Y-118218447D01*
X162400913Y-118218885D01*
X162401782Y-118219679D01*
X162434469Y-118255982D01*
X162461978Y-118293292D01*
X162462735Y-118294215D01*
X162462938Y-118294595D01*
X162463458Y-118295300D01*
X162488472Y-118337260D01*
X162508548Y-118379925D01*
X162508940Y-118380658D01*
X162509025Y-118380938D01*
X162509271Y-118381461D01*
X162525658Y-118427480D01*
X162537272Y-118474057D01*
X162537393Y-118474455D01*
X162537407Y-118474597D01*
X162537477Y-118474878D01*
X162544613Y-118523204D01*
X162547000Y-118571996D01*
X162547000Y-123572000D01*
X162546370Y-123578395D01*
X162546220Y-123599912D01*
X162541114Y-123648494D01*
X162537946Y-123663927D01*
X162537393Y-123669545D01*
X162535538Y-123675661D01*
X162531292Y-123696346D01*
X162516846Y-123743011D01*
X162510600Y-123757870D01*
X162508940Y-123763342D01*
X162505942Y-123768951D01*
X162497916Y-123788044D01*
X162474681Y-123831014D01*
X162465465Y-123844677D01*
X162462735Y-123849785D01*
X162458721Y-123854677D01*
X162447365Y-123871512D01*
X162416227Y-123909152D01*
X162404263Y-123921033D01*
X162400553Y-123925553D01*
X162395699Y-123929536D01*
X162381564Y-123943573D01*
X162343709Y-123974447D01*
X162329357Y-123983983D01*
X162324785Y-123987735D01*
X162319285Y-123990675D01*
X162303021Y-124001481D01*
X162259889Y-124024414D01*
X162243615Y-124031122D01*
X162238342Y-124033940D01*
X162232414Y-124035738D01*
X162214725Y-124043029D01*
X162167960Y-124057148D01*
X162150321Y-124060641D01*
X162144545Y-124062393D01*
X162138432Y-124062995D01*
X162120040Y-124066637D01*
X162071423Y-124071403D01*
X162053062Y-124071403D01*
X162047000Y-124072000D01*
X162040938Y-124071403D01*
G37*
G36*
X167063062Y-113432597D02*
G01*
X167081426Y-113432597D01*
X167325383Y-113444529D01*
X167332354Y-113444919D01*
X167353172Y-113447254D01*
X167373997Y-113449296D01*
X167615622Y-113484975D01*
X167615628Y-113484976D01*
X167615635Y-113484977D01*
X167622525Y-113486044D01*
X167642982Y-113490392D01*
X167663547Y-113494464D01*
X167900536Y-113553552D01*
X167900541Y-113553553D01*
X167900547Y-113553555D01*
X167907302Y-113555289D01*
X167927239Y-113561614D01*
X167947305Y-113567672D01*
X168177402Y-113649606D01*
X168183962Y-113651994D01*
X168203183Y-113660232D01*
X168222565Y-113668221D01*
X168443569Y-113772217D01*
X168449864Y-113775234D01*
X168468212Y-113785321D01*
X168486701Y-113795151D01*
X168696493Y-113920212D01*
X168696502Y-113920217D01*
X168696512Y-113920224D01*
X168702472Y-113923834D01*
X168719693Y-113935625D01*
X168737189Y-113947250D01*
X168933765Y-114092179D01*
X168933782Y-114092191D01*
X168933801Y-114092206D01*
X168939373Y-114096375D01*
X168955403Y-114109825D01*
X168971637Y-114123066D01*
X169153145Y-114286494D01*
X169153153Y-114286501D01*
X169153162Y-114286510D01*
X169158305Y-114291207D01*
X169172955Y-114306166D01*
X169187814Y-114320923D01*
X169352512Y-114501290D01*
X169357183Y-114506478D01*
X169370291Y-114522782D01*
X169383649Y-114538928D01*
X169529960Y-114734506D01*
X169534102Y-114740125D01*
X169545578Y-114757662D01*
X169557276Y-114775005D01*
X169683797Y-114983916D01*
X169683803Y-114983925D01*
X169683809Y-114983936D01*
X169687378Y-114989922D01*
X169697087Y-115008494D01*
X169707037Y-115026896D01*
X169812574Y-115247167D01*
X169815546Y-115253484D01*
X169823392Y-115272901D01*
X169831504Y-115292201D01*
X169915038Y-115521710D01*
X169915043Y-115521721D01*
X169915047Y-115521735D01*
X169917384Y-115528297D01*
X169923280Y-115548332D01*
X169929488Y-115568385D01*
X169990230Y-115804960D01*
X169991918Y-115811734D01*
X169995835Y-115832269D01*
X170000052Y-115852811D01*
X170037417Y-116094173D01*
X170037420Y-116094187D01*
X170037422Y-116094204D01*
X170038439Y-116101091D01*
X170040336Y-116121936D01*
X170042525Y-116142769D01*
X170056158Y-116386617D01*
X170056160Y-116386637D01*
X170056160Y-116386661D01*
X170056500Y-116393610D01*
X170056354Y-116414453D01*
X170056436Y-116426272D01*
X170057000Y-116432000D01*
X170056384Y-116438256D01*
X170046273Y-116679499D01*
X170046273Y-116679520D01*
X170046271Y-116679545D01*
X170045931Y-116686492D01*
X170043747Y-116707271D01*
X170041845Y-116728168D01*
X170007852Y-116970040D01*
X170006832Y-116976946D01*
X170002625Y-116997442D01*
X169998699Y-117018024D01*
X169941266Y-117255424D01*
X169939577Y-117262198D01*
X169933384Y-117282204D01*
X169927473Y-117302287D01*
X169847148Y-117532949D01*
X169844806Y-117539526D01*
X169836700Y-117558810D01*
X169828848Y-117578243D01*
X169726398Y-117799966D01*
X169723425Y-117806283D01*
X169713473Y-117824689D01*
X169703766Y-117843256D01*
X169580168Y-118053925D01*
X169576593Y-118059921D01*
X169564914Y-118077236D01*
X169553420Y-118094801D01*
X169409854Y-118292402D01*
X169405711Y-118298021D01*
X169392371Y-118314146D01*
X169379243Y-118330474D01*
X169217081Y-118513122D01*
X169212409Y-118518310D01*
X169197546Y-118533070D01*
X169182902Y-118548023D01*
X169003690Y-118713976D01*
X168998534Y-118718683D01*
X168982324Y-118731904D01*
X168966270Y-118745375D01*
X168771719Y-118893048D01*
X168766128Y-118897230D01*
X168748696Y-118908812D01*
X168731410Y-118920648D01*
X168523376Y-119048631D01*
X168517405Y-119052247D01*
X168498910Y-119062081D01*
X168480569Y-119072164D01*
X168261049Y-119179231D01*
X168261041Y-119179235D01*
X168261032Y-119179239D01*
X168254744Y-119182252D01*
X168235399Y-119190225D01*
X168216142Y-119198479D01*
X167987215Y-119283617D01*
X167987210Y-119283619D01*
X167987204Y-119283621D01*
X167980652Y-119286005D01*
X167960646Y-119292045D01*
X167940647Y-119298389D01*
X167704507Y-119360779D01*
X167704502Y-119360781D01*
X167704496Y-119360782D01*
X167697739Y-119362517D01*
X167677218Y-119366580D01*
X167656720Y-119370937D01*
X167415624Y-119409986D01*
X167415611Y-119409989D01*
X167415595Y-119409991D01*
X167408714Y-119411056D01*
X167387879Y-119413099D01*
X167367066Y-119415433D01*
X167123299Y-119430769D01*
X167116329Y-119431159D01*
X167105863Y-119431159D01*
X167095400Y-119431744D01*
X167060495Y-119431988D01*
X167057122Y-119431988D01*
X167057000Y-119432000D01*
X167056878Y-119431988D01*
X167053514Y-119431988D01*
X167004741Y-119429261D01*
X166961964Y-119422640D01*
X166959455Y-119422393D01*
X166958504Y-119422105D01*
X166956465Y-119421789D01*
X166909150Y-119409640D01*
X166867774Y-119394582D01*
X166865658Y-119393940D01*
X166864906Y-119393538D01*
X166863246Y-119392934D01*
X166819192Y-119371826D01*
X166780877Y-119348623D01*
X166779215Y-119347735D01*
X166778666Y-119347284D01*
X166777407Y-119346522D01*
X166738291Y-119317259D01*
X166704635Y-119286528D01*
X166703447Y-119285553D01*
X166703087Y-119285115D01*
X166702218Y-119284321D01*
X166669531Y-119248018D01*
X166642022Y-119210708D01*
X166641265Y-119209785D01*
X166641062Y-119209405D01*
X166640542Y-119208700D01*
X166615528Y-119166740D01*
X166595452Y-119124075D01*
X166595060Y-119123342D01*
X166594975Y-119123062D01*
X166594729Y-119122539D01*
X166578342Y-119076520D01*
X166566728Y-119029943D01*
X166566607Y-119029545D01*
X166566593Y-119029403D01*
X166566523Y-119029122D01*
X166559387Y-118980796D01*
X166557000Y-118932004D01*
X166557000Y-113932000D01*
X166557630Y-113925605D01*
X166557780Y-113904088D01*
X166562886Y-113855506D01*
X166566054Y-113840073D01*
X166566607Y-113834455D01*
X166568462Y-113828339D01*
X166572708Y-113807654D01*
X166587154Y-113760989D01*
X166593400Y-113746130D01*
X166595060Y-113740658D01*
X166598058Y-113735049D01*
X166606084Y-113715956D01*
X166629319Y-113672986D01*
X166638535Y-113659323D01*
X166641265Y-113654215D01*
X166645279Y-113649323D01*
X166656635Y-113632488D01*
X166687773Y-113594848D01*
X166699737Y-113582967D01*
X166703447Y-113578447D01*
X166708301Y-113574464D01*
X166722436Y-113560427D01*
X166760291Y-113529553D01*
X166774643Y-113520017D01*
X166779215Y-113516265D01*
X166784715Y-113513325D01*
X166800979Y-113502519D01*
X166844111Y-113479586D01*
X166860385Y-113472878D01*
X166865658Y-113470060D01*
X166871586Y-113468262D01*
X166889275Y-113460971D01*
X166936040Y-113446852D01*
X166953679Y-113443359D01*
X166959455Y-113441607D01*
X166965568Y-113441005D01*
X166983960Y-113437363D01*
X167032577Y-113432597D01*
X167050938Y-113432597D01*
X167057000Y-113432000D01*
X167063062Y-113432597D01*
G37*
G36*
X175820938Y-119571403D02*
G01*
X175802574Y-119571403D01*
X175558617Y-119559471D01*
X175551646Y-119559081D01*
X175530828Y-119556746D01*
X175510003Y-119554704D01*
X175268378Y-119519025D01*
X175268372Y-119519024D01*
X175268365Y-119519023D01*
X175261475Y-119517956D01*
X175241018Y-119513608D01*
X175220453Y-119509536D01*
X174983464Y-119450448D01*
X174983459Y-119450447D01*
X174983453Y-119450445D01*
X174976698Y-119448711D01*
X174956761Y-119442386D01*
X174936695Y-119436328D01*
X174706598Y-119354394D01*
X174700038Y-119352006D01*
X174680817Y-119343768D01*
X174661435Y-119335779D01*
X174440431Y-119231783D01*
X174434136Y-119228766D01*
X174415788Y-119218679D01*
X174397299Y-119208849D01*
X174187507Y-119083788D01*
X174187498Y-119083783D01*
X174187488Y-119083776D01*
X174181528Y-119080166D01*
X174164307Y-119068375D01*
X174146811Y-119056750D01*
X173950235Y-118911821D01*
X173950218Y-118911809D01*
X173950199Y-118911794D01*
X173944627Y-118907625D01*
X173928597Y-118894175D01*
X173912363Y-118880934D01*
X173730855Y-118717506D01*
X173730847Y-118717499D01*
X173730838Y-118717490D01*
X173725695Y-118712793D01*
X173711045Y-118697834D01*
X173696186Y-118683077D01*
X173531488Y-118502710D01*
X173526817Y-118497522D01*
X173513709Y-118481218D01*
X173500351Y-118465072D01*
X173354040Y-118269494D01*
X173349898Y-118263875D01*
X173338422Y-118246338D01*
X173326724Y-118228995D01*
X173200203Y-118020084D01*
X173200197Y-118020075D01*
X173200191Y-118020064D01*
X173196622Y-118014078D01*
X173186913Y-117995506D01*
X173176963Y-117977104D01*
X173071426Y-117756833D01*
X173068454Y-117750516D01*
X173060608Y-117731099D01*
X173052496Y-117711799D01*
X172968962Y-117482290D01*
X172968957Y-117482279D01*
X172968953Y-117482265D01*
X172966616Y-117475703D01*
X172960720Y-117455668D01*
X172954512Y-117435615D01*
X172893770Y-117199040D01*
X172892082Y-117192266D01*
X172888165Y-117171731D01*
X172883948Y-117151189D01*
X172846583Y-116909827D01*
X172846580Y-116909813D01*
X172846578Y-116909796D01*
X172845561Y-116902909D01*
X172843664Y-116882064D01*
X172841475Y-116861231D01*
X172827842Y-116617383D01*
X172827840Y-116617363D01*
X172827840Y-116617339D01*
X172827500Y-116610390D01*
X172827646Y-116589547D01*
X172827564Y-116577728D01*
X172827000Y-116572000D01*
X172827616Y-116565744D01*
X172837727Y-116324501D01*
X172837727Y-116324480D01*
X172837729Y-116324455D01*
X172838069Y-116317508D01*
X172840253Y-116296729D01*
X172842155Y-116275832D01*
X172876148Y-116033960D01*
X172877168Y-116027054D01*
X172881375Y-116006558D01*
X172885301Y-115985976D01*
X172942734Y-115748576D01*
X172944423Y-115741802D01*
X172950616Y-115721796D01*
X172956527Y-115701713D01*
X173036852Y-115471051D01*
X173039194Y-115464474D01*
X173047300Y-115445190D01*
X173055152Y-115425757D01*
X173157602Y-115204034D01*
X173160575Y-115197717D01*
X173170527Y-115179311D01*
X173180234Y-115160744D01*
X173303832Y-114950075D01*
X173307407Y-114944079D01*
X173319086Y-114926764D01*
X173330580Y-114909199D01*
X173474146Y-114711598D01*
X173478289Y-114705979D01*
X173491629Y-114689854D01*
X173504757Y-114673526D01*
X173666919Y-114490878D01*
X173671591Y-114485690D01*
X173686454Y-114470930D01*
X173701098Y-114455977D01*
X173880310Y-114290024D01*
X173885466Y-114285317D01*
X173901676Y-114272096D01*
X173917730Y-114258625D01*
X174112281Y-114110952D01*
X174117872Y-114106770D01*
X174135304Y-114095188D01*
X174152590Y-114083352D01*
X174360624Y-113955369D01*
X174366595Y-113951753D01*
X174385090Y-113941919D01*
X174403431Y-113931836D01*
X174622951Y-113824769D01*
X174622959Y-113824765D01*
X174622968Y-113824761D01*
X174629256Y-113821748D01*
X174648601Y-113813775D01*
X174667858Y-113805521D01*
X174896785Y-113720383D01*
X174896790Y-113720381D01*
X174896796Y-113720379D01*
X174903348Y-113717995D01*
X174923354Y-113711955D01*
X174943353Y-113705611D01*
X175179493Y-113643221D01*
X175179498Y-113643219D01*
X175179504Y-113643218D01*
X175186261Y-113641483D01*
X175206782Y-113637420D01*
X175227280Y-113633063D01*
X175468376Y-113594014D01*
X175468389Y-113594011D01*
X175468405Y-113594009D01*
X175475286Y-113592944D01*
X175496121Y-113590901D01*
X175516934Y-113588567D01*
X175760701Y-113573231D01*
X175767671Y-113572841D01*
X175778137Y-113572841D01*
X175788600Y-113572256D01*
X175823505Y-113572012D01*
X175826878Y-113572012D01*
X175827000Y-113572000D01*
X175827122Y-113572012D01*
X175830486Y-113572012D01*
X175879259Y-113574739D01*
X175922036Y-113581360D01*
X175924545Y-113581607D01*
X175925496Y-113581895D01*
X175927535Y-113582211D01*
X175974850Y-113594360D01*
X176016226Y-113609418D01*
X176018342Y-113610060D01*
X176019094Y-113610462D01*
X176020754Y-113611066D01*
X176064808Y-113632174D01*
X176103123Y-113655377D01*
X176104785Y-113656265D01*
X176105334Y-113656716D01*
X176106593Y-113657478D01*
X176145709Y-113686741D01*
X176179365Y-113717472D01*
X176180553Y-113718447D01*
X176180913Y-113718885D01*
X176181782Y-113719679D01*
X176214469Y-113755982D01*
X176241978Y-113793292D01*
X176242735Y-113794215D01*
X176242938Y-113794595D01*
X176243458Y-113795300D01*
X176268472Y-113837260D01*
X176288548Y-113879925D01*
X176288940Y-113880658D01*
X176289025Y-113880938D01*
X176289271Y-113881461D01*
X176305658Y-113927480D01*
X176317272Y-113974057D01*
X176317393Y-113974455D01*
X176317407Y-113974597D01*
X176317477Y-113974878D01*
X176324613Y-114023204D01*
X176327000Y-114071996D01*
X176327000Y-119072000D01*
X176326370Y-119078395D01*
X176326220Y-119099912D01*
X176321114Y-119148494D01*
X176317946Y-119163927D01*
X176317393Y-119169545D01*
X176315538Y-119175661D01*
X176311292Y-119196346D01*
X176296846Y-119243011D01*
X176290600Y-119257870D01*
X176288940Y-119263342D01*
X176285942Y-119268951D01*
X176277916Y-119288044D01*
X176254681Y-119331014D01*
X176245465Y-119344677D01*
X176242735Y-119349785D01*
X176238721Y-119354677D01*
X176227365Y-119371512D01*
X176196227Y-119409152D01*
X176184263Y-119421033D01*
X176180553Y-119425553D01*
X176175699Y-119429536D01*
X176161564Y-119443573D01*
X176123709Y-119474447D01*
X176109357Y-119483983D01*
X176104785Y-119487735D01*
X176099285Y-119490675D01*
X176083021Y-119501481D01*
X176039889Y-119524414D01*
X176023615Y-119531122D01*
X176018342Y-119533940D01*
X176012414Y-119535738D01*
X175994725Y-119543029D01*
X175947960Y-119557148D01*
X175930321Y-119560641D01*
X175924545Y-119562393D01*
X175918432Y-119562995D01*
X175900040Y-119566637D01*
X175851423Y-119571403D01*
X175833062Y-119571403D01*
X175827000Y-119572000D01*
X175820938Y-119571403D01*
G37*
G36*
X156582000Y-117822000D02*
G01*
X157577000Y-117822000D01*
X157577000Y-123822000D01*
X156577000Y-123822000D01*
X156577000Y-117827000D01*
X156572000Y-117827000D01*
X156572000Y-117817000D01*
X156582000Y-117817000D01*
X156582000Y-117822000D01*
G37*
G36*
X157832000Y-118322000D02*
G01*
X158827000Y-118322000D01*
X158827000Y-124322000D01*
X157827000Y-124322000D01*
X157827000Y-118327000D01*
X157822000Y-118327000D01*
X157822000Y-118317000D01*
X157832000Y-118317000D01*
X157832000Y-118322000D01*
G37*
G36*
X170332000Y-113322000D02*
G01*
X171327000Y-113322000D01*
X171327000Y-119322000D01*
X170327000Y-119322000D01*
X170327000Y-113327000D01*
X170322000Y-113327000D01*
X170322000Y-113317000D01*
X170332000Y-113317000D01*
X170332000Y-113322000D01*
G37*
G36*
X171582000Y-114322000D02*
G01*
X172577000Y-114322000D01*
X172577000Y-120322000D01*
X171577000Y-120322000D01*
X171577000Y-114327000D01*
X171572000Y-114327000D01*
X171572000Y-114317000D01*
X171582000Y-114317000D01*
X171582000Y-114322000D01*
G37*
G36*
X134582000Y-138122000D02*
G01*
X135577000Y-138122000D01*
X135577000Y-144122000D01*
X134577000Y-144122000D01*
X134577000Y-138127000D01*
X134572000Y-138127000D01*
X134572000Y-138117000D01*
X134582000Y-138117000D01*
X134582000Y-138122000D01*
G37*
G36*
X135982000Y-138822000D02*
G01*
X136977000Y-138822000D01*
X136977000Y-144822000D01*
X135977000Y-144822000D01*
X135977000Y-138827000D01*
X135972000Y-138827000D01*
X135972000Y-138817000D01*
X135982000Y-138817000D01*
X135982000Y-138822000D01*
G37*
G36*
X137332000Y-138122000D02*
G01*
X138327000Y-138122000D01*
X138327000Y-144122000D01*
X137327000Y-144122000D01*
X137327000Y-138127000D01*
X137322000Y-138127000D01*
X137322000Y-138117000D01*
X137332000Y-138117000D01*
X137332000Y-138122000D01*
G37*
G36*
X138682000Y-138822000D02*
G01*
X139677000Y-138822000D01*
X139677000Y-144822000D01*
X138677000Y-144822000D01*
X138677000Y-138827000D01*
X138672000Y-138827000D01*
X138672000Y-138817000D01*
X138682000Y-138817000D01*
X138682000Y-138822000D01*
G37*
G36*
X139982000Y-138122000D02*
G01*
X140977000Y-138122000D01*
X140977000Y-144122000D01*
X139977000Y-144122000D01*
X139977000Y-138127000D01*
X139972000Y-138127000D01*
X139972000Y-138117000D01*
X139982000Y-138117000D01*
X139982000Y-138122000D01*
G37*
G36*
X141382000Y-138822000D02*
G01*
X142377000Y-138822000D01*
X142377000Y-144822000D01*
X141377000Y-144822000D01*
X141377000Y-138827000D01*
X141372000Y-138827000D01*
X141372000Y-138817000D01*
X141382000Y-138817000D01*
X141382000Y-138822000D01*
G37*
G36*
X145782000Y-137922000D02*
G01*
X146777000Y-137922000D01*
X146777000Y-143922000D01*
X145777000Y-143922000D01*
X145777000Y-137927000D01*
X145772000Y-137927000D01*
X145772000Y-137917000D01*
X145782000Y-137917000D01*
X145782000Y-137922000D01*
G37*
G36*
X147182000Y-138322000D02*
G01*
X148177000Y-138322000D01*
X148177000Y-144322000D01*
X147177000Y-144322000D01*
X147177000Y-138327000D01*
X147172000Y-138327000D01*
X147172000Y-138317000D01*
X147182000Y-138317000D01*
X147182000Y-138322000D01*
G37*
G36*
X148582000Y-137922000D02*
G01*
X149577000Y-137922000D01*
X149577000Y-143922000D01*
X148577000Y-143922000D01*
X148577000Y-137927000D01*
X148572000Y-137927000D01*
X148572000Y-137917000D01*
X148582000Y-137917000D01*
X148582000Y-137922000D01*
G37*
G36*
X149982000Y-138322000D02*
G01*
X150977000Y-138322000D01*
X150977000Y-144322000D01*
X149977000Y-144322000D01*
X149977000Y-138327000D01*
X149972000Y-138327000D01*
X149972000Y-138317000D01*
X149982000Y-138317000D01*
X149982000Y-138322000D01*
G37*
G36*
X151282000Y-137922000D02*
G01*
X152277000Y-137922000D01*
X152277000Y-143922000D01*
X151277000Y-143922000D01*
X151277000Y-137927000D01*
X151272000Y-137927000D01*
X151272000Y-137917000D01*
X151282000Y-137917000D01*
X151282000Y-137922000D01*
G37*
G36*
X152682000Y-138322000D02*
G01*
X153677000Y-138322000D01*
X153677000Y-144322000D01*
X152677000Y-144322000D01*
X152677000Y-138327000D01*
X152672000Y-138327000D01*
X152672000Y-138317000D01*
X152682000Y-138317000D01*
X152682000Y-138322000D01*
G37*
%TD*%
D13*
%TO.C,LS1*%
X172923000Y-134620000D03*
D14*
X175463000Y-134620000D03*
%TD*%
%TO.C,R2*%
G36*
G01*
X135000999Y-154264000D02*
X136251001Y-154264000D01*
G75*
G02*
X136501000Y-154513999I0J-249999D01*
G01*
X136501000Y-155314001D01*
G75*
G02*
X136251001Y-155564000I-249999J0D01*
G01*
X135000999Y-155564000D01*
G75*
G02*
X134751000Y-155314001I0J249999D01*
G01*
X134751000Y-154513999D01*
G75*
G02*
X135000999Y-154264000I249999J0D01*
G01*
G37*
G36*
G01*
X135000999Y-157364000D02*
X136251001Y-157364000D01*
G75*
G02*
X136501000Y-157613999I0J-249999D01*
G01*
X136501000Y-158414001D01*
G75*
G02*
X136251001Y-158664000I-249999J0D01*
G01*
X135000999Y-158664000D01*
G75*
G02*
X134751000Y-158414001I0J249999D01*
G01*
X134751000Y-157613999D01*
G75*
G02*
X135000999Y-157364000I249999J0D01*
G01*
G37*
%TD*%
%TO.C,R1*%
G36*
G01*
X131144999Y-157459000D02*
X132395001Y-157459000D01*
G75*
G02*
X132645000Y-157708999I0J-249999D01*
G01*
X132645000Y-158509001D01*
G75*
G02*
X132395001Y-158759000I-249999J0D01*
G01*
X131144999Y-158759000D01*
G75*
G02*
X130895000Y-158509001I0J249999D01*
G01*
X130895000Y-157708999D01*
G75*
G02*
X131144999Y-157459000I249999J0D01*
G01*
G37*
G36*
G01*
X131144999Y-154359000D02*
X132395001Y-154359000D01*
G75*
G02*
X132645000Y-154608999I0J-249999D01*
G01*
X132645000Y-155409001D01*
G75*
G02*
X132395001Y-155659000I-249999J0D01*
G01*
X131144999Y-155659000D01*
G75*
G02*
X130895000Y-155409001I0J249999D01*
G01*
X130895000Y-154608999D01*
G75*
G02*
X131144999Y-154359000I249999J0D01*
G01*
G37*
%TD*%
D15*
%TO.C,U3*%
X132182000Y-99568000D03*
X134722000Y-99568000D03*
X137262000Y-99568000D03*
X139802000Y-99568000D03*
X142342000Y-99568000D03*
X144882000Y-99568000D03*
X147422000Y-99568000D03*
X149962000Y-99568000D03*
%TD*%
%TO.C,C1*%
G36*
G01*
X131089998Y-148354000D02*
X132390002Y-148354000D01*
G75*
G02*
X132640000Y-148603998I0J-249998D01*
G01*
X132640000Y-149429002D01*
G75*
G02*
X132390002Y-149679000I-249998J0D01*
G01*
X131089998Y-149679000D01*
G75*
G02*
X130840000Y-149429002I0J249998D01*
G01*
X130840000Y-148603998D01*
G75*
G02*
X131089998Y-148354000I249998J0D01*
G01*
G37*
G36*
G01*
X131089998Y-151479000D02*
X132390002Y-151479000D01*
G75*
G02*
X132640000Y-151728998I0J-249998D01*
G01*
X132640000Y-152554002D01*
G75*
G02*
X132390002Y-152804000I-249998J0D01*
G01*
X131089998Y-152804000D01*
G75*
G02*
X130840000Y-152554002I0J249998D01*
G01*
X130840000Y-151728998D01*
G75*
G02*
X131089998Y-151479000I249998J0D01*
G01*
G37*
%TD*%
%TO.C,U7*%
X120581000Y-73851000D03*
X120581000Y-77851000D03*
X120581000Y-81851000D03*
D18*
X110581000Y-72851000D03*
X110581000Y-82851000D03*
%TD*%
D19*
%TO.C,U9*%
X149149000Y-157782000D03*
X149149000Y-151782000D03*
%TD*%
D15*
%TO.C,U5*%
X120244000Y-50393600D03*
X120244000Y-45313600D03*
X120244000Y-47853600D03*
X120244000Y-52933600D03*
X120244000Y-55473600D03*
X120244000Y-42773600D03*
X120244000Y-63093600D03*
X120244000Y-58013600D03*
X120244000Y-60553600D03*
X120244000Y-65633600D03*
X168504000Y-45313600D03*
X168504000Y-47853600D03*
X168504000Y-55473600D03*
X168504000Y-73253600D03*
X168504000Y-68173600D03*
X168504000Y-65633600D03*
X168504000Y-50393600D03*
X168504000Y-42773600D03*
X168504000Y-80873600D03*
X168504000Y-58013600D03*
X168504000Y-85953600D03*
X168504000Y-63093600D03*
X168504000Y-70713600D03*
X120244000Y-91033600D03*
X168504000Y-88493600D03*
X120244000Y-88493600D03*
X168504000Y-91033600D03*
X168504000Y-52933600D03*
X120244000Y-85953600D03*
X168504000Y-75793600D03*
X168504000Y-60553600D03*
X168504000Y-78333600D03*
X168504000Y-83413600D03*
%TD*%
M02*
