  0
SECTION
  2
HEADER
  9
$ACADVER
  1
AC1006
  9
$EXTMIN
 10
0.000000
 20
0.000000
 30
0.000000
  9
$EXTMAX
 10
1571.000000
 20
2739.000000
 30
0.000000
  0
ENDSEC
  0
SECTION
  2
ENTITIES
  0
POLYLINE
  8
0
 66
1
 70
1
  0
VERTEX
  8
0
 10
0.462118
 20
2737.750660
 42
0.090745
  0
VERTEX
  8
0
 10
0.267407
 20
2736.695092
 42
0.000023
  0
VERTEX
  8
0
 10
0.201633
 20
2688.692381
 42
0.000450
  0
VERTEX
  8
0
 10
0.179016
 20
2635.471294
 42
0.000273
  0
VERTEX
  8
0
 10
0.243250
 20
2572.500000
 42
0.000000
  0
VERTEX
  8
0
 10
0.500000
 20
2408.500000
 42
0.000000
  0
VERTEX
  8
0
 10
20.644460
 20
2408.229631
 42
-0.003025
  0
VERTEX
  8
0
 10
30.619267
 20
2408.035380
 42
-0.012363
  0
VERTEX
  8
0
 10
36.670015
 20
2407.731089
 42
-0.013825
  0
VERTEX
  8
0
 10
40.641527
 20
2407.322095
 42
-0.189160
  0
VERTEX
  8
0
 10
41.888877
 20
2406.633895
 42
-0.170330
  0
VERTEX
  8
0
 10
42.460379
 20
2405.093659
 42
-0.000607
  0
VERTEX
  8
0
 10
42.790260
 20
2385.300359
 42
-0.002414
  0
VERTEX
  8
0
 10
43.068474
 20
2359.109430
 42
-0.000709
  0
VERTEX
  8
0
 10
43.244417
 20
2318.904265
 42
0.000000
  0
VERTEX
  8
0
 10
43.500000
 20
2232.500000
 42
0.000000
  0
VERTEX
  8
0
 10
70.417598
 20
2232.233351
 42
-0.002676
  0
VERTEX
  8
0
 10
82.330879
 20
2232.051562
 42
-0.006983
  0
VERTEX
  8
0
 10
90.892709
 20
2231.755400
 42
-0.004117
  0
VERTEX
  8
0
 10
97.341410
 20
2231.388862
 42
-0.158229
  0
VERTEX
  8
0
 10
98.667598
 20
2230.860906
 42
-0.222992
  0
VERTEX
  8
0
 10
100.126064
 20
2227.757025
 42
-0.000114
  0
VERTEX
  8
0
 10
100.151812
 20
2117.500588
 42
-0.000114
  0
VERTEX
  8
0
 10
100.127458
 20
2007.244132
 42
-0.222996
  0
VERTEX
  8
0
 10
98.669031
 20
2004.140283
 42
-0.156862
  0
VERTEX
  8
0
 10
97.367425
 20
2003.618087
 42
-0.004528
  0
VERTEX
  8
0
 10
91.342677
 20
2003.248359
 42
-0.007424
  0
VERTEX
  8
0
 10
83.370197
 20
2002.950137
 42
-0.002949
  0
VERTEX
  8
0
 10
72.419031
 20
2002.767839
 42
0.000000
  0
VERTEX
  8
0
 10
47.500000
 20
2002.500000
 42
0.000000
  0
VERTEX
  8
0
 10
47.245852
 20
1885.097466
 42
-0.000513
  0
VERTEX
  8
0
 10
47.070811
 20
1830.237732
 42
-0.001790
  0
VERTEX
  8
0
 10
46.794760
 20
1794.832179
 42
-0.000340
  0
VERTEX
  8
0
 10
46.470470
 20
1767.936551
 42
-0.171654
  0
VERTEX
  8
0
 10
45.895115
 20
1766.373622
 42
-0.177169
  0
VERTEX
  8
0
 10
44.767573
 20
1765.716948
 42
-0.018894
  0
VERTEX
  8
0
 10
41.714449
 20
1765.290150
 42
-0.015895
  0
VERTEX
  8
0
 10
37.157767
 20
1764.973778
 42
-0.004671
  0
VERTEX
  8
0
 10
30.149263
 20
1764.776156
 42
0.000000
  0
VERTEX
  8
0
 10
15.500000
 20
1764.500000
 42
0.000000
  0
VERTEX
  8
0
 10
15.500000
 20
1582.500000
 42
0.000000
  0
VERTEX
  8
0
 10
15.500000
 20
1400.500000
 42
0.000000
  0
VERTEX
  8
0
 10
28.934054
 20
1400.219693
 42
-0.006736
  0
VERTEX
  8
0
 10
34.379176
 20
1400.032664
 42
-0.011244
  0
VERTEX
  8
0
 10
38.953197
 20
1399.710610
 42
-0.007950
  0
VERTEX
  8
0
 10
42.612244
 20
1399.311374
 42
-0.142999
  0
VERTEX
  8
0
 10
43.684054
 20
1398.847248
 42
-0.222578
  0
VERTEX
  8
0
 10
45.087547
 20
1395.866484
 42
-0.000513
  0
VERTEX
  8
0
 10
45.138192
 20
1345.999562
 42
-0.000513
  0
VERTEX
  8
0
 10
45.086528
 20
1296.132669
 42
-0.222572
  0
VERTEX
  8
0
 10
43.682975
 20
1293.151856
 42
-0.143943
  0
VERTEX
  8
0
 10
42.596064
 20
1292.683576
 42
-0.007782
  0
VERTEX
  8
0
 10
38.838179
 20
1292.286333
 42
-0.011028
  0
VERTEX
  8
0
 10
34.115972
 20
1291.966153
 42
-0.006398
  0
VERTEX
  8
0
 10
28.432975
 20
1291.779411
 42
0.000000
  0
VERTEX
  8
0
 10
14.500000
 20
1291.500000
 42
0.000000
  0
VERTEX
  8
0
 10
14.500000
 20
904.500000
 42
0.000000
  0
VERTEX
  8
0
 10
14.500000
 20
517.500000
 42
0.000000
  0
VERTEX
  8
0
 10
138.000000
 20
516.866914
 42
-0.000617
  0
VERTEX
  8
0
 10
190.007918
 20
516.536160
 42
-0.001296
  0
VERTEX
  8
0
 10
230.416190
 20
516.124600
 42
-0.000596
  0
VERTEX
  8
0
 10
262.740251
 20
515.673055
 42
-0.030690
  0
VERTEX
  8
0
 10
269.000000
 20
515.193118
 42
-0.016244
  0
VERTEX
  8
0
 10
287.728783
 20
511.971149
 42
-0.020106
  0
VERTEX
  8
0
 10
304.904686
 20
507.712234
 42
-0.020910
  0
VERTEX
  8
0
 10
321.097117
 20
502.254846
 42
-0.020564
  0
VERTEX
  8
0
 10
336.869286
 20
495.436995
 42
-0.018076
  0
VERTEX
  8
0
 10
352.234667
 20
487.334142
 42
-0.020542
  0
VERTEX
  8
0
 10
366.314756
 20
478.457352
 42
-0.020872
  0
VERTEX
  8
0
 10
379.420206
 20
468.590889
 42
-0.019949
  0
VERTEX
  8
0
 10
391.863990
 20
457.522822
 42
-0.022975
  0
VERTEX
  8
0
 10
404.119433
 20
444.576958
 42
-0.022786
  0
VERTEX
  8
0
 10
415.171157
 20
430.526575
 42
-0.022275
  0
VERTEX
  8
0
 10
425.122868
 20
415.216961
 42
-0.019878
  0
VERTEX
  8
0
 10
434.084698
 20
398.500000
 42
-0.021677
  0
VERTEX
  8
0
 10
441.685455
 20
380.964425
 42
-0.024132
  0
VERTEX
  8
0
 10
447.440335
 20
363.446214
 42
-0.024131
  0
VERTEX
  8
0
 10
451.480572
 20
345.454357
 42
-0.021672
  0
VERTEX
  8
0
 10
453.945211
 20
326.500000
 42
-0.019108
  0
VERTEX
  8
0
 10
454.408920
 20
316.797187
 42
-0.000700
  0
VERTEX
  8
0
 10
454.709037
 20
279.942693
 42
-0.001136
  0
VERTEX
  8
0
 10
454.920226
 20
232.722101
 42
-0.000532
  0
VERTEX
  8
0
 10
454.989683
 20
171.618421
 42
0.000000
  0
VERTEX
  8
0
 10
455.000000
 20
28.736842
 42
0.000000
  0
VERTEX
  8
0
 10
459.257736
 20
24.479106
 42
0.092679
  0
VERTEX
  8
0
 10
465.730727
 20
20.045296
 42
0.061540
  0
VERTEX
  8
0
 10
474.371745
 20
17.440208
 42
0.023836
  0
VERTEX
  8
0
 10
489.413492
 20
15.592488
 42
0.002319
  0
VERTEX
  8
0
 10
526.000000
 20
13.029954
 42
0.001241
  0
VERTEX
  8
0
 10
540.454852
 20
12.120911
 42
0.000597
  0
VERTEX
  8
0
 10
558.996875
 20
11.023222
 42
0.000591
  0
VERTEX
  8
0
 10
578.341986
 20
9.924105
 42
0.000847
  0
VERTEX
  8
0
 10
595.500000
 20
8.998748
 42
-0.000702
  0
VERTEX
  8
0
 10
614.624230
 20
7.972909
 42
-0.000285
  0
VERTEX
  8
0
 10
640.661440
 20
6.524713
 42
-0.000282
  0
VERTEX
  8
0
 10
668.657108
 20
4.935731
 42
-0.000359
  0
VERTEX
  8
0
 10
694.475116
 20
3.437119
 42
0.000000
  0
VERTEX
  8
0
 10
754.450232
 20
-0.087405
 42
0.000000
  0
VERTEX
  8
0
 10
814.475116
 20
0.952175
 42
0.000615
  0
VERTEX
  8
0
 10
837.979900
 20
1.388168
 42
0.000868
  0
VERTEX
  8
0
 10
858.923940
 20
1.838778
 42
0.000497
  0
VERTEX
  8
0
 10
876.601896
 20
2.267383
 42
0.012187
  0
VERTEX
  8
0
 10
881.500000
 20
2.510564
 42
-0.005456
  0
VERTEX
  8
0
 10
886.124388
 20
2.802600
 42
-0.000384
  0
VERTEX
  8
0
 10
899.075000
 20
3.468682
 42
-0.000543
  0
VERTEX
  8
0
 10
914.519928
 20
4.234347
 42
-0.000409
  0
VERTEX
  8
0
 10
931.500000
 20
5.043701
 42
0.001044
  0
VERTEX
  8
0
 10
961.270984
 20
6.500632
 42
0.001063
  0
VERTEX
  8
0
 10
990.860211
 20
8.073681
 42
0.000899
  0
VERTEX
  8
0
 10
1024.477016
 20
9.993138
 42
0.000449
  0
VERTEX
  8
0
 10
1067.000000
 20
12.536153
 42
0.006405
  0
VERTEX
  8
0
 10
1104.536477
 20
15.297794
 42
0.004459
  0
VERTEX
  8
0
 10
1146.834636
 20
19.335421
 42
0.001474
  0
VERTEX
  8
0
 10
1188.175823
 20
23.777345
 42
0.096595
  0
VERTEX
  8
0
 10
1195.000000
 20
25.907580
 42
0.267363
  0
VERTEX
  8
0
 10
1195.941927
 20
27.433182
 42
0.002108
  0
VERTEX
  8
0
 10
1196.335557
 20
42.336769
 42
0.003617
  0
VERTEX
  8
0
 10
1196.689306
 20
65.987314
 42
0.000436
  0
VERTEX
  8
0
 10
1197.046336
 20
118.108823
 42
-0.000362
  0
VERTEX
  8
0
 10
1197.439641
 20
176.796568
 42
-0.004831
  0
VERTEX
  8
0
 10
1197.808289
 20
198.370268
 42
-0.013183
  0
VERTEX
  8
0
 10
1198.445637
 20
210.359049
 42
-0.038135
  0
VERTEX
  8
0
 10
1199.733908
 20
218.565628
 42
-0.016274
  0
VERTEX
  8
0
 10
1203.031965
 20
230.743159
 42
-0.026078
  0
VERTEX
  8
0
 10
1206.714940
 20
240.858638
 42
-0.027292
  0
VERTEX
  8
0
 10
1211.296243
 20
250.201798
 42
-0.020252
  0
VERTEX
  8
0
 10
1217.316463
 20
260.000000
 42
-0.043963
  0
VERTEX
  8
0
 10
1228.128399
 20
273.388717
 42
-0.040223
  0
VERTEX
  8
0
 10
1241.420447
 20
285.122272
 42
-0.040090
  0
VERTEX
  8
0
 10
1256.467674
 20
294.612015
 42
-0.042962
  0
VERTEX
  8
0
 10
1272.500000
 20
301.327219
 42
-0.014604
  0
VERTEX
  8
0
 10
1281.877376
 20
304.039736
 42
-0.029175
  0
VERTEX
  8
0
 10
1289.450305
 20
305.527876
 42
-0.025372
  0
VERTEX
  8
0
 10
1297.793971
 20
306.238529
 42
-0.008559
  0
VERTEX
  8
0
 10
1310.000000
 20
306.447481
 42
-0.008559
  0
VERTEX
  8
0
 10
1322.206029
 20
306.238529
 42
-0.025372
  0
VERTEX
  8
0
 10
1330.549695
 20
305.527876
 42
-0.029175
  0
VERTEX
  8
0
 10
1338.122624
 20
304.039736
 42
-0.014604
  0
VERTEX
  8
0
 10
1347.500000
 20
301.327219
 42
-0.059985
  0
VERTEX
  8
0
 10
1369.779859
 20
291.092746
 42
-0.056585
  0
VERTEX
  8
0
 10
1389.480237
 20
275.692797
 42
-0.056545
  0
VERTEX
  8
0
 10
1405.238872
 20
256.256751
 42
-0.059726
  0
VERTEX
  8
0
 10
1415.901561
 20
234.127207
 42
-0.030198
  0
VERTEX
  8
0
 10
1419.192144
 20
222.205876
 42
-0.037268
  0
VERTEX
  8
0
 10
1420.736928
 20
210.784657
 42
-0.012974
  0
VERTEX
  8
0
 10
1421.357560
 20
192.533635
 42
-0.000768
  0
VERTEX
  8
0
 10
1421.717823
 20
137.205224
 42
0.000000
  0
VERTEX
  8
0
 10
1422.102438
 20
59.910449
 42
0.000000
  0
VERTEX
  8
0
 10
1424.414516
 20
58.856995
 42
0.122221
  0
VERTEX
  8
0
 10
1427.495614
 20
58.282662
 42
0.020422
  0
VERTEX
  8
0
 10
1433.528561
 20
58.886656
 42
0.014125
  0
VERTEX
  8
0
 10
1442.746501
 20
60.458251
 42
0.003357
  0
VERTEX
  8
0
 10
1458.000000
 20
63.611195
 42
0.008084
  0
VERTEX
  8
0
 10
1489.580872
 20
70.896263
 42
0.020677
  0
VERTEX
  8
0
 10
1512.108800
 20
77.477518
 42
0.028445
  0
VERTEX
  8
0
 10
1528.701781
 20
84.152143
 42
0.052737
  0
VERTEX
  8
0
 10
1541.104961
 20
91.666463
 42
0.045592
  0
VERTEX
  8
0
 10
1549.626153
 20
99.465845
 42
0.033495
  0
VERTEX
  8
0
 10
1557.598318
 20
109.497331
 42
0.033304
  0
VERTEX
  8
0
 10
1564.214717
 20
120.586352
 42
0.043032
  0
VERTEX
  8
0
 10
1568.668476
 20
131.565659
 42
0.073477
  0
VERTEX
  8
0
 10
1569.928695
 20
139.756114
 42
0.000588
  0
VERTEX
  8
0
 10
1570.246109
 20
205.850055
 42
0.000849
  0
VERTEX
  8
0
 10
1570.462982
 20
318.223819
 42
0.000058
  0
VERTEX
  8
0
 10
1570.500000
 20
636.500000
 42
0.000000
  0
VERTEX
  8
0
 10
1570.500000
 20
1135.500000
 42
0.000000
  0
VERTEX
  8
0
 10
1559.457197
 20
1136.031278
 42
-0.008045
  0
VERTEX
  8
0
 10
1553.306292
 20
1136.426485
 42
-0.028627
  0
VERTEX
  8
0
 10
1549.396649
 20
1136.967441
 42
-0.038788
  0
VERTEX
  8
0
 10
1546.226470
 20
1137.852551
 42
-0.026309
  0
VERTEX
  8
0
 10
1542.775594
 20
1139.321363
 42
-0.153453
  0
VERTEX
  8
0
 10
1530.004786
 20
1151.448355
 42
-0.148305
  0
VERTEX
  8
0
 10
1526.248786
 20
1168.877423
 42
-0.147328
  0
VERTEX
  8
0
 10
1532.803749
 20
1185.541980
 42
-0.151113
  0
VERTEX
  8
0
 10
1547.413646
 20
1195.613041
 42
-0.026556
  0
VERTEX
  8
0
 10
1549.983275
 20
1196.270472
 42
-0.009917
  0
VERTEX
  8
0
 10
1553.649633
 20
1196.928331
 42
-0.009793
  0
VERTEX
  8
0
 10
1557.681389
 20
1197.488777
 42
-0.011699
  0
VERTEX
  8
0
 10
1561.500000
 20
1197.853184
 42
0.000000
  0
VERTEX
  8
0
 10
1570.500000
 20
1198.500000
 42
0.000000
  0
VERTEX
  8
0
 10
1570.500000
 20
1244.500000
 42
0.000000
  0
VERTEX
  8
0
 10
1570.500000
 20
1290.500000
 42
0.000000
  0
VERTEX
  8
0
 10
1556.738504
 20
1290.137096
 42
-0.005010
  0
VERTEX
  8
0
 10
1550.183856
 20
1290.029957
 42
-0.015869
  0
VERTEX
  8
0
 10
1545.797216
 20
1290.141454
 42
-0.019608
  0
VERTEX
  8
0
 10
1542.805519
 20
1290.430622
 42
-0.140197
  0
VERTEX
  8
0
 10
1541.488504
 20
1291.009541
 42
-0.209040
  0
VERTEX
  8
0
 10
1540.605425
 20
1292.765677
 42
-0.006358
  0
VERTEX
  8
0
 10
1540.263286
 20
1301.092356
 42
-0.006258
  0
VERTEX
  8
0
 10
1540.047771
 20
1314.702200
 42
-0.000829
  0
VERTEX
  8
0
 10
1540.000000
 20
1343.500000
 42
-0.000968
  0
VERTEX
  8
0
 10
1540.051905
 20
1370.309550
 42
-0.005315
  0
VERTEX
  8
0
 10
1540.261746
 20
1384.777543
 42
-0.003547
  0
VERTEX
  8
0
 10
1540.569904
 20
1394.336509
 42
-0.212816
  0
VERTEX
  8
0
 10
1541.315946
 20
1395.847248
 42
-0.142999
  0
VERTEX
  8
0
 10
1542.387756
 20
1396.311374
 42
-0.007950
  0
VERTEX
  8
0
 10
1546.046803
 20
1396.710610
 42
-0.011244
  0
VERTEX
  8
0
 10
1550.620824
 20
1397.032664
 42
-0.006736
  0
VERTEX
  8
0
 10
1556.065946
 20
1397.219693
 42
0.000000
  0
VERTEX
  8
0
 10
1569.500000
 20
1397.500000
 42
0.000000
  0
VERTEX
  8
0
 10
1569.727061
 20
1858.000000
 42
0.000158
  0
VERTEX
  8
0
 10
1569.760589
 20
2047.871094
 42
0.000159
  0
VERTEX
  8
0
 10
1569.673849
 20
2237.571875
 42
0.000155
  0
VERTEX
  8
0
 10
1569.494401
 20
2403.071940
 42
0.000634
  0
VERTEX
  8
0
 10
1569.227061
 20
2503.500000
 42
0.000000
  0
VERTEX
  8
0
 10
1568.500000
 20
2688.500000
 42
0.000000
  0
VERTEX
  8
0
 10
1540.083357
 20
2688.765856
 42
-0.002539
  0
VERTEX
  8
0
 10
1527.573298
 20
2688.946443
 42
-0.006529
  0
VERTEX
  8
0
 10
1518.533626
 20
2689.240986
 42
-0.003577
  0
VERTEX
  8
0
 10
1511.666309
 20
2689.603808
 42
-0.159530
  0
VERTEX
  8
0
 10
1510.351202
 20
2690.123491
 42
-0.194947
  0
VERTEX
  8
0
 10
1509.657030
 20
2691.415554
 42
-0.011005
  0
VERTEX
  8
0
 10
1509.259420
 20
2696.030967
 42
-0.010669
  0
VERTEX
  8
0
 10
1508.960177
 20
2703.052705
 42
-0.002481
  0
VERTEX
  8
0
 10
1508.767845
 20
2714.857635
 42
0.000000
  0
VERTEX
  8
0
 10
1508.500000
 20
2738.500000
 42
0.000000
  0
VERTEX
  8
0
 10
754.718869
 20
2738.750660
 42
0.000063
  0
VERTEX
  8
0
 10
362.247428
 20
2738.831707
 42
0.000352
  0
VERTEX
  8
0
 10
151.795019
 20
2738.700665
 42
0.000013
  0
VERTEX
  8
0
 10
1.543567
 20
2738.497502
 42
0.310984
  0
SEQEND
  0
POLYLINE
  8
0
 66
1
 70
1
  0
VERTEX
  8
0
 10
67.556488
 20
2625.516165
 42
-0.047409
  0
VERTEX
  8
0
 10
72.018533
 20
2622.781932
 42
-0.040410
  0
VERTEX
  8
0
 10
76.150343
 20
2619.119259
 42
-0.040067
  0
VERTEX
  8
0
 10
79.674171
 20
2614.802831
 42
-0.044487
  0
VERTEX
  8
0
 10
82.326972
 20
2610.122405
 42
-0.070333
  0
VERTEX
  8
0
 10
84.005816
 20
2604.419356
 42
-0.036480
  0
VERTEX
  8
0
 10
84.547855
 20
2597.000000
 42
-0.036480
  0
VERTEX
  8
0
 10
84.005816
 20
2589.580644
 42
-0.070333
  0
VERTEX
  8
0
 10
82.326972
 20
2583.877595
 42
-0.044881
  0
VERTEX
  8
0
 10
79.634245
 20
2579.135423
 42
-0.041336
  0
VERTEX
  8
0
 10
76.071206
 20
2574.807362
 42
-0.041285
  0
VERTEX
  8
0
 10
71.839863
 20
2571.119356
 42
-0.044501
  0
VERTEX
  8
0
 10
67.160544
 20
2568.279782
 42
-0.022092
  0
VERTEX
  8
0
 10
63.793395
 20
2566.807061
 42
-0.043601
  0
VERTEX
  8
0
 10
60.991059
 20
2565.998245
 42
-0.036790
  0
VERTEX
  8
0
 10
57.796889
 20
2565.612142
 42
-0.011687
  0
VERTEX
  8
0
 10
53.000000
 20
2565.500000
 42
-0.011687
  0
VERTEX
  8
0
 10
48.203111
 20
2565.612142
 42
-0.036790
  0
VERTEX
  8
0
 10
45.008941
 20
2565.998245
 42
-0.043601
  0
VERTEX
  8
0
 10
42.206605
 20
2566.807061
 42
-0.022092
  0
VERTEX
  8
0
 10
38.839456
 20
2568.279782
 42
-0.132252
  0
VERTEX
  8
0
 10
26.570438
 20
2579.028931
 42
-0.129062
  0
VERTEX
  8
0
 10
21.213284
 20
2594.585408
 42
-0.128670
  0
VERTEX
  8
0
 10
24.181212
 20
2610.804270
 42
-0.131056
  0
VERTEX
  8
0
 10
34.703808
 20
2623.359437
 42
-0.075929
  0
VERTEX
  8
0
 10
42.009576
 20
2626.988650
 42
-0.061058
  0
VERTEX
  8
0
 10
50.639096
 20
2628.626089
 42
-0.060326
  0
VERTEX
  8
0
 10
59.517685
 20
2628.137703
 42
-0.070003
  0
SEQEND
  0
POLYLINE
  8
0
 66
1
 70
1
  0
VERTEX
  8
0
 10
1535.556488
 20
2604.516165
 42
-0.047365
  0
VERTEX
  8
0
 10
1540.009497
 20
2601.788006
 42
-0.040234
  0
VERTEX
  8
0
 10
1544.139390
 20
2598.130909
 42
-0.039814
  0
VERTEX
  8
0
 10
1547.673356
 20
2593.814259
 42
-0.043798
  0
VERTEX
  8
0
 10
1550.352904
 20
2589.122405
 42
-0.032594
  0
VERTEX
  8
0
 10
1551.387104
 20
2586.425625
 42
-0.035089
  0
VERTEX
  8
0
 10
1552.031935
 20
2583.682532
 42
-0.028202
  0
VERTEX
  8
0
 10
1552.374721
 20
2580.409302
 42
-0.011989
  0
VERTEX
  8
0
 10
1552.480464
 20
2576.000000
 42
-0.011989
  0
VERTEX
  8
0
 10
1552.374721
 20
2571.590698
 42
-0.028202
  0
VERTEX
  8
0
 10
1552.031935
 20
2568.317468
 42
-0.035089
  0
VERTEX
  8
0
 10
1551.387104
 20
2565.574375
 42
-0.032594
  0
VERTEX
  8
0
 10
1550.352904
 20
2562.877595
 42
-0.044190
  0
VERTEX
  8
0
 10
1547.633071
 20
2558.123833
 42
-0.041079
  0
VERTEX
  8
0
 10
1544.059934
 20
2553.795569
 42
-0.041115
  0
VERTEX
  8
0
 10
1539.830729
 20
2550.113255
 42
-0.044457
  0
VERTEX
  8
0
 10
1535.160544
 20
2547.279782
 42
-0.022092
  0
VERTEX
  8
0
 10
1531.793395
 20
2545.807061
 42
-0.043601
  0
VERTEX
  8
0
 10
1528.991059
 20
2544.998245
 42
-0.036790
  0
VERTEX
  8
0
 10
1525.796889
 20
2544.612142
 42
-0.011687
  0
VERTEX
  8
0
 10
1521.000000
 20
2544.500000
 42
-0.011687
  0
VERTEX
  8
0
 10
1516.203111
 20
2544.612142
 42
-0.036790
  0
VERTEX
  8
0
 10
1513.008941
 20
2544.998245
 42
-0.043601
  0
VERTEX
  8
0
 10
1510.206605
 20
2545.807061
 42
-0.022092
  0
VERTEX
  8
0
 10
1506.839456
 20
2547.279782
 42
-0.044501
  0
VERTEX
  8
0
 10
1502.160137
 20
2550.119356
 42
-0.041285
  0
VERTEX
  8
0
 10
1497.928794
 20
2553.807362
 42
-0.041336
  0
VERTEX
  8
0
 10
1494.365755
 20
2558.135423
 42
-0.044881
  0
VERTEX
  8
0
 10
1491.673028
 20
2562.877595
 42
-0.070365
  0
VERTEX
  8
0
 10
1490.000540
 20
2568.560403
 42
-0.036145
  0
VERTEX
  8
0
 10
1489.454589
 20
2575.978120
 42
-0.036151
  0
VERTEX
  8
0
 10
1489.982146
 20
2583.389746
 42
-0.071008
  0
VERTEX
  8
0
 10
1491.641356
 20
2589.050805
 42
-0.052374
  0
VERTEX
  8
0
 10
1495.204208
 20
2595.110261
 42
-0.054837
  0
VERTEX
  8
0
 10
1499.900539
 20
2600.194550
 42
-0.055243
  0
VERTEX
  8
0
 10
1505.555651
 20
2604.105953
 42
-0.054637
  0
VERTEX
  8
0
 10
1511.950561
 20
2606.701535
 42
-0.055643
  0
VERTEX
  8
0
 10
1517.455771
 20
2607.619541
 42
-0.036610
  0
VERTEX
  8
0
 10
1523.883596
 20
2607.496585
 42
-0.036537
  0
VERTEX
  8
0
 10
1530.246074
 20
2606.434817
 42
-0.054207
  0
SEQEND
  0
POLYLINE
  8
0
 66
1
 70
1
  0
VERTEX
  8
0
 10
75.556488
 20
1633.516165
 42
-0.047409
  0
VERTEX
  8
0
 10
80.018533
 20
1630.781932
 42
-0.040410
  0
VERTEX
  8
0
 10
84.150343
 20
1627.119259
 42
-0.040067
  0
VERTEX
  8
0
 10
87.674171
 20
1622.802831
 42
-0.044487
  0
VERTEX
  8
0
 10
90.326972
 20
1618.122405
 42
-0.070333
  0
VERTEX
  8
0
 10
92.005816
 20
1612.419356
 42
-0.036480
  0
VERTEX
  8
0
 10
92.547855
 20
1605.000000
 42
-0.036480
  0
VERTEX
  8
0
 10
92.005816
 20
1597.580644
 42
-0.070333
  0
VERTEX
  8
0
 10
90.326972
 20
1591.877595
 42
-0.044881
  0
VERTEX
  8
0
 10
87.634245
 20
1587.135423
 42
-0.041336
  0
VERTEX
  8
0
 10
84.071206
 20
1582.807362
 42
-0.041285
  0
VERTEX
  8
0
 10
79.839863
 20
1579.119356
 42
-0.044501
  0
VERTEX
  8
0
 10
75.160544
 20
1576.279782
 42
-0.022092
  0
VERTEX
  8
0
 10
71.793395
 20
1574.807061
 42
-0.043601
  0
VERTEX
  8
0
 10
68.991059
 20
1573.998245
 42
-0.036790
  0
VERTEX
  8
0
 10
65.796889
 20
1573.612142
 42
-0.011687
  0
VERTEX
  8
0
 10
61.000000
 20
1573.500000
 42
-0.011687
  0
VERTEX
  8
0
 10
56.203111
 20
1573.612142
 42
-0.036790
  0
VERTEX
  8
0
 10
53.008941
 20
1573.998245
 42
-0.043601
  0
VERTEX
  8
0
 10
50.206605
 20
1574.807061
 42
-0.022092
  0
VERTEX
  8
0
 10
46.839456
 20
1576.279782
 42
-0.132252
  0
VERTEX
  8
0
 10
34.570438
 20
1587.028931
 42
-0.129062
  0
VERTEX
  8
0
 10
29.213284
 20
1602.585408
 42
-0.128670
  0
VERTEX
  8
0
 10
32.181212
 20
1618.804270
 42
-0.131056
  0
VERTEX
  8
0
 10
42.703808
 20
1631.359437
 42
-0.075929
  0
VERTEX
  8
0
 10
50.009576
 20
1634.988650
 42
-0.061058
  0
VERTEX
  8
0
 10
58.639096
 20
1636.626089
 42
-0.060326
  0
VERTEX
  8
0
 10
67.517685
 20
1636.137703
 42
-0.070003
  0
SEQEND
  0
POLYLINE
  8
0
 66
1
 70
1
  0
VERTEX
  8
0
 10
1539.556488
 20
1631.516165
 42
-0.047365
  0
VERTEX
  8
0
 10
1544.009497
 20
1628.788006
 42
-0.040234
  0
VERTEX
  8
0
 10
1548.139390
 20
1625.130909
 42
-0.039814
  0
VERTEX
  8
0
 10
1551.673356
 20
1620.814259
 42
-0.043798
  0
VERTEX
  8
0
 10
1554.352904
 20
1616.122405
 42
-0.032594
  0
VERTEX
  8
0
 10
1555.387104
 20
1613.425625
 42
-0.035089
  0
VERTEX
  8
0
 10
1556.031935
 20
1610.682532
 42
-0.028202
  0
VERTEX
  8
0
 10
1556.374721
 20
1607.409302
 42
-0.011989
  0
VERTEX
  8
0
 10
1556.480464
 20
1603.000000
 42
-0.011989
  0
VERTEX
  8
0
 10
1556.374721
 20
1598.590698
 42
-0.028202
  0
VERTEX
  8
0
 10
1556.031935
 20
1595.317468
 42
-0.035089
  0
VERTEX
  8
0
 10
1555.387104
 20
1592.574375
 42
-0.032594
  0
VERTEX
  8
0
 10
1554.352904
 20
1589.877595
 42
-0.044190
  0
VERTEX
  8
0
 10
1551.633071
 20
1585.123833
 42
-0.041079
  0
VERTEX
  8
0
 10
1548.059934
 20
1580.795569
 42
-0.041115
  0
VERTEX
  8
0
 10
1543.830729
 20
1577.113255
 42
-0.044457
  0
VERTEX
  8
0
 10
1539.160544
 20
1574.279782
 42
-0.022092
  0
VERTEX
  8
0
 10
1535.793395
 20
1572.807061
 42
-0.043601
  0
VERTEX
  8
0
 10
1532.991059
 20
1571.998245
 42
-0.036790
  0
VERTEX
  8
0
 10
1529.796889
 20
1571.612142
 42
-0.011687
  0
VERTEX
  8
0
 10
1525.000000
 20
1571.500000
 42
-0.011687
  0
VERTEX
  8
0
 10
1520.203111
 20
1571.612142
 42
-0.036790
  0
VERTEX
  8
0
 10
1517.008941
 20
1571.998245
 42
-0.043601
  0
VERTEX
  8
0
 10
1514.206605
 20
1572.807061
 42
-0.022092
  0
VERTEX
  8
0
 10
1510.839456
 20
1574.279782
 42
-0.044501
  0
VERTEX
  8
0
 10
1506.160137
 20
1577.119356
 42
-0.041285
  0
VERTEX
  8
0
 10
1501.928794
 20
1580.807362
 42
-0.041336
  0
VERTEX
  8
0
 10
1498.365755
 20
1585.135423
 42
-0.044881
  0
VERTEX
  8
0
 10
1495.673028
 20
1589.877595
 42
-0.070365
  0
VERTEX
  8
0
 10
1494.000540
 20
1595.560403
 42
-0.036145
  0
VERTEX
  8
0
 10
1493.454589
 20
1602.978120
 42
-0.036151
  0
VERTEX
  8
0
 10
1493.982146
 20
1610.389746
 42
-0.071008
  0
VERTEX
  8
0
 10
1495.641356
 20
1616.050805
 42
-0.052374
  0
VERTEX
  8
0
 10
1499.204208
 20
1622.110261
 42
-0.054837
  0
VERTEX
  8
0
 10
1503.900539
 20
1627.194550
 42
-0.055243
  0
VERTEX
  8
0
 10
1509.555651
 20
1631.105953
 42
-0.054637
  0
VERTEX
  8
0
 10
1515.950561
 20
1633.701535
 42
-0.055643
  0
VERTEX
  8
0
 10
1521.455771
 20
1634.619541
 42
-0.036610
  0
VERTEX
  8
0
 10
1527.883596
 20
1634.496585
 42
-0.036537
  0
VERTEX
  8
0
 10
1534.246074
 20
1633.434817
 42
-0.054207
  0
SEQEND
  0
POLYLINE
  8
0
 66
1
 70
1
  0
VERTEX
  8
0
 10
441.113794
 20
1088.858664
 42
-0.060395
  0
VERTEX
  8
0
 10
447.952903
 20
1084.075253
 42
-0.081256
  0
VERTEX
  8
0
 10
452.683428
 20
1078.197347
 42
-0.078024
  0
VERTEX
  8
0
 10
455.418205
 20
1070.926722
 42
-0.051054
  0
VERTEX
  8
0
 10
456.332072
 20
1062.000000
 42
-0.051041
  0
VERTEX
  8
0
 10
455.414992
 20
1053.039678
 42
-0.078885
  0
VERTEX
  8
0
 10
452.668516
 20
1045.774589
 42
-0.081400
  0
VERTEX
  8
0
 10
447.884480
 20
1039.874489
 42
-0.058024
  0
VERTEX
  8
0
 10
440.904185
 20
1034.984169
 42
-0.016384
  0
VERTEX
  8
0
 10
436.919854
 20
1032.998024
 42
-0.052247
  0
VERTEX
  8
0
 10
434.106765
 20
1032.049302
 42
-0.045203
  0
VERTEX
  8
0
 10
430.949733
 20
1031.634851
 42
-0.010047
  0
VERTEX
  8
0
 10
425.500000
 20
1031.525329
 42
-0.010047
  0
VERTEX
  8
0
 10
420.050267
 20
1031.634851
 42
-0.045203
  0
VERTEX
  8
0
 10
416.893235
 20
1032.049302
 42
-0.052247
  0
VERTEX
  8
0
 10
414.080146
 20
1032.998024
 42
-0.016384
  0
VERTEX
  8
0
 10
410.095815
 20
1034.984169
 42
-0.058024
  0
VERTEX
  8
0
 10
403.115520
 20
1039.874489
 42
-0.081400
  0
VERTEX
  8
0
 10
398.331484
 20
1045.774589
 42
-0.078885
  0
VERTEX
  8
0
 10
395.585008
 20
1053.039678
 42
-0.051041
  0
VERTEX
  8
0
 10
394.667928
 20
1062.000000
 42
-0.051020
  0
VERTEX
  8
0
 10
395.557434
 20
1070.694469
 42
-0.073549
  0
VERTEX
  8
0
 10
398.209961
 20
1077.944496
 42
-0.077998
  0
VERTEX
  8
0
 10
402.699634
 20
1083.810690
 42
-0.066063
  0
VERTEX
  8
0
 10
409.015155
 20
1088.414758
 42
-0.021178
  0
VERTEX
  8
0
 10
413.954283
 20
1090.835116
 42
-0.049050
  0
VERTEX
  8
0
 10
417.875185
 20
1092.113932
 42
-0.048009
  0
VERTEX
  8
0
 10
422.021106
 20
1092.619355
 42
-0.019543
  0
VERTEX
  8
0
 10
427.709609
 20
1092.541332
 42
-0.018071
  0
VERTEX
  8
0
 10
431.644665
 20
1092.190445
 42
-0.035778
  0
VERTEX
  8
0
 10
434.717018
 20
1091.578522
 42
-0.036279
  0
VERTEX
  8
0
 10
437.643302
 20
1090.541247
 42
-0.019132
  0
SEQEND
  0
POLYLINE
  8
0
 66
1
 70
1
  0
VERTEX
  8
0
 10
931.556488
 20
933.516165
 42
-0.047409
  0
VERTEX
  8
0
 10
936.018533
 20
930.781932
 42
-0.040410
  0
VERTEX
  8
0
 10
940.150343
 20
927.119259
 42
-0.040067
  0
VERTEX
  8
0
 10
943.674171
 20
922.802831
 42
-0.044487
  0
VERTEX
  8
0
 10
946.326972
 20
918.122405
 42
-0.032776
  0
VERTEX
  8
0
 10
947.342663
 20
915.433743
 42
-0.034228
  0
VERTEX
  8
0
 10
947.980835
 20
912.673853
 42
-0.027629
  0
VERTEX
  8
0
 10
948.322634
 20
909.385267
 42
-0.012080
  0
VERTEX
  8
0
 10
948.428601
 20
905.000000
 42
-0.012080
  0
VERTEX
  8
0
 10
948.322634
 20
900.614733
 42
-0.027629
  0
VERTEX
  8
0
 10
947.980835
 20
897.326147
 42
-0.034228
  0
VERTEX
  8
0
 10
947.342663
 20
894.566257
 42
-0.032776
  0
VERTEX
  8
0
 10
946.326972
 20
891.877595
 42
-0.044881
  0
VERTEX
  8
0
 10
943.634245
 20
887.135423
 42
-0.041336
  0
VERTEX
  8
0
 10
940.071206
 20
882.807362
 42
-0.041285
  0
VERTEX
  8
0
 10
935.839863
 20
879.119356
 42
-0.044501
  0
VERTEX
  8
0
 10
931.160544
 20
876.279782
 42
-0.022092
  0
VERTEX
  8
0
 10
927.793395
 20
874.807061
 42
-0.043601
  0
VERTEX
  8
0
 10
924.991059
 20
873.998245
 42
-0.036790
  0
VERTEX
  8
0
 10
921.796889
 20
873.612142
 42
-0.011687
  0
VERTEX
  8
0
 10
917.000000
 20
873.500000
 42
-0.011687
  0
VERTEX
  8
0
 10
912.203111
 20
873.612142
 42
-0.036790
  0
VERTEX
  8
0
 10
909.008941
 20
873.998245
 42
-0.043601
  0
VERTEX
  8
0
 10
906.206605
 20
874.807061
 42
-0.022092
  0
VERTEX
  8
0
 10
902.839456
 20
876.279782
 42
-0.044501
  0
VERTEX
  8
0
 10
898.160137
 20
879.119356
 42
-0.041285
  0
VERTEX
  8
0
 10
893.928794
 20
882.807362
 42
-0.041336
  0
VERTEX
  8
0
 10
890.365755
 20
887.135423
 42
-0.044881
  0
VERTEX
  8
0
 10
887.673028
 20
891.877595
 42
-0.070365
  0
VERTEX
  8
0
 10
886.000540
 20
897.560403
 42
-0.036145
  0
VERTEX
  8
0
 10
885.454589
 20
904.978120
 42
-0.036151
  0
VERTEX
  8
0
 10
885.982146
 20
912.389746
 42
-0.071008
  0
VERTEX
  8
0
 10
887.641356
 20
918.050805
 42
-0.052374
  0
VERTEX
  8
0
 10
891.204208
 20
924.110261
 42
-0.054837
  0
VERTEX
  8
0
 10
895.900539
 20
929.194550
 42
-0.055243
  0
VERTEX
  8
0
 10
901.555651
 20
933.105953
 42
-0.054637
  0
VERTEX
  8
0
 10
907.950561
 20
935.701535
 42
-0.055643
  0
VERTEX
  8
0
 10
913.455771
 20
936.619541
 42
-0.036610
  0
VERTEX
  8
0
 10
919.883596
 20
936.496585
 42
-0.036537
  0
VERTEX
  8
0
 10
926.246074
 20
935.434817
 42
-0.054207
  0
SEQEND
  0
POLYLINE
  8
0
 66
1
 70
1
  0
VERTEX
  8
0
 10
311.200779
 20
857.891296
 42
-0.042544
  0
VERTEX
  8
0
 10
316.718110
 20
856.237145
 42
-0.028959
  0
VERTEX
  8
0
 10
322.665714
 20
853.479001
 42
-0.029007
  0
VERTEX
  8
0
 10
328.238164
 20
850.061566
 42
-0.043545
  0
VERTEX
  8
0
 10
332.616281
 20
846.410035
 42
-0.034956
  0
VERTEX
  8
0
 10
334.467883
 20
844.293457
 42
-0.014710
  0
VERTEX
  8
0
 10
336.664246
 20
841.213160
 42
-0.014470
  0
VERTEX
  8
0
 10
338.827903
 20
837.770229
 42
-0.018279
  0
VERTEX
  8
0
 10
340.616281
 20
834.461898
 42
-0.012226
  0
VERTEX
  8
0
 10
342.955451
 20
829.422341
 42
-0.050738
  0
VERTEX
  8
0
 10
343.973166
 20
826.231286
 42
-0.044117
  0
VERTEX
  8
0
 10
344.396210
 20
822.698027
 42
-0.007747
  0
VERTEX
  8
0
 10
344.500000
 20
816.000000
 42
-0.007747
  0
VERTEX
  8
0
 10
344.396210
 20
809.301973
 42
-0.044117
  0
VERTEX
  8
0
 10
343.973166
 20
805.768714
 42
-0.050738
  0
VERTEX
  8
0
 10
342.955451
 20
802.577659
 42
-0.012226
  0
VERTEX
  8
0
 10
340.616281
 20
797.538102
 42
-0.030966
  0
VERTEX
  8
0
 10
336.980522
 20
791.201797
 42
-0.043542
  0
VERTEX
  8
0
 10
332.935962
 20
786.095320
 42
-0.045279
  0
VERTEX
  8
0
 10
328.201340
 20
781.914173
 42
-0.037666
  0
VERTEX
  8
0
 10
322.500000
 20
778.358704
 42
-0.078111
  0
VERTEX
  8
0
 10
309.140372
 20
773.836330
 42
-0.077245
  0
VERTEX
  8
0
 10
294.984348
 20
773.605393
 42
-0.078207
  0
VERTEX
  8
0
 10
281.576761
 20
777.664401
 42
-0.083223
  0
VERTEX
  8
0
 10
270.383719
 20
785.589965
 42
-0.034956
  0
VERTEX
  8
0
 10
268.532117
 20
787.706543
 42
-0.014710
  0
VERTEX
  8
0
 10
266.335754
 20
790.786840
 42
-0.014470
  0
VERTEX
  8
0
 10
264.172097
 20
794.229771
 42
-0.018279
  0
VERTEX
  8
0
 10
262.383719
 20
797.538102
 42
-0.012226
  0
VERTEX
  8
0
 10
260.044549
 20
802.577659
 42
-0.050738
  0
VERTEX
  8
0
 10
259.026834
 20
805.768714
 42
-0.044117
  0
VERTEX
  8
0
 10
258.603790
 20
809.301973
 42
-0.007747
  0
VERTEX
  8
0
 10
258.500000
 20
816.000000
 42
-0.007747
  0
VERTEX
  8
0
 10
258.603790
 20
822.698027
 42
-0.044117
  0
VERTEX
  8
0
 10
259.026834
 20
826.231286
 42
-0.050738
  0
VERTEX
  8
0
 10
260.044549
 20
829.422341
 42
-0.012226
  0
VERTEX
  8
0
 10
262.383719
 20
834.461898
 42
-0.030688
  0
VERTEX
  8
0
 10
265.947032
 20
840.679942
 42
-0.041638
  0
VERTEX
  8
0
 10
269.938263
 20
845.770264
 42
-0.043574
  0
VERTEX
  8
0
 10
274.560126
 20
849.952598
 42
-0.038932
  0
VERTEX
  8
0
 10
280.007872
 20
853.449042
 42
-0.043204
  0
VERTEX
  8
0
 10
287.408415
 20
856.634103
 42
-0.044681
  0
VERTEX
  8
0
 10
295.163737
 20
858.456207
 42
-0.044547
  0
VERTEX
  8
0
 10
303.141029
 20
858.874808
 42
-0.042434
  0
SEQEND
  0
POLYLINE
  8
0
 66
1
 70
1
  0
VERTEX
  8
0
 10
79.556488
 20
781.516165
 42
-0.047409
  0
VERTEX
  8
0
 10
84.018533
 20
778.781932
 42
-0.040410
  0
VERTEX
  8
0
 10
88.150343
 20
775.119259
 42
-0.040067
  0
VERTEX
  8
0
 10
91.674171
 20
770.802831
 42
-0.044487
  0
VERTEX
  8
0
 10
94.326972
 20
766.122405
 42
-0.070333
  0
VERTEX
  8
0
 10
96.005816
 20
760.419356
 42
-0.036480
  0
VERTEX
  8
0
 10
96.547855
 20
753.000000
 42
-0.036480
  0
VERTEX
  8
0
 10
96.005816
 20
745.580644
 42
-0.070333
  0
VERTEX
  8
0
 10
94.326972
 20
739.877595
 42
-0.044881
  0
VERTEX
  8
0
 10
91.634245
 20
735.135423
 42
-0.041336
  0
VERTEX
  8
0
 10
88.071206
 20
730.807362
 42
-0.041285
  0
VERTEX
  8
0
 10
83.839863
 20
727.119356
 42
-0.044501
  0
VERTEX
  8
0
 10
79.160544
 20
724.279782
 42
-0.022092
  0
VERTEX
  8
0
 10
75.793395
 20
722.807061
 42
-0.043601
  0
VERTEX
  8
0
 10
72.991059
 20
721.998245
 42
-0.036790
  0
VERTEX
  8
0
 10
69.796889
 20
721.612142
 42
-0.011687
  0
VERTEX
  8
0
 10
65.000000
 20
721.500000
 42
-0.011687
  0
VERTEX
  8
0
 10
60.203111
 20
721.612142
 42
-0.036790
  0
VERTEX
  8
0
 10
57.008941
 20
721.998245
 42
-0.043601
  0
VERTEX
  8
0
 10
54.206605
 20
722.807061
 42
-0.022092
  0
VERTEX
  8
0
 10
50.839456
 20
724.279782
 42
-0.132252
  0
VERTEX
  8
0
 10
38.570438
 20
735.028931
 42
-0.129062
  0
VERTEX
  8
0
 10
33.213284
 20
750.585408
 42
-0.128670
  0
VERTEX
  8
0
 10
36.181212
 20
766.804270
 42
-0.131056
  0
VERTEX
  8
0
 10
46.703808
 20
779.359437
 42
-0.075929
  0
VERTEX
  8
0
 10
54.009576
 20
782.988650
 42
-0.061058
  0
VERTEX
  8
0
 10
62.639096
 20
784.626089
 42
-0.060326
  0
VERTEX
  8
0
 10
71.517685
 20
784.137703
 42
-0.070003
  0
SEQEND
  0
POLYLINE
  8
0
 66
1
 70
1
  0
VERTEX
  8
0
 10
1051.556488
 20
756.516165
 42
-0.047409
  0
VERTEX
  8
0
 10
1056.018533
 20
753.781932
 42
-0.040410
  0
VERTEX
  8
0
 10
1060.150343
 20
750.119259
 42
-0.040067
  0
VERTEX
  8
0
 10
1063.674171
 20
745.802831
 42
-0.044487
  0
VERTEX
  8
0
 10
1066.326972
 20
741.122405
 42
-0.070333
  0
VERTEX
  8
0
 10
1068.005816
 20
735.419356
 42
-0.036480
  0
VERTEX
  8
0
 10
1068.547855
 20
728.000000
 42
-0.036480
  0
VERTEX
  8
0
 10
1068.005816
 20
720.580644
 42
-0.070333
  0
VERTEX
  8
0
 10
1066.326972
 20
714.877595
 42
-0.044881
  0
VERTEX
  8
0
 10
1063.634245
 20
710.135423
 42
-0.041336
  0
VERTEX
  8
0
 10
1060.071206
 20
705.807362
 42
-0.041285
  0
VERTEX
  8
0
 10
1055.839863
 20
702.119356
 42
-0.044501
  0
VERTEX
  8
0
 10
1051.160544
 20
699.279782
 42
-0.022092
  0
VERTEX
  8
0
 10
1047.793395
 20
697.807061
 42
-0.043601
  0
VERTEX
  8
0
 10
1044.991059
 20
696.998245
 42
-0.036790
  0
VERTEX
  8
0
 10
1041.796889
 20
696.612142
 42
-0.011687
  0
VERTEX
  8
0
 10
1037.000000
 20
696.500000
 42
-0.011687
  0
VERTEX
  8
0
 10
1032.203111
 20
696.612142
 42
-0.036790
  0
VERTEX
  8
0
 10
1029.008941
 20
696.998245
 42
-0.043601
  0
VERTEX
  8
0
 10
1026.206605
 20
697.807061
 42
-0.022092
  0
VERTEX
  8
0
 10
1022.839456
 20
699.279782
 42
-0.044501
  0
VERTEX
  8
0
 10
1018.160137
 20
702.119356
 42
-0.041285
  0
VERTEX
  8
0
 10
1013.928794
 20
705.807362
 42
-0.041336
  0
VERTEX
  8
0
 10
1010.365755
 20
710.135423
 42
-0.044881
  0
VERTEX
  8
0
 10
1007.673028
 20
714.877595
 42
-0.070365
  0
VERTEX
  8
0
 10
1006.000540
 20
720.560403
 42
-0.036145
  0
VERTEX
  8
0
 10
1005.454589
 20
727.978120
 42
-0.036151
  0
VERTEX
  8
0
 10
1005.982146
 20
735.389746
 42
-0.071008
  0
VERTEX
  8
0
 10
1007.641356
 20
741.050805
 42
-0.052374
  0
VERTEX
  8
0
 10
1011.204208
 20
747.110261
 42
-0.054837
  0
VERTEX
  8
0
 10
1015.900539
 20
752.194550
 42
-0.055243
  0
VERTEX
  8
0
 10
1021.555651
 20
756.105953
 42
-0.054637
  0
VERTEX
  8
0
 10
1027.950561
 20
758.701535
 42
-0.055643
  0
VERTEX
  8
0
 10
1033.455771
 20
759.619541
 42
-0.036610
  0
VERTEX
  8
0
 10
1039.883596
 20
759.496585
 42
-0.036537
  0
VERTEX
  8
0
 10
1046.246074
 20
758.434817
 42
-0.054207
  0
SEQEND
  0
POLYLINE
  8
0
 66
1
 70
1
  0
VERTEX
  8
0
 10
1538.556488
 20
669.516165
 42
-0.047365
  0
VERTEX
  8
0
 10
1543.009497
 20
666.788006
 42
-0.040234
  0
VERTEX
  8
0
 10
1547.139390
 20
663.130909
 42
-0.039814
  0
VERTEX
  8
0
 10
1550.673356
 20
658.814259
 42
-0.043798
  0
VERTEX
  8
0
 10
1553.352904
 20
654.122405
 42
-0.032594
  0
VERTEX
  8
0
 10
1554.387104
 20
651.425625
 42
-0.035089
  0
VERTEX
  8
0
 10
1555.031935
 20
648.682532
 42
-0.028202
  0
VERTEX
  8
0
 10
1555.374721
 20
645.409302
 42
-0.011989
  0
VERTEX
  8
0
 10
1555.480464
 20
641.000000
 42
-0.011989
  0
VERTEX
  8
0
 10
1555.374721
 20
636.590698
 42
-0.028202
  0
VERTEX
  8
0
 10
1555.031935
 20
633.317468
 42
-0.035089
  0
VERTEX
  8
0
 10
1554.387104
 20
630.574375
 42
-0.032594
  0
VERTEX
  8
0
 10
1553.352904
 20
627.877595
 42
-0.044190
  0
VERTEX
  8
0
 10
1550.633071
 20
623.123833
 42
-0.041079
  0
VERTEX
  8
0
 10
1547.059934
 20
618.795569
 42
-0.041115
  0
VERTEX
  8
0
 10
1542.830729
 20
615.113255
 42
-0.044457
  0
VERTEX
  8
0
 10
1538.160544
 20
612.279782
 42
-0.022092
  0
VERTEX
  8
0
 10
1534.793395
 20
610.807061
 42
-0.043601
  0
VERTEX
  8
0
 10
1531.991059
 20
609.998245
 42
-0.036790
  0
VERTEX
  8
0
 10
1528.796889
 20
609.612142
 42
-0.011687
  0
VERTEX
  8
0
 10
1524.000000
 20
609.500000
 42
-0.011687
  0
VERTEX
  8
0
 10
1519.203111
 20
609.612142
 42
-0.036790
  0
VERTEX
  8
0
 10
1516.008941
 20
609.998245
 42
-0.043601
  0
VERTEX
  8
0
 10
1513.206605
 20
610.807061
 42
-0.022092
  0
VERTEX
  8
0
 10
1509.839456
 20
612.279782
 42
-0.044501
  0
VERTEX
  8
0
 10
1505.160137
 20
615.119356
 42
-0.041285
  0
VERTEX
  8
0
 10
1500.928794
 20
618.807362
 42
-0.041336
  0
VERTEX
  8
0
 10
1497.365755
 20
623.135423
 42
-0.044881
  0
VERTEX
  8
0
 10
1494.673028
 20
627.877595
 42
-0.070365
  0
VERTEX
  8
0
 10
1493.000540
 20
633.560403
 42
-0.036145
  0
VERTEX
  8
0
 10
1492.454589
 20
640.978120
 42
-0.036151
  0
VERTEX
  8
0
 10
1492.982146
 20
648.389746
 42
-0.071008
  0
VERTEX
  8
0
 10
1494.641356
 20
654.050805
 42
-0.052374
  0
VERTEX
  8
0
 10
1498.204208
 20
660.110261
 42
-0.054837
  0
VERTEX
  8
0
 10
1502.900539
 20
665.194550
 42
-0.055243
  0
VERTEX
  8
0
 10
1508.555651
 20
669.105953
 42
-0.054637
  0
VERTEX
  8
0
 10
1514.950561
 20
671.701535
 42
-0.055643
  0
VERTEX
  8
0
 10
1520.455771
 20
672.619541
 42
-0.036610
  0
VERTEX
  8
0
 10
1526.883596
 20
672.496585
 42
-0.036537
  0
VERTEX
  8
0
 10
1533.246074
 20
671.434817
 42
-0.054207
  0
SEQEND
  0
POLYLINE
  8
0
 66
1
 70
1
  0
VERTEX
  8
0
 10
1092.556488
 20
625.516165
 42
-0.047409
  0
VERTEX
  8
0
 10
1097.018533
 20
622.781932
 42
-0.040410
  0
VERTEX
  8
0
 10
1101.150343
 20
619.119259
 42
-0.040067
  0
VERTEX
  8
0
 10
1104.674171
 20
614.802831
 42
-0.044487
  0
VERTEX
  8
0
 10
1107.326972
 20
610.122405
 42
-0.070333
  0
VERTEX
  8
0
 10
1109.005816
 20
604.419356
 42
-0.036480
  0
VERTEX
  8
0
 10
1109.547855
 20
597.000000
 42
-0.036480
  0
VERTEX
  8
0
 10
1109.005816
 20
589.580644
 42
-0.070333
  0
VERTEX
  8
0
 10
1107.326972
 20
583.877595
 42
-0.044881
  0
VERTEX
  8
0
 10
1104.634245
 20
579.135423
 42
-0.041336
  0
VERTEX
  8
0
 10
1101.071206
 20
574.807362
 42
-0.041285
  0
VERTEX
  8
0
 10
1096.839863
 20
571.119356
 42
-0.044501
  0
VERTEX
  8
0
 10
1092.160544
 20
568.279782
 42
-0.022092
  0
VERTEX
  8
0
 10
1088.793395
 20
566.807061
 42
-0.043601
  0
VERTEX
  8
0
 10
1085.991059
 20
565.998245
 42
-0.036790
  0
VERTEX
  8
0
 10
1082.796889
 20
565.612142
 42
-0.011687
  0
VERTEX
  8
0
 10
1078.000000
 20
565.500000
 42
-0.011687
  0
VERTEX
  8
0
 10
1073.203111
 20
565.612142
 42
-0.036790
  0
VERTEX
  8
0
 10
1070.008941
 20
565.998245
 42
-0.043601
  0
VERTEX
  8
0
 10
1067.206605
 20
566.807061
 42
-0.022092
  0
VERTEX
  8
0
 10
1063.839456
 20
568.279782
 42
-0.044501
  0
VERTEX
  8
0
 10
1059.160137
 20
571.119356
 42
-0.041285
  0
VERTEX
  8
0
 10
1054.928794
 20
574.807362
 42
-0.041336
  0
VERTEX
  8
0
 10
1051.365755
 20
579.135423
 42
-0.044881
  0
VERTEX
  8
0
 10
1048.673028
 20
583.877595
 42
-0.070365
  0
VERTEX
  8
0
 10
1047.000540
 20
589.560403
 42
-0.036145
  0
VERTEX
  8
0
 10
1046.454589
 20
596.978120
 42
-0.036151
  0
VERTEX
  8
0
 10
1046.982146
 20
604.389746
 42
-0.071008
  0
VERTEX
  8
0
 10
1048.641356
 20
610.050805
 42
-0.052374
  0
VERTEX
  8
0
 10
1052.204208
 20
616.110261
 42
-0.054837
  0
VERTEX
  8
0
 10
1056.900539
 20
621.194550
 42
-0.055243
  0
VERTEX
  8
0
 10
1062.555651
 20
625.105953
 42
-0.054637
  0
VERTEX
  8
0
 10
1068.950561
 20
627.701535
 42
-0.055643
  0
VERTEX
  8
0
 10
1074.455771
 20
628.619541
 42
-0.036610
  0
VERTEX
  8
0
 10
1080.883596
 20
628.496585
 42
-0.036537
  0
VERTEX
  8
0
 10
1087.246074
 20
627.434817
 42
-0.054207
  0
SEQEND
  0
POLYLINE
  8
0
 66
1
 70
1
  0
VERTEX
  8
0
 10
503.556488
 20
606.516165
 42
-0.047409
  0
VERTEX
  8
0
 10
508.018533
 20
603.781932
 42
-0.040410
  0
VERTEX
  8
0
 10
512.150343
 20
600.119259
 42
-0.040067
  0
VERTEX
  8
0
 10
515.674171
 20
595.802831
 42
-0.044487
  0
VERTEX
  8
0
 10
518.326972
 20
591.122405
 42
-0.032776
  0
VERTEX
  8
0
 10
519.342663
 20
588.433743
 42
-0.034228
  0
VERTEX
  8
0
 10
519.980835
 20
585.673853
 42
-0.027629
  0
VERTEX
  8
0
 10
520.322634
 20
582.385267
 42
-0.012080
  0
VERTEX
  8
0
 10
520.428601
 20
578.000000
 42
-0.012080
  0
VERTEX
  8
0
 10
520.322634
 20
573.614733
 42
-0.027629
  0
VERTEX
  8
0
 10
519.980835
 20
570.326147
 42
-0.034228
  0
VERTEX
  8
0
 10
519.342663
 20
567.566257
 42
-0.032776
  0
VERTEX
  8
0
 10
518.326972
 20
564.877595
 42
-0.044881
  0
VERTEX
  8
0
 10
515.634245
 20
560.135423
 42
-0.041336
  0
VERTEX
  8
0
 10
512.071206
 20
555.807362
 42
-0.041285
  0
VERTEX
  8
0
 10
507.839863
 20
552.119356
 42
-0.044501
  0
VERTEX
  8
0
 10
503.160544
 20
549.279782
 42
-0.022092
  0
VERTEX
  8
0
 10
499.793395
 20
547.807061
 42
-0.043601
  0
VERTEX
  8
0
 10
496.991059
 20
546.998245
 42
-0.036790
  0
VERTEX
  8
0
 10
493.796889
 20
546.612142
 42
-0.011687
  0
VERTEX
  8
0
 10
489.000000
 20
546.500000
 42
-0.011687
  0
VERTEX
  8
0
 10
484.203111
 20
546.612142
 42
-0.036790
  0
VERTEX
  8
0
 10
481.008941
 20
546.998245
 42
-0.043601
  0
VERTEX
  8
0
 10
478.206605
 20
547.807061
 42
-0.022092
  0
VERTEX
  8
0
 10
474.839456
 20
549.279782
 42
-0.044501
  0
VERTEX
  8
0
 10
470.160137
 20
552.119356
 42
-0.041285
  0
VERTEX
  8
0
 10
465.928794
 20
555.807362
 42
-0.041336
  0
VERTEX
  8
0
 10
462.365755
 20
560.135423
 42
-0.044881
  0
VERTEX
  8
0
 10
459.673028
 20
564.877595
 42
-0.070365
  0
VERTEX
  8
0
 10
458.000540
 20
570.560403
 42
-0.036145
  0
VERTEX
  8
0
 10
457.454589
 20
577.978120
 42
-0.036151
  0
VERTEX
  8
0
 10
457.982146
 20
585.389746
 42
-0.071008
  0
VERTEX
  8
0
 10
459.641356
 20
591.050805
 42
-0.052374
  0
VERTEX
  8
0
 10
463.204208
 20
597.110261
 42
-0.054837
  0
VERTEX
  8
0
 10
467.900539
 20
602.194550
 42
-0.055243
  0
VERTEX
  8
0
 10
473.555651
 20
606.105953
 42
-0.054637
  0
VERTEX
  8
0
 10
479.950561
 20
608.701535
 42
-0.055643
  0
VERTEX
  8
0
 10
485.455771
 20
609.619541
 42
-0.036610
  0
VERTEX
  8
0
 10
491.883596
 20
609.496585
 42
-0.036537
  0
VERTEX
  8
0
 10
498.246074
 20
608.434817
 42
-0.054207
  0
SEQEND
  0
ENDSEC
  0
EOF
