  0
SECTION
  2
HEADER
  9
$ACADVER
  1
AC1006
  9
$EXTMIN
 10
0.000000
 20
0.000000
 30
0.000000
  9
$EXTMAX
 10
1571.000000
 20
2739.000000
 30
0.000000
  0
ENDSEC
  0
SECTION
  2
ENTITIES
  0
POLYLINE
  8
0
 66
1
 70
1
  0
VERTEX
  8
0
 10
62.667326
 20
2735.333993
 42
0.190579
  0
VERTEX
  8
0
 10
62.396178
 20
2734.708008
 42
0.001044
  0
VERTEX
  8
0
 10
62.196027
 20
2728.044495
 42
0.004295
  0
VERTEX
  8
0
 10
62.048125
 20
2720.401716
 42
0.002690
  0
VERTEX
  8
0
 10
62.000000
 20
2711.455778
 42
-0.002411
  0
VERTEX
  8
0
 10
61.942968
 20
2699.629407
 42
-0.011283
  0
VERTEX
  8
0
 10
61.723720
 20
2692.825042
 42
-0.012859
  0
VERTEX
  8
0
 10
61.370952
 20
2688.451963
 42
-0.195397
  0
VERTEX
  8
0
 10
60.666643
 20
2687.138301
 42
-0.159139
  0
VERTEX
  8
0
 10
59.323772
 20
2686.606462
 42
-0.003841
  0
VERTEX
  8
0
 10
52.555625
 20
2686.242108
 42
-0.006684
  0
VERTEX
  8
0
 10
43.551995
 20
2685.947301
 42
-0.002502
  0
VERTEX
  8
0
 10
30.916643
 20
2685.765856
 42
0.000000
  0
VERTEX
  8
0
 10
2.500000
 20
2685.500000
 42
0.000000
  0
VERTEX
  8
0
 10
1.772939
 20
2500.500000
 42
0.000634
  0
VERTEX
  8
0
 10
1.505599
 20
2400.071940
 42
0.000155
  0
VERTEX
  8
0
 10
1.326151
 20
2234.571875
 42
0.000159
  0
VERTEX
  8
0
 10
1.239411
 20
2044.871094
 42
0.000158
  0
VERTEX
  8
0
 10
1.272939
 20
1855.000000
 42
0.000000
  0
VERTEX
  8
0
 10
1.500000
 20
1394.500000
 42
0.000000
  0
VERTEX
  8
0
 10
14.934054
 20
1394.219693
 42
-0.006736
  0
VERTEX
  8
0
 10
20.379176
 20
1394.032664
 42
-0.011244
  0
VERTEX
  8
0
 10
24.953197
 20
1393.710610
 42
-0.007950
  0
VERTEX
  8
0
 10
28.612244
 20
1393.311374
 42
-0.142999
  0
VERTEX
  8
0
 10
29.684054
 20
1392.847248
 42
-0.212816
  0
VERTEX
  8
0
 10
30.430096
 20
1391.336509
 42
-0.003547
  0
VERTEX
  8
0
 10
30.738254
 20
1381.777543
 42
-0.005315
  0
VERTEX
  8
0
 10
30.948095
 20
1367.309550
 42
-0.000968
  0
VERTEX
  8
0
 10
31.000000
 20
1340.500000
 42
-0.000829
  0
VERTEX
  8
0
 10
30.952229
 20
1311.702200
 42
-0.006258
  0
VERTEX
  8
0
 10
30.736714
 20
1298.092356
 42
-0.006358
  0
VERTEX
  8
0
 10
30.394575
 20
1289.765677
 42
-0.209040
  0
VERTEX
  8
0
 10
29.511496
 20
1288.009541
 42
-0.140197
  0
VERTEX
  8
0
 10
28.194481
 20
1287.430622
 42
-0.019608
  0
VERTEX
  8
0
 10
25.202784
 20
1287.141454
 42
-0.015869
  0
VERTEX
  8
0
 10
20.816144
 20
1287.029957
 42
-0.005010
  0
VERTEX
  8
0
 10
14.261496
 20
1287.137096
 42
0.000000
  0
VERTEX
  8
0
 10
0.500000
 20
1287.500000
 42
0.000000
  0
VERTEX
  8
0
 10
0.500000
 20
1241.500000
 42
0.000000
  0
VERTEX
  8
0
 10
0.500000
 20
1195.500000
 42
0.000000
  0
VERTEX
  8
0
 10
9.500000
 20
1194.853184
 42
-0.011699
  0
VERTEX
  8
0
 10
13.318611
 20
1194.488777
 42
-0.009793
  0
VERTEX
  8
0
 10
17.350367
 20
1193.928331
 42
-0.009917
  0
VERTEX
  8
0
 10
21.016725
 20
1193.270472
 42
-0.026556
  0
VERTEX
  8
0
 10
23.586354
 20
1192.613041
 42
-0.153678
  0
VERTEX
  8
0
 10
38.375311
 20
1182.308790
 42
-0.150246
  0
VERTEX
  8
0
 10
44.760246
 20
1165.295237
 42
-0.150426
  0
VERTEX
  8
0
 10
40.481927
 20
1147.648581
 42
-0.154093
  0
VERTEX
  8
0
 10
27.050805
 20
1135.663934
 42
-0.038669
  0
VERTEX
  8
0
 10
24.307907
 20
1134.676766
 42
-0.025544
  0
VERTEX
  8
0
 10
21.034893
 20
1133.954845
 42
-0.019802
  0
VERTEX
  8
0
 10
16.914950
 20
1133.431220
 42
-0.009028
  0
VERTEX
  8
0
 10
11.500000
 20
1133.058278
 42
0.000000
  0
VERTEX
  8
0
 10
0.500000
 20
1132.500000
 42
0.000000
  0
VERTEX
  8
0
 10
0.500000
 20
633.500000
 42
0.000058
  0
VERTEX
  8
0
 10
0.537018
 20
315.223819
 42
0.000849
  0
VERTEX
  8
0
 10
0.753891
 20
202.850055
 42
0.000588
  0
VERTEX
  8
0
 10
1.071305
 20
136.756114
 42
0.073477
  0
VERTEX
  8
0
 10
2.331524
 20
128.565659
 42
0.043032
  0
VERTEX
  8
0
 10
6.785283
 20
117.586352
 42
0.033304
  0
VERTEX
  8
0
 10
13.401682
 20
106.497331
 42
0.033495
  0
VERTEX
  8
0
 10
21.373847
 20
96.465845
 42
0.045592
  0
VERTEX
  8
0
 10
29.895039
 20
88.666463
 42
0.071157
  0
VERTEX
  8
0
 10
48.014358
 20
78.578717
 42
0.023547
  0
VERTEX
  8
0
 10
76.991214
 20
69.013321
 42
0.020343
  0
VERTEX
  8
0
 10
113.950424
 20
60.317600
 42
0.012558
  0
VERTEX
  8
0
 10
158.000000
 20
52.970024
 42
0.000181
  0
VERTEX
  8
0
 10
199.401988
 20
47.143913
 42
0.000027
  0
VERTEX
  8
0
 10
283.395775
 20
35.359889
 42
0.000018
  0
VERTEX
  8
0
 10
369.415698
 20
23.299500
 42
0.000345
  0
VERTEX
  8
0
 10
396.500000
 20
19.522252
 42
0.008318
  0
VERTEX
  8
0
 10
417.164229
 20
17.004503
 42
0.002993
  0
VERTEX
  8
0
 10
446.645755
 20
14.087487
 42
0.003045
  0
VERTEX
  8
0
 10
477.638860
 20
11.398409
 42
0.004947
  0
VERTEX
  8
0
 10
504.000000
 20
9.535182
 42
0.000978
  0
VERTEX
  8
0
 10
602.051494
 20
3.771552
 42
0.005394
  0
VERTEX
  8
0
 10
654.908256
 20
1.340037
 42
0.006736
  0
VERTEX
  8
0
 10
702.698363
 20
0.302417
 42
0.002085
  0
VERTEX
  8
0
 10
774.641955
 20
0.009826
 42
0.000740
  0
VERTEX
  8
0
 10
822.548721
 20
0.085616
 42
0.002305
  0
VERTEX
  8
0
 10
854.815593
 20
0.333156
 42
0.003306
  0
VERTEX
  8
0
 10
877.800525
 20
0.767492
 42
0.009095
  0
VERTEX
  8
0
 10
894.000000
 20
1.475790
 42
-0.001212
  0
VERTEX
  8
0
 10
906.241109
 20
2.204511
 42
-0.000366
  0
VERTEX
  8
0
 10
924.843750
 20
3.253045
 42
-0.000366
  0
VERTEX
  8
0
 10
945.707979
 20
4.398409
 42
-0.000398
  0
VERTEX
  8
0
 10
966.000000
 20
5.481232
 42
0.000690
  0
VERTEX
  8
0
 10
986.802940
 20
6.603481
 42
0.000552
  0
VERTEX
  8
0
 10
1009.212500
 20
7.868226
 42
0.000558
  0
VERTEX
  8
0
 10
1029.945611
 20
9.084515
 42
0.001416
  0
VERTEX
  8
0
 10
1045.000000
 20
10.027295
 42
0.002315
  0
VERTEX
  8
0
 10
1081.598432
 20
12.593534
 42
0.023828
  0
VERTEX
  8
0
 10
1096.634602
 20
14.441393
 42
0.061563
  0
VERTEX
  8
0
 10
1105.271114
 20
17.045928
 42
0.092646
  0
VERTEX
  8
0
 10
1111.742264
 20
21.479106
 42
0.000000
  0
VERTEX
  8
0
 10
1116.000000
 20
25.736842
 42
0.000000
  0
VERTEX
  8
0
 10
1116.010317
 20
168.618421
 42
-0.000532
  0
VERTEX
  8
0
 10
1116.079774
 20
229.722101
 42
-0.001136
  0
VERTEX
  8
0
 10
1116.290963
 20
276.942693
 42
-0.000700
  0
VERTEX
  8
0
 10
1116.591080
 20
313.797187
 42
-0.019108
  0
VERTEX
  8
0
 10
1117.054789
 20
323.500000
 42
-0.021672
  0
VERTEX
  8
0
 10
1119.519428
 20
342.454357
 42
-0.024131
  0
VERTEX
  8
0
 10
1123.559665
 20
360.446214
 42
-0.024132
  0
VERTEX
  8
0
 10
1129.314545
 20
377.964425
 42
-0.021677
  0
VERTEX
  8
0
 10
1136.915302
 20
395.500000
 42
-0.039408
  0
VERTEX
  8
0
 10
1154.977018
 20
426.246881
 42
-0.044261
  0
VERTEX
  8
0
 10
1177.028828
 20
452.514628
 42
-0.044276
  0
VERTEX
  8
0
 10
1203.352881
 20
474.484013
 42
-0.039481
  0
VERTEX
  8
0
 10
1234.130714
 20
492.436995
 42
-0.020564
  0
VERTEX
  8
0
 10
1249.902883
 20
499.254846
 42
-0.020910
  0
VERTEX
  8
0
 10
1266.095314
 20
504.712234
 42
-0.020106
  0
VERTEX
  8
0
 10
1283.271217
 20
508.971149
 42
-0.016244
  0
VERTEX
  8
0
 10
1302.000000
 20
512.193118
 42
-0.030690
  0
VERTEX
  8
0
 10
1308.259749
 20
512.673055
 42
-0.000596
  0
VERTEX
  8
0
 10
1340.583810
 20
513.124600
 42
-0.001296
  0
VERTEX
  8
0
 10
1380.992082
 20
513.536160
 42
-0.000617
  0
VERTEX
  8
0
 10
1433.000000
 20
513.866914
 42
0.000000
  0
VERTEX
  8
0
 10
1556.500000
 20
514.500000
 42
0.000000
  0
VERTEX
  8
0
 10
1556.500000
 20
901.500000
 42
0.000000
  0
VERTEX
  8
0
 10
1556.500000
 20
1288.500000
 42
0.000000
  0
VERTEX
  8
0
 10
1542.567025
 20
1288.779411
 42
-0.006398
  0
VERTEX
  8
0
 10
1536.884028
 20
1288.966153
 42
-0.011028
  0
VERTEX
  8
0
 10
1532.161821
 20
1289.286333
 42
-0.007782
  0
VERTEX
  8
0
 10
1528.403936
 20
1289.683576
 42
-0.143943
  0
VERTEX
  8
0
 10
1527.317025
 20
1290.151856
 42
-0.222572
  0
VERTEX
  8
0
 10
1525.913472
 20
1293.132669
 42
-0.000513
  0
VERTEX
  8
0
 10
1525.861808
 20
1342.999562
 42
-0.000513
  0
VERTEX
  8
0
 10
1525.912453
 20
1392.866484
 42
-0.222578
  0
VERTEX
  8
0
 10
1527.315946
 20
1395.847248
 42
-0.142999
  0
VERTEX
  8
0
 10
1528.387756
 20
1396.311374
 42
-0.007950
  0
VERTEX
  8
0
 10
1532.046803
 20
1396.710610
 42
-0.011244
  0
VERTEX
  8
0
 10
1536.620824
 20
1397.032664
 42
-0.006736
  0
VERTEX
  8
0
 10
1542.065946
 20
1397.219693
 42
0.000000
  0
VERTEX
  8
0
 10
1555.500000
 20
1397.500000
 42
0.000000
  0
VERTEX
  8
0
 10
1555.500000
 20
1579.500000
 42
0.000000
  0
VERTEX
  8
0
 10
1555.500000
 20
1761.500000
 42
0.000000
  0
VERTEX
  8
0
 10
1540.850737
 20
1761.776156
 42
-0.004671
  0
VERTEX
  8
0
 10
1533.842233
 20
1761.973778
 42
-0.015895
  0
VERTEX
  8
0
 10
1529.285551
 20
1762.290150
 42
-0.018894
  0
VERTEX
  8
0
 10
1526.232427
 20
1762.716948
 42
-0.177169
  0
VERTEX
  8
0
 10
1525.104885
 20
1763.373622
 42
-0.171654
  0
VERTEX
  8
0
 10
1524.529530
 20
1764.936551
 42
-0.000340
  0
VERTEX
  8
0
 10
1524.205240
 20
1791.832179
 42
-0.001790
  0
VERTEX
  8
0
 10
1523.929189
 20
1827.237732
 42
-0.000513
  0
VERTEX
  8
0
 10
1523.754148
 20
1882.097466
 42
0.000000
  0
VERTEX
  8
0
 10
1523.500000
 20
1999.500000
 42
0.000000
  0
VERTEX
  8
0
 10
1498.580969
 20
1999.767839
 42
-0.002949
  0
VERTEX
  8
0
 10
1487.629803
 20
1999.950137
 42
-0.007424
  0
VERTEX
  8
0
 10
1479.657323
 20
2000.248359
 42
-0.004528
  0
VERTEX
  8
0
 10
1473.632575
 20
2000.618087
 42
-0.156862
  0
VERTEX
  8
0
 10
1472.330969
 20
2001.140283
 42
-0.222996
  0
VERTEX
  8
0
 10
1470.872542
 20
2004.244132
 42
-0.000114
  0
VERTEX
  8
0
 10
1470.848188
 20
2114.500588
 42
-0.000114
  0
VERTEX
  8
0
 10
1470.873936
 20
2224.757025
 42
-0.222992
  0
VERTEX
  8
0
 10
1472.332402
 20
2227.860906
 42
-0.158229
  0
VERTEX
  8
0
 10
1473.658590
 20
2228.388862
 42
-0.004117
  0
VERTEX
  8
0
 10
1480.107291
 20
2228.755400
 42
-0.006983
  0
VERTEX
  8
0
 10
1488.669121
 20
2229.051562
 42
-0.002676
  0
VERTEX
  8
0
 10
1500.582402
 20
2229.233351
 42
0.000000
  0
VERTEX
  8
0
 10
1527.500000
 20
2229.500000
 42
0.000000
  0
VERTEX
  8
0
 10
1527.755583
 20
2315.904265
 42
-0.000709
  0
VERTEX
  8
0
 10
1527.931526
 20
2356.109430
 42
-0.002414
  0
VERTEX
  8
0
 10
1528.209740
 20
2382.300359
 42
-0.000607
  0
VERTEX
  8
0
 10
1528.539621
 20
2402.093659
 42
-0.170330
  0
VERTEX
  8
0
 10
1529.111123
 20
2403.633895
 42
-0.189160
  0
VERTEX
  8
0
 10
1530.358473
 20
2404.322095
 42
-0.013825
  0
VERTEX
  8
0
 10
1534.329985
 20
2404.731089
 42
-0.012363
  0
VERTEX
  8
0
 10
1540.380733
 20
2405.035380
 42
-0.003025
  0
VERTEX
  8
0
 10
1550.355540
 20
2405.229631
 42
0.000000
  0
VERTEX
  8
0
 10
1570.500000
 20
2405.500000
 42
0.000000
  0
VERTEX
  8
0
 10
1570.500000
 20
2570.500000
 42
0.000000
  0
VERTEX
  8
0
 10
1570.500000
 20
2735.500000
 42
0.000000
  0
VERTEX
  8
0
 10
816.917326
 20
2735.750660
 42
0.000083
  0
VERTEX
  8
0
 10
527.909898
 20
2735.798816
 42
0.000138
  0
VERTEX
  8
0
 10
284.503536
 20
2735.731661
 42
0.000001
  0
VERTEX
  8
0
 10
63.330722
 20
2735.608997
 42
0.198768
  0
SEQEND
  0
POLYLINE
  8
0
 66
1
 70
1
  0
VERTEX
  8
0
 10
1532.556488
 20
2622.516165
 42
-0.047365
  0
VERTEX
  8
0
 10
1537.009497
 20
2619.788006
 42
-0.040234
  0
VERTEX
  8
0
 10
1541.139390
 20
2616.130909
 42
-0.039814
  0
VERTEX
  8
0
 10
1544.673356
 20
2611.814259
 42
-0.043798
  0
VERTEX
  8
0
 10
1547.352904
 20
2607.122405
 42
-0.032594
  0
VERTEX
  8
0
 10
1548.387104
 20
2604.425625
 42
-0.035089
  0
VERTEX
  8
0
 10
1549.031935
 20
2601.682532
 42
-0.028202
  0
VERTEX
  8
0
 10
1549.374721
 20
2598.409302
 42
-0.011989
  0
VERTEX
  8
0
 10
1549.480464
 20
2594.000000
 42
-0.011989
  0
VERTEX
  8
0
 10
1549.374721
 20
2589.590698
 42
-0.028202
  0
VERTEX
  8
0
 10
1549.031935
 20
2586.317468
 42
-0.035089
  0
VERTEX
  8
0
 10
1548.387104
 20
2583.574375
 42
-0.032594
  0
VERTEX
  8
0
 10
1547.352904
 20
2580.877595
 42
-0.044190
  0
VERTEX
  8
0
 10
1544.633071
 20
2576.123833
 42
-0.041079
  0
VERTEX
  8
0
 10
1541.059934
 20
2571.795569
 42
-0.041115
  0
VERTEX
  8
0
 10
1536.830729
 20
2568.113255
 42
-0.044457
  0
VERTEX
  8
0
 10
1532.160544
 20
2565.279782
 42
-0.022092
  0
VERTEX
  8
0
 10
1528.793395
 20
2563.807061
 42
-0.043601
  0
VERTEX
  8
0
 10
1525.991059
 20
2562.998245
 42
-0.036790
  0
VERTEX
  8
0
 10
1522.796889
 20
2562.612142
 42
-0.011687
  0
VERTEX
  8
0
 10
1518.000000
 20
2562.500000
 42
-0.011687
  0
VERTEX
  8
0
 10
1513.203111
 20
2562.612142
 42
-0.036790
  0
VERTEX
  8
0
 10
1510.008941
 20
2562.998245
 42
-0.043601
  0
VERTEX
  8
0
 10
1507.206605
 20
2563.807061
 42
-0.022092
  0
VERTEX
  8
0
 10
1503.839456
 20
2565.279782
 42
-0.044501
  0
VERTEX
  8
0
 10
1499.160137
 20
2568.119356
 42
-0.041285
  0
VERTEX
  8
0
 10
1494.928794
 20
2571.807362
 42
-0.041336
  0
VERTEX
  8
0
 10
1491.365755
 20
2576.135423
 42
-0.044881
  0
VERTEX
  8
0
 10
1488.673028
 20
2580.877595
 42
-0.070365
  0
VERTEX
  8
0
 10
1487.000540
 20
2586.560403
 42
-0.036145
  0
VERTEX
  8
0
 10
1486.454589
 20
2593.978120
 42
-0.036151
  0
VERTEX
  8
0
 10
1486.982146
 20
2601.389746
 42
-0.071008
  0
VERTEX
  8
0
 10
1488.641356
 20
2607.050805
 42
-0.052374
  0
VERTEX
  8
0
 10
1492.204208
 20
2613.110261
 42
-0.054837
  0
VERTEX
  8
0
 10
1496.900539
 20
2618.194550
 42
-0.055243
  0
VERTEX
  8
0
 10
1502.555651
 20
2622.105953
 42
-0.054637
  0
VERTEX
  8
0
 10
1508.950561
 20
2624.701535
 42
-0.055643
  0
VERTEX
  8
0
 10
1514.455771
 20
2625.619541
 42
-0.036610
  0
VERTEX
  8
0
 10
1520.883596
 20
2625.496585
 42
-0.036537
  0
VERTEX
  8
0
 10
1527.246074
 20
2624.434817
 42
-0.054207
  0
SEQEND
  0
POLYLINE
  8
0
 66
1
 70
1
  0
VERTEX
  8
0
 10
64.556488
 20
2601.516165
 42
-0.047409
  0
VERTEX
  8
0
 10
69.018533
 20
2598.781932
 42
-0.040410
  0
VERTEX
  8
0
 10
73.150343
 20
2595.119259
 42
-0.040067
  0
VERTEX
  8
0
 10
76.674171
 20
2590.802831
 42
-0.044487
  0
VERTEX
  8
0
 10
79.326972
 20
2586.122405
 42
-0.070333
  0
VERTEX
  8
0
 10
81.005816
 20
2580.419356
 42
-0.036480
  0
VERTEX
  8
0
 10
81.547855
 20
2573.000000
 42
-0.036480
  0
VERTEX
  8
0
 10
81.005816
 20
2565.580644
 42
-0.070333
  0
VERTEX
  8
0
 10
79.326972
 20
2559.877595
 42
-0.044881
  0
VERTEX
  8
0
 10
76.634245
 20
2555.135423
 42
-0.041336
  0
VERTEX
  8
0
 10
73.071206
 20
2550.807362
 42
-0.041285
  0
VERTEX
  8
0
 10
68.839863
 20
2547.119356
 42
-0.044501
  0
VERTEX
  8
0
 10
64.160544
 20
2544.279782
 42
-0.022092
  0
VERTEX
  8
0
 10
60.793395
 20
2542.807061
 42
-0.043601
  0
VERTEX
  8
0
 10
57.991059
 20
2541.998245
 42
-0.036790
  0
VERTEX
  8
0
 10
54.796889
 20
2541.612142
 42
-0.011687
  0
VERTEX
  8
0
 10
50.000000
 20
2541.500000
 42
-0.011687
  0
VERTEX
  8
0
 10
45.203111
 20
2541.612142
 42
-0.036790
  0
VERTEX
  8
0
 10
42.008941
 20
2541.998245
 42
-0.043601
  0
VERTEX
  8
0
 10
39.206605
 20
2542.807061
 42
-0.022092
  0
VERTEX
  8
0
 10
35.839456
 20
2544.279782
 42
-0.132252
  0
VERTEX
  8
0
 10
23.570438
 20
2555.028931
 42
-0.129062
  0
VERTEX
  8
0
 10
18.213284
 20
2570.585408
 42
-0.128670
  0
VERTEX
  8
0
 10
21.181212
 20
2586.804270
 42
-0.131056
  0
VERTEX
  8
0
 10
31.703808
 20
2599.359437
 42
-0.075929
  0
VERTEX
  8
0
 10
39.009576
 20
2602.988650
 42
-0.061058
  0
VERTEX
  8
0
 10
47.639096
 20
2604.626089
 42
-0.060326
  0
VERTEX
  8
0
 10
56.517685
 20
2604.137703
 42
-0.070003
  0
SEQEND
  0
POLYLINE
  8
0
 66
1
 70
1
  0
VERTEX
  8
0
 10
1524.556488
 20
1630.516165
 42
-0.047365
  0
VERTEX
  8
0
 10
1529.009497
 20
1627.788006
 42
-0.040234
  0
VERTEX
  8
0
 10
1533.139390
 20
1624.130909
 42
-0.039814
  0
VERTEX
  8
0
 10
1536.673356
 20
1619.814259
 42
-0.043798
  0
VERTEX
  8
0
 10
1539.352904
 20
1615.122405
 42
-0.032594
  0
VERTEX
  8
0
 10
1540.387104
 20
1612.425625
 42
-0.035089
  0
VERTEX
  8
0
 10
1541.031935
 20
1609.682532
 42
-0.028202
  0
VERTEX
  8
0
 10
1541.374721
 20
1606.409302
 42
-0.011989
  0
VERTEX
  8
0
 10
1541.480464
 20
1602.000000
 42
-0.011989
  0
VERTEX
  8
0
 10
1541.374721
 20
1597.590698
 42
-0.028202
  0
VERTEX
  8
0
 10
1541.031935
 20
1594.317468
 42
-0.035089
  0
VERTEX
  8
0
 10
1540.387104
 20
1591.574375
 42
-0.032594
  0
VERTEX
  8
0
 10
1539.352904
 20
1588.877595
 42
-0.044190
  0
VERTEX
  8
0
 10
1536.633071
 20
1584.123833
 42
-0.041079
  0
VERTEX
  8
0
 10
1533.059934
 20
1579.795569
 42
-0.041115
  0
VERTEX
  8
0
 10
1528.830729
 20
1576.113255
 42
-0.044457
  0
VERTEX
  8
0
 10
1524.160544
 20
1573.279782
 42
-0.022092
  0
VERTEX
  8
0
 10
1520.793395
 20
1571.807061
 42
-0.043601
  0
VERTEX
  8
0
 10
1517.991059
 20
1570.998245
 42
-0.036790
  0
VERTEX
  8
0
 10
1514.796889
 20
1570.612142
 42
-0.011687
  0
VERTEX
  8
0
 10
1510.000000
 20
1570.500000
 42
-0.011687
  0
VERTEX
  8
0
 10
1505.203111
 20
1570.612142
 42
-0.036790
  0
VERTEX
  8
0
 10
1502.008941
 20
1570.998245
 42
-0.043601
  0
VERTEX
  8
0
 10
1499.206605
 20
1571.807061
 42
-0.022092
  0
VERTEX
  8
0
 10
1495.839456
 20
1573.279782
 42
-0.044501
  0
VERTEX
  8
0
 10
1491.160137
 20
1576.119356
 42
-0.041285
  0
VERTEX
  8
0
 10
1486.928794
 20
1579.807362
 42
-0.041336
  0
VERTEX
  8
0
 10
1483.365755
 20
1584.135423
 42
-0.044881
  0
VERTEX
  8
0
 10
1480.673028
 20
1588.877595
 42
-0.070365
  0
VERTEX
  8
0
 10
1479.000540
 20
1594.560403
 42
-0.036145
  0
VERTEX
  8
0
 10
1478.454589
 20
1601.978120
 42
-0.036151
  0
VERTEX
  8
0
 10
1478.982146
 20
1609.389746
 42
-0.071008
  0
VERTEX
  8
0
 10
1480.641356
 20
1615.050805
 42
-0.052374
  0
VERTEX
  8
0
 10
1484.204208
 20
1621.110261
 42
-0.054837
  0
VERTEX
  8
0
 10
1488.900539
 20
1626.194550
 42
-0.055243
  0
VERTEX
  8
0
 10
1494.555651
 20
1630.105953
 42
-0.054637
  0
VERTEX
  8
0
 10
1500.950561
 20
1632.701535
 42
-0.055643
  0
VERTEX
  8
0
 10
1506.455771
 20
1633.619541
 42
-0.036610
  0
VERTEX
  8
0
 10
1512.883596
 20
1633.496585
 42
-0.036537
  0
VERTEX
  8
0
 10
1519.246074
 20
1632.434817
 42
-0.054207
  0
SEQEND
  0
POLYLINE
  8
0
 66
1
 70
1
  0
VERTEX
  8
0
 10
60.556488
 20
1628.516165
 42
-0.047409
  0
VERTEX
  8
0
 10
65.018533
 20
1625.781932
 42
-0.040410
  0
VERTEX
  8
0
 10
69.150343
 20
1622.119259
 42
-0.040067
  0
VERTEX
  8
0
 10
72.674171
 20
1617.802831
 42
-0.044487
  0
VERTEX
  8
0
 10
75.326972
 20
1613.122405
 42
-0.070333
  0
VERTEX
  8
0
 10
77.005816
 20
1607.419356
 42
-0.036480
  0
VERTEX
  8
0
 10
77.547855
 20
1600.000000
 42
-0.036480
  0
VERTEX
  8
0
 10
77.005816
 20
1592.580644
 42
-0.070333
  0
VERTEX
  8
0
 10
75.326972
 20
1586.877595
 42
-0.044881
  0
VERTEX
  8
0
 10
72.634245
 20
1582.135423
 42
-0.041336
  0
VERTEX
  8
0
 10
69.071206
 20
1577.807362
 42
-0.041285
  0
VERTEX
  8
0
 10
64.839863
 20
1574.119356
 42
-0.044501
  0
VERTEX
  8
0
 10
60.160544
 20
1571.279782
 42
-0.022092
  0
VERTEX
  8
0
 10
56.793395
 20
1569.807061
 42
-0.043601
  0
VERTEX
  8
0
 10
53.991059
 20
1568.998245
 42
-0.036790
  0
VERTEX
  8
0
 10
50.796889
 20
1568.612142
 42
-0.011687
  0
VERTEX
  8
0
 10
46.000000
 20
1568.500000
 42
-0.011687
  0
VERTEX
  8
0
 10
41.203111
 20
1568.612142
 42
-0.036790
  0
VERTEX
  8
0
 10
38.008941
 20
1568.998245
 42
-0.043601
  0
VERTEX
  8
0
 10
35.206605
 20
1569.807061
 42
-0.022092
  0
VERTEX
  8
0
 10
31.839456
 20
1571.279782
 42
-0.132252
  0
VERTEX
  8
0
 10
19.570438
 20
1582.028931
 42
-0.129062
  0
VERTEX
  8
0
 10
14.213284
 20
1597.585408
 42
-0.128670
  0
VERTEX
  8
0
 10
17.181212
 20
1613.804270
 42
-0.131056
  0
VERTEX
  8
0
 10
27.703808
 20
1626.359437
 42
-0.075929
  0
VERTEX
  8
0
 10
35.009576
 20
1629.988650
 42
-0.061058
  0
VERTEX
  8
0
 10
43.639096
 20
1631.626089
 42
-0.060326
  0
VERTEX
  8
0
 10
52.517685
 20
1631.137703
 42
-0.070003
  0
SEQEND
  0
POLYLINE
  8
0
 66
1
 70
1
  0
VERTEX
  8
0
 10
1161.113794
 20
1085.858664
 42
-0.060395
  0
VERTEX
  8
0
 10
1167.952903
 20
1081.075253
 42
-0.081256
  0
VERTEX
  8
0
 10
1172.683428
 20
1075.197347
 42
-0.078024
  0
VERTEX
  8
0
 10
1175.418205
 20
1067.926722
 42
-0.051054
  0
VERTEX
  8
0
 10
1176.332072
 20
1059.000000
 42
-0.051041
  0
VERTEX
  8
0
 10
1175.414992
 20
1050.039678
 42
-0.078885
  0
VERTEX
  8
0
 10
1172.668516
 20
1042.774589
 42
-0.081400
  0
VERTEX
  8
0
 10
1167.884480
 20
1036.874489
 42
-0.058024
  0
VERTEX
  8
0
 10
1160.904185
 20
1031.984169
 42
-0.016384
  0
VERTEX
  8
0
 10
1156.919854
 20
1029.998024
 42
-0.052247
  0
VERTEX
  8
0
 10
1154.106765
 20
1029.049302
 42
-0.045203
  0
VERTEX
  8
0
 10
1150.949733
 20
1028.634851
 42
-0.010047
  0
VERTEX
  8
0
 10
1145.500000
 20
1028.525329
 42
-0.010047
  0
VERTEX
  8
0
 10
1140.050267
 20
1028.634851
 42
-0.045203
  0
VERTEX
  8
0
 10
1136.893235
 20
1029.049302
 42
-0.052247
  0
VERTEX
  8
0
 10
1134.080146
 20
1029.998024
 42
-0.016384
  0
VERTEX
  8
0
 10
1130.095815
 20
1031.984169
 42
-0.058024
  0
VERTEX
  8
0
 10
1123.115520
 20
1036.874489
 42
-0.081400
  0
VERTEX
  8
0
 10
1118.331484
 20
1042.774589
 42
-0.078885
  0
VERTEX
  8
0
 10
1115.585008
 20
1050.039678
 42
-0.051041
  0
VERTEX
  8
0
 10
1114.667928
 20
1059.000000
 42
-0.051020
  0
VERTEX
  8
0
 10
1115.557434
 20
1067.694469
 42
-0.073549
  0
VERTEX
  8
0
 10
1118.209961
 20
1074.944496
 42
-0.077998
  0
VERTEX
  8
0
 10
1122.699634
 20
1080.810690
 42
-0.066063
  0
VERTEX
  8
0
 10
1129.015155
 20
1085.414758
 42
-0.021178
  0
VERTEX
  8
0
 10
1133.954283
 20
1087.835116
 42
-0.049050
  0
VERTEX
  8
0
 10
1137.875185
 20
1089.113932
 42
-0.048009
  0
VERTEX
  8
0
 10
1142.021106
 20
1089.619355
 42
-0.019543
  0
VERTEX
  8
0
 10
1147.709609
 20
1089.541332
 42
-0.018071
  0
VERTEX
  8
0
 10
1151.644665
 20
1089.190445
 42
-0.035778
  0
VERTEX
  8
0
 10
1154.717018
 20
1088.578522
 42
-0.036279
  0
VERTEX
  8
0
 10
1157.643302
 20
1087.541247
 42
-0.019132
  0
SEQEND
  0
POLYLINE
  8
0
 66
1
 70
1
  0
VERTEX
  8
0
 10
668.556488
 20
930.516165
 42
-0.047409
  0
VERTEX
  8
0
 10
673.018533
 20
927.781932
 42
-0.040410
  0
VERTEX
  8
0
 10
677.150343
 20
924.119259
 42
-0.040067
  0
VERTEX
  8
0
 10
680.674171
 20
919.802831
 42
-0.044487
  0
VERTEX
  8
0
 10
683.326972
 20
915.122405
 42
-0.032776
  0
VERTEX
  8
0
 10
684.342663
 20
912.433743
 42
-0.034228
  0
VERTEX
  8
0
 10
684.980835
 20
909.673853
 42
-0.027629
  0
VERTEX
  8
0
 10
685.322634
 20
906.385267
 42
-0.012080
  0
VERTEX
  8
0
 10
685.428601
 20
902.000000
 42
-0.012080
  0
VERTEX
  8
0
 10
685.322634
 20
897.614733
 42
-0.027629
  0
VERTEX
  8
0
 10
684.980835
 20
894.326147
 42
-0.034228
  0
VERTEX
  8
0
 10
684.342663
 20
891.566257
 42
-0.032776
  0
VERTEX
  8
0
 10
683.326972
 20
888.877595
 42
-0.044881
  0
VERTEX
  8
0
 10
680.634245
 20
884.135423
 42
-0.041336
  0
VERTEX
  8
0
 10
677.071206
 20
879.807362
 42
-0.041285
  0
VERTEX
  8
0
 10
672.839863
 20
876.119356
 42
-0.044501
  0
VERTEX
  8
0
 10
668.160544
 20
873.279782
 42
-0.022092
  0
VERTEX
  8
0
 10
664.793395
 20
871.807061
 42
-0.043601
  0
VERTEX
  8
0
 10
661.991059
 20
870.998245
 42
-0.036790
  0
VERTEX
  8
0
 10
658.796889
 20
870.612142
 42
-0.011687
  0
VERTEX
  8
0
 10
654.000000
 20
870.500000
 42
-0.011687
  0
VERTEX
  8
0
 10
649.203111
 20
870.612142
 42
-0.036790
  0
VERTEX
  8
0
 10
646.008941
 20
870.998245
 42
-0.043601
  0
VERTEX
  8
0
 10
643.206605
 20
871.807061
 42
-0.022092
  0
VERTEX
  8
0
 10
639.839456
 20
873.279782
 42
-0.044501
  0
VERTEX
  8
0
 10
635.160137
 20
876.119356
 42
-0.041285
  0
VERTEX
  8
0
 10
630.928794
 20
879.807362
 42
-0.041336
  0
VERTEX
  8
0
 10
627.365755
 20
884.135423
 42
-0.044881
  0
VERTEX
  8
0
 10
624.673028
 20
888.877595
 42
-0.070365
  0
VERTEX
  8
0
 10
623.000540
 20
894.560403
 42
-0.036145
  0
VERTEX
  8
0
 10
622.454589
 20
901.978120
 42
-0.036151
  0
VERTEX
  8
0
 10
622.982146
 20
909.389746
 42
-0.071008
  0
VERTEX
  8
0
 10
624.641356
 20
915.050805
 42
-0.052374
  0
VERTEX
  8
0
 10
628.204208
 20
921.110261
 42
-0.054837
  0
VERTEX
  8
0
 10
632.900539
 20
926.194550
 42
-0.055243
  0
VERTEX
  8
0
 10
638.555651
 20
930.105953
 42
-0.054637
  0
VERTEX
  8
0
 10
644.950561
 20
932.701535
 42
-0.055643
  0
VERTEX
  8
0
 10
650.455771
 20
933.619541
 42
-0.036610
  0
VERTEX
  8
0
 10
656.883596
 20
933.496585
 42
-0.036537
  0
VERTEX
  8
0
 10
663.246074
 20
932.434817
 42
-0.054207
  0
SEQEND
  0
POLYLINE
  8
0
 66
1
 70
1
  0
VERTEX
  8
0
 10
1279.200779
 20
854.891296
 42
-0.042544
  0
VERTEX
  8
0
 10
1284.718110
 20
853.237145
 42
-0.028959
  0
VERTEX
  8
0
 10
1290.665714
 20
850.479001
 42
-0.029007
  0
VERTEX
  8
0
 10
1296.238164
 20
847.061566
 42
-0.043545
  0
VERTEX
  8
0
 10
1300.616281
 20
843.410035
 42
-0.034956
  0
VERTEX
  8
0
 10
1302.467883
 20
841.293457
 42
-0.014710
  0
VERTEX
  8
0
 10
1304.664246
 20
838.213160
 42
-0.014470
  0
VERTEX
  8
0
 10
1306.827903
 20
834.770229
 42
-0.018279
  0
VERTEX
  8
0
 10
1308.616281
 20
831.461898
 42
-0.012226
  0
VERTEX
  8
0
 10
1310.955451
 20
826.422341
 42
-0.050738
  0
VERTEX
  8
0
 10
1311.973166
 20
823.231286
 42
-0.044117
  0
VERTEX
  8
0
 10
1312.396210
 20
819.698027
 42
-0.007747
  0
VERTEX
  8
0
 10
1312.500000
 20
813.000000
 42
-0.007747
  0
VERTEX
  8
0
 10
1312.396210
 20
806.301973
 42
-0.044117
  0
VERTEX
  8
0
 10
1311.973166
 20
802.768714
 42
-0.050738
  0
VERTEX
  8
0
 10
1310.955451
 20
799.577659
 42
-0.012226
  0
VERTEX
  8
0
 10
1308.616281
 20
794.538102
 42
-0.030966
  0
VERTEX
  8
0
 10
1304.980522
 20
788.201797
 42
-0.043542
  0
VERTEX
  8
0
 10
1300.935962
 20
783.095320
 42
-0.045279
  0
VERTEX
  8
0
 10
1296.201340
 20
778.914173
 42
-0.037666
  0
VERTEX
  8
0
 10
1290.500000
 20
775.358704
 42
-0.078111
  0
VERTEX
  8
0
 10
1277.140372
 20
770.836330
 42
-0.077245
  0
VERTEX
  8
0
 10
1262.984348
 20
770.605393
 42
-0.078207
  0
VERTEX
  8
0
 10
1249.576761
 20
774.664401
 42
-0.083223
  0
VERTEX
  8
0
 10
1238.383719
 20
782.589965
 42
-0.034956
  0
VERTEX
  8
0
 10
1236.532117
 20
784.706543
 42
-0.014710
  0
VERTEX
  8
0
 10
1234.335754
 20
787.786840
 42
-0.014470
  0
VERTEX
  8
0
 10
1232.172097
 20
791.229771
 42
-0.018279
  0
VERTEX
  8
0
 10
1230.383719
 20
794.538102
 42
-0.012226
  0
VERTEX
  8
0
 10
1228.044549
 20
799.577659
 42
-0.050738
  0
VERTEX
  8
0
 10
1227.026834
 20
802.768714
 42
-0.044117
  0
VERTEX
  8
0
 10
1226.603790
 20
806.301973
 42
-0.007747
  0
VERTEX
  8
0
 10
1226.500000
 20
813.000000
 42
-0.007747
  0
VERTEX
  8
0
 10
1226.603790
 20
819.698027
 42
-0.044117
  0
VERTEX
  8
0
 10
1227.026834
 20
823.231286
 42
-0.050738
  0
VERTEX
  8
0
 10
1228.044549
 20
826.422341
 42
-0.012226
  0
VERTEX
  8
0
 10
1230.383719
 20
831.461898
 42
-0.030688
  0
VERTEX
  8
0
 10
1233.947032
 20
837.679942
 42
-0.041638
  0
VERTEX
  8
0
 10
1237.938263
 20
842.770264
 42
-0.043574
  0
VERTEX
  8
0
 10
1242.560126
 20
846.952598
 42
-0.038932
  0
VERTEX
  8
0
 10
1248.007872
 20
850.449042
 42
-0.043204
  0
VERTEX
  8
0
 10
1255.408415
 20
853.634103
 42
-0.044681
  0
VERTEX
  8
0
 10
1263.163737
 20
855.456207
 42
-0.044547
  0
VERTEX
  8
0
 10
1271.141029
 20
855.874808
 42
-0.042434
  0
SEQEND
  0
POLYLINE
  8
0
 66
1
 70
1
  0
VERTEX
  8
0
 10
1520.556488
 20
778.516165
 42
-0.047365
  0
VERTEX
  8
0
 10
1525.009497
 20
775.788006
 42
-0.040234
  0
VERTEX
  8
0
 10
1529.139390
 20
772.130909
 42
-0.039814
  0
VERTEX
  8
0
 10
1532.673356
 20
767.814259
 42
-0.043798
  0
VERTEX
  8
0
 10
1535.352904
 20
763.122405
 42
-0.032594
  0
VERTEX
  8
0
 10
1536.387104
 20
760.425625
 42
-0.035089
  0
VERTEX
  8
0
 10
1537.031935
 20
757.682532
 42
-0.028202
  0
VERTEX
  8
0
 10
1537.374721
 20
754.409302
 42
-0.011989
  0
VERTEX
  8
0
 10
1537.480464
 20
750.000000
 42
-0.011989
  0
VERTEX
  8
0
 10
1537.374721
 20
745.590698
 42
-0.028202
  0
VERTEX
  8
0
 10
1537.031935
 20
742.317468
 42
-0.035089
  0
VERTEX
  8
0
 10
1536.387104
 20
739.574375
 42
-0.032594
  0
VERTEX
  8
0
 10
1535.352904
 20
736.877595
 42
-0.044190
  0
VERTEX
  8
0
 10
1532.633071
 20
732.123833
 42
-0.041079
  0
VERTEX
  8
0
 10
1529.059934
 20
727.795569
 42
-0.041115
  0
VERTEX
  8
0
 10
1524.830729
 20
724.113255
 42
-0.044457
  0
VERTEX
  8
0
 10
1520.160544
 20
721.279782
 42
-0.022092
  0
VERTEX
  8
0
 10
1516.793395
 20
719.807061
 42
-0.043601
  0
VERTEX
  8
0
 10
1513.991059
 20
718.998245
 42
-0.036790
  0
VERTEX
  8
0
 10
1510.796889
 20
718.612142
 42
-0.011687
  0
VERTEX
  8
0
 10
1506.000000
 20
718.500000
 42
-0.011687
  0
VERTEX
  8
0
 10
1501.203111
 20
718.612142
 42
-0.036790
  0
VERTEX
  8
0
 10
1498.008941
 20
718.998245
 42
-0.043601
  0
VERTEX
  8
0
 10
1495.206605
 20
719.807061
 42
-0.022092
  0
VERTEX
  8
0
 10
1491.839456
 20
721.279782
 42
-0.044501
  0
VERTEX
  8
0
 10
1487.160137
 20
724.119356
 42
-0.041285
  0
VERTEX
  8
0
 10
1482.928794
 20
727.807362
 42
-0.041336
  0
VERTEX
  8
0
 10
1479.365755
 20
732.135423
 42
-0.044881
  0
VERTEX
  8
0
 10
1476.673028
 20
736.877595
 42
-0.070365
  0
VERTEX
  8
0
 10
1475.000540
 20
742.560403
 42
-0.036145
  0
VERTEX
  8
0
 10
1474.454589
 20
749.978120
 42
-0.036151
  0
VERTEX
  8
0
 10
1474.982146
 20
757.389746
 42
-0.071008
  0
VERTEX
  8
0
 10
1476.641356
 20
763.050805
 42
-0.052374
  0
VERTEX
  8
0
 10
1480.204208
 20
769.110261
 42
-0.054837
  0
VERTEX
  8
0
 10
1484.900539
 20
774.194550
 42
-0.055243
  0
VERTEX
  8
0
 10
1490.555651
 20
778.105953
 42
-0.054637
  0
VERTEX
  8
0
 10
1496.950561
 20
780.701535
 42
-0.055643
  0
VERTEX
  8
0
 10
1502.455771
 20
781.619541
 42
-0.036610
  0
VERTEX
  8
0
 10
1508.883596
 20
781.496585
 42
-0.036537
  0
VERTEX
  8
0
 10
1515.246074
 20
780.434817
 42
-0.054207
  0
SEQEND
  0
POLYLINE
  8
0
 66
1
 70
1
  0
VERTEX
  8
0
 10
548.556488
 20
753.516165
 42
-0.047409
  0
VERTEX
  8
0
 10
553.018533
 20
750.781932
 42
-0.040410
  0
VERTEX
  8
0
 10
557.150343
 20
747.119259
 42
-0.040067
  0
VERTEX
  8
0
 10
560.674171
 20
742.802831
 42
-0.044487
  0
VERTEX
  8
0
 10
563.326972
 20
738.122405
 42
-0.032776
  0
VERTEX
  8
0
 10
564.342663
 20
735.433743
 42
-0.034228
  0
VERTEX
  8
0
 10
564.980835
 20
732.673853
 42
-0.027629
  0
VERTEX
  8
0
 10
565.322634
 20
729.385267
 42
-0.012080
  0
VERTEX
  8
0
 10
565.428601
 20
725.000000
 42
-0.012080
  0
VERTEX
  8
0
 10
565.322634
 20
720.614733
 42
-0.027629
  0
VERTEX
  8
0
 10
564.980835
 20
717.326147
 42
-0.034228
  0
VERTEX
  8
0
 10
564.342663
 20
714.566257
 42
-0.032776
  0
VERTEX
  8
0
 10
563.326972
 20
711.877595
 42
-0.044881
  0
VERTEX
  8
0
 10
560.634245
 20
707.135423
 42
-0.041336
  0
VERTEX
  8
0
 10
557.071206
 20
702.807362
 42
-0.041285
  0
VERTEX
  8
0
 10
552.839863
 20
699.119356
 42
-0.044501
  0
VERTEX
  8
0
 10
548.160544
 20
696.279782
 42
-0.022092
  0
VERTEX
  8
0
 10
544.793395
 20
694.807061
 42
-0.043601
  0
VERTEX
  8
0
 10
541.991059
 20
693.998245
 42
-0.036790
  0
VERTEX
  8
0
 10
538.796889
 20
693.612142
 42
-0.011687
  0
VERTEX
  8
0
 10
534.000000
 20
693.500000
 42
-0.011687
  0
VERTEX
  8
0
 10
529.203111
 20
693.612142
 42
-0.036790
  0
VERTEX
  8
0
 10
526.008941
 20
693.998245
 42
-0.043601
  0
VERTEX
  8
0
 10
523.206605
 20
694.807061
 42
-0.022092
  0
VERTEX
  8
0
 10
519.839456
 20
696.279782
 42
-0.044501
  0
VERTEX
  8
0
 10
515.160137
 20
699.119356
 42
-0.041285
  0
VERTEX
  8
0
 10
510.928794
 20
702.807362
 42
-0.041336
  0
VERTEX
  8
0
 10
507.365755
 20
707.135423
 42
-0.044881
  0
VERTEX
  8
0
 10
504.673028
 20
711.877595
 42
-0.070365
  0
VERTEX
  8
0
 10
503.000540
 20
717.560403
 42
-0.036145
  0
VERTEX
  8
0
 10
502.454589
 20
724.978120
 42
-0.036151
  0
VERTEX
  8
0
 10
502.982146
 20
732.389746
 42
-0.071008
  0
VERTEX
  8
0
 10
504.641356
 20
738.050805
 42
-0.052374
  0
VERTEX
  8
0
 10
508.204208
 20
744.110261
 42
-0.054837
  0
VERTEX
  8
0
 10
512.900539
 20
749.194550
 42
-0.055243
  0
VERTEX
  8
0
 10
518.555651
 20
753.105953
 42
-0.054637
  0
VERTEX
  8
0
 10
524.950561
 20
755.701535
 42
-0.055643
  0
VERTEX
  8
0
 10
530.455771
 20
756.619541
 42
-0.036610
  0
VERTEX
  8
0
 10
536.883596
 20
756.496585
 42
-0.036537
  0
VERTEX
  8
0
 10
543.246074
 20
755.434817
 42
-0.054207
  0
SEQEND
  0
POLYLINE
  8
0
 66
1
 70
1
  0
VERTEX
  8
0
 10
61.556488
 20
666.516165
 42
-0.047409
  0
VERTEX
  8
0
 10
66.018533
 20
663.781932
 42
-0.040410
  0
VERTEX
  8
0
 10
70.150343
 20
660.119259
 42
-0.040067
  0
VERTEX
  8
0
 10
73.674171
 20
655.802831
 42
-0.044487
  0
VERTEX
  8
0
 10
76.326972
 20
651.122405
 42
-0.070333
  0
VERTEX
  8
0
 10
78.005816
 20
645.419356
 42
-0.036480
  0
VERTEX
  8
0
 10
78.547855
 20
638.000000
 42
-0.036480
  0
VERTEX
  8
0
 10
78.005816
 20
630.580644
 42
-0.070333
  0
VERTEX
  8
0
 10
76.326972
 20
624.877595
 42
-0.044881
  0
VERTEX
  8
0
 10
73.634245
 20
620.135423
 42
-0.041336
  0
VERTEX
  8
0
 10
70.071206
 20
615.807362
 42
-0.041285
  0
VERTEX
  8
0
 10
65.839863
 20
612.119356
 42
-0.044501
  0
VERTEX
  8
0
 10
61.160544
 20
609.279782
 42
-0.022092
  0
VERTEX
  8
0
 10
57.793395
 20
607.807061
 42
-0.043601
  0
VERTEX
  8
0
 10
54.991059
 20
606.998245
 42
-0.036790
  0
VERTEX
  8
0
 10
51.796889
 20
606.612142
 42
-0.011687
  0
VERTEX
  8
0
 10
47.000000
 20
606.500000
 42
-0.011687
  0
VERTEX
  8
0
 10
42.203111
 20
606.612142
 42
-0.036790
  0
VERTEX
  8
0
 10
39.008941
 20
606.998245
 42
-0.043601
  0
VERTEX
  8
0
 10
36.206605
 20
607.807061
 42
-0.022092
  0
VERTEX
  8
0
 10
32.839456
 20
609.279782
 42
-0.132252
  0
VERTEX
  8
0
 10
20.570438
 20
620.028931
 42
-0.129062
  0
VERTEX
  8
0
 10
15.213284
 20
635.585408
 42
-0.128670
  0
VERTEX
  8
0
 10
18.181212
 20
651.804270
 42
-0.131056
  0
VERTEX
  8
0
 10
28.703808
 20
664.359437
 42
-0.075929
  0
VERTEX
  8
0
 10
36.009576
 20
667.988650
 42
-0.061058
  0
VERTEX
  8
0
 10
44.639096
 20
669.626089
 42
-0.060326
  0
VERTEX
  8
0
 10
53.517685
 20
669.137703
 42
-0.070003
  0
SEQEND
  0
POLYLINE
  8
0
 66
1
 70
1
  0
VERTEX
  8
0
 10
507.556488
 20
622.516165
 42
-0.047409
  0
VERTEX
  8
0
 10
512.018533
 20
619.781932
 42
-0.040410
  0
VERTEX
  8
0
 10
516.150343
 20
616.119259
 42
-0.040067
  0
VERTEX
  8
0
 10
519.674171
 20
611.802831
 42
-0.044487
  0
VERTEX
  8
0
 10
522.326972
 20
607.122405
 42
-0.032776
  0
VERTEX
  8
0
 10
523.342663
 20
604.433743
 42
-0.034228
  0
VERTEX
  8
0
 10
523.980835
 20
601.673853
 42
-0.027629
  0
VERTEX
  8
0
 10
524.322634
 20
598.385267
 42
-0.012080
  0
VERTEX
  8
0
 10
524.428601
 20
594.000000
 42
-0.012080
  0
VERTEX
  8
0
 10
524.322634
 20
589.614733
 42
-0.027629
  0
VERTEX
  8
0
 10
523.980835
 20
586.326147
 42
-0.034228
  0
VERTEX
  8
0
 10
523.342663
 20
583.566257
 42
-0.032776
  0
VERTEX
  8
0
 10
522.326972
 20
580.877595
 42
-0.044881
  0
VERTEX
  8
0
 10
519.634245
 20
576.135423
 42
-0.041336
  0
VERTEX
  8
0
 10
516.071206
 20
571.807362
 42
-0.041285
  0
VERTEX
  8
0
 10
511.839863
 20
568.119356
 42
-0.044501
  0
VERTEX
  8
0
 10
507.160544
 20
565.279782
 42
-0.022092
  0
VERTEX
  8
0
 10
503.793395
 20
563.807061
 42
-0.043601
  0
VERTEX
  8
0
 10
500.991059
 20
562.998245
 42
-0.036790
  0
VERTEX
  8
0
 10
497.796889
 20
562.612142
 42
-0.011687
  0
VERTEX
  8
0
 10
493.000000
 20
562.500000
 42
-0.011687
  0
VERTEX
  8
0
 10
488.203111
 20
562.612142
 42
-0.036790
  0
VERTEX
  8
0
 10
485.008941
 20
562.998245
 42
-0.043601
  0
VERTEX
  8
0
 10
482.206605
 20
563.807061
 42
-0.022092
  0
VERTEX
  8
0
 10
478.839456
 20
565.279782
 42
-0.044501
  0
VERTEX
  8
0
 10
474.160137
 20
568.119356
 42
-0.041285
  0
VERTEX
  8
0
 10
469.928794
 20
571.807362
 42
-0.041336
  0
VERTEX
  8
0
 10
466.365755
 20
576.135423
 42
-0.044881
  0
VERTEX
  8
0
 10
463.673028
 20
580.877595
 42
-0.070365
  0
VERTEX
  8
0
 10
462.000540
 20
586.560403
 42
-0.036145
  0
VERTEX
  8
0
 10
461.454589
 20
593.978120
 42
-0.036151
  0
VERTEX
  8
0
 10
461.982146
 20
601.389746
 42
-0.071008
  0
VERTEX
  8
0
 10
463.641356
 20
607.050805
 42
-0.052374
  0
VERTEX
  8
0
 10
467.204208
 20
613.110261
 42
-0.054837
  0
VERTEX
  8
0
 10
471.900539
 20
618.194550
 42
-0.055243
  0
VERTEX
  8
0
 10
477.555651
 20
622.105953
 42
-0.054637
  0
VERTEX
  8
0
 10
483.950561
 20
624.701535
 42
-0.055643
  0
VERTEX
  8
0
 10
489.455771
 20
625.619541
 42
-0.036610
  0
VERTEX
  8
0
 10
495.883596
 20
625.496585
 42
-0.036537
  0
VERTEX
  8
0
 10
502.246074
 20
624.434817
 42
-0.054207
  0
SEQEND
  0
POLYLINE
  8
0
 66
1
 70
1
  0
VERTEX
  8
0
 10
1096.556488
 20
603.516165
 42
-0.047409
  0
VERTEX
  8
0
 10
1101.018533
 20
600.781932
 42
-0.040410
  0
VERTEX
  8
0
 10
1105.150343
 20
597.119259
 42
-0.040067
  0
VERTEX
  8
0
 10
1108.674171
 20
592.802831
 42
-0.044487
  0
VERTEX
  8
0
 10
1111.326972
 20
588.122405
 42
-0.070333
  0
VERTEX
  8
0
 10
1113.005816
 20
582.419356
 42
-0.036480
  0
VERTEX
  8
0
 10
1113.547855
 20
575.000000
 42
-0.036480
  0
VERTEX
  8
0
 10
1113.005816
 20
567.580644
 42
-0.070333
  0
VERTEX
  8
0
 10
1111.326972
 20
561.877595
 42
-0.044881
  0
VERTEX
  8
0
 10
1108.634245
 20
557.135423
 42
-0.041336
  0
VERTEX
  8
0
 10
1105.071206
 20
552.807362
 42
-0.041285
  0
VERTEX
  8
0
 10
1100.839863
 20
549.119356
 42
-0.044501
  0
VERTEX
  8
0
 10
1096.160544
 20
546.279782
 42
-0.022092
  0
VERTEX
  8
0
 10
1092.793395
 20
544.807061
 42
-0.043601
  0
VERTEX
  8
0
 10
1089.991059
 20
543.998245
 42
-0.036790
  0
VERTEX
  8
0
 10
1086.796889
 20
543.612142
 42
-0.011687
  0
VERTEX
  8
0
 10
1082.000000
 20
543.500000
 42
-0.011687
  0
VERTEX
  8
0
 10
1077.203111
 20
543.612142
 42
-0.036790
  0
VERTEX
  8
0
 10
1074.008941
 20
543.998245
 42
-0.043601
  0
VERTEX
  8
0
 10
1071.206605
 20
544.807061
 42
-0.022092
  0
VERTEX
  8
0
 10
1067.839456
 20
546.279782
 42
-0.044501
  0
VERTEX
  8
0
 10
1063.160137
 20
549.119356
 42
-0.041285
  0
VERTEX
  8
0
 10
1058.928794
 20
552.807362
 42
-0.041336
  0
VERTEX
  8
0
 10
1055.365755
 20
557.135423
 42
-0.044881
  0
VERTEX
  8
0
 10
1052.673028
 20
561.877595
 42
-0.070365
  0
VERTEX
  8
0
 10
1051.000540
 20
567.560403
 42
-0.036145
  0
VERTEX
  8
0
 10
1050.454589
 20
574.978120
 42
-0.036151
  0
VERTEX
  8
0
 10
1050.982146
 20
582.389746
 42
-0.071008
  0
VERTEX
  8
0
 10
1052.641356
 20
588.050805
 42
-0.052374
  0
VERTEX
  8
0
 10
1056.204208
 20
594.110261
 42
-0.054837
  0
VERTEX
  8
0
 10
1060.900539
 20
599.194550
 42
-0.055243
  0
VERTEX
  8
0
 10
1066.555651
 20
603.105953
 42
-0.054637
  0
VERTEX
  8
0
 10
1072.950561
 20
605.701535
 42
-0.055643
  0
VERTEX
  8
0
 10
1078.455771
 20
606.619541
 42
-0.036610
  0
VERTEX
  8
0
 10
1084.883596
 20
606.496585
 42
-0.036537
  0
VERTEX
  8
0
 10
1091.246074
 20
605.434817
 42
-0.054207
  0
SEQEND
  0
ENDSEC
  0
EOF
